<svg width="315" height="250" viewBox="0 0 315 250" fill="none" xmlns="http://www.w3.org/2000/svg">
<path d="M61.2875 52.4V191H29.2115V78.14H1.49147V52.4H61.2875ZM193.869 52.4V73.19L142.389 191H107.541L157.239 78.536H111.303V101.108H82.7906V52.4H193.869ZM252.381 104.474C271.917 104.474 286.305 108.368 295.545 116.156C304.917 123.944 309.603 134.372 309.603 147.44C309.603 155.888 307.491 163.61 303.267 170.606C299.043 177.47 292.575 183.014 283.863 187.238C275.283 191.33 264.657 193.376 251.985 193.376C242.217 193.376 232.581 192.122 223.077 189.614C213.705 186.974 205.719 183.278 199.119 178.526L211.791 153.974C217.071 157.934 223.143 161.036 230.007 163.28C236.871 165.392 243.933 166.448 251.193 166.448C259.245 166.448 265.581 164.864 270.201 161.696C274.821 158.528 277.131 154.106 277.131 148.43C277.131 142.49 274.689 138.002 269.805 134.966C265.053 131.93 256.737 130.412 244.857 130.412H209.415L216.543 52.4H301.089V78.14H243.273L241.095 104.474H252.381Z" fill="#FFA224"/>
<path d="M61.2875 52.4H66.2875V47.4H61.2875V52.4ZM61.2875 191V196H66.2875V191H61.2875ZM29.2115 191H24.2115V196H29.2115V191ZM29.2115 78.14H34.2115V73.14H29.2115V78.14ZM1.49147 78.14H-3.50853V83.14H1.49147V78.14ZM1.49147 52.4V47.4H-3.50853V52.4H1.49147ZM56.2875 52.4V191H66.2875V52.4H56.2875ZM61.2875 186H29.2115V196H61.2875V186ZM34.2115 191V78.14H24.2115V191H34.2115ZM29.2115 73.14H1.49147V83.14H29.2115V73.14ZM6.49147 78.14V52.4H-3.50853V78.14H6.49147ZM1.49147 57.4H61.2875V47.4H1.49147V57.4ZM193.869 52.4H198.869V47.4H193.869V52.4ZM193.869 73.19L198.45 75.1921L198.869 74.2347V73.19H193.869ZM142.389 191V196H145.66L146.97 193.002L142.389 191ZM107.541 191L102.967 188.979L99.8646 196H107.541V191ZM157.239 78.536L161.812 80.557L164.915 73.536H157.239V78.536ZM111.303 78.536V73.536H106.303V78.536H111.303ZM111.303 101.108V106.108H116.303V101.108H111.303ZM82.7906 101.108H77.7906V106.108H82.7906V101.108ZM82.7906 52.4V47.4H77.7906V52.4H82.7906ZM188.869 52.4V73.19H198.869V52.4H188.869ZM189.287 71.1879L137.807 188.998L146.97 193.002L198.45 75.1921L189.287 71.1879ZM142.389 186H107.541V196H142.389V186ZM112.114 193.021L161.812 80.557L152.665 76.515L102.967 188.979L112.114 193.021ZM157.239 73.536H111.303V83.536H157.239V73.536ZM106.303 78.536V101.108H116.303V78.536H106.303ZM111.303 96.108H82.7906V106.108H111.303V96.108ZM87.7906 101.108V52.4H77.7906V101.108H87.7906ZM82.7906 57.4H193.869V47.4H82.7906V57.4ZM295.545 116.156L292.322 119.979L292.336 119.99L292.349 120.002L295.545 116.156ZM303.267 170.606L307.525 173.226L307.536 173.208L307.547 173.19L303.267 170.606ZM283.863 187.238L286.015 191.751L286.03 191.744L286.044 191.737L283.863 187.238ZM223.077 189.614L221.721 194.427L221.761 194.438L221.801 194.449L223.077 189.614ZM199.119 178.526L194.676 176.233L192.698 180.064L196.197 182.584L199.119 178.526ZM211.791 153.974L214.791 149.974L210.06 146.426L207.348 151.681L211.791 153.974ZM230.007 163.28L228.453 168.032L228.494 168.046L228.536 168.059L230.007 163.28ZM270.201 161.696L273.028 165.82L273.028 165.82L270.201 161.696ZM269.805 134.966L267.113 139.179L267.139 139.196L267.165 139.212L269.805 134.966ZM209.415 130.412L204.435 129.957L203.937 135.412H209.415V130.412ZM216.543 52.4V47.4H211.979L211.563 51.945L216.543 52.4ZM301.089 52.4H306.089V47.4H301.089V52.4ZM301.089 78.14V83.14H306.089V78.14H301.089ZM243.273 78.14V73.14H238.669L238.29 77.7279L243.273 78.14ZM241.095 104.474L236.112 104.062L235.664 109.474H241.095V104.474ZM252.381 109.474C271.418 109.474 284.395 113.297 292.322 119.979L298.767 112.333C288.215 103.439 272.416 99.474 252.381 99.474V109.474ZM292.349 120.002C300.487 126.764 304.603 135.735 304.603 147.44H314.603C314.603 133.009 309.347 121.124 298.74 112.31L292.349 120.002ZM304.603 147.44C304.603 155.009 302.723 161.833 298.986 168.022L307.547 173.19C312.258 165.387 314.603 156.767 314.603 147.44H304.603ZM299.008 167.986C295.376 173.888 289.71 178.846 281.681 182.739L286.044 191.737C295.439 187.182 302.709 181.052 307.525 173.226L299.008 167.986ZM281.71 182.725C273.988 186.408 264.148 188.376 251.985 188.376V198.376C265.165 198.376 276.578 196.252 286.015 191.751L281.71 182.725ZM251.985 188.376C242.65 188.376 233.443 187.178 224.352 184.779L221.801 194.449C231.719 197.066 241.783 198.376 251.985 198.376V188.376ZM224.432 184.801C215.515 182.289 208.083 178.819 202.04 174.468L196.197 182.584C203.354 187.737 211.895 191.659 221.721 194.427L224.432 184.801ZM203.562 180.819L216.234 156.267L207.348 151.681L194.676 176.233L203.562 180.819ZM208.791 157.974C214.548 162.292 221.118 165.634 228.453 168.032L231.56 158.528C225.168 156.438 219.594 153.576 214.791 149.974L208.791 157.974ZM228.536 168.059C235.882 170.319 243.44 171.448 251.193 171.448V161.448C244.426 161.448 237.859 160.465 231.477 158.501L228.536 168.059ZM251.193 171.448C259.832 171.448 267.285 169.758 273.028 165.82L267.373 157.572C263.876 159.97 258.658 161.448 251.193 161.448V171.448ZM273.028 165.82C279.029 161.705 282.131 155.728 282.131 148.43H272.131C272.131 152.484 270.612 155.351 267.373 157.572L273.028 165.82ZM282.131 148.43C282.131 140.831 278.854 134.704 272.444 130.72L267.165 139.212C270.523 141.3 272.131 144.149 272.131 148.43H282.131ZM272.497 130.753C266.442 126.885 256.844 125.412 244.857 125.412V135.412C256.629 135.412 263.663 136.975 267.113 139.179L272.497 130.753ZM244.857 125.412H209.415V135.412H244.857V125.412ZM214.394 130.867L221.522 52.8549L211.563 51.945L204.435 129.957L214.394 130.867ZM216.543 57.4H301.089V47.4H216.543V57.4ZM296.089 52.4V78.14H306.089V52.4H296.089ZM301.089 73.14H243.273V83.14H301.089V73.14ZM238.29 77.7279L236.112 104.062L246.078 104.886L248.256 78.5521L238.29 77.7279ZM241.095 109.474H252.381V99.474H241.095V109.474Z" fill="black"/>
<path d="M19.7685 211.3H8.57551V240H12.6755V231.308H19.7685C27.2305 231.308 31.7405 227.536 31.7405 221.304C31.7405 215.072 27.2305 211.3 19.7685 211.3ZM19.6455 227.741H12.6755V214.867H19.6455C24.8935 214.867 27.6405 217.204 27.6405 221.304C27.6405 225.404 24.8935 227.741 19.6455 227.741ZM57.7656 240H62.0706L49.0326 211.3H44.9736L31.9766 240H36.1996L39.3566 232.825H54.6086L57.7656 240ZM40.7916 229.545L46.9826 215.482L53.1736 229.545H40.7916ZM90.0089 240L83.2029 230.365C87.2209 228.93 89.5169 225.732 89.5169 221.304C89.5169 215.072 85.0069 211.3 77.5449 211.3H66.3519V240H70.4519V231.267H77.5449C78.1599 231.267 78.7749 231.226 79.3489 231.185L85.5399 240H90.0089ZM77.4219 227.782H70.4519V214.867H77.4219C82.6699 214.867 85.4169 217.204 85.4169 221.304C85.4169 225.404 82.6699 227.782 77.4219 227.782ZM101.44 240H105.499V214.867H115.339V211.3H91.5995V214.867H101.44V240ZM119.804 240H123.904V211.3H119.804V240ZM145.329 240.328C149.798 240.328 153.652 238.77 156.276 235.818L153.611 233.235C151.397 235.572 148.691 236.679 145.534 236.679C139.056 236.679 134.259 232.005 134.259 225.65C134.259 219.295 139.056 214.621 145.534 214.621C148.691 214.621 151.397 215.687 153.611 218.024L156.276 215.441C153.652 212.489 149.798 210.972 145.37 210.972C136.637 210.972 130.159 217.163 130.159 225.65C130.159 234.137 136.637 240.328 145.329 240.328ZM162.125 240H166.225V211.3H162.125V240ZM186.011 211.3H174.818V240H178.918V231.308H186.011C193.473 231.308 197.983 227.536 197.983 221.304C197.983 215.072 193.473 211.3 186.011 211.3ZM185.888 227.741H178.918V214.867H185.888C191.136 214.867 193.883 217.204 193.883 221.304C193.883 225.404 191.136 227.741 185.888 227.741ZM224.008 240H228.313L215.275 211.3H211.216L198.219 240H202.442L205.599 232.825H220.851L224.008 240ZM207.034 229.545L213.225 215.482L219.416 229.545H207.034ZM253.176 211.3V232.702L235.956 211.3H232.594V240H236.694V218.598L253.914 240H257.276V211.3H253.176ZM271.566 240H275.625V214.867H285.465V211.3H261.726V214.867H271.566V240ZM297.934 240.328C305.519 240.328 309.045 236.556 309.045 232.169C309.045 221.632 291.661 226.019 291.661 219.008C291.661 216.507 293.752 214.457 298.631 214.457C301.173 214.457 304.002 215.195 306.503 216.794L307.856 213.514C305.478 211.874 301.993 210.972 298.631 210.972C291.087 210.972 287.643 214.744 287.643 219.172C287.643 229.832 305.027 225.404 305.027 232.415C305.027 234.916 302.895 236.843 297.934 236.843C294.244 236.843 290.595 235.449 288.463 233.522L286.946 236.72C289.242 238.852 293.547 240.328 297.934 240.328Z" fill="#263238"/>
<path d="M164.5 135H134L144.5 112L173.5 114.5L164.5 135Z" fill="black"/>
<path d="M149.5 168.5H119L129.5 145.5L158.5 148L149.5 168.5Z" fill="black"/>
</svg>
