<svg width="360" height="241" viewBox="0 0 360 241" fill="none" xmlns="http://www.w3.org/2000/svg">
<path d="M106.784 164.864L138.662 134.768C158.066 116.75 161.828 104.474 161.828 91.01C161.828 65.864 141.236 50.024 110.348 50.024C85.4004 50.024 65.9964 60.122 55.3044 75.764L78.6684 90.812C85.4004 81.506 95.4984 76.952 107.378 76.952C122.03 76.952 129.554 83.288 129.554 94.178C129.554 100.91 127.376 108.038 115.1 119.72L61.6404 170.21V191H166.382V164.864H106.784ZM238.631 193.376C272.885 193.376 298.031 167.438 298.031 121.7C298.031 75.962 272.885 50.024 238.631 50.024C204.575 50.024 179.231 75.962 179.231 121.7C179.231 167.438 204.575 193.376 238.631 193.376ZM238.631 166.25C222.791 166.25 211.703 153.182 211.703 121.7C211.703 90.218 222.791 77.15 238.631 77.15C254.669 77.15 265.757 90.218 265.757 121.7C265.757 153.182 254.669 166.25 238.631 166.25Z" fill="#FFA224"/>
<path d="M106.784 164.864L103.352 161.228L94.205 169.864H106.784V164.864ZM138.662 134.768L135.26 131.104L135.245 131.118L135.23 131.132L138.662 134.768ZM55.3044 75.764L51.1766 72.9425L48.2767 77.185L52.5971 79.9676L55.3044 75.764ZM78.6684 90.812L75.9611 95.0156L79.9433 97.5804L82.7196 93.7426L78.6684 90.812ZM115.1 119.72L118.534 123.355L118.54 123.349L118.547 123.342L115.1 119.72ZM61.6404 170.21L58.2073 166.575L56.6404 168.055V170.21H61.6404ZM61.6404 191H56.6404V196H61.6404V191ZM166.382 191V196H171.382V191H166.382ZM166.382 164.864H171.382V159.864H166.382V164.864ZM110.217 168.5L142.095 138.404L135.23 131.132L103.352 161.228L110.217 168.5ZM142.065 138.432C152.041 129.169 158.3 121.105 162.029 113.347C165.8 105.498 166.828 98.2787 166.828 91.01H156.828C156.828 97.2053 155.975 102.856 153.015 109.016C150.012 115.266 144.688 122.349 135.26 131.104L142.065 138.432ZM166.828 91.01C166.828 76.9322 160.999 65.2286 150.767 57.1609C140.653 49.186 126.593 45.024 110.348 45.024V55.024C124.991 55.024 136.672 58.782 144.576 65.0136C152.362 71.1524 156.828 79.9418 156.828 91.01H166.828ZM110.348 45.024C84.0375 45.024 62.9521 55.7154 51.1766 72.9425L59.4323 78.5855C69.0408 64.5286 86.7634 55.024 110.348 55.024V45.024ZM52.5971 79.9676L75.9611 95.0156L81.3758 86.6084L58.0118 71.5604L52.5971 79.9676ZM82.7196 93.7426C88.3868 85.9085 96.8775 81.952 107.378 81.952V71.952C94.1194 71.952 82.4141 77.1034 74.6173 87.8814L82.7196 93.7426ZM107.378 81.952C114.084 81.952 118.354 83.4155 120.853 85.3983C123.17 87.2361 124.554 89.9834 124.554 94.178H134.554C134.554 87.4826 132.177 81.6169 127.068 77.5642C122.143 73.6565 115.325 71.952 107.378 71.952V81.952ZM124.554 94.178C124.554 96.888 124.141 99.5525 122.475 102.824C120.746 106.22 117.562 110.476 111.654 116.098L118.547 123.342C124.915 117.282 128.958 112.133 131.387 107.361C133.879 102.466 134.554 98.2 134.554 94.178H124.554ZM111.667 116.085L58.2073 166.575L65.0736 173.845L118.534 123.355L111.667 116.085ZM56.6404 170.21V191H66.6404V170.21H56.6404ZM61.6404 196H166.382V186H61.6404V196ZM171.382 191V164.864H161.382V191H171.382ZM166.382 159.864H106.784V169.864H166.382V159.864ZM238.631 198.376C257.095 198.376 273.366 191.344 284.956 177.963C296.493 164.642 303.031 145.46 303.031 121.7H293.031C293.031 143.678 286.995 160.334 277.397 171.416C267.85 182.439 254.421 188.376 238.631 188.376V198.376ZM303.031 121.7C303.031 97.9397 296.493 78.7578 284.956 65.4368C273.366 52.0556 257.095 45.024 238.631 45.024V55.024C254.421 55.024 267.85 60.9614 277.397 71.9837C286.995 83.0662 293.031 99.7223 293.031 121.7H303.031ZM238.631 45.024C220.26 45.024 203.994 52.0596 192.384 65.4324C180.823 78.7491 174.231 97.9299 174.231 121.7H184.231C184.231 99.7321 190.31 83.0749 199.935 71.9881C209.512 60.9574 222.946 55.024 238.631 55.024V45.024ZM174.231 121.7C174.231 145.47 180.823 164.651 192.384 177.968C203.994 191.34 220.26 198.376 238.631 198.376V188.376C222.946 188.376 209.512 182.443 199.935 171.412C190.31 160.325 184.231 143.668 184.231 121.7H174.231ZM238.631 161.25C232.315 161.25 227.186 158.765 223.4 153.027C219.418 146.991 216.703 136.986 216.703 121.7H206.703C206.703 137.896 209.532 150.166 215.053 158.534C220.772 167.201 229.106 171.25 238.631 171.25V161.25ZM216.703 121.7C216.703 106.414 219.418 96.4091 223.4 90.3729C227.186 84.635 232.315 82.15 238.631 82.15V72.15C229.106 72.15 220.772 76.199 215.053 84.8656C209.532 93.2339 206.703 105.504 206.703 121.7H216.703ZM238.631 82.15C245.067 82.15 250.241 84.6532 254.041 90.3828C258.041 96.4142 260.757 106.412 260.757 121.7H270.757C270.757 105.506 267.928 93.2288 262.375 84.8557C256.621 76.1808 248.233 72.15 238.631 72.15V82.15ZM260.757 121.7C260.757 136.988 258.041 146.986 254.041 153.017C250.241 158.747 245.067 161.25 238.631 161.25V171.25C248.233 171.25 256.621 167.219 262.375 158.544C267.928 150.171 270.757 137.894 270.757 121.7H260.757Z" fill="black" stroke-width='0px'/>
<path d="M238.4 193.352C272.654 193.352 297.8 167.414 297.8 121.676C297.8 75.938 272.654 50 238.4 50C204.344 50 179 75.938 179 121.676C179 167.414 204.344 193.352 238.4 193.352ZM238.4 166.226C222.56 166.226 211.472 153.158 211.472 121.676C211.472 90.194 222.56 77.126 238.4 77.126C254.438 77.126 265.526 90.194 265.526 121.676C265.526 153.158 254.438 166.226 238.4 166.226Z" fill="#019271" stroke-width='0px'/>
<path d="M22.3764 227.651C23.6414 227.03 24.5384 225.811 24.5384 224.063C24.5384 221.464 22.4684 219.9 18.7654 219.9H11.5434V236H19.2254C23.2964 236 25.3894 234.413 25.3894 231.653C25.3894 229.514 24.1934 228.157 22.3764 227.651ZM18.5584 221.763C20.9044 221.763 22.2384 222.637 22.2384 224.339C22.2384 226.041 20.9044 226.915 18.5584 226.915H13.8434V221.763H18.5584ZM19.1334 234.137H13.8434V228.778H19.1334C21.6864 228.778 23.0664 229.606 23.0664 231.469C23.0664 233.332 21.6864 234.137 19.1334 234.137ZM30.7446 225.857V223.81H28.6286V236H30.8366V229.928C30.8366 227.26 32.3086 225.811 34.6776 225.811C34.8386 225.811 34.9996 225.811 35.1836 225.834V223.695C33.0446 223.695 31.5266 224.431 30.7446 225.857ZM42.3216 223.695C40.3666 223.695 38.5496 224.247 37.2846 225.259L38.2046 226.915C39.1476 226.11 40.6196 225.604 42.0686 225.604C44.2536 225.604 45.3346 226.685 45.3346 228.548V228.985H41.8386C38.2046 228.985 36.9396 230.595 36.9396 232.55C36.9396 234.666 38.6876 236.138 41.4476 236.138C43.3566 236.138 44.7136 235.494 45.4496 234.39V236H47.5426V228.64C47.5426 225.305 45.6566 223.695 42.3216 223.695ZM41.8156 234.436C40.1366 234.436 39.1246 233.677 39.1246 232.458C39.1246 231.423 39.7456 230.572 41.9306 230.572H45.3346V232.274C44.7826 233.677 43.4716 234.436 41.8156 234.436ZM53.2846 234.183L60.4836 225.259V223.81H50.5936V225.627H57.6546L50.4556 234.574V236H60.6676V234.183H53.2846ZM64.7268 221.464C65.6008 221.464 66.2218 220.82 66.2218 219.992C66.2218 219.21 65.5778 218.589 64.7268 218.589C63.8758 218.589 63.2318 219.233 63.2318 220.038C63.2318 220.843 63.8758 221.464 64.7268 221.464ZM63.6228 236H65.8308V223.81H63.6228V236ZM70.0466 236H72.2546V218.934H70.0466V236ZM77.5744 221.464C78.4484 221.464 79.0694 220.82 79.0694 219.992C79.0694 219.21 78.4254 218.589 77.5744 218.589C76.7234 218.589 76.0794 219.233 76.0794 220.038C76.0794 220.843 76.7234 221.464 77.5744 221.464ZM76.4704 236H78.6784V223.81H76.4704V236ZM87.3333 223.695C85.3783 223.695 83.5613 224.247 82.2963 225.259L83.2163 226.915C84.1593 226.11 85.6313 225.604 87.0803 225.604C89.2653 225.604 90.3463 226.685 90.3463 228.548V228.985H86.8503C83.2163 228.985 81.9513 230.595 81.9513 232.55C81.9513 234.666 83.6993 236.138 86.4593 236.138C88.3683 236.138 89.7253 235.494 90.4613 234.39V236H92.5543V228.64C92.5543 225.305 90.6683 223.695 87.3333 223.695ZM86.8273 234.436C85.1483 234.436 84.1363 233.677 84.1363 232.458C84.1363 231.423 84.7573 230.572 86.9423 230.572H90.3463V232.274C89.7943 233.677 88.4833 234.436 86.8273 234.436ZM103.149 223.695C101.217 223.695 99.6534 224.408 98.7564 225.65V223.81H96.6404V236H98.8484V229.721C98.8484 227.076 100.366 225.673 102.712 225.673C104.805 225.673 106.001 226.846 106.001 229.238V236H108.209V228.985C108.209 225.397 106.116 223.695 103.149 223.695ZM123.486 236.184C127.741 236.184 129.719 234.068 129.719 231.607C129.719 225.696 119.967 228.157 119.967 224.224C119.967 222.821 121.14 221.671 123.877 221.671C125.303 221.671 126.89 222.085 128.293 222.982L129.052 221.142C127.718 220.222 125.763 219.716 123.877 219.716C119.645 219.716 117.713 221.832 117.713 224.316C117.713 230.296 127.465 227.812 127.465 231.745C127.465 233.148 126.269 234.229 123.486 234.229C121.416 234.229 119.369 233.447 118.173 232.366L117.322 234.16C118.61 235.356 121.025 236.184 123.486 236.184ZM138.922 233.7C138.462 234.068 137.841 234.275 137.197 234.275C135.978 234.275 135.288 233.539 135.288 232.228V225.627H138.784V223.81H135.288V221.142H133.08V223.81H131.01V225.627H133.08V232.32C133.08 234.781 134.483 236.138 136.944 236.138C137.933 236.138 138.945 235.862 139.612 235.287L138.922 233.7ZM146.72 223.695C144.765 223.695 142.948 224.247 141.683 225.259L142.603 226.915C143.546 226.11 145.018 225.604 146.467 225.604C148.652 225.604 149.733 226.685 149.733 228.548V228.985H146.237C142.603 228.985 141.338 230.595 141.338 232.55C141.338 234.666 143.086 236.138 145.846 236.138C147.755 236.138 149.112 235.494 149.848 234.39V236H151.941V228.64C151.941 225.305 150.055 223.695 146.72 223.695ZM146.214 234.436C144.535 234.436 143.523 233.677 143.523 232.458C143.523 231.423 144.144 230.572 146.329 230.572H149.733V232.274C149.181 233.677 147.87 234.436 146.214 234.436ZM162.191 233.7C161.731 234.068 161.11 234.275 160.466 234.275C159.247 234.275 158.557 233.539 158.557 232.228V225.627H162.053V223.81H158.557V221.142H156.349V223.81H154.279V225.627H156.349V232.32C156.349 234.781 157.752 236.138 160.213 236.138C161.202 236.138 162.214 235.862 162.881 235.287L162.191 233.7ZM176.163 229.974C176.163 226.225 173.656 223.695 170.137 223.695C166.618 223.695 164.019 226.294 164.019 229.905C164.019 233.539 166.641 236.138 170.574 236.138C172.598 236.138 174.277 235.448 175.381 234.16L174.162 232.734C173.265 233.723 172.069 234.206 170.643 234.206C168.228 234.206 166.503 232.78 166.227 230.641H176.117C176.14 230.434 176.163 230.158 176.163 229.974ZM170.137 225.558C172.276 225.558 173.817 227.007 174.047 229.054H166.227C166.457 226.984 168.021 225.558 170.137 225.558ZM182.725 236.138C185.968 236.138 187.992 234.735 187.992 232.527C187.992 227.789 180.264 230.135 180.264 227.26C180.264 226.294 181.207 225.581 183.139 225.581C184.335 225.581 185.554 225.834 186.658 226.547L187.601 224.799C186.543 224.109 184.749 223.695 183.162 223.695C180.034 223.695 178.079 225.167 178.079 227.352C178.079 232.205 185.784 229.836 185.784 232.573C185.784 233.608 184.933 234.229 182.886 234.229C181.299 234.229 179.643 233.7 178.608 232.964L177.688 234.712C178.7 235.517 180.701 236.138 182.725 236.138ZM210.521 236L206.703 230.595C208.957 229.79 210.245 227.996 210.245 225.512C210.245 222.016 207.715 219.9 203.529 219.9H197.25V236H199.55V231.101H203.529C203.874 231.101 204.219 231.078 204.541 231.055L208.014 236H210.521ZM203.46 229.146H199.55V221.901H203.46C206.404 221.901 207.945 223.212 207.945 225.512C207.945 227.812 206.404 229.146 203.46 229.146ZM224.656 229.974C224.656 226.225 222.149 223.695 218.63 223.695C215.111 223.695 212.512 226.294 212.512 229.905C212.512 233.539 215.134 236.138 219.067 236.138C221.091 236.138 222.77 235.448 223.874 234.16L222.655 232.734C221.758 233.723 220.562 234.206 219.136 234.206C216.721 234.206 214.996 232.78 214.72 230.641H224.61C224.633 230.434 224.656 230.158 224.656 229.974ZM218.63 225.558C220.769 225.558 222.31 227.007 222.54 229.054H214.72C214.95 226.984 216.514 225.558 218.63 225.558ZM234.185 223.695C232.391 223.695 230.827 224.385 229.838 225.742V223.81H227.722V240.462H229.93V234.16C230.942 235.471 232.46 236.138 234.185 236.138C237.75 236.138 240.349 233.654 240.349 229.905C240.349 226.179 237.75 223.695 234.185 223.695ZM234.001 234.206C231.678 234.206 229.907 232.504 229.907 229.905C229.907 227.329 231.678 225.627 234.001 225.627C236.347 225.627 238.118 227.329 238.118 229.905C238.118 232.504 236.347 234.206 234.001 234.206ZM245.516 225.857V223.81H243.4V236H245.608V229.928C245.608 227.26 247.08 225.811 249.449 225.811C249.61 225.811 249.771 225.811 249.955 225.834V223.695C247.816 223.695 246.298 224.431 245.516 225.857ZM263.581 229.974C263.581 226.225 261.074 223.695 257.555 223.695C254.036 223.695 251.437 226.294 251.437 229.905C251.437 233.539 254.059 236.138 257.992 236.138C260.016 236.138 261.695 235.448 262.799 234.16L261.58 232.734C260.683 233.723 259.487 234.206 258.061 234.206C255.646 234.206 253.921 232.78 253.645 230.641H263.535C263.558 230.434 263.581 230.158 263.581 229.974ZM257.555 225.558C259.694 225.558 261.235 227.007 261.465 229.054H253.645C253.875 226.984 255.439 225.558 257.555 225.558ZM270.143 236.138C273.386 236.138 275.41 234.735 275.41 232.527C275.41 227.789 267.682 230.135 267.682 227.26C267.682 226.294 268.625 225.581 270.557 225.581C271.753 225.581 272.972 225.834 274.076 226.547L275.019 224.799C273.961 224.109 272.167 223.695 270.58 223.695C267.452 223.695 265.497 225.167 265.497 227.352C265.497 232.205 273.202 229.836 273.202 232.573C273.202 233.608 272.351 234.229 270.304 234.229C268.717 234.229 267.061 233.7 266.026 232.964L265.106 234.712C266.118 235.517 268.119 236.138 270.143 236.138ZM289.187 229.974C289.187 226.225 286.68 223.695 283.161 223.695C279.642 223.695 277.043 226.294 277.043 229.905C277.043 233.539 279.665 236.138 283.598 236.138C285.622 236.138 287.301 235.448 288.405 234.16L287.186 232.734C286.289 233.723 285.093 234.206 283.667 234.206C281.252 234.206 279.527 232.78 279.251 230.641H289.141C289.164 230.434 289.187 230.158 289.187 229.974ZM283.161 225.558C285.3 225.558 286.841 227.007 287.071 229.054H279.251C279.481 226.984 281.045 225.558 283.161 225.558ZM298.762 223.695C296.83 223.695 295.266 224.408 294.369 225.65V223.81H292.253V236H294.461V229.721C294.461 227.076 295.979 225.673 298.325 225.673C300.418 225.673 301.614 226.846 301.614 229.238V236H303.822V228.985C303.822 225.397 301.729 223.695 298.762 223.695ZM314.072 233.7C313.612 234.068 312.991 234.275 312.347 234.275C311.128 234.275 310.438 233.539 310.438 232.228V225.627H313.934V223.81H310.438V221.142H308.23V223.81H306.16V225.627H308.23V232.32C308.23 234.781 309.633 236.138 312.094 236.138C313.083 236.138 314.095 235.862 314.762 235.287L314.072 233.7ZM328.044 229.974C328.044 226.225 325.537 223.695 322.018 223.695C318.499 223.695 315.9 226.294 315.9 229.905C315.9 233.539 318.522 236.138 322.455 236.138C324.479 236.138 326.158 235.448 327.262 234.16L326.043 232.734C325.146 233.723 323.95 234.206 322.524 234.206C320.109 234.206 318.384 232.78 318.108 230.641H327.998C328.021 230.434 328.044 230.158 328.044 229.974ZM322.018 225.558C324.157 225.558 325.698 227.007 325.928 229.054H318.108C318.338 226.984 319.902 225.558 322.018 225.558ZM340.402 218.934V225.65C339.39 224.339 337.872 223.695 336.147 223.695C332.582 223.695 329.983 226.179 329.983 229.905C329.983 233.631 332.582 236.138 336.147 236.138C337.941 236.138 339.505 235.448 340.494 234.068V236H342.61V218.934H340.402ZM336.331 234.206C333.985 234.206 332.214 232.504 332.214 229.905C332.214 227.306 333.985 225.627 336.331 225.627C338.654 225.627 340.425 227.306 340.425 229.905C340.425 232.504 338.654 234.206 336.331 234.206Z" stroke-width='0' fill="#263238"/>
<path d="M239.5 50L298 122L239.5 193.5L179 122L239.5 50Z" fill="#FFA224"/>
<ellipse cx="238.5" cy="121.5" rx="28.5" ry="45.5" fill="#172BFF"/>
<path d="M210 122C218 118.5 240.6 113.6 267 122" stroke="white" stroke-width="5"/>
</svg>
