<svg width="444" height="273" viewBox="0 0 444 273" fill="none" xmlns="http://www.w3.org/2000/svg">
<path d="M63.7428 153.712L93.3668 125.744C111.399 109 114.895 97.592 114.895 85.08C114.895 61.712 95.7588 46.992 67.0548 46.992C43.8708 46.992 25.8388 56.376 15.9028 70.912L37.6148 84.896C43.8708 76.248 53.2548 72.016 64.2947 72.016C77.9108 72.016 84.9028 77.904 84.9028 88.024C84.9028 94.28 82.8788 100.904 71.4708 111.76L21.7907 158.68V178H119.127V153.712H63.7428ZM186.267 180.208C218.099 180.208 241.467 156.104 241.467 113.6C241.467 71.096 218.099 46.992 186.267 46.992C154.619 46.992 131.067 71.096 131.067 113.6C131.067 156.104 154.619 180.208 186.267 180.208ZM186.267 155C171.547 155 161.243 142.856 161.243 113.6C161.243 84.344 171.547 72.2 186.267 72.2C201.171 72.2 211.475 84.344 211.475 113.6C211.475 142.856 201.171 155 186.267 155ZM295.719 153.712L325.343 125.744C343.375 109 346.871 97.592 346.871 85.08C346.871 61.712 327.735 46.992 299.031 46.992C275.847 46.992 257.815 56.376 247.879 70.912L269.591 84.896C275.847 76.248 285.231 72.016 296.271 72.016C309.887 72.016 316.879 77.904 316.879 88.024C316.879 94.28 314.855 100.904 303.447 111.76L253.767 158.68V178H351.103V153.712H295.719ZM357.515 49.2V73.12H383.275V178H413.083V49.2H357.515Z" fill="#282828"/>
<path d="M63.7428 153.712L60.3103 150.076L51.1633 158.712H63.7428V153.712ZM93.3668 125.744L89.9645 122.08L89.9493 122.094L89.9343 122.108L93.3668 125.744ZM15.9028 70.912L11.7749 68.0905L8.87499 72.333L13.1954 75.1156L15.9028 70.912ZM37.6147 84.896L34.9074 89.0996L38.8896 91.6644L41.6659 87.8266L37.6147 84.896ZM71.4707 111.76L74.9039 115.395L74.9107 115.389L74.9176 115.382L71.4707 111.76ZM21.7908 158.68L18.3576 155.045L16.7908 156.525V158.68H21.7908ZM21.7908 178H16.7908V183H21.7908V178ZM119.127 178V183H124.127V178H119.127ZM119.127 153.712H124.127V148.712H119.127V153.712ZM67.1752 157.348L96.7992 129.38L89.9343 122.108L60.3103 150.076L67.1752 157.348ZM96.769 129.408C106.059 120.782 111.909 113.254 115.399 105.991C118.933 98.6371 119.895 91.8727 119.895 85.08H109.895C109.895 90.7993 109.108 95.9949 106.386 101.659C103.62 107.414 98.7066 113.962 89.9645 122.08L96.769 129.408ZM119.895 85.08C119.895 71.8912 114.43 60.9121 104.835 53.3466C95.357 45.874 82.2078 41.992 67.0548 41.992V51.992C80.6057 51.992 91.3765 55.47 98.643 61.1993C105.792 66.8359 109.895 74.9008 109.895 85.08H119.895ZM67.0548 41.992C42.5078 41.992 22.7944 51.9694 11.7749 68.0905L20.0306 73.7335C28.8831 60.7826 45.2337 51.992 67.0548 51.992V41.992ZM13.1954 75.1156L34.9074 89.0996L40.3221 80.6924L18.6101 66.7084L13.1954 75.1156ZM41.6659 87.8266C46.8571 80.6505 54.6338 77.016 64.2947 77.016V67.016C51.8757 67.016 40.8844 71.8454 33.5636 81.9654L41.6659 87.8266ZM64.2947 77.016C70.4822 77.016 74.3604 78.3675 76.5972 80.142C78.6512 81.7716 79.9028 84.2144 79.9028 88.024H89.9028C89.9028 81.7136 87.6583 76.1524 82.8123 72.3079C78.1491 68.6085 71.7233 67.016 64.2947 67.016V77.016ZM79.9028 88.024C79.9028 90.496 79.5276 92.9155 78.0089 95.8986C76.427 99.0059 73.4979 102.929 68.0239 108.138L74.9176 115.382C80.8516 109.735 84.6385 104.918 86.9206 100.435C89.2659 95.8285 89.9028 91.808 89.9028 88.024H79.9028ZM68.0376 108.125L18.3576 155.045L25.2239 162.315L74.9039 115.395L68.0376 108.125ZM16.7908 158.68V178H26.7908V158.68H16.7908ZM21.7908 183H119.127V173H21.7908V183ZM124.127 178V153.712H114.127V178H124.127ZM119.127 148.712H63.7428V158.712H119.127V148.712ZM186.267 185.208C203.52 185.208 218.741 178.635 229.583 166.116C240.374 153.658 246.467 135.743 246.467 113.6H236.467C236.467 133.961 230.876 149.35 222.024 159.57C213.225 169.729 200.845 175.208 186.267 175.208V185.208ZM246.467 113.6C246.467 91.4567 240.374 73.5418 229.583 61.0835C218.741 48.5651 203.52 41.992 186.267 41.992V51.992C200.845 51.992 213.225 57.4709 222.024 67.6305C230.876 77.8502 236.467 93.2393 236.467 113.6H246.467ZM186.267 41.992C169.099 41.992 153.884 48.5691 143.023 61.0791C132.211 73.5331 126.067 91.4469 126.067 113.6H136.067C136.067 93.2491 141.698 77.8589 150.574 67.6349C159.402 57.4669 171.786 51.992 186.267 51.992V41.992ZM126.067 113.6C126.067 135.753 132.211 153.667 143.023 166.121C153.884 178.631 169.099 185.208 186.267 185.208V175.208C171.786 175.208 159.402 169.733 150.574 159.565C141.698 149.341 136.067 133.951 136.067 113.6H126.067ZM186.267 150C180.511 150 175.858 147.746 172.408 142.517C168.761 136.99 166.243 127.773 166.243 113.6H156.243C156.243 128.683 158.876 140.166 164.061 148.025C169.443 156.182 177.302 160 186.267 160V150ZM166.243 113.6C166.243 99.4267 168.761 90.2096 172.408 84.6826C175.858 79.454 180.511 77.2 186.267 77.2V67.2C177.302 67.2 169.443 71.018 164.061 79.1754C158.876 87.0344 156.243 98.5173 156.243 113.6H166.243ZM186.267 77.2C192.136 77.2 196.83 79.4722 200.293 84.6926C203.955 90.2147 206.475 99.4251 206.475 113.6H216.475C216.475 98.5189 213.842 87.0293 208.626 79.1654C203.211 70.9998 195.301 67.2 186.267 67.2V77.2ZM206.475 113.6C206.475 127.775 203.955 136.985 200.293 142.507C196.83 147.728 192.136 150 186.267 150V160C195.301 160 203.211 156.2 208.626 148.035C213.842 140.171 216.475 128.681 216.475 113.6H206.475ZM295.719 153.712L292.287 150.076L283.14 158.712H295.719V153.712ZM325.343 125.744L321.941 122.08L321.926 122.094L321.911 122.108L325.343 125.744ZM247.879 70.912L243.751 68.0905L240.852 72.333L245.172 75.1156L247.879 70.912ZM269.591 84.896L266.884 89.0996L270.866 91.6644L273.642 87.8266L269.591 84.896ZM303.447 111.76L306.88 115.395L306.887 115.389L306.894 115.382L303.447 111.76ZM253.767 158.68L250.334 155.045L248.767 156.525V158.68H253.767ZM253.767 178H248.767V183H253.767V178ZM351.103 178V183H356.103V178H351.103ZM351.103 153.712H356.103V148.712H351.103V153.712ZM299.152 157.348L328.776 129.38L321.911 122.108L292.287 150.076L299.152 157.348ZM328.746 129.408C338.035 120.782 343.886 113.254 347.376 105.991C350.91 98.6371 351.871 91.8727 351.871 85.08H341.871C341.871 90.7993 341.085 95.9949 338.363 101.659C335.597 107.414 330.683 113.962 321.941 122.08L328.746 129.408ZM351.871 85.08C351.871 71.8912 346.406 60.9121 336.811 53.3466C327.334 45.874 314.184 41.992 299.031 41.992V51.992C312.582 51.992 323.353 55.47 330.62 61.1993C337.768 66.8359 341.871 74.9008 341.871 85.08H351.871ZM299.031 41.992C274.484 41.992 254.771 51.9694 243.751 68.0905L252.007 73.7335C260.86 60.7826 277.21 51.992 299.031 51.992V41.992ZM245.172 75.1156L266.884 89.0996L272.299 80.6924L250.587 66.7084L245.172 75.1156ZM273.642 87.8266C278.834 80.6505 286.61 77.016 296.271 77.016V67.016C283.852 67.016 272.861 71.8454 265.54 81.9654L273.642 87.8266ZM296.271 77.016C302.459 77.016 306.337 78.3675 308.574 80.142C310.628 81.7716 311.879 84.2144 311.879 88.024H321.879C321.879 81.7136 319.635 76.1524 314.789 72.3079C310.126 68.6085 303.7 67.016 296.271 67.016V77.016ZM311.879 88.024C311.879 90.496 311.504 92.9155 309.986 95.8986C308.404 99.0059 305.474 102.929 300 108.138L306.894 115.382C312.828 109.735 316.615 104.918 318.897 100.435C321.242 95.8285 321.879 91.808 321.879 88.024H311.879ZM300.014 108.125L250.334 155.045L257.2 162.315L306.88 115.395L300.014 108.125ZM248.767 158.68V178H258.767V158.68H248.767ZM253.767 183H351.103V173H253.767V183ZM356.103 178V153.712H346.103V178H356.103ZM351.103 148.712H295.719V158.712H351.103V148.712ZM357.515 49.2V44.2H352.515V49.2H357.515ZM357.515 73.12H352.515V78.12H357.515V73.12ZM383.275 73.12H388.275V68.12H383.275V73.12ZM383.275 178H378.275V183H383.275V178ZM413.083 178V183H418.083V178H413.083ZM413.083 49.2H418.083V44.2H413.083V49.2ZM352.515 49.2V73.12H362.515V49.2H352.515ZM357.515 78.12H383.275V68.12H357.515V78.12ZM378.275 73.12V178H388.275V73.12H378.275ZM383.275 183H413.083V173H383.275V183ZM418.083 178V49.2H408.083V178H418.083ZM413.083 44.2H357.515V54.2H413.083V44.2Z" fill="white"/>
<path d="M39.592 214.316H23.272V208.4H62.644V214.316H46.324V256H39.592V214.316ZM88.3422 219.62C92.9208 219.62 96.5475 220.957 99.2222 223.632C101.942 226.261 103.302 230.137 103.302 235.26V256H96.7742V236.008C96.7742 232.517 95.9355 229.888 94.2582 228.12C92.5808 226.352 90.1782 225.468 87.0502 225.468C83.5142 225.468 80.7262 226.511 78.6862 228.596C76.6462 230.636 75.6262 233.583 75.6262 237.436V256H69.0982V205.544H75.6262V225.06C76.9862 223.337 78.7542 222 80.9302 221.048C83.1515 220.096 85.6222 219.62 88.3422 219.62ZM148.155 238.184C148.155 238.683 148.109 239.34 148.019 240.156H118.779C119.187 243.329 120.569 245.891 122.927 247.84C125.329 249.744 128.299 250.696 131.835 250.696C136.141 250.696 139.609 249.245 142.239 246.344L145.843 250.56C144.211 252.464 142.171 253.915 139.723 254.912C137.32 255.909 134.623 256.408 131.631 256.408C127.823 256.408 124.445 255.637 121.499 254.096C118.552 252.509 116.263 250.311 114.631 247.5C113.044 244.689 112.251 241.516 112.251 237.98C112.251 234.489 113.021 231.339 114.563 228.528C116.149 225.717 118.303 223.541 121.023 222C123.788 220.413 126.893 219.62 130.339 219.62C133.784 219.62 136.844 220.413 139.519 222C142.239 223.541 144.347 225.717 145.843 228.528C147.384 231.339 148.155 234.557 148.155 238.184ZM130.339 225.128C127.211 225.128 124.581 226.08 122.451 227.984C120.365 229.888 119.141 232.381 118.779 235.464H141.899C141.536 232.427 140.289 229.956 138.159 228.052C136.073 226.103 133.467 225.128 130.339 225.128ZM202.303 219.62C206.837 219.62 210.418 220.935 213.047 223.564C215.722 226.193 217.059 230.092 217.059 235.26V256H210.531V236.008C210.531 232.517 209.715 229.888 208.083 228.12C206.497 226.352 204.207 225.468 201.215 225.468C197.906 225.468 195.277 226.511 193.327 228.596C191.378 230.636 190.403 233.583 190.403 237.436V256H183.875V236.008C183.875 232.517 183.059 229.888 181.427 228.12C179.841 226.352 177.551 225.468 174.559 225.468C171.25 225.468 168.621 226.511 166.671 228.596C164.722 230.636 163.747 233.583 163.747 237.436V256H157.219V219.96H163.475V225.332C164.79 223.473 166.513 222.068 168.643 221.116C170.774 220.119 173.199 219.62 175.919 219.62C178.73 219.62 181.223 220.187 183.399 221.32C185.575 222.453 187.253 224.108 188.431 226.284C189.791 224.199 191.673 222.567 194.075 221.388C196.523 220.209 199.266 219.62 202.303 219.62ZM261.842 238.184C261.842 238.683 261.797 239.34 261.706 240.156H232.466C232.874 243.329 234.257 245.891 236.614 247.84C239.017 249.744 241.986 250.696 245.522 250.696C249.829 250.696 253.297 249.245 255.926 246.344L259.53 250.56C257.898 252.464 255.858 253.915 253.41 254.912C251.007 255.909 248.31 256.408 245.318 256.408C241.51 256.408 238.133 255.637 235.186 254.096C232.239 252.509 229.95 250.311 228.318 247.5C226.731 244.689 225.938 241.516 225.938 237.98C225.938 234.489 226.709 231.339 228.25 228.528C229.837 225.717 231.99 223.541 234.71 222C237.475 220.413 240.581 219.62 244.026 219.62C247.471 219.62 250.531 220.413 253.206 222C255.926 223.541 258.034 225.717 259.53 228.528C261.071 231.339 261.842 234.557 261.842 238.184ZM244.026 225.128C240.898 225.128 238.269 226.08 236.138 227.984C234.053 229.888 232.829 232.381 232.466 235.464H255.586C255.223 232.427 253.977 229.956 251.846 228.052C249.761 226.103 247.154 225.128 244.026 225.128ZM281.243 256.408C278.296 256.408 275.463 256.023 272.743 255.252C270.023 254.436 267.892 253.416 266.351 252.192L269.071 247.024C270.657 248.157 272.584 249.064 274.851 249.744C277.117 250.424 279.407 250.764 281.719 250.764C287.431 250.764 290.287 249.132 290.287 245.868C290.287 244.78 289.901 243.919 289.131 243.284C288.36 242.649 287.385 242.196 286.207 241.924C285.073 241.607 283.441 241.267 281.311 240.904C278.409 240.451 276.029 239.929 274.171 239.34C272.357 238.751 270.793 237.753 269.479 236.348C268.164 234.943 267.507 232.971 267.507 230.432C267.507 227.168 268.867 224.561 271.587 222.612C274.307 220.617 277.956 219.62 282.535 219.62C284.937 219.62 287.34 219.915 289.743 220.504C292.145 221.093 294.117 221.887 295.659 222.884L292.871 228.052C289.924 226.148 286.456 225.196 282.467 225.196C279.701 225.196 277.593 225.649 276.143 226.556C274.692 227.463 273.967 228.664 273.967 230.16C273.967 231.339 274.375 232.268 275.191 232.948C276.007 233.628 277.004 234.127 278.183 234.444C279.407 234.761 281.107 235.124 283.283 235.532C286.184 236.031 288.519 236.575 290.287 237.164C292.1 237.708 293.641 238.66 294.911 240.02C296.18 241.38 296.815 243.284 296.815 245.732C296.815 248.996 295.409 251.603 292.599 253.552C289.833 255.456 286.048 256.408 281.243 256.408Z" fill="white"/>
</svg>
