<svg width="347" height="241" viewBox="0 0 347 241" fill="none" xmlns="http://www.w3.org/2000/svg">
<path d="M103.016 118.136C113.312 111.8 119.252 102.098 119.252 89.624C119.252 65.27 97.4722 50.024 65.5942 50.024C34.1121 50.024 12.3321 65.27 12.3321 89.624C12.3321 102.098 18.0741 111.8 28.3701 118.136C15.1041 124.868 7.38215 135.956 7.38215 150.806C7.38215 176.942 30.5482 193.376 65.5942 193.376C100.838 193.376 124.202 176.942 124.202 150.806C124.202 135.956 116.48 124.868 103.016 118.136ZM65.5942 73.586C78.6622 73.586 87.3742 80.12 87.3742 91.01C87.3742 101.504 78.8602 108.038 65.5942 108.038C52.5262 108.038 44.2102 101.504 44.2102 91.01C44.2102 80.12 52.7241 73.586 65.5942 73.586ZM65.5942 169.814C49.7542 169.814 39.8542 162.092 39.8542 149.816C39.8542 137.54 49.7542 130.016 65.5942 130.016C81.6322 130.016 91.7302 137.54 91.7302 149.816C91.7302 162.092 81.6322 169.814 65.5942 169.814ZM198.285 193.376C232.539 193.376 257.685 167.438 257.685 121.7C257.685 75.962 232.539 50.024 198.285 50.024C164.229 50.024 138.885 75.962 138.885 121.7C138.885 167.438 164.229 193.376 198.285 193.376ZM198.285 166.25C182.445 166.25 171.357 153.182 171.357 121.7C171.357 90.218 182.445 77.15 198.285 77.15C214.323 77.15 225.411 90.218 225.411 121.7C225.411 153.182 214.323 166.25 198.285 166.25Z" fill="#FFA224"/>
<path d="M103.016 118.136L100.396 113.878L92.7407 118.588L100.78 122.608L103.016 118.136ZM28.3701 118.136L30.6328 122.595L38.5923 118.556L30.9906 113.878L28.3701 118.136ZM105.637 122.394C117.304 115.214 124.252 103.957 124.252 89.624H114.252C114.252 100.239 109.32 108.386 100.396 113.878L105.637 122.394ZM124.252 89.624C124.252 75.7656 117.974 64.3948 107.318 56.6471C96.8021 49.002 82.2625 45.024 65.5942 45.024V55.024C80.8039 55.024 93.0932 58.669 101.437 64.7354C109.64 70.6992 114.252 79.1284 114.252 89.624H124.252ZM65.5942 45.024C49.112 45.024 34.6699 49.0075 24.2071 56.6545C13.6073 64.4015 7.33215 75.7682 7.33215 89.624H17.3321C17.3321 79.1258 21.947 70.6925 30.1077 64.728C38.4054 58.6635 50.5943 55.024 65.5942 55.024V45.024ZM7.33215 89.624C7.33215 103.898 14.0304 115.182 25.7497 122.394L30.9906 113.878C22.1179 108.418 17.3321 100.298 17.3321 89.624H7.33215ZM26.1075 113.677C11.377 121.152 2.38215 133.843 2.38215 150.806H12.3821C12.3821 138.068 18.8313 128.584 30.6328 122.595L26.1075 113.677ZM2.38215 150.806C2.38215 165.542 8.99564 177.663 20.4109 185.94C31.6779 194.109 47.3602 198.376 65.5942 198.376V188.376C48.7821 188.376 35.3584 184.426 26.2809 177.844C17.3517 171.37 12.3821 162.206 12.3821 150.806H2.38215ZM65.5942 198.376C83.9218 198.376 99.697 194.112 111.036 185.95C122.524 177.681 129.202 165.559 129.202 150.806H119.202C119.202 162.189 114.199 171.352 105.194 177.834C96.0393 184.423 82.5105 188.376 65.5942 188.376V198.376ZM129.202 150.806C129.202 133.831 120.193 121.134 105.252 113.664L100.78 122.608C112.767 128.602 119.202 138.081 119.202 150.806H129.202ZM65.5942 78.586C71.3557 78.586 75.6042 80.0312 78.2955 82.1458C80.8544 84.1563 82.3742 87.0396 82.3742 91.01H92.3742C92.3742 84.0904 89.5379 78.2616 84.4738 74.2827C79.5421 70.4078 72.9006 68.586 65.5942 68.586V78.586ZM82.3742 91.01C82.3742 94.76 80.9222 97.5424 78.3892 99.5125C75.7229 101.586 71.468 103.038 65.5942 103.038V113.038C72.9863 113.038 79.6214 111.223 84.5286 107.406C89.5691 103.486 92.3742 97.754 92.3742 91.01H82.3742ZM65.5942 103.038C59.8351 103.038 55.6958 101.594 53.1092 99.5422C50.6485 97.59 49.2102 94.8042 49.2102 91.01H39.2102C39.2102 97.7098 41.9298 103.438 46.8941 107.376C51.7325 111.215 58.2852 113.038 65.5942 113.038V103.038ZM49.2102 91.01C49.2102 86.9967 50.7149 84.1095 53.2025 82.1161C55.8148 80.0228 59.948 78.586 65.5942 78.586V68.586C58.3703 68.586 51.8115 70.4162 46.9493 74.3124C41.9624 78.3085 39.2102 84.1333 39.2102 91.01H49.2102ZM65.5942 164.814C58.4235 164.814 53.1825 163.061 49.8539 160.472C46.6605 157.988 44.8542 154.467 44.8542 149.816H34.8542C34.8542 157.441 37.9978 163.919 43.7144 168.365C49.2958 172.706 56.9248 174.814 65.5942 174.814V164.814ZM44.8542 149.816C44.8542 145.173 46.6525 141.714 49.8263 139.281C53.1496 136.733 58.396 135.016 65.5942 135.016V125.016C56.9523 125.016 49.3287 127.061 43.742 131.344C38.0058 135.742 34.8542 142.183 34.8542 149.816H44.8542ZM65.5942 135.016C72.9034 135.016 78.263 136.738 81.6659 139.305C84.9138 141.754 86.7302 145.211 86.7302 149.816H96.7302C96.7302 142.145 93.4975 135.702 87.6869 131.32C82.0313 127.055 74.3229 125.016 65.5942 125.016V135.016ZM86.7302 149.816C86.7302 154.43 84.9054 157.948 81.6383 160.447C78.2304 163.055 72.8764 164.814 65.5942 164.814V174.814C74.3499 174.814 82.0639 172.712 87.7145 168.39C93.506 163.959 96.7302 157.478 96.7302 149.816H86.7302ZM198.285 198.376C216.749 198.376 233.02 191.344 244.61 177.963C256.148 164.642 262.685 145.46 262.685 121.7H252.685C252.685 143.678 246.65 160.334 237.051 171.416C227.504 182.439 214.075 188.376 198.285 188.376V198.376ZM262.685 121.7C262.685 97.9397 256.148 78.7578 244.61 65.4368C233.02 52.0556 216.749 45.024 198.285 45.024V55.024C214.075 55.024 227.504 60.9614 237.051 71.9837C246.65 83.0662 252.685 99.7223 252.685 121.7H262.685ZM198.285 45.024C179.914 45.024 163.648 52.0596 152.038 65.4324C140.477 78.7491 133.885 97.9299 133.885 121.7H143.885C143.885 99.7321 149.965 83.0749 159.59 71.9881C169.166 60.9574 182.6 55.024 198.285 55.024V45.024ZM133.885 121.7C133.885 145.47 140.477 164.651 152.038 177.968C163.648 191.34 179.914 198.376 198.285 198.376V188.376C182.6 188.376 169.166 182.443 159.59 171.412C149.965 160.325 143.885 143.668 143.885 121.7H133.885ZM198.285 161.25C191.97 161.25 186.84 158.765 183.055 153.027C179.072 146.991 176.357 136.986 176.357 121.7H166.357C166.357 137.896 169.186 150.166 174.708 158.534C180.426 167.201 188.76 171.25 198.285 171.25V161.25ZM176.357 121.7C176.357 106.414 179.072 96.4091 183.055 90.3729C186.84 84.635 191.97 82.15 198.285 82.15V72.15C188.76 72.15 180.426 76.199 174.708 84.8656C169.186 93.2339 166.357 105.504 166.357 121.7H176.357ZM198.285 82.15C204.721 82.15 209.895 84.6532 213.695 90.3828C217.696 96.4142 220.411 106.412 220.411 121.7H230.411C230.411 105.506 227.583 93.2288 222.029 84.8557C216.276 76.1808 207.887 72.15 198.285 72.15V82.15ZM220.411 121.7C220.411 136.988 217.696 146.986 213.695 153.017C209.895 158.747 204.721 161.25 198.285 161.25V171.25C207.887 171.25 216.276 167.219 222.029 158.544C227.583 150.171 230.411 137.894 230.411 121.7H220.411Z" fill="black"/>
<path d="M318.929 82.041H343.835V97.659H318.929C316.443 97.659 314.429 99.6738 314.429 102.159V126.389H297.628V102.159C297.628 99.6738 295.613 97.659 293.128 97.659H268.391V82.041H293.128C295.613 82.041 297.628 80.0263 297.628 77.541V53.311H314.429V77.541C314.429 80.0263 316.443 82.041 318.929 82.041Z" fill="#FFA224" stroke="black" stroke-width="5"/>
<path d="M12.6124 235.24C17.2204 235.24 19.4044 232.936 19.4044 230.248C19.4044 224.08 9.44444 226.408 9.44444 222.832C9.44444 221.56 10.5004 220.552 13.0924 220.552C14.5564 220.552 16.2124 220.984 17.7244 221.872L18.7084 219.448C17.2444 218.488 15.1324 217.96 13.1164 217.96C8.50844 217.96 6.34844 220.264 6.34844 222.976C6.34844 229.216 16.3324 226.84 16.3324 230.464C16.3324 231.712 15.2284 232.648 12.6124 232.648C10.5484 232.648 8.41244 231.88 7.06844 230.8L5.98844 233.224C7.38044 234.424 9.99644 235.24 12.6124 235.24ZM28.0902 235.168C30.5862 235.168 32.5782 234.088 33.5622 232.168L31.2582 230.824C30.4902 232.048 29.3382 232.6 28.0662 232.6C25.8582 232.6 24.1782 231.088 24.1782 228.592C24.1782 226.12 25.8582 224.584 28.0662 224.584C29.3382 224.584 30.4902 225.136 31.2582 226.36L33.5622 225.016C32.5782 223.072 30.5862 222.04 28.0902 222.04C24.0342 222.04 21.1542 224.752 21.1542 228.592C21.1542 232.432 24.0342 235.168 28.0902 235.168ZM43.3103 222.04C41.5343 222.04 40.0223 222.616 39.0383 223.672V217.192H36.0383V235H39.0383V228.52C39.0383 225.952 40.4783 224.656 42.6143 224.656C44.5343 224.656 45.6623 225.76 45.6623 228.04V235H48.6623V227.656C48.6623 223.792 46.3823 222.04 43.3103 222.04ZM58.3452 235.168C62.3292 235.168 65.1852 232.432 65.1852 228.592C65.1852 224.752 62.3292 222.04 58.3452 222.04C54.4092 222.04 51.5292 224.752 51.5292 228.592C51.5292 232.432 54.4092 235.168 58.3452 235.168ZM58.3452 232.6C56.1852 232.6 54.5532 231.04 54.5532 228.592C54.5532 226.144 56.1852 224.584 58.3452 224.584C60.5292 224.584 62.1612 226.144 62.1612 228.592C62.1612 231.04 60.5292 232.6 58.3452 232.6ZM73.8139 235.168C77.7979 235.168 80.6539 232.432 80.6539 228.592C80.6539 224.752 77.7979 222.04 73.8139 222.04C69.8779 222.04 66.9979 224.752 66.9979 228.592C66.9979 232.432 69.8779 235.168 73.8139 235.168ZM73.8139 232.6C71.6539 232.6 70.0219 231.04 70.0219 228.592C70.0219 226.144 71.6539 224.584 73.8139 224.584C75.9979 224.584 77.6299 226.144 77.6299 228.592C77.6299 231.04 75.9979 232.6 73.8139 232.6ZM83.5227 235H86.5227V217.192H83.5227V235ZM94.4202 235.168C98.0202 235.168 100.228 233.608 100.228 231.208C100.228 226.192 92.3082 228.496 92.3082 225.904C92.3082 225.064 93.1722 224.464 94.9962 224.464C96.2202 224.464 97.4442 224.704 98.6682 225.424L99.8202 223.144C98.6682 222.448 96.7242 222.04 95.0202 222.04C91.5642 222.04 89.3802 223.624 89.3802 226.048C89.3802 231.16 97.3002 228.856 97.3002 231.304C97.3002 232.192 96.5082 232.72 94.6122 232.72C93.0042 232.72 91.2762 232.192 90.1482 231.448L88.9962 233.728C90.1482 234.544 92.2842 235.168 94.4202 235.168ZM109.733 235H112.853V218.2H109.733V235ZM133.285 222.04C131.245 222.04 129.517 222.856 128.485 224.176C127.597 222.736 126.037 222.04 124.165 222.04C122.413 222.04 120.925 222.664 119.965 223.816V222.184H117.109V235H120.109V228.496C120.109 225.952 121.453 224.656 123.445 224.656C125.269 224.656 126.325 225.76 126.325 228.04V235H129.325V228.496C129.325 225.952 130.693 224.656 132.661 224.656C134.485 224.656 135.541 225.76 135.541 228.04V235H138.541V227.656C138.541 223.792 136.381 222.04 133.285 222.04ZM149.478 222.04C147.726 222.04 146.238 222.64 145.23 223.864V222.184H142.374V239.656H145.374V233.44C146.406 234.616 147.846 235.168 149.478 235.168C153.222 235.168 155.982 232.576 155.982 228.592C155.982 224.632 153.222 222.04 149.478 222.04ZM149.142 232.6C146.982 232.6 145.326 231.04 145.326 228.592C145.326 226.144 146.982 224.584 149.142 224.584C151.302 224.584 152.934 226.144 152.934 228.592C152.934 231.04 151.302 232.6 149.142 232.6ZM163.559 222.04C161.495 222.04 159.503 222.568 158.135 223.624L159.311 225.808C160.271 225.016 161.759 224.536 163.199 224.536C165.335 224.536 166.391 225.568 166.391 227.32V227.512H163.079C159.191 227.512 157.751 229.192 157.751 231.328C157.751 233.56 159.599 235.168 162.527 235.168C164.447 235.168 165.839 234.544 166.559 233.44V235H169.391V227.488C169.391 223.792 167.255 222.04 163.559 222.04ZM163.151 232.984C161.615 232.984 160.703 232.288 160.703 231.208C160.703 230.272 161.255 229.504 163.295 229.504H166.391V230.992C165.887 232.312 164.615 232.984 163.151 232.984ZM179.239 235.168C181.735 235.168 183.727 234.088 184.711 232.168L182.407 230.824C181.639 232.048 180.487 232.6 179.215 232.6C177.007 232.6 175.327 231.088 175.327 228.592C175.327 226.12 177.007 224.584 179.215 224.584C180.487 224.584 181.639 225.136 182.407 226.36L184.711 225.016C183.727 223.072 181.735 222.04 179.239 222.04C175.183 222.04 172.303 224.752 172.303 228.592C172.303 232.432 175.183 235.168 179.239 235.168ZM194.332 232.168C193.876 232.528 193.276 232.696 192.652 232.696C191.5 232.696 190.876 232.024 190.876 230.776V224.68H194.308V222.28H190.876V219.352H187.876V222.28H185.764V224.68H187.876V230.848C187.876 233.68 189.484 235.168 192.292 235.168C193.372 235.168 194.452 234.88 195.172 234.304L194.332 232.168ZM209.266 228.664C209.266 224.656 206.53 222.04 202.786 222.04C198.97 222.04 196.162 224.776 196.162 228.592C196.162 232.408 198.946 235.168 203.242 235.168C205.45 235.168 207.25 234.448 208.402 233.08L206.794 231.232C205.882 232.168 204.754 232.624 203.314 232.624C201.082 232.624 199.522 231.424 199.162 229.552H209.218C209.242 229.264 209.266 228.904 209.266 228.664ZM202.786 224.44C204.754 224.44 206.17 225.712 206.41 227.56H199.138C199.426 225.688 200.842 224.44 202.786 224.44ZM221.7 217.192V223.768C220.692 222.592 219.228 222.04 217.572 222.04C213.852 222.04 211.092 224.608 211.092 228.592C211.092 232.576 213.852 235.168 217.572 235.168C219.324 235.168 220.812 234.568 221.82 233.344V235H224.7V217.192H221.7ZM217.932 232.6C215.772 232.6 214.116 231.04 214.116 228.592C214.116 226.144 215.772 224.584 217.932 224.584C220.092 224.584 221.748 226.144 221.748 228.592C221.748 231.04 220.092 232.6 217.932 232.6ZM247.017 231.64C245.937 232.264 244.761 232.504 243.561 232.504C240.009 232.504 237.489 230.008 237.489 226.6C237.489 223.12 240.009 220.696 243.585 220.696C245.385 220.696 246.897 221.296 248.217 222.616L250.185 220.696C248.601 218.896 246.249 217.96 243.441 217.96C238.185 217.96 234.345 221.584 234.345 226.6C234.345 231.616 238.185 235.24 243.393 235.24C245.769 235.24 248.217 234.52 249.969 233.104V226.408H247.017V231.64ZM253.796 235H256.796V217.192H253.796V235ZM266.494 235.168C270.478 235.168 273.334 232.432 273.334 228.592C273.334 224.752 270.478 222.04 266.494 222.04C262.558 222.04 259.678 224.752 259.678 228.592C259.678 232.432 262.558 235.168 266.494 235.168ZM266.494 232.6C264.334 232.6 262.702 231.04 262.702 228.592C262.702 226.144 264.334 224.584 266.494 224.584C268.678 224.584 270.31 226.144 270.31 228.592C270.31 231.04 268.678 232.6 266.494 232.6ZM283.306 222.04C281.674 222.04 280.234 222.592 279.202 223.744V217.192H276.202V235H279.058V233.344C280.066 234.568 281.554 235.168 283.306 235.168C287.05 235.168 289.81 232.576 289.81 228.592C289.81 224.608 287.05 222.04 283.306 222.04ZM282.97 232.6C280.81 232.6 279.154 231.04 279.154 228.592C279.154 226.144 280.81 224.584 282.97 224.584C285.13 224.584 286.762 226.144 286.762 228.592C286.762 231.04 285.13 232.6 282.97 232.6ZM297.387 222.04C295.323 222.04 293.331 222.568 291.963 223.624L293.139 225.808C294.099 225.016 295.587 224.536 297.027 224.536C299.163 224.536 300.219 225.568 300.219 227.32V227.512H296.907C293.019 227.512 291.579 229.192 291.579 231.328C291.579 233.56 293.427 235.168 296.355 235.168C298.275 235.168 299.667 234.544 300.387 233.44V235H303.219V227.488C303.219 223.792 301.083 222.04 297.387 222.04ZM296.979 232.984C295.443 232.984 294.531 232.288 294.531 231.208C294.531 230.272 295.083 229.504 297.123 229.504H300.219V230.992C299.715 232.312 298.443 232.984 296.979 232.984ZM307.07 235H310.07V217.192H307.07V235ZM314.007 235H317.007V217.192H314.007V235ZM330.065 222.184L326.009 231.664L321.977 222.184H318.857L324.449 235.048L324.233 235.552C323.657 236.824 323.033 237.328 321.977 237.328C321.161 237.328 320.345 236.992 319.769 236.44L318.569 238.648C319.385 239.392 320.729 239.824 322.001 239.824C324.137 239.824 325.769 238.936 326.945 236.032L332.945 222.184H330.065Z" fill="#263238"/>
</svg>
