<svg width="119" height="121" viewBox="0 0 119 121" fill="none" xmlns="http://www.w3.org/2000/svg">
<circle cx="64.5" cy="66.4999" r="53.5" transform="rotate(-0.445203 64.5 66.4999)" fill="url(#paint0_linear_310_8)"/>
<path d="M93.7814 33.5731H94.8466L94.3594 32.6258C89.0051 22.2154 79.8941 14.2294 68.8718 10.2855L67.2961 9.72173L68.0782 11.2013C71.7034 18.0599 74.3244 25.4084 75.8595 33.0511L75.9643 33.5731H76.4968H93.7814ZM99.294 56.9242H99.282C99.3735 55.7852 99.4193 54.6429 99.4192 53.5V53.4987C99.4109 49.2615 98.8123 45.0461 97.6407 40.9741L97.5054 40.5038H97.0161H77.7396H77.0237L77.0926 41.2164C77.3549 43.9298 77.5423 46.6479 77.5423 49.3846C77.5253 54.8706 76.9617 60.3413 75.86 65.7156L75.7 66.4962H76.4968H97.0161H97.5049L97.6406 66.0265C98.434 63.2787 98.96 60.4732 99.2271 57.6351L99.294 56.9242ZM70.1709 57.2304L70.1715 57.2248C70.4548 54.6217 70.6017 52.0055 70.6115 49.3871L70.6116 49.3793L70.6114 49.3716C70.5557 46.5943 70.345 43.8223 69.9804 41.0685L69.9056 40.5038H69.336H37.664H37.095L37.0197 41.0678C36.652 43.8218 36.4413 46.5944 36.3886 49.3723L36.3884 49.3796L36.3885 49.387C36.4088 54.9774 37.0577 60.5479 38.3231 65.9933L38.44 66.4962H38.9562H68.0438H68.5603L68.677 65.993C69.3162 63.2367 69.7978 60.4554 70.1216 57.6491C70.1216 57.649 70.1216 57.6489 70.1216 57.6487L70.1709 57.2304ZM67.8956 33.5731H68.7063L68.5301 32.7817C66.5739 23.9999 63.0434 15.6449 58.1096 8.12124L57.9362 7.85693L57.6213 7.83005C57.4735 7.81743 57.3252 7.80456 57.1763 7.79164C55.9781 7.68768 54.746 7.58077 53.5 7.58076L53.4968 7.58078C52.6217 7.58505 51.7472 7.62705 50.8757 7.70667C50.8747 7.70676 50.8738 7.70684 50.8728 7.70693L49.3806 7.82989L49.0482 7.85728L48.8766 8.14329L48.8337 8.21482C43.9295 15.7137 40.4187 24.036 38.4699 32.7817L38.2936 33.5731H39.1044H67.8956ZM39.0279 11.1619L39.8154 9.68333L38.2367 10.2438C27.1666 14.1743 18.0124 22.1789 12.6406 32.6258L12.1535 33.5731H13.2186H30.5032V32.9231L31.14 33.0537C32.7062 25.416 35.3627 18.0433 39.0279 11.1619ZM9.98392 40.5038H9.49436L9.35919 40.9744C8.18937 45.0466 7.59085 49.2616 7.58076 53.4985L7.58077 53.5015C7.59085 57.7384 8.18937 61.9534 9.35919 66.0256L9.49436 66.4962H9.98392H30.5032H31.3008L31.1399 65.715C30.0328 60.3413 29.4692 54.8698 29.4577 49.3833C29.4578 46.647 29.6451 43.9293 29.9074 41.2164L29.9763 40.5038H29.2604H9.98392ZM33.2715 73.8819L33.1284 73.4269H32.6515H13.2268H12.1639L12.6483 74.3731C15.8041 80.5376 20.31 85.9108 25.8302 90.0925C31.3505 94.2743 37.743 97.1569 44.5317 98.5257L46.1687 98.8558L45.1856 97.5059C39.9593 90.3295 35.9354 82.3506 33.2715 73.8819ZM52.9945 96.2477L53.5 96.8729L54.0055 96.2477C59.315 89.6808 63.4654 82.2562 66.278 74.2934L66.584 73.4269H65.6651H41.3349H40.416L40.722 74.2934C43.5347 82.2561 47.6851 89.6807 52.9945 96.2477ZM61.8144 97.5059L60.8311 98.8561L62.4684 98.5257C69.2567 97.1557 75.6486 94.2727 81.1687 90.0911C86.6887 85.9095 91.1948 80.5369 94.3517 74.3732L94.8364 73.4269H93.7731H74.3485V74.0769L73.7285 73.8819C71.0645 82.3505 67.0406 90.3294 61.8144 97.5059ZM53.5 0.65C67.5167 0.65 80.9593 6.21811 90.8706 16.1294C100.782 26.0407 106.35 39.4833 106.35 53.5C106.35 67.5167 100.782 80.9593 90.8706 90.8706C80.9593 100.782 67.5167 106.35 53.5 106.35C39.4833 106.35 26.0407 100.782 16.1294 90.8706C6.21811 80.9593 0.65 67.5167 0.65 53.5C0.65 39.4833 6.21811 26.0407 16.1294 16.1294C26.0407 6.21811 39.4833 0.65 53.5 0.65Z" fill="black" stroke="white" stroke-width="1.3"/>
<defs>
<linearGradient id="paint0_linear_310_8" x1="99" y1="22.9999" x2="37" y2="110" gradientUnits="userSpaceOnUse">
<stop stop-color="#FFA224"/>
<stop offset="1" stop-color="#DE8318"/>
</linearGradient>
</defs>
</svg>
