<svg width="256" height="297" viewBox="0 0 256 297" fill="none" xmlns="http://www.w3.org/2000/svg">
<path d="M100.338 30.8783L68.8838 62.3282C67.9469 60.6412 67.2214 58.8452 66.722 56.9813V56.5878C65.7649 52.6945 65.8263 48.6203 66.9006 44.7576C67.9748 40.895 70.0241 37.3745 72.854 34.5341C74.9927 32.3859 77.5369 30.6818 80.3375 29.5212C83.138 28.3607 86.141 27.7668 89.1725 27.7725C91.2061 27.7711 93.2293 28.0487 95.1873 28.5979H95.7767C97.3783 29.1832 98.909 29.9485 100.338 30.8783Z" fill="#FFA224"/>
<path d="M149.805 84.8147C146.454 90.2511 142.497 95.2885 138.009 99.8313C133.47 104.34 128.416 108.299 122.95 111.625L106.672 78.603C108.055 77.7939 109.37 76.8738 110.604 75.8514C111.283 75.3032 111.927 74.7125 112.531 74.0825C113.138 73.5075 113.702 72.8892 114.221 72.234C115.302 71.0194 116.263 69.7028 117.091 68.3027L149.805 84.8147Z" fill="#FFA224"/>
<path d="M177.992 113.63C178 117.452 177.173 121.23 175.569 124.7C173.965 128.169 171.623 131.246 168.706 133.717C165.789 136.188 162.369 137.992 158.683 139.004C154.996 140.016 151.133 140.211 147.363 139.576C153.525 135.506 159.244 130.802 164.427 125.541C169.341 120.58 173.767 115.156 177.639 109.345C177.875 110.761 177.993 112.194 177.992 113.63Z" fill="#FFA224"/>
<path d="M164.943 90.9073C156.108 105.689 143.73 118.039 128.927 126.839C128.338 125.872 127.825 124.859 127.393 123.812C127.374 123.748 127.374 123.68 127.393 123.615C127.393 123.262 127.393 122.751 127.118 122.24C127.135 122.149 127.135 122.056 127.118 121.965C127.005 121.445 126.861 120.933 126.686 120.431C126.571 119.895 126.412 119.37 126.214 118.859C126.214 118.466 125.978 118.072 125.82 117.679V117.482C131.891 113.782 137.5 109.375 142.53 104.353C147.455 99.2338 151.77 93.561 155.388 87.4482C156.285 87.8087 157.205 88.1106 158.141 88.3523C159.336 88.7413 160.557 89.0434 161.796 89.2565C162.888 89.7206 163.941 90.2725 164.943 90.9073Z" fill="#FFA224"/>
<path d="M175.045 101.562C166.395 116.129 154.228 128.294 139.659 136.943C137.25 135.704 135.048 134.099 133.131 132.185L132.816 131.832C140.407 127.239 147.418 121.747 153.695 115.477C159.953 109.205 165.445 102.211 170.051 94.6426L170.366 94.9564C172.275 96.8888 173.855 99.1203 175.045 101.562Z" fill="#FFA224"/>
<path d="M96.7619 22.6221C94.2616 21.9494 91.6853 21.6057 89.0961 21.5999C83.1717 21.5994 77.3856 23.3953 72.503 26.7501L78.9517 2.61175L72.8178 0.960938L65.7414 27.6542L39.0039 34.77L40.655 40.8233L64.7968 34.3765C62.386 37.8762 60.7648 41.8582 60.0452 46.0464C59.3256 50.2345 59.5245 54.5284 60.6288 58.6319C61.9606 63.6424 64.5916 68.2129 68.2563 71.8806L109.974 30.1698C106.306 26.5431 101.749 23.941 96.7619 22.6221ZM66.7243 57.0991V56.7056C65.7672 52.8123 65.8286 48.7381 66.9028 44.8754C67.9771 41.0128 70.0263 37.4923 72.8562 34.6519C74.9949 32.5037 77.5392 30.7995 80.3397 29.639C83.1403 28.4785 86.1432 27.8846 89.1748 27.8903C91.2083 27.8889 93.2316 28.1665 95.1896 28.7157H95.779C97.4515 29.2095 99.0621 29.8956 100.577 30.76L69.1222 62.2099C68.121 60.6085 67.3163 58.8925 66.7243 57.0991Z" fill="#191919"/>
<path d="M200.127 57.2564C200.126 51.9756 198.844 46.7734 196.389 42.0977C193.935 37.4219 190.38 33.4117 186.034 30.4115C181.687 27.4112 176.678 25.5105 171.435 24.8726C166.193 24.2347 160.874 24.8794 155.935 26.7499H155.541L116.419 39.5658C115.628 39.8187 114.97 40.3737 114.587 41.1101C114.204 41.8465 114.127 42.7046 114.374 43.497C116.299 49.9538 115.681 56.9021 112.645 62.9171C111.706 64.8356 110.517 66.6208 109.106 68.2247C108.674 68.7357 108.242 69.207 107.77 69.6787C107.295 70.1759 106.782 70.6363 106.236 71.055C104.669 72.4643 102.907 73.6421 101.007 74.5534C94.9916 77.6026 88.0271 78.1943 81.5837 76.2042C80.7911 75.9572 79.9338 76.0344 79.1973 76.4173C78.4608 76.8002 77.9048 77.458 77.6518 78.2485L64.8735 117.561V117.954C62.1994 124.937 62.0089 132.627 64.3321 139.734C66.6553 146.84 71.3503 152.932 77.6326 156.987C83.915 161.043 91.4011 162.815 98.8352 162.007C106.269 161.199 113.2 157.86 118.464 152.549C123.193 147.904 126.355 141.898 127.508 135.37C127.859 135.874 128.268 136.336 128.727 136.746C131.732 139.887 135.334 142.395 139.322 144.125C143.311 145.854 147.606 146.769 151.953 146.816C156.3 146.863 160.612 146.041 164.637 144.398C168.662 142.756 172.318 140.326 175.39 137.251C178.463 134.176 180.891 130.518 182.53 126.493C184.169 122.467 184.988 118.154 184.938 113.807C184.887 109.461 183.967 105.168 182.234 101.181C180.502 97.1949 177.991 93.5955 174.847 90.5932L173.47 89.3349C180.01 88.2063 186.032 85.0579 190.691 80.3322C193.716 77.3035 196.107 73.7038 197.727 69.7421C199.348 65.7803 200.163 61.5363 200.127 57.2564ZM113.904 148.067C109.637 152.456 103.974 155.222 97.8888 155.89C91.8038 156.558 85.6761 155.086 80.5585 151.728C75.4409 148.369 71.6535 143.334 69.8458 137.487C68.0382 131.639 68.3243 125.344 70.6541 119.684C70.7609 119.448 70.8266 119.195 70.8499 118.937L82.6453 83.0839C88.7254 84.3204 95.0337 83.7747 100.811 81.5118L119.566 119.527C119.588 119.696 119.588 119.868 119.566 120.038L119.761 120.588L120.115 121.807L120.351 122.632C120.506 123.174 120.626 123.726 120.706 124.284V124.834C120.706 124.834 121.02 127.075 121.059 128.176C121.325 131.808 120.825 135.454 119.592 138.88C118.36 142.307 116.422 145.437 113.904 148.067ZM106.511 78.6814C107.894 77.8723 109.209 76.9522 110.443 75.9297C111.122 75.3815 111.766 74.7908 112.37 74.1609C112.977 73.5859 113.542 72.9676 114.061 72.3123C115.143 71.0978 116.104 69.7812 116.932 68.3811L149.997 84.7357C146.647 90.172 142.689 95.2094 138.201 99.7523C133.663 104.261 128.608 108.22 123.142 111.546L106.511 78.6814ZM127.389 123.812C127.37 123.748 127.37 123.679 127.389 123.615C127.389 123.261 127.39 122.751 127.114 122.24C127.131 122.149 127.131 122.055 127.114 121.964C127.001 121.445 126.857 120.932 126.682 120.431C126.567 119.895 126.409 119.369 126.21 118.859C126.21 118.465 125.974 118.072 125.816 117.679V117.482C131.887 113.782 137.496 109.375 142.527 104.352C147.451 99.2336 151.766 93.5607 155.384 87.448C156.281 87.8084 157.201 88.1104 158.137 88.3521C159.332 88.741 160.553 89.0431 161.792 89.2562C162.84 89.688 163.852 90.2012 164.82 90.7899C155.986 105.572 143.609 117.921 128.806 126.721C128.263 125.788 127.788 124.815 127.389 123.812ZM177.992 113.63C177.999 117.452 177.173 121.23 175.569 124.7C173.965 128.169 171.622 131.246 168.705 133.717C165.789 136.188 162.368 137.992 158.682 139.004C154.996 140.016 151.132 140.211 147.363 139.576C153.525 135.506 159.243 130.802 164.426 125.541C169.341 120.58 173.766 115.156 177.638 109.345C177.875 110.761 177.993 112.194 177.992 113.63ZM175.081 101.561C166.431 116.129 154.265 128.294 139.695 136.943C137.286 135.704 135.086 134.099 133.169 132.185L132.855 131.832C140.446 127.239 147.456 121.747 153.733 115.477C159.992 109.205 165.483 102.211 170.09 94.6424L170.403 94.9563C172.297 96.8916 173.865 99.1229 175.043 101.561H175.081ZM166.471 83.5167C165.482 83.503 164.496 83.4108 163.522 83.2413H163.247C162.143 83.0716 161.052 82.8222 159.984 82.4946L158.843 82.1404C158.481 82.0333 158.126 81.9025 157.782 81.7479L119.525 62.9171C121.769 57.1364 122.314 50.8346 121.098 44.7543L156.918 32.9606C157.176 32.9373 157.428 32.8716 157.665 32.7648C163.328 30.4157 169.633 30.1152 175.494 31.9154C181.355 33.7156 186.404 37.5036 189.772 42.6265C193.139 47.7495 194.615 53.8867 193.944 59.9802C193.272 66.0737 190.494 71.7421 186.091 76.0084C183.535 78.5724 180.467 80.5661 177.086 81.8602C173.704 83.1542 170.086 83.7191 166.471 83.5167Z" fill="#191919"/>
<path d="M119.727 119.645V119.92V119.645ZM119.727 119.645C119.816 119.805 119.881 119.977 119.922 120.156C119.957 120.054 119.984 119.948 120.001 119.841L119.727 119.645ZM126.96 121.964C126.96 122.475 127.156 122.986 127.235 123.34C127.235 123.064 127.157 122.593 127.039 122.161L126.96 121.964Z" fill="#1A1A1A"/>
<path d="M189.828 244.383C190.066 247.683 189.401 250.986 187.902 253.936C186.949 255.058 185.73 255.922 184.356 256.451C182.983 256.98 181.498 257.156 180.039 256.964H150.354C149.421 256.997 148.488 256.863 147.601 256.57C144.914 255.979 142.509 254.487 140.786 252.342C139.063 250.197 138.123 247.528 138.125 244.776V177.67L138.912 176.884H187.392C187.614 177.919 187.746 178.971 187.785 180.029C187.785 180.972 187.785 181.876 187.785 182.741C187.775 183.795 187.682 184.847 187.509 185.886C187.31 187.115 187.007 188.325 186.604 189.503H156.605C155.347 189.503 154.089 189.503 152.673 189.503V193.434C152.673 194.496 152.673 195.95 152.673 197.365V210.535H156.605H180.747C181.071 211.542 181.269 212.586 181.336 213.641C181.756 215.611 181.756 217.647 181.336 219.617C181.261 220.684 181.064 221.739 180.747 222.761L152.831 217.612V237.975C152.892 239.115 152.892 240.256 152.831 241.395V244.816H154.01C156.054 244.816 158.296 244.816 160.931 244.816L189.828 244.383Z" fill="#191919"/>
<path d="M197.77 249.769C198.004 247.534 198.716 245.376 199.854 243.439C200.866 241.549 202.196 239.846 203.786 238.407C207.341 240.638 211.124 242.483 215.071 243.911C219.022 245.443 223.218 246.241 227.456 246.269C230.895 246.496 234.3 245.477 237.049 243.4C238.069 242.56 238.887 241.504 239.445 240.306C240.003 239.109 240.286 237.802 240.273 236.481C240.256 234.253 239.496 232.094 238.111 230.349C236.207 228.057 233.721 226.319 230.915 225.317L216.801 219.459C212.353 217.71 208.331 215.029 205.005 211.597C201.883 208.06 200.248 203.454 200.444 198.741C200.421 194.551 201.639 190.447 203.944 186.948C206.378 183.352 209.73 180.473 213.654 178.613C218.031 176.514 222.838 175.464 227.692 175.547C232.612 175.511 237.511 176.187 242.239 177.552C246.145 178.642 249.948 180.076 253.602 181.837C253.485 184.015 252.951 186.15 252.03 188.127C251.173 190.064 249.944 191.813 248.413 193.276C245.109 191.679 241.675 190.363 238.149 189.345C234.828 188.29 231.372 187.721 227.888 187.655C224.624 187.425 221.395 188.436 218.845 190.485C217.874 191.282 217.092 192.284 216.555 193.419C216.018 194.555 215.739 195.794 215.739 197.05C215.712 198.063 215.892 199.072 216.271 200.012C216.65 200.952 217.219 201.804 217.941 202.515C219.807 204.203 221.964 205.535 224.309 206.447L238.504 212.343C241.812 213.708 244.909 215.534 247.704 217.768C250.165 219.766 252.197 222.24 253.681 225.041C255.163 227.963 255.919 231.199 255.883 234.476C255.943 238.799 254.814 243.056 252.619 246.781C250.29 250.565 246.881 253.564 242.83 255.39C237.66 257.671 232.042 258.759 226.394 258.575C221.331 258.528 216.299 257.76 211.452 256.294C206.595 254.803 201.985 252.604 197.77 249.769Z" fill="#191919"/>
<path d="M53.6305 223.744C52.0042 220.669 49.622 218.059 46.7095 216.157C45.2264 215.106 43.5797 214.308 41.835 213.798C43.0676 213.371 44.2233 212.747 45.2562 211.95C47.4848 210.294 49.3117 208.158 50.6029 205.7C51.9021 203.157 52.576 200.34 52.5688 197.484C52.7518 193.339 51.6979 189.234 49.5412 185.69C47.3673 182.426 44.2151 179.935 40.5372 178.574C35.9887 176.823 31.1374 175.995 26.2652 176.137C22.3334 176.137 18.0855 176.137 13.8785 176.137C10.2069 176.219 6.71407 177.733 4.14307 180.355C1.57206 182.977 0.126529 186.499 0.117188 190.171V242.575C0.126308 246.355 1.61071 249.982 4.25442 252.684C6.89812 255.386 10.4927 256.949 14.2721 257.042C18.6757 257.042 23.1587 257.042 27.8376 257.042C33.2209 257.217 38.5805 256.252 43.5648 254.211C47.4713 252.651 50.7875 249.9 53.0411 246.349C55.2435 242.585 56.3588 238.286 56.2645 233.926C56.2612 230.364 55.3552 226.861 53.6305 223.744ZM14.7444 187.106C16.5137 187.106 18.677 187.106 20.525 187.106H25.6355C28.243 186.955 30.8423 187.526 33.1459 188.756C34.7294 189.626 35.9637 191.014 36.6438 192.688C37.3165 194.32 37.6509 196.072 37.6268 197.838C37.6445 199.615 37.3104 201.378 36.6438 203.026C35.9475 204.817 34.6751 206.325 33.0269 207.312C30.7166 208.603 28.08 209.191 25.4397 209.002H14.6656L14.7444 187.106ZM14.7444 212.147L35.5822 222.487C27.8488 223.837 20.608 227.199 14.5869 232.236L14.7444 212.147ZM40.6544 237.818C40.2576 239.378 39.5633 240.846 38.6097 242.143C37.472 243.495 36.0311 244.559 34.4034 245.248C32.1364 246.177 29.6962 246.606 27.2482 246.506H21.3889C19.2264 246.506 16.9855 246.506 14.7444 246.506V241.121C21.187 233.631 30.3336 228.995 40.184 228.226C40.8663 229.831 41.227 231.554 41.2457 233.298C41.2561 234.824 41.0561 236.345 40.6544 237.818Z" fill="#191919"/>
<path d="M123.103 244.383C123.391 247.691 122.708 251.011 121.137 253.936C120.19 255.066 118.972 255.937 117.597 256.466C116.221 256.996 114.733 257.167 113.273 256.964H83.6655C82.7063 256.996 81.7498 256.862 80.8357 256.57C78.1449 255.985 75.7352 254.495 74.0107 252.349C72.2862 250.203 71.3506 247.53 71.3594 244.776V177.67L72.0275 176.884H120.586C120.782 177.945 120.861 179.046 120.979 180.029V182.741C120.953 183.796 120.848 184.847 120.664 185.886C120.48 187.104 120.231 188.311 119.918 189.503H89.7994C88.5412 189.503 87.283 189.503 85.8676 189.503C85.8676 191.075 85.8676 192.333 85.8676 193.434V210.693H89.7994H113.941C114.218 211.716 114.44 212.752 114.609 213.798C114.609 214.977 114.807 215.96 114.807 216.746C114.807 217.532 114.806 218.594 114.609 219.773C114.413 220.953 114.216 221.936 113.941 222.918L85.9866 218.122V241.71C85.9866 242.693 85.9866 243.872 85.9866 245.13H87.1654C89.2099 245.13 91.4521 245.13 94.0864 245.13L123.103 244.383Z" fill="#191919"/>
<path d="M70.8492 285.819H73.5619V293.681C71.4288 295.338 68.7922 296.212 66.0919 296.159C64.7198 296.244 63.344 296.048 62.0506 295.582C60.7573 295.116 59.5739 294.39 58.5719 293.449C57.5699 292.508 56.7718 291.372 56.2259 290.11C55.68 288.848 55.3984 287.488 55.3984 286.114C55.3984 284.739 55.68 283.38 56.2259 282.118C56.7718 280.856 57.5699 279.72 58.5719 278.779C59.5739 277.838 60.7573 277.111 62.0506 276.645C63.344 276.179 64.7198 275.984 66.0919 276.069C67.4934 276.006 68.8925 276.243 70.1946 276.765C71.4966 277.287 72.6713 278.083 73.6406 279.097L71.9109 280.826C71.1621 280.083 70.2717 279.499 69.2922 279.107C68.3128 278.715 67.2636 278.525 66.209 278.547C65.1692 278.472 64.1263 278.611 63.143 278.957C62.1597 279.304 61.2569 279.849 60.4937 280.559C59.7304 281.269 59.1225 282.129 58.7063 283.084C58.2901 284.04 58.0747 285.071 58.0747 286.114C58.0747 287.156 58.2901 288.188 58.7063 289.144C59.1225 290.099 59.7304 290.959 60.4937 291.669C61.2569 292.379 62.1597 292.924 63.143 293.271C64.1263 293.617 65.1692 293.756 66.209 293.681C67.8362 293.707 69.437 293.256 70.8108 292.384L70.8492 285.819Z" fill="#191919"/>
<path d="M83.4727 276.147H86.2641V293.366H96.9191V295.804H83.4727V276.147Z" fill="#191919"/>
<path d="M102.738 285.936C102.66 283.855 103.206 281.798 104.304 280.028C105.403 278.258 107.006 276.857 108.906 276.004C110.807 275.15 112.918 274.884 114.971 275.239C117.024 275.594 118.923 276.554 120.427 277.995C121.931 279.437 122.97 281.295 123.411 283.331C123.851 285.366 123.674 287.487 122.902 289.421C122.129 291.356 120.798 293.015 119.076 294.188C117.353 295.36 115.319 295.991 113.235 296.001C111.875 296.07 110.515 295.861 109.238 295.385C107.962 294.91 106.797 294.178 105.813 293.235C104.83 292.293 104.05 291.159 103.521 289.904C102.992 288.649 102.725 287.298 102.738 285.936ZM120.825 285.936C120.832 284.425 120.391 282.945 119.556 281.685C118.72 280.424 117.53 279.441 116.134 278.859C114.739 278.277 113.202 278.123 111.719 278.416C110.236 278.709 108.873 279.435 107.804 280.504C106.735 281.573 106.007 282.936 105.714 284.419C105.421 285.902 105.575 287.439 106.157 288.834C106.739 290.229 107.723 291.42 108.983 292.255C110.243 293.09 111.724 293.531 113.235 293.523C114.239 293.55 115.24 293.373 116.173 293.001C117.106 292.63 117.953 292.072 118.663 291.362C119.373 290.652 119.931 289.804 120.302 288.871C120.674 287.939 120.852 286.94 120.825 285.936Z" fill="#191919"/>
<path d="M149.406 290.457C149.406 293.838 146.851 295.765 141.857 295.765H132.5V276.108H141.306C145.828 276.108 148.344 278.035 148.344 281.219C148.379 282.124 148.148 283.02 147.68 283.795C147.212 284.571 146.528 285.192 145.71 285.582C146.798 285.838 147.762 286.464 148.436 287.354C149.111 288.244 149.454 289.341 149.406 290.457ZM135.291 278.389V284.678H141.032C143.902 284.678 145.553 283.618 145.553 281.534C145.553 279.45 143.902 278.389 141.032 278.389H135.291ZM146.536 290.183C146.536 287.902 144.884 286.88 141.738 286.88H135.291V293.445H141.738C144.884 293.523 146.536 292.541 146.536 290.261V290.183Z" fill="#191919"/>
<path d="M170.836 290.851H160.376L158.215 295.765H155.383L164.268 276.108H167.061L175.986 295.765H173.038L170.836 290.851ZM169.853 288.609L165.606 278.978L161.359 288.609H169.853Z" fill="#191919"/>
<path d="M183.418 276.147H186.209V293.366H196.864V295.804H183.418V276.147Z" fill="#191919"/>
</svg>
