<svg width="257" height="296" viewBox="0 0 257 296" fill="none" xmlns="http://www.w3.org/2000/svg">
<path d="M136.252 77.1398C135.234 82.0824 132.809 86.6253 129.269 90.2214C125.729 93.8175 121.224 96.3134 116.298 97.4087L107.246 79.0289C111.472 76.1136 115.139 72.4606 118.069 68.2451L136.252 77.1398Z" fill="#172BFF"/>
<path d="M127.675 123.266C127.694 123.162 127.694 123.055 127.675 122.951C127.661 123.056 127.661 123.162 127.675 123.266Z" fill="#019271"/>
<path d="M178.206 112.797C178.202 118.012 176.652 123.108 173.752 127.442C170.852 131.776 166.732 135.153 161.913 137.145C157.093 139.138 151.792 139.657 146.678 138.636C141.564 137.616 136.867 135.102 133.182 131.413C130.817 129.095 128.943 126.324 127.672 123.266L154.946 115.907L162.306 88.5928C165.361 89.8879 168.129 91.7738 170.453 94.1421C172.919 96.5815 174.874 99.4873 176.205 102.69C177.536 105.893 178.217 109.329 178.206 112.797Z" fill="#019271"/>
<path d="M121.26 123.817C121.26 123.384 121.024 122.755 120.906 122.204V122.597L121.26 123.817Z" fill="#191919"/>
<path d="M125.941 117.205C125.941 116.969 125.941 116.812 125.941 116.615C125.968 116.811 125.968 117.009 125.941 117.205Z" fill="#191919"/>
<path d="M127.675 123.266C127.694 123.162 127.694 123.055 127.675 122.951C127.661 123.056 127.661 123.162 127.675 123.266Z" fill="#191919"/>
<path d="M96.8584 21.6464C94.2984 20.9202 91.648 20.5624 88.987 20.5837C83.0503 20.5798 77.2546 22.3927 72.3784 25.7788L78.9903 1.65299L72.89 0L65.8057 26.7234L39.043 33.847L40.696 39.9474L64.8218 33.4928C62.4557 37.0182 60.8791 41.0132 60.1998 45.2043C59.5206 49.3954 59.7547 53.6838 60.8861 57.7761C62.2045 62.7896 64.825 67.3653 68.482 71.0394L110.2 29.2816C106.51 25.5968 101.905 22.9614 96.8584 21.6464ZM66.9077 56.1625V55.7295C65.9303 51.8635 65.9597 47.8115 66.9932 43.9601C68.0266 40.1087 70.0297 36.5863 72.8113 33.729C74.9502 31.5729 77.4944 29.8613 80.2976 28.6928C83.1008 27.5242 86.1075 26.9218 89.1444 26.9202C91.18 26.9188 93.2062 27.1969 95.1661 27.7467H95.7564C97.4306 28.2411 99.0419 28.9279 100.558 29.7933L69.0724 61.2789C68.152 59.6645 67.4255 57.9472 66.9077 56.1625Z" fill="black"/>
<path d="M125.942 116.733C125.942 116.93 125.942 117.087 125.942 117.323C125.969 117.127 125.969 116.929 125.942 116.733ZM120.078 118.976L120.472 120.039L120.078 118.976Z" fill="#191919"/>
<path d="M190.02 243.698C190.258 247.002 189.591 250.309 188.091 253.262C187.137 254.385 185.917 255.25 184.542 255.78C183.167 256.309 181.681 256.486 180.22 256.293H150.545C149.61 256.326 148.677 256.193 147.79 255.899C145.1 255.307 142.693 253.813 140.968 251.666C139.243 249.519 138.303 246.846 138.305 244.092V176.792L139.092 176.004H187.501C187.724 177.04 187.856 178.094 187.895 179.153C187.895 180.098 187.895 181.003 187.895 181.869C187.884 182.924 187.792 183.976 187.619 185.017C187.42 186.247 187.117 187.459 186.714 188.638H156.763C155.504 188.638 154.244 188.638 152.827 188.638V192.574C152.827 193.636 152.827 195.093 152.827 196.509V209.694H156.763H181.046C181.371 210.702 181.569 211.746 181.637 212.803C182.057 214.775 182.057 216.813 181.637 218.785C181.562 219.854 181.364 220.911 181.046 221.934L153.103 216.778V237.165C153.164 238.306 153.164 239.449 153.103 240.589V244.013H154.284C156.33 244.013 158.574 244.013 161.21 244.013L190.02 243.698Z" fill="black"/>
<path d="M254.089 224.335C252.603 221.374 250.512 218.76 247.949 216.66C245.153 214.421 242.052 212.592 238.74 211.229L224.335 205.326C221.997 204.394 219.84 203.062 217.959 201.39C217.244 200.674 216.682 199.82 216.31 198.879C215.938 197.938 215.762 196.931 215.795 195.919C215.795 194.662 216.074 193.42 216.611 192.284C217.149 191.147 217.932 190.144 218.904 189.347C221.442 187.297 224.662 186.285 227.917 186.513C231.403 186.593 234.861 187.162 238.189 188.205C241.723 189.211 245.16 190.528 248.461 192.141C250.017 190.688 251.262 188.934 252.121 186.985C253.026 185 253.56 182.866 253.696 180.688C250.035 178.932 246.23 177.497 242.321 176.398C237.588 175.036 232.684 174.36 227.759 174.391C222.902 174.316 218.093 175.367 213.709 177.461C209.781 179.323 206.424 182.204 203.988 185.804C201.651 189.297 200.417 193.41 200.446 197.612C200.25 202.33 201.886 206.941 205.011 210.481C208.347 213.909 212.371 216.592 216.818 218.353L230.947 224.217C233.767 225.221 236.267 226.96 238.189 229.255C239.575 231.002 240.337 233.164 240.354 235.394C240.359 236.719 240.069 238.029 239.504 239.227C238.939 240.426 238.113 241.483 237.087 242.321C234.35 244.43 230.93 245.453 227.484 245.194C223.259 245.163 219.074 244.377 215.126 242.872C211.165 241.421 207.366 239.561 203.791 237.323C202.22 238.782 200.891 240.483 199.855 242.36C198.729 244.303 198.031 246.463 197.809 248.697C202.045 251.528 206.691 253.691 211.584 255.112C216.443 256.602 221.496 257.371 226.579 257.395C232.22 257.583 237.83 256.493 242.99 254.207C247.056 252.379 250.483 249.378 252.83 245.588C255.013 241.855 256.13 237.593 256.057 233.269C256.084 230.181 255.411 227.126 254.089 224.335Z" fill="black"/>
<path d="M33.1383 206.861C30.8298 208.168 28.1892 208.77 25.5424 208.592C28.1852 208.782 30.8257 208.193 33.1383 206.9L33.4532 206.664L33.1383 206.861ZM33.1383 188.087C30.8324 186.855 28.2312 186.283 25.6211 186.434H20.5441C18.4975 186.434 16.6084 186.434 14.7586 186.434C16.5296 186.434 18.6943 186.434 20.5441 186.434H25.7392C28.3493 186.283 30.9505 186.855 33.2564 188.087L34.4764 188.953C34.0948 188.631 33.6867 188.341 33.2564 188.087H33.1383ZM34.319 244.525C32.0498 245.456 29.6065 245.885 27.156 245.785H21.4099C19.2453 245.785 17.0019 245.785 14.7586 245.785C17.0019 245.785 19.2453 245.785 21.4099 245.785H27.2741C29.7246 245.885 32.1679 245.456 34.4371 244.525C35.0787 244.232 35.6971 243.89 36.2869 243.502C35.6974 243.89 35.079 244.232 34.4371 244.525H34.319ZM35.6571 221.856L14.7979 211.505L35.6571 221.856L36.3656 222.367C36.1923 222.171 35.9938 221.999 35.7752 221.856H35.6571ZM43.5286 253.814C38.5393 255.857 33.1744 256.823 27.7857 256.647C23.1023 256.647 18.6156 256.647 14.2076 256.647C13.6705 256.688 13.1311 256.688 12.5939 256.647C13.131 256.688 13.6705 256.688 14.2076 256.647C18.6156 256.647 23.1023 256.647 27.7857 256.647C33.1744 256.823 38.5393 255.857 43.5286 253.814L45.0635 253.066L43.5286 253.814ZM7.87109 255.034C9.27718 255.787 10.8127 256.267 12.3972 256.451C10.8221 256.225 9.2938 255.746 7.87109 255.034ZM45.1815 211.19C44.1623 211.988 43.0188 212.613 41.7968 213.04C43.0236 212.642 44.1697 212.029 45.1815 211.229C45.7533 210.811 46.2927 210.351 46.7952 209.852C46.4016 210.324 45.8506 210.757 45.2996 211.19H45.1815ZM33.0202 206.861C30.746 208.145 28.1497 208.746 25.5424 208.592C28.1852 208.782 30.8257 208.193 33.1383 206.9L33.4532 206.664L33.0202 206.861ZM34.319 244.525C32.0498 245.456 29.6065 245.885 27.156 245.785H21.4099C19.2453 245.785 17.0019 245.785 14.7586 245.785C17.0019 245.785 19.2453 245.785 21.4099 245.785H27.2741C29.7246 245.885 32.1679 245.456 34.4371 244.525C35.0787 244.232 35.6971 243.89 36.2869 243.502C35.6974 243.89 35.079 244.232 34.4371 244.525H34.319Z" fill="#191919"/>
<path d="M123.227 243.698C123.516 247.01 122.832 250.334 121.259 253.262C120.312 254.394 119.092 255.265 117.715 255.795C116.338 256.326 114.849 256.497 113.388 256.293H83.8305C82.8704 256.325 81.9119 256.192 80.9968 255.899C78.3034 255.314 75.8923 253.822 74.1661 251.673C72.4398 249.524 71.5029 246.848 71.5118 244.092V176.792L72.1809 176.004H120.787C120.787 177.067 121.062 178.169 121.18 179.153V181.869C121.154 182.924 121.049 183.977 120.865 185.017C120.681 186.237 120.431 187.445 120.118 188.638H89.9702C88.7108 188.638 87.4514 188.638 86.0345 188.638C86.0345 190.212 86.0345 191.472 86.0345 192.574V209.851H89.9702H114.135C114.412 210.876 114.635 211.913 114.805 212.961C114.805 214.141 114.805 215.125 114.805 215.912C114.805 216.7 114.805 217.762 114.805 218.943C114.805 220.124 114.411 221.108 114.135 222.091L86.1526 217.29V240.904C86.1526 241.888 86.1526 243.069 86.1526 244.328H87.3333C89.3799 244.328 91.6232 244.328 94.2601 244.328L123.227 243.698Z" fill="black"/>
<path d="M81.7477 289.786C81.7477 293.17 79.1895 295.099 74.2306 295.099H64.8242V275.499H73.6402C78.1662 275.499 80.7245 277.388 80.7245 280.576C80.7594 281.482 80.5283 282.379 80.0597 283.155C79.5912 283.931 78.9056 284.553 78.0875 284.945C79.1654 285.2 80.1206 285.823 80.7886 286.707C81.4567 287.59 81.7959 288.679 81.7477 289.786ZM67.6579 277.703V284H73.404C76.2771 284 77.8908 282.938 77.8908 280.852C77.8908 278.766 76.2771 277.703 73.404 277.703H67.6579ZM78.914 289.51C78.914 287.227 77.2217 286.204 74.1125 286.204H67.6579V292.777H74.1125C77.2217 292.855 78.914 291.872 78.914 289.589V289.51Z" fill="black"/>
<path d="M103.822 295.178L99.5716 289.077H93.4713V295.178H90.5195V275.499H98.3909C103.507 275.499 106.577 278.057 106.577 282.347C106.638 283.699 106.255 285.034 105.488 286.15C104.721 287.265 103.611 288.099 102.327 288.526L106.892 295.178H103.822ZM103.822 282.387C103.822 279.553 101.933 277.979 98.3516 277.979H93.4713V286.834H98.3909C101.854 286.755 103.743 285.102 103.743 282.308L103.822 282.387Z" fill="black"/>
<path d="M128.19 290.179H117.761L115.596 295.178H112.684L121.618 275.499H124.373L133.307 295.178H130.355L128.19 290.179ZM127.206 287.936L122.995 278.293L118.745 287.936H127.206Z" fill="black"/>
<path d="M139.012 292.856L140.035 290.691C141.876 292.165 144.17 292.958 146.529 292.935C149.953 292.935 151.409 291.636 151.409 289.904C151.409 285.103 139.602 288.133 139.602 280.852C139.602 277.782 141.964 275.224 147.119 275.224C149.353 275.19 151.55 275.791 153.456 276.956L152.511 279.199C150.903 278.166 149.031 277.619 147.119 277.625C143.774 277.625 142.357 279.002 142.357 280.734C142.357 285.536 154.164 282.544 154.164 289.747C154.164 292.738 151.724 295.335 146.529 295.335C143.813 295.399 141.158 294.523 139.012 292.856Z" fill="black"/>
<path d="M162.824 275.499H165.619V295.178H162.824V275.499Z" fill="black"/>
<path d="M176.121 275.499H178.915V292.698H189.581V295.178H176.121V275.499Z" fill="black"/>
<path d="M156.207 86.9005L149.832 110.79L125.942 117.205C125.942 116.969 125.942 116.812 125.942 116.615L119.094 103.116C124.624 101.634 129.662 98.7105 133.693 94.6447C137.724 90.579 140.604 85.5163 142.039 79.9736L155.499 86.5856L156.207 86.9005Z" fill="#FFA224"/>
<path d="M159.475 81.3115H159.711H159.475ZM162.191 88.4745H162.427H162.191ZM127.517 122.951C127.536 123.055 127.536 123.162 127.517 123.266C127.503 123.162 127.503 123.056 127.517 122.951ZM119.921 118.976L120.315 120.039L119.921 118.976ZM109.57 98.0383L119.803 118.661L109.57 98.0383Z" fill="#191919"/>
<path d="M3.9375 179.861C5.1961 178.582 6.67627 177.542 8.30613 176.792C6.65469 177.504 5.16763 178.549 3.9375 179.861ZM35.7773 221.855L14.9181 211.504L35.7773 221.855L36.4858 222.367C36.2763 222.162 36.0375 221.99 35.7773 221.855ZM33.1404 206.86C30.832 208.167 28.1913 208.769 25.5445 208.592C28.1874 208.781 30.8278 208.193 33.1404 206.9L33.4553 206.664L33.1404 206.86ZM33.1404 188.087C30.8345 186.855 28.2333 186.283 25.6232 186.434H20.5462C18.4996 186.434 16.6105 186.434 14.7607 186.434C16.5317 186.434 18.6964 186.434 20.5462 186.434H25.7413C28.3514 186.283 30.9526 186.855 33.2585 188.087L34.4785 188.953C34.0969 188.631 33.6888 188.341 33.2585 188.087H33.1404ZM34.3211 244.525C32.0519 245.455 29.6086 245.885 27.1581 245.784H21.412C19.2474 245.784 17.004 245.784 14.7607 245.784C17.004 245.784 19.2474 245.784 21.412 245.784H27.2762C29.7267 245.885 32.17 245.455 34.4392 244.525C35.0808 244.231 35.6992 243.889 36.289 243.502C35.6995 243.89 35.0811 244.232 34.4392 244.525H34.3211ZM40.4608 177.933C35.9077 176.179 31.0512 175.35 26.1742 175.493C22.2385 175.493 17.988 175.493 13.7768 175.493C11.9152 175.529 10.0805 175.944 8.38484 176.713C10.0889 175.974 11.92 175.573 13.7768 175.532C17.988 175.532 22.1992 175.532 26.1742 175.532C31.0512 175.389 35.9077 176.219 40.4608 177.972C42.8046 178.868 44.9554 180.204 46.7973 181.908C45.0028 180.191 42.8905 178.841 40.5789 177.933H40.4608ZM41.799 213.039L43.019 213.433L41.799 213.039ZM46.6399 215.401L45.4592 214.653L46.6399 215.44C47.3483 215.912 48.0174 216.424 48.6864 216.936C48.0763 216.384 47.4322 215.872 46.7579 215.401H46.6399ZM33.2585 188.087C30.9526 186.855 28.3514 186.283 25.7413 186.434H20.5462C18.4996 186.434 16.6105 186.434 14.7607 186.434C16.5317 186.434 18.6964 186.434 20.5462 186.434H25.7413C28.3514 186.283 30.9526 186.855 33.2585 188.087L34.4785 188.953C34.0969 188.631 33.6888 188.341 33.2585 188.087ZM35.7773 221.855L14.9181 211.504L35.7773 221.855L36.4858 222.367C36.2763 222.162 36.0375 221.99 35.7773 221.855Z" fill="#191919"/>
<path d="M53.684 222.997C52.8531 221.439 51.821 219.996 50.6141 218.707C50.0502 218.077 49.4454 217.486 48.8037 216.936C48.1347 216.424 47.4656 215.913 46.7572 215.44L45.5765 214.653C44.7818 214.196 43.9528 213.801 43.097 213.472L41.8769 213.079C43.0989 212.652 44.2424 212.027 45.2616 211.229C45.8126 210.796 46.3636 210.363 46.8752 209.891C48.4033 208.486 49.6693 206.82 50.6141 204.971C51.9146 202.425 52.5892 199.605 52.582 196.746C52.7652 192.597 51.7103 188.487 49.5515 184.939C49.0439 184.175 48.4781 183.451 47.8592 182.774L46.8752 181.79C45.0333 180.086 42.8825 178.75 40.5388 177.854C35.9857 176.101 31.1291 175.271 26.2522 175.414C22.3165 175.414 18.0659 175.414 13.8547 175.414C11.998 175.456 10.1669 175.856 8.46278 176.595C6.76103 177.388 5.22517 178.496 3.93673 179.862C2.66776 181.147 1.6665 182.672 0.990924 184.347C0.315348 186.023 -0.0211129 187.816 0.00102563 189.622V242.085C0.00846324 243.512 0.220527 244.93 0.630738 246.296L1.10302 247.634C1.48151 248.463 1.91542 249.265 2.4018 250.035C2.91111 250.796 3.4909 251.508 4.13351 252.16C4.77354 252.813 5.47174 253.406 6.21943 253.931C6.74739 254.332 7.29943 254.7 7.87243 255.033C9.29513 255.746 10.8234 256.224 12.3985 256.45C12.9356 256.491 13.475 256.491 14.0121 256.45C18.4201 256.45 22.9068 256.45 27.5903 256.45C32.979 256.626 38.3438 255.66 43.3331 253.617L44.868 252.908C45.8321 252.4 46.7652 251.835 47.6624 251.216L48.8824 250.271L50.0238 249.209C51.105 248.169 52.0445 246.991 52.8181 245.706C55.0227 241.938 56.1399 237.633 56.0454 233.269C56.1401 229.7 55.3276 226.166 53.684 222.997ZM14.7599 186.316C16.531 186.316 18.6956 186.316 20.5454 186.316H25.7405C28.3506 186.165 30.9518 186.737 33.2577 187.969C33.6895 188.235 34.0976 188.538 34.4778 188.874C34.8439 189.162 35.1742 189.492 35.4617 189.858C36.0419 190.51 36.4837 191.274 36.7605 192.102C37.4338 193.736 37.7685 195.49 37.7444 197.257C37.7621 199.037 37.4277 200.803 36.7605 202.452C36.2626 203.767 35.4361 204.933 34.3597 205.837C34.1829 206.018 33.9846 206.177 33.7693 206.309C33.6923 206.42 33.582 206.503 33.4545 206.546L33.1396 206.782C30.8396 208.116 28.1983 208.745 25.5437 208.592H14.7599V186.316ZM14.7599 211.386L35.6191 221.737C35.868 221.887 36.0935 222.073 36.2882 222.288L35.5798 221.777C27.8486 223.098 20.6085 226.454 14.6025 231.498L14.7599 211.386ZM40.6962 237.087C40.299 238.648 39.6041 240.118 38.6496 241.416C38.4061 241.745 38.1291 242.049 37.8231 242.321C37.3548 242.78 36.8405 243.188 36.2882 243.541C35.6984 243.929 35.08 244.271 34.4384 244.564C32.1692 245.495 29.7259 245.924 27.2754 245.824H21.4112C19.2466 245.824 17.0033 245.824 14.7599 245.824V240.511C21.209 233.012 30.3637 228.371 40.2239 227.602C40.9068 229.208 41.2679 230.933 41.2865 232.679C41.2864 234.168 41.0878 235.65 40.6962 237.087Z" fill="black"/>
<path d="M36.4467 222.407L35.7383 221.895C35.9985 222.029 36.2373 222.202 36.4467 222.407Z" fill="#191919"/>
<path d="M200.333 56.32C200.338 51.0347 199.06 45.8273 196.607 41.1455C194.155 36.4637 190.602 32.4478 186.254 29.4432C181.906 26.4386 176.893 24.5353 171.646 23.897C166.4 23.2587 161.076 23.9045 156.135 25.7789C156.005 25.7561 155.871 25.7561 155.741 25.7789L116.384 38.57C115.593 38.8232 114.933 39.379 114.55 40.1162C114.167 40.8534 114.09 41.7123 114.338 42.5057C116.263 48.9831 115.643 55.9511 112.606 61.9874C109.721 66.8494 105.661 70.9092 100.799 73.7945C94.8127 76.7765 87.9122 77.3539 81.5138 75.4081C81.1212 75.2803 80.707 75.2319 80.2954 75.2659C79.8838 75.2999 79.4832 75.4155 79.1168 75.606C78.7504 75.7965 78.4256 76.0581 78.1615 76.3755C77.8973 76.693 77.699 77.0598 77.5781 77.4547L64.7871 116.812V117.205C63.2033 121.451 62.52 125.979 62.7807 130.503C63.0413 135.026 64.2402 139.446 66.3012 143.481C68.3621 147.517 71.24 151.079 74.752 153.942C78.2639 156.805 82.3331 158.906 86.7009 160.112C91.0687 161.318 95.6395 161.602 100.123 160.945C104.606 160.289 108.904 158.708 112.743 156.301C116.582 153.894 119.879 150.715 122.423 146.966C124.967 143.217 126.704 138.979 127.522 134.522C127.897 134.996 128.305 135.444 128.742 135.861C131.748 139.007 135.352 141.522 139.343 143.256C143.334 144.991 147.632 145.911 151.983 145.962C156.334 146.012 160.652 145.193 164.682 143.552C168.713 141.911 172.375 139.482 175.453 136.406C178.531 133.33 180.964 129.67 182.609 125.641C184.253 121.612 185.076 117.295 185.029 112.944C184.982 108.593 184.066 104.294 182.334 100.302C180.603 96.3095 178.092 92.7031 174.947 89.6947C174.491 89.2306 174.004 88.7967 173.491 88.3959C180.046 87.2822 186.088 84.1443 190.769 79.4225C193.806 76.391 196.214 72.7896 197.855 68.825C199.496 64.8605 200.338 60.6108 200.333 56.32ZM118.076 68.2451L136.181 77.1398C135.163 82.0824 132.738 86.6253 129.197 90.2214C125.657 93.8175 121.153 96.3135 116.227 97.4087L107.175 79.029C111.429 76.121 115.122 72.4676 118.076 68.2451ZM114.141 147.274C109.87 151.681 104.195 154.461 98.0944 155.134C91.994 155.806 85.85 154.33 80.7212 150.959C75.5924 147.588 71.8001 142.533 69.9979 136.666C68.1956 130.8 68.4963 124.488 70.8481 118.819C70.8831 118.584 70.8831 118.345 70.8481 118.11L82.6552 82.1775C88.7373 83.4302 95.052 82.8972 100.838 80.6426L109.418 98.0384L119.611 118.661L119.966 119.724C120.162 120.275 120.32 120.865 120.477 121.416V121.771V122.164L120.713 123.384C120.713 123.384 120.713 123.739 120.713 123.896C120.713 124.053 121.028 126.1 121.068 127.202C121.384 130.846 120.932 134.516 119.738 137.974C118.545 141.432 116.638 144.601 114.141 147.274ZM125.948 117.205C125.948 116.969 125.948 116.812 125.948 116.615L119.1 103.115C124.63 101.633 129.668 98.7104 133.699 94.6447C137.73 90.5789 140.61 85.5163 142.045 79.9735L155.505 86.5855L156.213 86.861L149.838 110.751L125.948 117.205ZM178.175 112.797C178.171 118.012 176.62 123.108 173.72 127.442C170.82 131.776 166.7 135.153 161.881 137.145C157.062 139.138 151.76 139.657 146.646 138.636C141.532 137.616 136.836 135.102 133.15 131.413C130.786 129.095 128.912 126.324 127.64 123.266C127.66 123.162 127.66 123.055 127.64 122.951C127.626 123.056 127.626 123.162 127.64 123.266L154.915 115.907L162.274 88.5927H162.038H162.274C165.329 89.8879 168.098 91.7738 170.421 94.1421C172.894 96.5782 174.857 99.4826 176.195 102.686C177.533 105.889 178.219 109.326 178.214 112.797H178.175ZM166.643 82.6498L163.888 82.4137H163.455L161.487 82.0201C161.231 81.965 160.981 81.886 160.74 81.784H160.464H160.11H159.874H159.638H159.362L158.811 81.5872H158.339L137.755 70.8427L119.848 62.0267C122.094 56.2394 122.64 49.931 121.422 43.8438L157.276 32.0367C157.537 32.027 157.792 31.9598 158.024 31.8399C161.15 30.5786 164.492 29.937 167.863 29.9508C173.078 29.9548 178.174 31.505 182.508 34.4052C186.842 37.3054 190.219 41.4255 192.211 46.2446C194.203 51.0636 194.722 56.3652 193.702 61.4792C192.682 66.5931 190.168 71.2897 186.479 74.9752C183.907 77.5898 180.808 79.6266 177.388 80.95C173.968 82.2733 170.305 82.8528 166.643 82.6498Z" fill="black"/>
</svg>
