<svg width="403" height="191" viewBox="0 0 403 191" fill="none" xmlns="http://www.w3.org/2000/svg">
<path d="M298.734 109.415C299.075 114.548 298.028 119.678 295.702 124.266C294.202 126.031 292.283 127.392 290.122 128.224C287.96 129.056 285.624 129.333 283.327 129.03H236.673C235.204 129.083 233.737 128.873 232.342 128.411C228.113 127.48 224.328 125.132 221.616 121.756C218.904 118.38 217.427 114.179 217.43 109.849V4.22677L218.667 2.98926H294.774C295.125 4.61799 295.332 6.27437 295.393 7.93931C295.393 9.42433 295.393 10.8475 295.393 12.2087C295.377 13.8675 295.232 15.5224 294.96 17.1588C294.646 19.093 294.17 20.9972 293.537 22.8514H246.449C244.469 22.8514 242.489 22.8514 240.262 22.8514V29.0389C240.262 30.7096 240.262 32.999 240.262 35.2265V56.2024H246.449H284.627C285.137 57.7872 285.448 59.4291 285.555 61.0905C285.841 62.622 286.007 64.1737 286.05 65.7312C286.014 67.3301 285.848 68.9235 285.555 70.4956C285.437 72.1759 285.125 73.8368 284.627 75.4457L240.695 67.34V99.3916C240.791 101.185 240.791 102.982 240.695 104.775V110.158H242.551C245.769 110.158 249.296 110.158 253.441 110.158L298.734 109.415Z" fill="#282828"/>
<path d="M311.293 118.078C311.643 114.566 312.74 111.169 314.511 108.116C316.128 105.156 318.218 102.481 320.698 100.196C326.321 103.695 332.293 106.598 338.518 108.858C344.716 111.255 351.302 112.492 357.947 112.509C363.352 112.894 368.715 111.312 373.045 108.054C374.666 106.729 375.969 105.058 376.858 103.162C377.747 101.266 378.199 99.1955 378.181 97.102C378.195 93.4937 376.997 89.9851 374.777 87.14C371.755 83.5333 367.825 80.799 363.392 79.2199L341.179 70.0005C334.187 67.2317 327.861 63.0142 322.616 57.6253C317.717 52.0092 315.188 44.7114 315.562 37.2682C315.475 30.5601 317.416 23.982 321.131 18.3961C324.9 12.7907 330.088 8.28556 336.167 5.34037C343.05 2.02296 350.617 0.369748 358.257 0.51407C365.979 0.464446 373.669 1.52724 381.089 3.66973C387.256 5.38727 393.261 7.64412 399.033 10.4142C398.827 13.8459 397.966 17.2066 396.496 20.3143C395.193 23.3703 393.252 26.1128 390.803 28.3581C385.586 25.8863 380.187 23.8177 374.654 22.1706C369.42 20.5487 363.983 19.6738 358.504 19.5718C353.388 19.213 348.325 20.8047 344.335 24.0268C342.814 25.2739 341.588 26.8411 340.743 28.6165C339.898 30.392 339.455 32.332 339.446 34.2982C339.395 35.8883 339.671 37.472 340.256 38.9513C340.842 40.4307 341.724 41.7742 342.85 42.8989C345.79 45.5495 349.186 47.6459 352.873 49.0865L375.211 58.306C380.461 60.4936 385.376 63.4098 389.813 66.9686C393.875 70.1685 397.208 74.1974 399.59 78.7868C401.903 83.3906 403.071 88.4851 402.993 93.637C403.107 100.435 401.352 107.135 397.919 113.004C394.198 118.936 388.82 123.647 382.45 126.555C374.304 130.114 365.472 131.826 356.586 131.567C348.612 131.502 340.691 130.273 333.073 127.916C325.352 125.773 318.006 122.455 311.293 118.078Z" fill="#282828"/>
<path d="M84.3985 76.9304C81.8392 72.0912 78.0918 67.9819 73.5084 64.9884C71.1744 63.3341 68.5815 62.0795 65.8358 61.2758C67.7756 60.6037 69.5936 59.6216 71.219 58.3677C74.7262 55.7607 77.6022 52.3983 79.6341 48.5295C81.6786 44.526 82.7392 40.0927 82.7279 35.5974C83.0159 29.0743 81.3575 22.6128 77.9635 17.0347C74.5037 11.9903 69.5475 8.15946 63.7939 6.08273C56.6358 3.32604 49.0004 2.02193 41.333 2.24644C35.1455 2.24644 28.4629 2.24644 21.8422 2.24644C16.0103 2.32787 10.4459 4.70607 6.35659 8.86485C2.26732 13.0236 -0.0167676 18.6274 9.26832e-05 24.4598V106.94C0.0144465 112.89 2.35052 118.598 6.51097 122.851C10.6714 127.104 16.3276 129.565 22.2753 129.71C29.2054 129.71 36.2592 129.71 43.6225 129.71C52.0943 129.986 60.5288 128.468 68.3727 125.255C74.5205 122.8 79.7382 118.47 83.2848 112.88C86.8807 106.995 88.7662 100.224 88.7298 93.3275C88.7316 87.5788 87.239 81.9283 84.3985 76.9304ZM23.2035 19.0766C25.9879 19.0766 29.391 19.0766 32.2992 19.0766H40.4668C44.5703 18.839 48.6598 19.7383 52.285 21.6754C54.8316 23.1213 56.7829 25.4234 57.792 28.1724C58.8506 30.7418 59.3768 33.4994 59.3389 36.2781C59.3667 39.076 58.841 41.8517 57.792 44.4457C56.6961 47.2636 54.6933 49.6365 52.0994 51.1901C48.4636 53.2232 44.3124 54.148 40.1574 53.8508H23.2035V19.0766ZM23.2035 58.4914L55.9976 74.7648C43.8274 76.8899 32.4314 82.1824 22.956 90.1099L23.2035 58.4914ZM63.9796 98.8963C63.3551 101.351 62.2626 103.662 60.762 105.703C58.9715 107.831 56.7029 109.506 54.1413 110.591C50.5737 112.053 46.7325 112.729 42.8799 112.571H33.6605C30.2573 112.571 26.7304 112.571 23.2035 112.571V104.465C33.3425 92.6764 47.7352 85.38 63.237 84.1699C64.3107 86.6956 64.8783 89.4075 64.9077 92.1518C64.9074 94.4928 64.5953 96.8233 63.9796 99.0819V98.8963Z" fill="#282828"/>
<path d="M193.731 109.415C194.184 114.622 193.109 119.847 190.637 124.451C189.147 126.23 187.23 127.6 185.065 128.434C182.9 129.267 180.559 129.536 178.262 129.216H131.793C130.283 129.266 128.777 129.057 127.338 128.597C123.103 127.676 119.313 125.331 116.599 121.953C113.885 118.575 112.412 114.368 112.426 110.034V4.22677L113.478 2.98926H189.894C189.894 4.6599 190.327 6.39242 190.513 7.93931V12.2087C190.472 13.8688 190.306 15.5235 190.018 17.1588C189.728 19.0759 189.335 20.9761 188.842 22.8514H141.446C139.466 22.8514 137.486 22.8514 135.258 22.8514C135.258 25.3264 135.258 27.3064 135.258 29.0389V56.2024H141.446H179.437C179.872 57.8124 180.223 59.444 180.489 61.0905C180.489 62.9468 180.489 64.4937 180.489 65.7312C180.489 66.9687 180.489 68.6394 180.489 70.4956C180.489 72.3519 179.87 73.8988 179.437 75.4457L135.444 67.8969V105.022C135.444 106.569 135.444 108.425 135.444 110.405H137.3C140.517 110.405 144.044 110.405 148.19 110.405L193.731 109.415Z" fill="#282828"/>
<path d="M2.16543 174.818C2.13719 172.685 2.54679 170.569 3.36891 168.601C4.19103 166.633 5.40818 164.854 6.94508 163.376C8.48199 161.897 10.306 160.749 12.3042 160.003C14.3024 159.257 16.4324 158.929 18.5625 159.039C20.748 158.954 22.9267 159.334 24.9538 160.156C26.9808 160.977 28.8097 162.221 30.3189 163.804L27.4107 166.588C26.2817 165.384 24.9079 164.435 23.3818 163.805C21.8556 163.175 20.2124 162.88 18.5625 162.938C15.4117 162.938 12.3899 164.189 10.162 166.417C7.93401 168.645 6.68235 171.667 6.68235 174.818C6.68235 177.968 7.93401 180.99 10.162 183.218C12.3899 185.446 15.4117 186.698 18.5625 186.698C20.1877 186.733 21.8018 186.42 23.296 185.78C24.7902 185.14 26.1299 184.187 27.2251 182.985L30.1332 185.77C28.661 187.358 26.868 188.615 24.8733 189.457C22.8785 190.3 20.7274 190.709 18.5625 190.658C16.4294 190.759 14.298 190.423 12.2996 189.67C10.3012 188.918 8.47797 187.764 6.94206 186.28C5.40616 184.796 4.19007 183.014 3.36861 181.043C2.54715 179.071 2.13769 176.953 2.16543 174.818Z" fill="#282828"/>
<path d="M40.5866 174.818C40.5754 172.679 41.0007 170.561 41.8366 168.592C42.6725 166.624 43.9014 164.846 45.448 163.369C46.9945 161.892 48.8263 160.746 50.8311 160.002C52.8359 159.257 54.9716 158.93 57.1074 159.039C59.2667 158.904 61.4308 159.213 63.4662 159.946C65.5016 160.679 67.3653 161.822 68.9422 163.303C70.519 164.785 71.7758 166.573 72.6348 168.559C73.4939 170.544 73.9371 172.685 73.9371 174.848C73.9371 177.012 73.4939 179.153 72.6348 181.138C71.7758 183.124 70.519 184.912 68.9422 186.394C67.3653 187.875 65.5016 189.018 63.4662 189.751C61.4308 190.484 59.2667 190.793 57.1074 190.658C54.9664 190.768 52.8255 190.438 50.8165 189.69C48.8075 188.941 46.9728 187.79 45.4253 186.306C43.8778 184.823 42.6503 183.038 41.8181 181.062C40.986 179.086 40.5669 176.961 40.5866 174.818ZM69.0494 174.818C69.0924 173.24 68.8125 171.671 68.2268 170.206C67.641 168.741 66.7619 167.412 65.6434 166.299C64.525 165.186 63.1908 164.314 61.7228 163.736C60.2549 163.158 58.6842 162.886 57.1074 162.937C53.9566 162.937 50.9348 164.189 48.7069 166.417C46.4789 168.645 45.2273 171.667 45.2273 174.818C45.2273 177.968 46.4789 180.99 48.7069 183.218C50.9348 185.446 53.9566 186.698 57.1074 186.698C58.6842 186.749 60.2549 186.477 61.7228 185.899C63.1908 185.321 64.525 184.449 65.6434 183.336C66.7619 182.223 67.641 180.894 68.2268 179.429C68.8125 177.964 69.0924 176.395 69.0494 174.818Z" fill="#282828"/>
<path d="M116.079 190.287V167.578L104.941 186.141H102.899L91.6997 167.578V189.977H87.4922V159.04H91.081L104.013 180.82L116.759 159.04H120.348V189.977L116.079 190.287Z" fill="#282828"/>
<path d="M161.744 170.115C161.744 176.859 156.856 180.943 148.812 180.943H141.202V190.286H136.809V159.349H148.812C156.856 159.349 161.744 163.432 161.744 170.115ZM157.351 170.115C157.351 165.722 154.381 163.185 148.689 163.185H141.202V177.107H148.503C154.691 177.107 157.351 174.57 157.351 170.115Z" fill="#282828"/>
<path d="M198.003 186.45V190.286H175.418V159.349H197.26V163.185H179.811V172.714H195.342V176.488H179.811V186.45H198.003Z" fill="#282828"/>
<path d="M218.357 163.185H207.715V159.349H233.331V163.185H222.751V190.286H218.419L218.357 163.185Z" fill="#282828"/>
<path d="M245.34 159.349H249.733V190.286H245.34V159.349Z" fill="#282828"/>
<path d="M272.253 163.185H261.734V159.349H287.289V163.185H276.708V190.286H272.253V163.185Z" fill="#282828"/>
<path d="M299.293 159.349H303.748V190.286H299.293V159.349Z" fill="#282828"/>
<path d="M317.668 174.818C317.545 171.539 318.404 168.298 320.136 165.511C321.868 162.725 324.393 160.519 327.388 159.178C330.382 157.837 333.709 157.421 336.942 157.985C340.174 158.548 343.164 160.065 345.528 162.34C347.892 164.615 349.523 167.545 350.209 170.754C350.896 173.962 350.609 177.303 349.383 180.346C348.158 183.39 346.05 185.998 343.332 187.835C340.614 189.673 337.408 190.656 334.127 190.658C331.991 190.759 329.857 190.423 327.855 189.671C325.853 188.919 324.026 187.766 322.485 186.283C320.945 184.8 319.723 183.019 318.894 181.047C318.066 179.076 317.649 176.956 317.668 174.818ZM346.131 174.818C346.168 172.421 345.49 170.068 344.184 168.058C342.878 166.048 341.003 164.473 338.798 163.533C336.593 162.593 334.158 162.331 331.804 162.781C329.45 163.23 327.282 164.371 325.579 166.057C323.875 167.743 322.712 169.898 322.239 172.247C321.765 174.597 322.002 177.034 322.919 179.249C323.836 181.463 325.392 183.355 327.388 184.681C329.384 186.008 331.73 186.71 334.127 186.698C335.706 186.749 337.28 186.477 338.751 185.9C340.222 185.322 341.56 184.451 342.684 183.339C343.807 182.228 344.692 180.899 345.285 179.434C345.877 177.969 346.165 176.398 346.131 174.818Z" fill="#282828"/>
<path d="M391.052 159.349V190.286H387.464L368.901 167.207V190.286H364.508V159.349H368.097L386.659 182.428V159.349H391.052Z" fill="#282828"/>
</svg>
