<svg width="212" height="139" viewBox="0 0 212 139" fill="none" xmlns="http://www.w3.org/2000/svg">
<path d="M33.1152 23H39.9552C45.3312 23 48.9552 19.544 48.9552 14.6C48.9552 9.656 45.3312 6.2 39.9552 6.2H33.1152V23ZM34.8912 21.464V7.736H39.8592C44.3232 7.736 47.2032 10.568 47.2032 14.6C47.2032 18.632 44.3232 21.464 39.8592 21.464H34.8912ZM53.6873 7.616C54.4073 7.616 54.9353 7.064 54.9353 6.368C54.9353 5.72 54.3833 5.192 53.6873 5.192C52.9913 5.192 52.4393 5.744 52.4393 6.392C52.4393 7.064 52.9913 7.616 53.6873 7.616ZM52.8233 23H54.5273V10.376H52.8233V23ZM62.8927 23.12C66.1807 23.12 68.1007 21.704 68.1007 19.52C68.1007 14.672 59.9167 17.24 59.9167 13.832C59.9167 12.632 60.9247 11.744 63.2047 11.744C64.5007 11.744 65.8207 12.056 66.9247 12.824L67.6687 11.456C66.6127 10.736 64.8367 10.28 63.2047 10.28C59.9887 10.28 58.2127 11.816 58.2127 13.88C58.2127 18.872 66.3967 16.28 66.3967 19.568C66.3967 20.816 65.4127 21.632 63.0127 21.632C61.2367 21.632 59.5327 21.008 58.5247 20.216L57.7567 21.56C58.7887 22.448 60.8047 23.12 62.8927 23.12ZM76.7228 23.12C78.8588 23.12 80.6588 22.256 81.6668 20.624L80.3948 19.76C79.5308 21.032 78.1868 21.608 76.7228 21.608C73.9628 21.608 71.9468 19.664 71.9468 16.688C71.9468 13.736 73.9628 11.768 76.7228 11.768C78.1868 11.768 79.5308 12.368 80.3948 13.64L81.6668 12.776C80.6588 11.12 78.8588 10.28 76.7228 10.28C72.9548 10.28 70.2188 12.92 70.2188 16.688C70.2188 20.456 72.9548 23.12 76.7228 23.12ZM90.2033 23.12C93.8993 23.12 96.6113 20.432 96.6113 16.688C96.6113 12.944 93.8993 10.28 90.2033 10.28C86.5073 10.28 83.7713 12.944 83.7713 16.688C83.7713 20.432 86.5073 23.12 90.2033 23.12ZM90.2033 21.608C87.5153 21.608 85.4993 19.64 85.4993 16.688C85.4993 13.736 87.5153 11.768 90.2033 11.768C92.8913 11.768 94.8833 13.736 94.8833 16.688C94.8833 19.64 92.8913 21.608 90.2033 21.608ZM108.907 10.376L104.131 21.128L99.4027 10.376H97.6267L103.219 23H104.971L110.587 10.376H108.907ZM123.891 16.688C123.891 12.896 121.323 10.28 117.771 10.28C114.219 10.28 111.603 12.944 111.603 16.688C111.603 20.432 114.291 23.12 118.227 23.12C120.219 23.12 121.971 22.4 123.099 21.056L122.139 19.952C121.179 21.056 119.811 21.608 118.275 21.608C115.515 21.608 113.499 19.856 113.307 17.216H123.867C123.867 17.024 123.891 16.832 123.891 16.688ZM117.771 11.744C120.243 11.744 122.043 13.472 122.259 15.944H113.307C113.523 13.472 115.323 11.744 117.771 11.744ZM129.231 12.848V10.376H127.599V23H129.303V16.568C129.303 13.592 130.911 11.912 133.551 11.912C133.671 11.912 133.815 11.936 133.959 11.936V10.28C131.631 10.28 130.023 11.168 129.231 12.848ZM150.041 21.008C149.561 21.44 148.865 21.656 148.169 21.656C146.753 21.656 145.985 20.84 145.985 19.352V11.816H149.825V10.376H145.985V7.616H144.281V10.376H142.025V11.816H144.281V19.448C144.281 21.776 145.601 23.12 147.977 23.12C148.961 23.12 149.969 22.832 150.641 22.232L150.041 21.008ZM160.415 10.28C158.279 10.28 156.623 11.12 155.687 12.584V5.192H153.983V23H155.687V16.376C155.687 13.496 157.391 11.816 160.103 11.816C162.503 11.816 163.895 13.184 163.895 15.848V23H165.599V15.68C165.599 12.056 163.487 10.28 160.415 10.28ZM181.528 16.688C181.528 12.896 178.96 10.28 175.408 10.28C171.856 10.28 169.24 12.944 169.24 16.688C169.24 20.432 171.928 23.12 175.864 23.12C177.856 23.12 179.608 22.4 180.736 21.056L179.776 19.952C178.816 21.056 177.448 21.608 175.912 21.608C173.152 21.608 171.136 19.856 170.944 17.216H181.504C181.504 17.024 181.528 16.832 181.528 16.688ZM175.408 11.744C177.88 11.744 179.68 13.472 179.896 15.944H170.944C171.16 13.472 172.96 11.744 175.408 11.744Z" fill="#FFA224"/>
<path d="M156.451 96.0854C156.63 98.7734 156.081 101.46 154.864 103.863C154.078 104.787 153.073 105.5 151.941 105.936C150.809 106.371 149.585 106.517 148.383 106.358H123.949C123.18 106.385 122.412 106.276 121.681 106.034C119.466 105.546 117.484 104.317 116.064 102.548C114.643 100.78 113.87 98.5802 113.871 96.3123V40.9967L114.519 40.3486H154.377C154.561 41.2016 154.67 42.0691 154.702 42.941C154.702 43.7188 154.702 44.4641 154.702 45.177C154.693 46.0457 154.617 46.9124 154.475 47.7694C154.311 48.7824 154.061 49.7796 153.729 50.7507H129.069C128.032 50.7507 126.995 50.7507 125.829 50.7507V53.9912C125.829 54.8661 125.829 56.0651 125.829 57.2317V68.217H129.069H149.063C149.33 69.047 149.493 69.9069 149.549 70.777C149.699 71.5791 149.786 72.3917 149.808 73.2074C149.789 74.0448 149.703 74.8792 149.549 75.7026C149.487 76.5826 149.324 77.4524 149.063 78.295L126.055 74.0499V90.8358C126.106 91.7749 126.106 92.716 126.055 93.655V96.4743H127.028C128.713 96.4743 130.56 96.4743 132.731 96.4743L156.451 96.0854Z" fill="#FFA224"/>
<path d="M163.031 100.622C163.215 98.7828 163.789 97.0039 164.716 95.4049C165.563 93.8549 166.658 92.4538 167.957 91.257C170.902 93.0895 174.029 94.6099 177.289 95.7938C180.536 97.0487 183.985 97.6968 187.465 97.7057C190.295 97.9072 193.104 97.0785 195.372 95.3725C196.221 94.6787 196.903 93.8032 197.369 92.8105C197.834 91.8178 198.071 90.7332 198.061 89.6368C198.069 87.747 197.441 85.9095 196.279 84.4196C194.696 82.5307 192.638 81.0987 190.316 80.2717L178.683 75.4433C175.021 73.9933 171.708 71.7846 168.961 68.9623C166.396 66.0211 165.071 62.1991 165.267 58.301C165.221 54.7879 166.238 51.3429 168.184 48.4175C170.157 45.4819 172.875 43.1224 176.058 41.58C179.663 39.8426 183.626 38.9768 187.627 39.0524C191.671 39.0264 195.698 39.583 199.584 40.7051C202.814 41.6046 205.959 42.7865 208.982 44.2372C208.874 46.0345 208.423 47.7945 207.653 49.422C206.971 51.0225 205.954 52.4588 204.672 53.6347C201.939 52.3402 199.112 51.2568 196.214 50.3942C193.473 49.5448 190.626 49.0866 187.756 49.0332C185.077 48.8453 182.425 49.6789 180.336 51.3663C179.539 52.0195 178.897 52.8402 178.455 53.77C178.012 54.6998 177.78 55.7159 177.776 56.7456C177.749 57.5784 177.893 58.4078 178.2 59.1825C178.506 59.9573 178.969 60.6609 179.558 61.2499C181.098 62.6381 182.876 63.736 184.807 64.4904L196.506 69.3188C199.255 70.4645 201.83 71.9917 204.153 73.8555C206.28 75.5314 208.026 77.6414 209.273 80.0449C210.485 82.4559 211.097 85.124 211.056 87.8221C211.115 91.3826 210.196 94.8911 208.398 97.9649C206.45 101.071 203.633 103.539 200.297 105.062C196.031 106.926 191.405 107.822 186.752 107.686C182.576 107.653 178.427 107.009 174.438 105.775C170.394 104.652 166.547 102.914 163.031 100.622Z" fill="#FFA224"/>
<path d="M44.2006 79.0722C42.8602 76.5379 40.8977 74.3858 38.4973 72.818C37.275 71.9517 35.917 71.2946 34.4791 70.8737C35.495 70.5217 36.4471 70.0074 37.2983 69.3507C39.1351 67.9854 40.6413 66.2244 41.7054 64.1983C42.7762 62.1016 43.3316 59.7799 43.3257 57.4256C43.4765 54.0093 42.608 50.6254 40.8305 47.7041C39.0186 45.0622 36.4229 43.056 33.4097 41.9684C29.6609 40.5247 25.6622 39.8417 21.6467 39.9593C18.4061 39.9593 14.9064 39.9593 11.4391 39.9593C8.38481 40.0019 5.47063 41.2474 3.32903 43.4254C1.18742 45.6034 -0.00878143 48.5382 4.85394e-05 51.5927V94.7887C0.00756583 97.9045 1.231 100.894 3.40988 103.122C5.58876 105.349 8.55098 106.638 11.6659 106.714C15.2953 106.714 18.9894 106.714 22.8456 106.714C27.2825 106.858 31.6997 106.063 35.8077 104.381C39.0273 103.095 41.7599 100.827 43.6173 97.8996C45.5006 94.8174 46.488 91.2715 46.469 87.6596C46.4699 84.6489 45.6882 81.6897 44.2006 79.0722ZM12.152 48.7734C13.6102 48.7734 15.3925 48.7734 16.9155 48.7734H21.193C23.342 48.649 25.4838 49.12 27.3824 50.1345C28.716 50.8917 29.7379 52.0973 30.2664 53.537C30.8208 54.8827 31.0964 56.3268 31.0765 57.7821C31.0911 59.2474 30.8158 60.7011 30.2664 62.0595C29.6925 63.5353 28.6436 64.7781 27.2852 65.5917C25.381 66.6564 23.207 67.1408 21.031 66.9851H12.152V48.7734ZM12.152 69.4155L29.3267 77.938C22.953 79.051 16.9848 81.8228 12.0223 85.9745L12.152 69.4155ZM33.5069 90.576C33.1799 91.8616 32.6077 93.0719 31.8219 94.1406C30.8842 95.2555 29.696 96.1327 28.3545 96.7006C26.4861 97.4666 24.4744 97.8203 22.4568 97.7376H17.6284C15.8461 97.7376 13.9991 97.7376 12.152 97.7376V93.4925C17.4619 87.3186 24.9996 83.4974 33.1181 82.8636C33.6804 84.1864 33.9776 85.6066 33.993 87.0439C33.9929 88.2699 33.8294 89.4904 33.5069 90.6733V90.576Z" fill="#FFA224"/>
<path d="M101.459 96.0854C101.697 98.812 101.134 101.549 99.839 103.96C99.0591 104.891 98.055 105.609 96.9212 106.046C95.7874 106.482 94.5612 106.623 93.358 106.455H69.0218C68.2312 106.482 67.442 106.372 66.6886 106.131C64.4709 105.649 62.4857 104.421 61.0644 102.651C59.6431 100.882 58.8717 98.6789 58.879 96.4095V40.9967L59.4298 40.3486H99.4502C99.4502 41.2236 99.677 42.1309 99.7742 42.941V45.177C99.7527 46.0464 99.666 46.913 99.515 47.7694C99.3629 48.7734 99.1574 49.7686 98.8993 50.7507H74.077C73.04 50.7507 72.003 50.7507 70.8364 50.7507C70.8364 52.0469 70.8364 53.0838 70.8364 53.9912V68.217H74.077H93.9737C94.2015 69.0602 94.3854 69.9147 94.5246 70.777C94.5246 71.7492 94.5246 72.5593 94.5246 73.2074C94.5246 73.8555 94.5246 74.7305 94.5246 75.7026C94.5246 76.6748 94.2005 77.4849 93.9737 78.295L70.9337 74.3416V93.7847C70.9337 94.5948 70.9337 95.5669 70.9337 96.6039H71.9058C73.5909 96.6039 75.438 96.6039 77.6091 96.6039L101.459 96.0854Z" fill="#FFA224"/>
<path d="M1.13353 130.338C1.11874 129.221 1.33325 128.113 1.76381 127.082C2.19436 126.051 2.8318 125.12 3.6367 124.345C4.44159 123.571 5.39683 122.97 6.44333 122.579C7.48984 122.188 8.60535 122.017 9.72088 122.074C10.8655 122.029 12.0065 122.229 13.0681 122.659C14.1297 123.089 15.0875 123.74 15.8779 124.57L14.3548 126.028C13.7635 125.397 13.0441 124.9 12.2448 124.57C11.4455 124.24 10.585 124.086 9.72088 124.116C8.07076 124.116 6.48823 124.771 5.32142 125.938C4.15461 127.105 3.4991 128.688 3.4991 130.338C3.4991 131.988 4.15461 133.57 5.32142 134.737C6.48823 135.904 8.07076 136.559 9.72088 136.559C10.5721 136.578 11.4173 136.414 12.1999 136.079C12.9824 135.743 13.684 135.244 14.2576 134.615L15.7806 136.073C15.0096 136.905 14.0706 137.563 13.0259 138.005C11.9812 138.446 10.8547 138.66 9.72088 138.633C8.60374 138.687 7.48754 138.511 6.44094 138.116C5.39434 137.722 4.43949 137.118 3.63511 136.341C2.83074 135.564 2.19386 134.63 1.76365 133.598C1.33344 132.565 1.119 131.456 1.13353 130.338Z" fill="#FFA224"/>
<path d="M21.2582 130.337C21.2523 129.217 21.475 128.108 21.9128 127.077C22.3506 126.046 22.9942 125.115 23.8041 124.342C24.6141 123.568 25.5734 122.968 26.6233 122.578C27.6733 122.188 28.7918 122.016 29.9103 122.074C31.0412 122.003 32.1745 122.165 33.2405 122.549C34.3065 122.933 35.2825 123.531 36.1083 124.307C36.9342 125.083 37.5923 126.019 38.0422 127.059C38.4922 128.099 38.7243 129.22 38.7243 130.353C38.7243 131.486 38.4922 132.607 38.0422 133.647C37.5923 134.687 36.9342 135.624 36.1083 136.4C35.2825 137.175 34.3065 137.774 33.2405 138.158C32.1745 138.542 31.0412 138.704 29.9103 138.633C28.789 138.69 27.6678 138.518 26.6157 138.126C25.5635 137.734 24.6027 137.131 23.7923 136.354C22.9818 135.577 22.3389 134.642 21.9031 133.608C21.4673 132.573 21.2478 131.46 21.2582 130.337ZM36.1645 130.337C36.187 129.511 36.0404 128.689 35.7337 127.922C35.4269 127.155 34.9665 126.459 34.3808 125.876C33.795 125.293 33.0963 124.836 32.3275 124.534C31.5587 124.231 30.7361 124.089 29.9103 124.115C28.2602 124.115 26.6777 124.771 25.5109 125.938C24.3441 127.104 23.6885 128.687 23.6885 130.337C23.6885 131.987 24.3441 133.57 25.5109 134.737C26.6777 135.903 28.2602 136.559 29.9103 136.559C30.7361 136.586 31.5587 136.443 32.3275 136.141C33.0963 135.838 33.795 135.381 34.3808 134.798C34.9665 134.216 35.4269 133.519 35.7337 132.752C36.0404 131.985 36.187 131.163 36.1645 130.337Z" fill="#FFA224"/>
<path d="M60.7915 138.439V126.546L54.9585 136.268H53.8892L48.0239 126.546V138.277H45.8203V122.074H47.6998L54.4725 133.481L61.1479 122.074H63.0274V138.277L60.7915 138.439Z" fill="#FFA224"/>
<path d="M84.7077 127.875C84.7077 131.407 82.1477 133.546 77.935 133.546H73.9492V138.439H71.6484V122.236H77.935C82.1477 122.236 84.7077 124.375 84.7077 127.875ZM82.4069 127.875C82.4069 125.574 80.8515 124.245 77.8702 124.245H73.9492V131.537H77.773C81.0135 131.537 82.4069 130.208 82.4069 127.875Z" fill="#FFA224"/>
<path d="M103.695 136.43V138.439H91.8672V122.236H103.306V124.245H94.1679V129.236H102.302V131.213H94.1679V136.43H103.695Z" fill="#FFA224"/>
<path d="M114.359 124.245H108.785V122.236H122.201V124.245H116.66V138.439H114.391L114.359 124.245Z" fill="#FFA224"/>
<path d="M128.484 122.236H130.785V138.439H128.484V122.236Z" fill="#FFA224"/>
<path d="M142.583 124.245H137.074V122.236H150.458V124.245H144.916V138.439H142.583V124.245Z" fill="#FFA224"/>
<path d="M156.742 122.236H159.075V138.439H156.742V122.236Z" fill="#FFA224"/>
<path d="M166.369 130.337C166.305 128.62 166.755 126.923 167.662 125.463C168.569 124.004 169.891 122.849 171.46 122.147C173.028 121.444 174.77 121.227 176.463 121.522C178.156 121.817 179.722 122.611 180.96 123.803C182.198 124.994 183.052 126.529 183.412 128.209C183.772 129.889 183.621 131.639 182.979 133.233C182.337 134.827 181.234 136.193 179.81 137.155C178.386 138.117 176.708 138.632 174.989 138.633C173.87 138.686 172.753 138.51 171.704 138.116C170.656 137.722 169.699 137.118 168.892 136.342C168.085 135.565 167.446 134.632 167.012 133.6C166.578 132.567 166.359 131.457 166.369 130.337ZM181.276 130.337C181.295 129.082 180.94 127.85 180.256 126.797C179.572 125.745 178.59 124.92 177.436 124.427C176.281 123.935 175.006 123.798 173.773 124.033C172.54 124.269 171.405 124.866 170.512 125.749C169.62 126.632 169.011 127.761 168.763 128.991C168.515 130.222 168.639 131.498 169.119 132.658C169.6 133.818 170.414 134.808 171.46 135.503C172.505 136.198 173.734 136.565 174.989 136.559C175.816 136.586 176.64 136.444 177.411 136.141C178.181 135.839 178.882 135.382 179.47 134.8C180.059 134.218 180.522 133.522 180.833 132.755C181.143 131.987 181.294 131.165 181.276 130.337Z" fill="#FFA224"/>
<path d="M204.8 122.236V138.439H202.921L193.199 126.352V138.439H190.898V122.236H192.778L202.499 134.323V122.236H204.8Z" fill="#FFA224"/>
</svg>
