<svg width="114" height="114" viewBox="0 0 114 114" fill="none" xmlns="http://www.w3.org/2000/svg">
<path d="M113.436 8.44977C113.393 8.2385 113.289 8.04413 113.139 7.88953C112.989 7.73493 112.797 7.62653 112.588 7.57708C98.6 4.15326 66.2882 16.3529 48.7638 33.8787C45.6406 36.9788 42.7928 40.345 40.2525 43.9391C34.8509 43.45 29.4493 43.8618 24.8502 45.8698C11.8632 51.5847 8.08471 66.5105 7.03011 72.918C6.97297 73.2691 6.99738 73.6286 7.10143 73.9687C7.20549 74.3089 7.38641 74.6205 7.63016 74.8793C7.87391 75.1382 8.17395 75.3375 8.50703 75.4616C8.84011 75.5858 9.19728 75.6315 9.55085 75.5952L30.4036 73.3041C30.418 74.8782 30.5124 76.4506 30.6865 78.0151C30.7953 79.0964 31.2774 80.106 32.0498 80.87L40.1239 88.9507C40.8879 89.7242 41.8976 90.2068 42.979 90.3151C44.5328 90.4885 46.0944 90.583 47.6578 90.5983L45.3711 111.45C45.3354 111.804 45.3814 112.16 45.5055 112.493C45.6296 112.826 45.8285 113.126 46.0868 113.369C46.3451 113.613 46.6559 113.794 46.9952 113.898C47.3346 114.002 47.6933 114.027 48.0436 113.97C54.4484 112.941 69.3928 109.159 75.0696 96.1639C77.0759 91.5559 77.4875 86.1782 77.0245 80.7979C80.6262 78.2579 83.9992 75.4076 87.1049 72.2795C104.693 54.7743 116.806 23.1464 113.436 8.44977ZM71.4711 49.6025C69.9348 48.0653 68.8885 46.1067 68.4645 43.9743C68.0405 41.842 68.2579 39.6317 69.0891 37.623C69.9203 35.6142 71.3281 33.8973 73.1343 32.6894C74.9406 31.4814 77.0642 30.8367 79.2365 30.8367C81.4089 30.8367 83.5325 31.4814 85.3388 32.6894C87.145 33.8973 88.5528 35.6142 89.384 37.623C90.2152 39.6317 90.4326 41.842 90.0086 43.9743C89.5846 46.1067 88.5383 48.0653 87.002 49.6025C85.983 50.6245 84.7726 51.4353 83.4401 51.9886C82.1076 52.5418 80.6792 52.8265 79.2365 52.8265C77.7939 52.8265 76.3655 52.5418 75.033 51.9886C73.7005 51.4353 72.4901 50.6245 71.4711 49.6025Z" fill="url(#paint0_linear_309_6)"/>
<path d="M108.436 3.44977C108.393 3.2385 108.289 3.04413 108.139 2.88953C107.989 2.73493 107.797 2.62653 107.588 2.57708C93.6 -0.846743 61.2882 11.3529 43.7638 28.8787C40.6406 31.9788 37.7928 35.345 35.2525 38.9391C29.8509 38.45 24.4493 38.8618 19.8502 40.8698C6.86325 46.5847 3.08471 61.5105 2.03011 67.918C1.97297 68.2691 1.99738 68.6286 2.10143 68.9687C2.20549 69.3089 2.38641 69.6205 2.63016 69.8793C2.87391 70.1382 3.17395 70.3375 3.50703 70.4616C3.84011 70.5858 4.19728 70.6315 4.55085 70.5952L25.4036 68.3041C25.418 69.8782 25.5124 71.4506 25.6865 73.0151C25.7953 74.0964 26.2774 75.106 27.0498 75.87L35.1239 83.9507C35.8879 84.7242 36.8976 85.2068 37.979 85.3151C39.5328 85.4885 41.0944 85.583 42.6578 85.5983L40.3711 106.45C40.3354 106.804 40.3814 107.16 40.5055 107.493C40.6296 107.826 40.8285 108.126 41.0868 108.369C41.3451 108.613 41.6559 108.794 41.9952 108.898C42.3346 109.002 42.6933 109.027 43.0436 108.97C49.4484 107.941 64.3928 104.159 70.0696 91.1639C72.0759 86.5559 72.4875 81.1782 72.0245 75.7979C75.6262 73.2579 78.9992 70.4076 82.1049 67.2795C99.6935 49.7743 111.806 18.1464 108.436 3.44977ZM66.4711 44.6025C64.9348 43.0653 63.8885 41.1067 63.4645 38.9743C63.0405 36.842 63.2579 34.6317 64.0891 32.623C64.9203 30.6142 66.3281 28.8973 68.1343 27.6894C69.9406 26.4814 72.0642 25.8367 74.2366 25.8367C76.4089 25.8367 78.5325 26.4814 80.3388 27.6894C82.145 28.8973 83.5528 30.6142 84.384 32.623C85.2152 34.6317 85.4326 36.842 85.0086 38.9743C84.5846 41.1067 83.5383 43.0653 82.002 44.6025C80.983 45.6245 79.7726 46.4353 78.4401 46.9886C77.1076 47.5418 75.6792 47.8265 74.2366 47.8265C72.7939 47.8265 71.3655 47.5418 70.033 46.9886C68.7005 46.4353 67.4901 45.6245 66.4711 44.6025V44.6025Z" stroke="black" stroke-width="4" stroke-linecap="round" stroke-linejoin="round"/>
<path d="M22.8854 85C20.2894 85.3187 17.8742 86.4956 16.0234 88.3437C11.4349 92.9479 11 110 11 110C11 110 28.0625 109.565 32.6536 104.971C34.5093 103.124 35.6882 100.704 36 98.1042" fill="url(#paint1_linear_309_6)"/>
<path d="M17.8854 80C15.2894 80.3187 12.8742 81.4956 11.0234 83.3437C6.4349 87.9479 6 105 6 105C6 105 23.0625 104.565 27.6536 99.9714C29.5093 98.1235 30.6882 95.7043 31 93.1042" stroke="black" stroke-width="4" stroke-linecap="round" stroke-linejoin="round"/>
<defs>
<linearGradient id="paint0_linear_309_6" x1="62.0293" y1="7.60097" x2="62.0293" y2="114.601" gradientUnits="userSpaceOnUse">
<stop stop-color="#FFA224"/>
<stop offset="1" stop-color="#DE8318"/>
</linearGradient>
<linearGradient id="paint1_linear_309_6" x1="23.5" y1="85" x2="23.5" y2="110" gradientUnits="userSpaceOnUse">
<stop stop-color="#FFA224"/>
<stop offset="1" stop-color="#DE8318"/>
</linearGradient>
</defs>
</svg>
