<svg width="114" height="113" viewBox="0 0 114 113" fill="none" xmlns="http://www.w3.org/2000/svg">
<path d="M5.359 52.7694C5.359 52.7694 21.3655 31.5217 30.8146 36.1943C40.2773 40.867 28.9339 48.9111 38.1006 53.1197C47.2537 57.3192 61.0835 52.0732 58.0234 39.9252C54.9632 27.7771 49.526 36.3945 45.2819 29.8792C41.0287 23.3593 66.1655 9 66.1655 9C66.1655 9 81.4662 39.2564 85.8196 31.3397C91.0837 21.7623 100.355 11.9346 109.973 26.6761C109.973 26.6761 118.233 37.6503 111.093 42.3002C103.953 46.9501 97.8097 44.3112 95.1275 49.3615C92.459 54.4209 112.359 67.984 112.359 67.984C112.359 67.984 98.7569 89.8687 89.9271 84.1268C81.0928 78.3849 91.5482 68.8212 78.0873 65.973C72.2266 64.9265 62.436 68.4299 60.7055 76.6196C60.1135 88.9496 68.0098 85.7966 73.4424 92.4348C78.8614 99.0593 53.0233 113 53.0233 113C53.0233 113 45.8102 95.1556 35.6735 91.816C25.5277 88.4719 31.6024 101.53 22.3856 103.327C13.1687 105.133 0.454589 92.4166 6.6295 81.5425C12.8135 70.6684 21.5431 81.3423 22.2945 72.6703C23.0686 63.9801 5.35445 52.7557 5.35445 52.7557L5.359 52.7694Z" fill="url(#paint0_linear_309_3)"/>
<mask id="path-2-inside-1_309_3" fill="white">
<path d="M0.368881 45.0319C0.368881 45.0319 16.8159 23.1713 26.5251 27.9788C36.2483 32.7862 24.5926 41.0624 34.0116 45.3924C43.4166 49.713 57.6271 44.3157 54.4827 31.8173C51.3384 19.3188 45.7515 28.1847 41.3906 21.4815C37.0203 14.7735 62.849 0 62.849 0C62.849 0 78.5708 31.1291 83.044 22.9841C88.453 13.1304 97.9797 3.01929 107.862 18.186C107.862 18.186 116.35 29.4767 109.013 34.2608C101.676 39.0448 95.3641 36.3298 92.6081 41.5258C89.8661 46.7312 110.314 60.6855 110.314 60.6855C110.314 60.6855 96.3373 83.2014 87.2645 77.2939C78.1871 71.3864 88.9303 61.5468 75.0989 58.6164C69.0769 57.5398 59.0168 61.1442 57.2387 69.5701C56.6304 82.2558 64.744 79.0119 70.3262 85.8415C75.8943 92.6572 49.3451 107 49.3451 107C49.3451 107 41.9334 88.6408 31.5177 85.2049C21.0926 81.7643 27.3346 95.199 17.8641 97.048C8.39355 98.9064 -4.67051 85.8228 1.67435 74.6351C8.02857 63.4473 16.9984 74.4291 17.7705 65.507C18.5659 56.5661 0.364202 45.0179 0.364202 45.0179L0.368881 45.0319Z"/>
</mask>
<path d="M0.368881 45.0319L-3.42607 46.2962L-1.01707 53.5274L3.56526 47.4368L0.368881 45.0319ZM26.5251 27.9788L24.7501 31.5634L24.7522 31.5644L26.5251 27.9788ZM34.0116 45.3924L32.3409 49.0267L32.3418 49.0272L34.0116 45.3924ZM41.3906 21.4815L44.7435 19.3002L44.7421 19.298L41.3906 21.4815ZM62.849 0L66.4194 -1.80327L64.5201 -5.56395L60.863 -3.47215L62.849 0ZM83.044 22.9841L86.55 24.9096L86.5504 24.9089L83.044 22.9841ZM107.862 18.186L104.511 20.3696L104.584 20.4822L104.665 20.5896L107.862 18.186ZM92.6081 41.5258L89.0744 39.6515L89.069 39.6616L92.6081 41.5258ZM110.314 60.6855L113.712 62.795L115.732 59.5406L112.569 57.3815L110.314 60.6855ZM87.2645 77.2939L89.4471 73.9418L89.4464 73.9413L87.2645 77.2939ZM75.0989 58.6164L75.9279 54.7033L75.8656 54.6901L75.8028 54.6788L75.0989 58.6164ZM57.2387 69.5701L53.3249 68.7442L53.2587 69.0581L53.2433 69.3785L57.2387 69.5701ZM70.3262 85.8415L73.4238 83.3109L73.4233 83.3102L70.3262 85.8415ZM49.3451 107L45.6359 108.497L47.3105 112.646L51.2463 110.519L49.3451 107ZM31.5177 85.2049L30.2641 89.0034L30.2646 89.0036L31.5177 85.2049ZM17.8641 97.048L17.0976 93.1222L17.0938 93.1229L17.8641 97.048ZM1.67435 74.6351L-1.8038 72.6596L-1.80505 72.6618L1.67435 74.6351ZM17.7705 65.507L13.7862 65.1525L13.7854 65.1621L17.7705 65.507ZM0.364202 45.0179L2.50712 41.6403L-6.98298 35.6193L-3.43075 46.2821L0.364202 45.0179ZM0.368881 45.0319C3.56526 47.4368 3.56486 47.4373 3.56453 47.4377C3.5645 47.4378 3.56423 47.4381 3.56417 47.4382C3.56406 47.4384 3.56419 47.4382 3.56457 47.4377C3.56533 47.4367 3.56706 47.4344 3.56977 47.4308C3.57519 47.4236 3.5845 47.4114 3.59759 47.3942C3.62378 47.3598 3.66514 47.3058 3.72094 47.2336C3.83259 47.0891 4.00188 46.8721 4.22322 46.5943C4.66625 46.0381 5.31562 45.2409 6.12644 44.2957C7.75631 42.3957 10.0003 39.9426 12.5037 37.656C15.0434 35.3362 17.6673 33.3579 20.0507 32.2319C22.4995 31.0751 23.9294 31.157 24.7501 31.5634L28.3 24.3941C24.2661 22.3968 19.9993 23.4085 16.6336 24.9984C13.2025 26.6193 9.89408 29.2047 7.1084 31.7491C4.28636 34.3268 1.8118 37.0383 0.0544342 39.087C-0.828358 40.1161 -1.53977 40.9892 -2.03411 41.6097C-2.28146 41.9202 -2.475 42.1682 -2.60902 42.3416C-2.67605 42.4283 -2.72824 42.4965 -2.76487 42.5446C-2.78319 42.5686 -2.79763 42.5876 -2.8081 42.6014C-2.81333 42.6083 -2.81757 42.6139 -2.82081 42.6182C-2.82242 42.6204 -2.82379 42.6222 -2.82491 42.6237C-2.82546 42.6244 -2.82611 42.6253 -2.82639 42.6256C-2.82697 42.6264 -2.82749 42.6271 0.368881 45.0319ZM24.7522 31.5644C26.4132 32.3857 26.568 33.0086 26.618 33.1887C26.7663 33.7232 26.7202 34.4609 26.4341 36.2239C26.211 37.5986 25.7253 40.0968 26.367 42.5378C27.1236 45.4163 29.1709 47.5695 32.3409 49.0267L35.6824 41.758C34.1429 41.0503 34.1149 40.5452 34.1041 40.5039C33.9782 40.0251 34.0327 39.3418 34.3308 37.5054C34.5658 36.0571 35.0218 33.5538 34.3266 31.0491C33.533 28.19 31.4986 25.9756 28.2979 24.3931L24.7522 31.5644ZM32.3418 49.0272C38.1987 51.7178 45.4334 51.3969 50.8729 48.4212C53.649 46.9026 56.0922 44.6145 57.5502 41.5267C59.0254 38.4028 59.3482 34.7619 58.3618 30.8414L50.6036 32.7932C51.1895 35.1219 50.9151 36.8425 50.3162 38.1108C49.7003 39.4152 48.5926 40.5499 47.0335 41.4028C43.8026 43.1702 39.2296 43.3876 35.6815 41.7576L32.3418 49.0272ZM58.3618 30.8414C57.5064 27.4412 56.337 24.8235 54.5482 23.0397C52.576 21.0731 50.366 20.6191 48.7067 20.4885C48.0719 20.4385 47.124 20.4211 46.805 20.4063C46.3101 20.3834 46.0326 20.3452 45.8353 20.2942C45.6727 20.2521 45.3211 20.188 44.7435 19.3002L38.0377 23.6627C39.6405 26.1265 41.6226 27.4679 43.8323 28.0394C44.8212 28.2951 45.7396 28.3656 46.4357 28.3978C47.3078 28.4381 47.5464 28.4219 48.0791 28.4638C48.7546 28.517 48.8034 28.6089 48.8994 28.7046C49.1787 28.9832 49.8868 29.9441 50.6036 32.7932L58.3618 30.8414ZM44.7421 19.298C44.966 19.6417 44.8519 19.9212 44.9144 19.6944C45.0061 19.3612 45.3111 18.7122 46.0598 17.7474C47.5454 15.8331 50.0348 13.6077 52.9147 11.3996C55.7412 9.23252 58.7249 7.2466 61.0212 5.79277C62.1646 5.06887 63.1269 4.4836 63.8 4.08127C64.1363 3.88022 64.3998 3.72521 64.577 3.62177C64.6655 3.57006 64.7325 3.53127 64.776 3.50609C64.7978 3.49351 64.8138 3.48433 64.8237 3.47864C64.8286 3.4758 64.832 3.47383 64.8339 3.47274C64.8349 3.4722 64.8354 3.47188 64.8356 3.47178C64.8357 3.47173 64.8355 3.47182 64.8356 3.47179C64.8353 3.47194 64.835 3.47215 62.849 0C60.863 -3.47215 60.8624 -3.47183 60.8618 -3.47146C60.8614 -3.47126 60.8607 -3.47083 60.86 -3.47043C60.8586 -3.46963 60.8568 -3.4686 60.8546 -3.46735C60.8502 -3.46485 60.8443 -3.46146 60.8369 -3.45717C60.822 -3.44861 60.8009 -3.43649 60.774 -3.42092C60.7201 -3.38978 60.6425 -3.3448 60.5429 -3.28667C60.3439 -3.17042 60.0567 -3.00149 59.6954 -2.78547C58.973 -2.35367 57.9516 -1.73236 56.7418 -0.966436C54.3318 0.559386 51.1315 2.68608 48.0471 5.05086C45.0162 7.37468 41.8679 10.1003 39.7397 12.8427C38.6815 14.2062 37.6857 15.8119 37.2014 17.5706C36.6878 19.4357 36.7226 21.6442 38.0391 23.6649L44.7421 19.298ZM62.849 0C59.2785 1.80327 59.2788 1.80377 59.2791 1.80439C59.2792 1.80476 59.2796 1.8055 59.28 1.80623C59.2807 1.80769 59.2817 1.80962 59.2829 1.81202C59.2854 1.81683 59.2887 1.82351 59.2931 1.83203C59.3017 1.84907 59.3141 1.87348 59.3302 1.90499C59.3623 1.96801 59.409 2.05943 59.4695 2.17711C59.5906 2.41244 59.7669 2.75295 59.9918 3.18137C60.4416 4.03777 61.087 5.2478 61.8751 6.67272C63.4453 9.51144 65.6084 13.2512 67.9363 16.7585C70.2 20.1689 72.8493 23.7173 75.4231 25.8872C76.6376 26.9111 78.421 28.1425 80.5589 28.3211C81.7496 28.4206 83.0068 28.1861 84.1582 27.486C85.2665 26.8121 86.0287 25.8589 86.55 24.9096L79.5379 21.0586C79.5001 21.1274 79.6152 20.8855 80.0019 20.6504C80.4315 20.3892 80.8922 20.3211 81.2249 20.3489C81.6469 20.3841 81.4681 20.5199 80.5796 19.7708C78.9475 18.3948 76.8277 15.6881 74.6017 12.3344C72.44 9.07751 70.3931 5.54407 68.8756 2.8006C68.12 1.43443 67.5022 0.276131 67.0746 -0.538022C66.861 -0.944886 66.6952 -1.26521 66.5837 -1.4819C66.528 -1.59023 66.4859 -1.67261 66.4582 -1.72689C66.4444 -1.75403 66.4342 -1.77415 66.4277 -1.78697C66.4244 -1.79338 66.4221 -1.79796 66.4207 -1.80069C66.42 -1.80205 66.4196 -1.80295 66.4194 -1.80338C66.4193 -1.8036 66.4193 -1.80357 66.4192 -1.80368C66.4193 -1.80353 66.4194 -1.80327 62.849 0ZM86.5504 24.9089C87.8137 22.6076 89.2706 20.3803 90.8431 18.5569C92.4415 16.7036 93.9839 15.4726 95.3683 14.8716C96.6214 14.3276 97.7461 14.2821 98.9786 14.8189C100.363 15.4217 102.275 16.9388 104.511 20.3696L111.213 16.0023C108.508 11.8499 105.523 8.94331 102.173 7.48422C98.6707 5.95912 95.2227 6.21352 92.1827 7.53321C89.2741 8.79586 86.8029 10.9923 84.7849 13.3322C82.7411 15.702 80.9788 18.4337 79.5375 21.0593L86.5504 24.9089ZM107.862 18.186C104.665 20.5896 104.664 20.5886 104.663 20.5878C104.663 20.5875 104.662 20.5867 104.662 20.5862C104.661 20.5852 104.661 20.5845 104.66 20.5838C104.659 20.5826 104.659 20.582 104.659 20.582C104.659 20.5821 104.661 20.5848 104.665 20.5901C104.673 20.6005 104.688 20.621 104.709 20.651C104.752 20.7111 104.822 20.8089 104.912 20.9401C105.092 21.2035 105.351 21.5964 105.645 22.0854C106.244 23.0822 106.934 24.3896 107.416 25.7583C107.914 27.171 108.081 28.3432 107.965 29.1905C107.874 29.8548 107.621 30.393 106.828 30.9102L111.198 37.6114C114.073 35.7365 115.51 33.0693 115.892 30.2711C116.248 27.6559 115.669 25.1084 114.962 23.1005C114.239 21.0484 113.265 19.2341 112.502 17.9644C112.115 17.3201 111.768 16.7936 111.513 16.4208C111.385 16.234 111.279 16.0845 111.202 15.9769C111.163 15.923 111.131 15.8795 111.107 15.847C111.095 15.8307 111.085 15.8171 111.077 15.8063C111.073 15.8009 111.07 15.7962 111.067 15.7922C111.065 15.7902 111.064 15.7884 111.063 15.7868C111.062 15.786 111.061 15.7849 111.061 15.7844C111.06 15.7834 111.059 15.7824 107.862 18.186ZM106.828 30.9102C103.914 32.8103 101.291 33.2191 98.3072 33.8167C95.476 34.3838 91.4053 35.2569 89.0744 39.6515L96.1418 43.4001C96.5668 42.5987 97.0302 42.2314 99.8783 41.6609C102.574 41.1211 106.775 40.4953 111.198 37.6114L106.828 30.9102ZM89.069 39.6616C88.0253 41.643 88.3014 43.669 88.7914 45.1219C89.2809 46.5733 90.132 47.9354 91.0187 49.1167C92.8074 51.4997 95.3611 53.9523 97.8108 56.0785C100.3 58.2387 102.858 60.2122 104.779 61.6369C105.744 62.352 106.556 62.935 107.131 63.3412C107.418 63.5445 107.646 63.7038 107.804 63.8136C107.883 63.8685 107.945 63.9111 107.988 63.9406C108.009 63.9554 108.026 63.9669 108.038 63.975C108.044 63.9791 108.049 63.9824 108.052 63.9848C108.054 63.986 108.055 63.987 108.057 63.9877C108.057 63.9881 108.058 63.9885 108.058 63.9887C108.059 63.9891 108.059 63.9894 110.314 60.6855C112.569 57.3815 112.569 57.3817 112.569 57.3819C112.569 57.3818 112.569 57.3819 112.569 57.3819C112.569 57.3818 112.569 57.3815 112.568 57.3811C112.566 57.3801 112.564 57.3782 112.56 57.3756C112.552 57.3703 112.54 57.3617 112.523 57.3499C112.488 57.3263 112.435 57.2899 112.365 57.2413C112.226 57.1442 112.017 56.9986 111.751 56.8102C111.217 56.4329 110.454 55.8851 109.544 55.2106C107.717 53.8562 105.335 52.0158 103.055 50.0368C100.735 48.0237 98.691 46.0118 97.4169 44.3143C96.7722 43.4554 96.4758 42.8733 96.3719 42.5653C96.2684 42.2587 96.5053 42.7099 96.1471 43.39L89.069 39.6616ZM110.314 60.6855C106.915 58.5759 106.916 58.5753 106.916 58.5748C106.916 58.5747 106.916 58.5743 106.916 58.5742C106.917 58.574 106.916 58.5741 106.916 58.5745C106.916 58.5754 106.914 58.5776 106.912 58.5812C106.908 58.5883 106.9 58.6006 106.889 58.618C106.867 58.6527 106.832 58.7076 106.785 58.7812C106.691 58.9284 106.548 59.15 106.36 59.4336C105.984 60.0013 105.432 60.8144 104.741 61.7754C103.349 63.7102 101.434 66.1858 99.2862 68.4556C97.091 70.7752 94.878 72.6366 92.9191 73.6062C91.0094 74.5515 90.0659 74.3448 89.4471 73.9418L85.0819 80.646C88.9995 83.1968 93.2054 82.3909 96.468 80.7759C99.6814 79.1853 102.664 76.5253 105.097 73.9544C107.577 71.3337 109.723 68.5494 111.235 66.4471C111.996 65.3895 112.607 64.4897 113.031 63.8492C113.243 63.5287 113.409 63.2723 113.524 63.0925C113.582 63.0026 113.626 62.9319 113.658 62.8818C113.674 62.8567 113.686 62.8368 113.695 62.8223C113.7 62.8151 113.703 62.8091 113.706 62.8046C113.708 62.8023 113.709 62.8004 113.71 62.7988C113.71 62.798 113.711 62.797 113.711 62.7966C113.712 62.7958 113.712 62.795 110.314 60.6855ZM89.4464 73.9413C88.0354 73.0231 87.5804 72.1404 87.341 71.2533C87.0036 70.0031 87.0706 68.8674 86.9595 66.6394C86.8644 64.7336 86.6037 61.9789 84.7481 59.5266C82.8581 57.0289 79.8732 55.5391 75.9279 54.7033L74.2698 62.5296C77.2402 63.1589 78.0992 63.9979 78.3687 64.3539C78.6724 64.7553 78.8867 65.3792 78.9694 67.038C79.0361 68.3746 78.9837 70.9897 79.6173 73.3375C80.3488 76.0484 81.955 78.6109 85.0827 80.6465L89.4464 73.9413ZM75.8028 54.6788C71.8059 53.9642 66.8921 54.8117 62.7279 56.983C58.5006 59.1872 54.5273 63.0464 53.3249 68.7442L61.1525 70.396C61.7282 67.6679 63.674 65.5119 66.4267 64.0766C69.2426 62.6083 72.3699 62.1919 74.3949 62.554L75.8028 54.6788ZM53.2433 69.3785C53.0732 72.9257 53.4832 75.8358 54.6366 78.2363C55.8344 80.729 57.6249 82.2395 59.3669 83.3099C60.1983 83.8208 61.054 84.2522 61.7916 84.6188C62.572 85.0066 63.2304 85.327 63.8962 85.6973C65.1634 86.4022 66.2583 87.1852 67.2291 88.3729L73.4233 83.3102C71.603 81.0831 69.5904 79.7104 67.7852 78.7062C66.9149 78.2221 66.0461 77.7996 65.3519 77.4546C64.6149 77.0884 64.0488 76.7971 63.5552 76.4938C62.647 75.9358 62.1743 75.4518 61.8474 74.7715C61.4762 73.999 61.1001 72.5574 61.2341 69.7617L53.2433 69.3785ZM67.2285 88.3722C67.0982 88.2127 67.0943 87.9571 67.0899 87.9805C67.0531 88.1796 66.8598 88.7279 66.1827 89.642C64.8352 91.4612 62.4236 93.6106 59.53 95.7719C56.7026 97.8837 53.6786 99.8147 51.338 101.229C50.1733 101.932 49.1902 102.501 48.5019 102.891C48.1579 103.086 47.8883 103.236 47.7071 103.336C47.6165 103.386 47.548 103.424 47.5036 103.448C47.4813 103.46 47.4651 103.469 47.4551 103.475C47.45 103.477 47.4466 103.479 47.4447 103.48C47.4438 103.481 47.4432 103.481 47.4431 103.481C47.443 103.481 47.4432 103.481 47.4431 103.481C47.4434 103.481 47.4438 103.481 49.3451 107C51.2463 110.519 51.2469 110.519 51.2476 110.519C51.248 110.518 51.2488 110.518 51.2495 110.518C51.251 110.517 51.2528 110.516 51.2551 110.515C51.2596 110.512 51.2658 110.509 51.2735 110.505C51.289 110.496 51.3107 110.484 51.3385 110.469C51.3942 110.439 51.4742 110.395 51.5767 110.338C51.7816 110.225 52.0769 110.06 52.4481 109.85C53.1899 109.429 54.2375 108.824 55.4748 108.076C57.9382 106.588 61.2034 104.507 64.3173 102.181C67.3651 99.905 70.5467 97.1908 72.6112 94.4038C73.64 93.0149 74.6073 91.3244 74.9567 89.4346C75.3385 87.3691 74.9462 85.1743 73.4238 83.3109L67.2285 88.3722ZM49.3451 107C53.0542 105.503 53.0539 105.502 53.0535 105.501C53.0533 105.5 53.053 105.499 53.0526 105.499C53.052 105.497 53.0512 105.495 53.0504 105.493C53.0486 105.489 53.0464 105.483 53.0438 105.477C53.0385 105.464 53.0313 105.446 53.0224 105.425C53.0045 105.381 52.9794 105.321 52.9472 105.244C52.8828 105.091 52.79 104.873 52.6697 104.598C52.4293 104.05 52.0786 103.274 51.6258 102.337C50.7234 100.47 49.4009 97.9304 47.7238 95.2623C46.0548 92.6069 43.9803 89.7366 41.5546 87.2607C39.1533 84.8095 36.2097 82.5407 32.7708 81.4063L30.2646 89.0036C32.0336 89.5871 33.9223 90.9016 35.84 92.8592C37.7335 94.7919 39.4649 97.1557 40.9507 99.5196C42.4285 101.871 43.6099 104.136 44.4226 105.818C44.8275 106.656 45.1371 107.341 45.3428 107.81C45.4455 108.045 45.5221 108.225 45.5714 108.342C45.596 108.401 45.6138 108.443 45.6246 108.47C45.63 108.483 45.6336 108.492 45.6355 108.496C45.6365 108.499 45.637 108.5 45.6371 108.5C45.6371 108.5 45.637 108.5 45.6368 108.5C45.6367 108.499 45.6365 108.499 45.6365 108.499C45.6362 108.498 45.6359 108.497 49.3451 107ZM32.7713 81.4064C29.6826 80.3871 26.4539 80.1598 23.8539 82.193C21.6558 83.912 20.8967 86.6457 20.4945 88.0174C19.9511 89.8706 19.6765 90.9406 19.1279 91.8247C18.7614 92.4153 18.2947 92.8884 17.0976 93.1222L18.6305 100.974C22.1687 100.283 24.4731 98.3835 25.9256 96.0426C27.196 93.9952 27.7882 91.5748 28.1713 90.2683C28.6956 88.4803 28.9227 88.3849 28.7821 88.4948C28.2398 88.9189 28.1403 88.3025 30.2641 89.0034L32.7713 81.4064ZM17.0938 93.1229C14.3092 93.6693 10.0316 91.9591 6.92525 88.1899C3.95141 84.5815 3.05331 80.312 5.15376 76.6083L-1.80505 72.6618C-6.04947 80.1459 -3.58798 88.0121 0.751625 93.2778C4.95876 98.3827 11.9484 102.285 18.6343 100.973L17.0938 93.1229ZM5.15251 76.6105C6.37852 74.4519 7.48286 73.7566 8.21855 73.4688C9.07479 73.1339 10.0422 73.1012 11.5207 73.2105C12.1404 73.2563 13.1199 73.3519 13.9476 73.3656C14.8087 73.3798 16.0186 73.3305 17.2485 72.8614C18.6163 72.3399 19.7835 71.3876 20.5836 69.9989C21.3163 68.7273 21.6318 67.2818 21.7556 65.8518L13.7854 65.1621C13.7161 65.9627 13.5824 66.1256 13.652 66.0049C13.789 65.7671 14.0791 65.5081 14.3981 65.3865C14.5792 65.3174 14.5686 65.3747 14.0798 65.3666C13.5575 65.358 13.0577 65.3023 12.1107 65.2323C10.456 65.1099 7.94128 64.9871 5.30442 66.0184C2.54702 67.097 0.147297 69.2243 -1.8038 72.6596L5.15251 76.6105ZM21.7547 65.8614C22.0753 62.2586 20.4815 58.9075 18.6918 56.2811C16.8436 53.569 14.3833 51.0434 12.041 48.936C9.67647 46.8086 7.30504 44.9945 5.53639 43.7183C4.6483 43.0775 3.90316 42.5658 3.37497 42.211C3.11069 42.0335 2.90015 41.8949 2.75257 41.7987C2.67876 41.7506 2.62064 41.7131 2.57937 41.6865C2.55873 41.6733 2.54229 41.6628 2.5302 41.655C2.52416 41.6512 2.5192 41.648 2.51535 41.6456C2.51342 41.6443 2.51177 41.6433 2.5104 41.6424C2.50971 41.642 2.50889 41.6415 2.50855 41.6412C2.5078 41.6408 2.50712 41.6403 0.364202 45.0179C-1.77871 48.3955 -1.77926 48.3951 -1.77973 48.3948C-1.77979 48.3948 -1.7802 48.3945 -1.78033 48.3944C-1.7806 48.3943 -1.78059 48.3943 -1.78031 48.3944C-1.77976 48.3948 -1.77812 48.3958 -1.77542 48.3976C-1.77001 48.401 -1.76036 48.4072 -1.74658 48.416C-1.71903 48.4338 -1.67503 48.4622 -1.61572 48.5008C-1.49707 48.5781 -1.31733 48.6964 -1.08547 48.8521C-0.621353 49.1638 0.0492974 49.6242 0.855196 50.2057C2.4745 51.3742 4.6038 53.006 6.69023 54.8832C8.79898 56.7805 10.7399 58.8184 12.0808 60.7861C13.4802 62.8397 13.8634 64.2849 13.7862 65.1525L21.7547 65.8614ZM-3.43075 46.2821L-3.42607 46.2962L4.16383 43.7677L4.15916 43.7536L-3.43075 46.2821Z" fill="#282828" mask="url(#path-2-inside-1_309_3)"/>
<defs>
<linearGradient id="paint0_linear_309_3" x1="59.5" y1="9" x2="59.5" y2="113" gradientUnits="userSpaceOnUse">
<stop stop-color="#FFA224"/>
<stop offset="1" stop-color="#DE8318"/>
</linearGradient>
</defs>
</svg>
