<svg width="107" height="123" viewBox="0 0 107 123" fill="none" xmlns="http://www.w3.org/2000/svg">
<circle cx="42" cy="55" r="36" fill="url(#paint0_linear_309_2)"/>
<path d="M60.6077 39.5012C60.2023 39.3922 59.7793 39.3642 59.363 39.4188C58.9467 39.4734 58.5453 39.6096 58.1817 39.8195C57.8181 40.0294 57.4995 40.309 57.2441 40.6422C56.9886 40.9754 56.8014 41.3557 56.6931 41.7613L52.8399 56.1415L38.4597 52.2883C38.0543 52.1797 37.6314 52.152 37.2152 52.2068C36.7991 52.2616 36.3978 52.3978 36.0343 52.6077C35.6708 52.8175 35.3521 53.0969 35.0966 53.4299C34.8411 53.763 34.6537 54.143 34.545 54.5485C34.4364 54.9539 34.4087 55.3768 34.4635 55.7929C34.5183 56.2091 34.6545 56.6104 34.8643 56.9739C35.0742 57.3374 35.3536 57.656 35.6866 57.9115C36.0196 58.1671 36.3997 58.3545 36.8052 58.4631L52.9933 62.8007L69.9139 92.1081C70.3378 92.8423 71.036 93.3781 71.855 93.5976C72.6739 93.817 73.5465 93.7021 74.2808 93.2782C75.015 92.8543 75.5508 92.156 75.7702 91.3371C75.9897 90.5181 75.8748 89.6456 75.4509 88.9113L58.5303 59.6039L62.8678 43.4158C62.9769 43.0104 63.0048 42.5874 62.9502 42.1712C62.8956 41.7549 62.7594 41.3535 62.5495 40.9899C62.3396 40.6263 62.06 40.3076 61.7268 40.0522C61.3936 39.7967 61.0134 39.6095 60.6077 39.5012Z" fill="#282828"/>
<path d="M77.9609 31.7457C82.8716 40.2514 82.4307 46.9891 81.8515 54.0285C81.839 54.18 81.8265 54.3317 81.814 54.4835C81.2366 61.4672 80.6246 68.8705 85.7306 77.7144C86.8135 79.5901 87.1054 81.1743 86.9716 82.5289C86.836 83.9012 86.2446 85.2239 85.2557 86.5254C83.2257 89.1973 79.7891 91.4451 76.4374 93.3802C73.7023 94.9594 68.9751 96.9854 64.5076 97.7392C59.8423 98.5265 56.5659 97.7854 55.1628 95.3552C50.0645 86.5245 43.4178 83.3208 37.1388 80.2943C37.0021 80.2284 36.8657 80.1627 36.7294 80.0969C30.4066 77.0462 24.4 74.0242 19.4831 65.5079C10.2641 49.5402 16.7795 28.384 32.2046 19.4783C47.6013 10.589 68.7227 15.7448 77.9609 31.7457Z" stroke="#282828" stroke-width="4"/>
<path d="M94.6072 101.846C95.9306 104.138 92.4183 112.338 87.0668 115.428C81.7153 118.518 72.8579 117.459 71.5345 115.167C70.211 112.875 76.9173 110.214 82.2716 107.122C87.6231 104.033 93.2837 99.5538 94.6072 101.846Z" fill="#282828"/>
<path d="M92.8124 97.6109C93.6602 99.0794 93.89 100.825 93.4511 102.463C93.0123 104.1 91.9407 105.497 90.4722 106.345L68.3242 119.132C66.8557 119.98 65.1105 120.209 63.4726 119.771C61.8347 119.332 60.4382 118.26 59.5904 116.792L50 100.181L83.222 80.9999L92.8124 97.6109Z" fill="url(#paint1_linear_309_2)"/>
<path d="M65.6552 116.714C64.9604 117.112 64.1417 117.235 63.361 117.058C62.5802 116.881 61.8942 116.418 61.4386 115.76C60.9829 115.101 60.7908 114.296 60.9003 113.503C61.0097 112.71 61.4126 111.987 62.0295 111.477L92.0547 86.759C92.3778 86.4901 92.751 86.2881 93.1527 86.1645C93.5544 86.0408 93.9766 85.9982 94.3949 86.0389C94.8132 86.0796 95.2193 86.2028 95.5896 86.4015C95.96 86.6002 96.2872 86.8705 96.5524 87.1965C96.8192 87.5205 97.0196 87.8938 97.142 88.2953C97.2644 88.6967 97.3065 89.1183 97.2658 89.536C97.2252 89.9537 97.1026 90.3593 96.9051 90.7297C96.7076 91.1 96.4391 91.4277 96.1148 91.6942L66.0896 116.412C65.9541 116.526 65.8087 116.627 65.6552 116.714ZM59.2616 105.64C58.5668 106.038 57.7482 106.161 56.9674 105.984C56.1866 105.807 55.5006 105.344 55.045 104.686C54.5894 104.027 54.3973 103.222 54.5067 102.429C54.6161 101.636 55.0191 100.913 55.6359 100.403L85.6612 75.6849C85.9844 75.4165 86.3576 75.2148 86.7593 75.0914C87.1609 74.9681 87.583 74.9255 88.0012 74.9662C88.4194 75.0069 88.8254 75.13 89.1957 75.3285C89.566 75.5269 89.8934 75.7968 90.1588 76.1225C90.4256 76.4465 90.626 76.8198 90.7484 77.2213C90.8708 77.6227 90.9129 78.0443 90.8723 78.462C90.8316 78.8797 90.709 79.2853 90.5116 79.6556C90.3141 80.026 90.0455 80.3537 89.7213 80.6202L59.696 105.338C59.5605 105.452 59.4151 105.553 59.2616 105.64Z" fill="#282828"/>
<defs>
<linearGradient id="paint0_linear_309_2" x1="34.6364" y1="19" x2="51" y2="91" gradientUnits="userSpaceOnUse">
<stop stop-color="#FFA224"/>
<stop offset="1" stop-color="#DE8318"/>
</linearGradient>
<linearGradient id="paint1_linear_309_2" x1="66.611" y1="90.5903" x2="79.3982" y2="112.738" gradientUnits="userSpaceOnUse">
<stop stop-color="#FFA224"/>
<stop offset="1" stop-color="#DE8318"/>
</linearGradient>
</defs>
</svg>
