<svg width="561" height="281" viewBox="0 0 561 281" fill="none" xmlns="http://www.w3.org/2000/svg">
<path d="M427.42 19.0169C431.127 19.7661 434.695 20.092 435.287 25.3699C435.588 28.0582 439.233 28.3332 441.923 28.4057C446.749 28.5367 448.011 29.313 447.724 33.5948C447.492 37.0528 448.615 38.0759 451.864 38.3607C456.142 38.7353 460.15 39.9489 464.652 38.2264C468.703 36.6771 471.02 38.7223 472.944 43.578C473.352 44.6065 473.936 45.9782 475.144 45.2366C480.649 41.8566 487.222 44.4896 493.12 41.5068C497.038 39.5256 502.62 40.4231 506.551 44.1821C508.452 45.9999 510.707 46.8736 513.066 45.2756C515.567 43.5812 517.638 45.1402 518.925 46.4578C523.014 50.6423 527.63 49.3983 532.321 48.5084C532.949 48.3893 533.557 48.1641 534.174 47.9887C536.722 47.2622 534.334 53.0815 537.19 50.6011C538.703 49.2868 539.762 49.0118 541.473 48.805C549.271 47.862 555.021 52.263 561 56.1638L558.14 62.8492C557.933 62.7968 557.725 62.7488 557.516 62.7052C555.82 62.3533 554.272 59.3998 553.761 60.2075C552.703 61.8748 550.576 63.3006 550.853 65.6327C551.207 68.6251 549.72 69.3321 547.057 69.4587C544.685 69.5713 542.262 69.9892 540.426 71.8546C538.93 73.3758 537.157 73.4061 535.036 73.3249C529.555 73.1148 526.604 75.7045 525.919 81.2336C525.215 86.9046 519.894 88.94 517.079 92.9339C516.17 94.2244 515.354 92.5517 514.865 91.691C512.632 87.7523 514.015 84.0908 516.008 80.6349C516.971 78.9633 518.521 77.6338 519.743 76.0997C520.485 75.1697 522.416 74.5721 521.536 73.1257C520.759 71.846 518.971 71.4985 517.422 71.5385C515.486 71.5894 514.176 72.9102 513.284 74.4097C511.73 77.0232 509.897 76.6389 507.204 76.1582C500.181 74.9056 492.91 74.1726 488.019 81.186C486.724 83.0428 482.717 83.3134 483.939 86.3286C485.089 89.1662 488.63 87.2889 491.029 88.024C492.801 88.5664 495.191 87.958 495.27 90.3322C495.355 92.8916 497.972 95.7563 495.052 98.0364C494.146 98.7444 493.328 99.1754 493.205 100.38C493.143 100.988 493.164 101.907 492.417 101.905C491.711 101.903 491.788 100.995 491.716 100.412C491.662 99.9808 491.699 99.5402 491.649 99.1082C491.51 97.8967 492.046 96.5824 491.101 95.4922C490.771 96.7188 490.658 98.0613 490.074 99.1537C487.292 104.369 484.326 109.295 477.823 110.865C471.866 112.302 471.274 113.516 472.707 119.503C473.229 121.686 473.241 123.545 470.889 124.317C468.615 125.063 467.907 122.961 467.122 121.506C466.517 120.384 466.178 119.066 465.981 117.796C465.693 115.936 464.655 115.768 463.198 116.301C462.064 116.715 460.861 118.121 459.826 116.456C459.113 115.307 458.658 114.547 457.628 115.988C457.011 116.851 456.039 117.914 456.16 118.754C456.422 120.582 457.784 119.103 458.67 119.188C461.202 119.435 463.588 119.735 460.261 122.705C458.752 124.051 459.203 125.814 459.549 127.572C461.316 136.552 457.448 143.185 448.884 146.23C446.744 146.991 444.071 146.861 443.147 149.863C442.558 151.776 441.679 151.614 440.824 149.698C439.791 147.383 438.244 148.865 437.084 149.672C435.51 150.77 435.483 152.145 436.945 153.463C437.593 154.047 438.287 154.586 438.893 155.211C443.028 159.471 441.573 165.436 435.946 167.661C434.394 168.274 434.156 167.22 433.535 166.343C431.845 163.958 428.93 161.143 426.76 163.096C423.961 165.617 426.921 168.61 429.148 170.731C430.787 172.291 432.716 174.169 432.3 176.196C431.348 180.832 435.475 183.651 435.737 187.758C435.856 189.609 437.647 189.886 439.139 190.298C443.514 191.505 447.587 193.999 452.422 193.249C453.253 193.12 454.475 193.453 454.536 194.343C454.623 195.605 453.305 195.241 452.535 195.31C447.02 195.803 441.375 194.878 436.415 193.301C432.591 192.085 429.355 187.708 426.87 184.055C424.806 181.013 422.543 178.109 420.096 175.363C419.381 174.56 418.042 174.054 418.907 172.84C419.883 171.471 421.307 172.01 422.319 172.896C423.788 174.184 425.07 175.682 426.448 177.073C426.905 177.534 427.559 178.039 428.111 177.574C428.76 177.031 428.066 176.44 427.726 175.968C424.137 170.97 422.791 165.426 423.284 159.317C423.468 157.039 423.094 154.759 419.697 155.488C416.775 156.116 416.852 153.341 415.837 151.912C411.578 145.914 409.996 145.761 404.525 150.623C403.268 151.739 401.891 152.721 400.517 153.691C395.79 157.029 394.545 161.973 396.973 167.462C397.47 168.587 398.689 169.832 397.343 170.971C396.103 172.022 395.057 170.693 393.876 170.291C388.423 168.437 386.369 163.916 385.619 159.051C384.502 151.805 379.021 147.616 375.103 142.308C374.098 140.945 372.596 140.657 371.021 140.63C369.053 140.595 367.068 140.422 365.12 140.612C363.907 140.73 362.752 140.554 361.614 140.306C359.674 139.884 358.523 142.366 360.105 143.56C360.861 144.129 361.68 144.648 362.378 145.265C363.636 146.376 362.341 147.049 361.976 147.991C359.665 153.951 353.902 155.485 348.951 157.749C345.854 159.164 342.922 161.303 339.301 161.515C338.628 161.554 337.959 161.906 337.959 162.671C337.959 163.702 338.779 164.2 339.652 164.278C341.87 164.478 343.824 163.274 345.946 162.937C348.901 162.469 350.326 164.464 349.008 167.137C346.409 172.412 343.067 177.279 338.28 180.988C330.949 186.669 330.251 188.989 333 197.497C335.154 204.165 334.902 205.171 329.059 209.582C326.829 211.265 324.919 212.808 326.027 215.994C326.466 217.255 326.574 218.977 325.525 219.697C321.333 222.578 319.961 227.37 317.329 231.267C313.098 237.533 306.614 237.232 300.376 237.704C298.421 237.852 296.946 235.923 296.748 234.415C296.035 228.987 293.33 224.047 291.455 219.261C288.571 211.896 286.407 205.546 289.297 197.78C290.126 195.551 289.034 191.869 287.559 189.703C285.09 186.075 283.916 182.42 284.03 178.153C284.066 176.793 283.323 175.099 281.946 175.299C278.19 175.842 275.144 172.399 271.997 173.104C268.467 173.896 264.601 173.204 261.357 175.212C259.178 176.561 257.25 176.019 255.266 174.721C250.283 171.462 247.46 166.131 243.112 162.264C242.656 161.858 242.381 161.061 242.49 160.462C243.985 152.225 241.126 142.753 248.936 136.291C252.733 133.149 254.232 128.334 257.885 125.115C259.419 123.762 259.49 121.932 257.159 121.026C255.604 120.422 253.983 119.553 254.489 117.882C255.332 115.099 253.709 112.165 255.126 109.618C256.399 107.332 258.871 107.747 261.036 107.861C267.489 108.204 268.079 107.711 266.932 101.163C266.447 98.3893 267.11 97.0956 269.492 95.3806C272.254 93.3907 274.893 91.0771 277.702 89.1034C282.219 85.9269 282.729 84.6927 279.503 79.8684C278.494 78.3592 277.839 76.8825 277.44 75.1827C276.333 70.4472 277.079 68.4097 281.571 66.3093C284.706 64.8445 287.056 62.9271 288.434 59.7235C290.829 54.1576 295.442 51.0028 300.902 48.9111C303.143 48.0526 305.485 47.4539 307.741 46.63C311.761 45.1619 315.195 44.4831 318.839 48.3211C321.238 50.8469 325.815 50.4582 328.991 52.5066C330.07 53.2038 331.748 53.324 332.424 54.2399C335.067 57.8202 337.005 59.6737 338.506 53.4799C338.851 52.0584 341.135 51.5842 342.366 53.0436C344.238 55.2619 345.923 54.7423 348.047 53.5221C351.609 51.4759 355.741 52.5131 359.577 51.7693C363.648 50.98 360.977 49.2337 360.453 47.7278L360.525 47.6379C363.728 48.2908 366.916 49.0345 370.14 49.5585C371.846 49.8357 373.048 49.8768 373.578 47.2189C374.728 41.4495 377.331 40.3614 383.697 40.958C385.975 41.1712 388.177 40.7804 390.484 41.7948C391.817 42.3806 394.207 42.1229 394.577 39.767C395.093 36.4812 396.78 36.9045 399.268 37.6299C401.567 38.3 404.706 39.4466 404.674 34.8269C404.665 33.6165 406.168 33.3956 407.225 33.1661C411.865 32.1592 416.193 30.0394 421.195 30.2614C425.789 30.4649 427.028 27.4302 424.559 23.0726C425.913 22.0051 426.692 20.5294 427.42 19.0169ZM280.222 108.993C275.38 109.844 272.094 112.751 270.122 116.939C269.158 118.987 268.318 120.823 266.187 121.831C265.476 122.167 264.036 121.974 264.21 122.896C264.346 123.615 265.799 123.465 266.578 123.194C270.482 121.84 274.367 120.572 278.551 120.21C280.837 120.012 282.889 120.339 284.881 121.246C286.839 122.138 286.588 123.981 286.696 125.731C286.78 127.09 287.85 128.224 289.218 128.294C293.6 128.518 297.775 132.216 302.418 128.994C303.134 128.497 304.69 128.6 305.563 129.025C310.391 131.384 315.556 129.747 320.518 130.426C322.949 130.758 323.812 128.391 324.278 126.635C324.847 124.487 323.095 124.443 321.414 124.327C319.959 124.227 318.449 123.014 317.126 123.239C312.569 124.015 310.563 122.132 310.275 117.78C310.217 116.901 309.681 116.063 308.583 116.213C307.844 116.315 307.909 117.121 307.629 117.656C306.016 120.746 301.839 121.277 299.841 118.648C299.235 117.851 299.182 115.737 298.302 116.176C293.766 118.441 291.76 114.25 288.738 112.795C286.753 111.839 285.52 111.488 285.32 114.355C285.215 115.881 284.358 117.807 282.629 117.3C280.145 116.572 282.349 114.859 282.456 113.565C282.62 111.626 284.03 109.045 280.222 108.993ZM297.53 85.2416C300.553 85.3986 300.303 85.2405 301.531 83.3145C304.415 78.7901 303.272 74.3177 301.766 69.8117C301.343 68.5439 301.511 66.2021 299.177 67.0304C297.399 67.6615 296.286 69.7207 297.438 71.2787C301.332 76.549 296.209 79.0932 294.113 82.2806C292.803 84.2737 290.171 86.295 287.947 82.5307C287.622 81.9796 286.872 81.5335 286.345 82.0532C285.968 82.4256 285.818 83.2734 285.923 83.8439C286.617 87.5834 289.578 86.7866 292.108 86.7931C294.06 86.7985 295.297 84.2954 297.53 85.2416ZM333.503 111.551C332.58 107.973 327.48 108.283 326.726 104.177C326.554 103.241 325.268 105.615 324.353 106.304C322.904 107.394 321.441 107.72 320.543 105.927C319.809 104.46 319.019 103.578 317.742 104.918C316.282 106.449 314.553 108.029 314.833 110.501C315.012 112.072 316.226 112.968 317.56 112.679C321.746 111.772 325.624 112.354 329.576 113.903C331.232 114.55 333.046 113.773 333.503 111.551ZM329.376 145.515C328.006 145.809 327.953 146.8 327.881 147.884C327.67 151.043 329.953 152.88 331.632 155.031C332.393 156.007 333.175 157.751 334.434 157.217C336.251 156.446 335.106 154.671 334.763 153.331C334.111 150.784 332.224 148.922 330.903 146.748C330.6 146.248 329.945 145.96 329.376 145.515Z" fill="#626262"/>
<path d="M0 88.7853C5.46183 85.3885 10.9921 82.1405 17.1055 80.0478C17.8853 79.7813 18.9692 79.2911 18.8845 78.3351C18.7868 77.2282 17.4694 77.7095 16.7786 77.2976C13.9646 75.6191 11.0475 74.087 8.38009 72.1937C5.08496 69.8543 5.2381 67.918 8.63097 65.822C9.36298 65.3694 10.2242 65.1348 11.0214 64.7867C11.9348 64.3869 13.7941 64.6623 13.4292 63.2954C13.1088 62.0949 11.5199 63.2293 10.4979 63.171C9.63884 63.1225 8.71568 63.1721 7.94132 62.8648C6.44798 62.2722 5.13058 61.1433 5.39775 59.4207C5.73769 57.2278 7.65786 57.0582 9.45747 57.0372C10.259 57.0273 11.408 57.98 11.7643 56.9623C12.0955 56.0173 10.7227 55.8664 10.0309 55.4115C4.86232 52.0082 4.88187 51.1755 10.0885 48.1103C11.4059 47.3349 12.6396 46.3822 14.0222 45.7621C17.9527 43.9999 21.6464 42.9326 26.285 44.5869C31.3124 46.38 36.9664 46.2754 42.2697 47.3845C48.8491 48.7601 55.0962 48.7921 61.8059 47.0629C68.2506 45.402 75.1591 46.6377 81.6233 48.943C82.3999 49.2194 83.3958 49.9155 83.9997 49.0014C84.5459 48.1742 83.8791 47.2766 83.1482 46.7776C82.0567 46.0342 81.0586 45.4097 80.7816 43.8677C80.4678 42.1209 79.449 41.731 78.1208 43.1793C76.546 44.8964 74.6508 44.8656 72.7176 44.012C70.7388 43.1386 69.2259 41.8565 70.5954 39.4356C71.3622 38.0798 72.2017 36.8418 72.1094 35.1688C71.9791 32.8217 74.0024 32.3051 75.1558 33.0563C78.8669 35.4706 83.5196 34.1323 87.2893 37.0863C90.389 39.516 94.6692 40.2287 98.7582 37.7009C101.118 36.2427 103.609 35.9199 103.093 40.2231C102.893 41.894 103.446 43.7179 104.666 44.3732C108.018 46.1718 110.83 47.5585 106.059 51.0775C105.058 51.8154 105.802 53.2054 107.047 53.5634C108.531 53.9896 110.658 54.2859 110.829 52.3673C111.029 50.1193 111.798 48.8989 113.528 47.6026C116.35 45.4879 115.876 44.197 112.25 44.1585C109.305 44.1265 108.296 41.0316 106.079 39.7991C108.661 39.3277 109.675 36.1876 112.459 35.9937C113.974 35.888 115.475 35.5554 116.979 35.3042C119.125 34.9463 120.595 33.8625 120.911 31.5253C121.071 30.3402 120.987 29.2476 119.606 28.969C117.637 28.5725 115.906 27.3851 114.129 30.2763C111.621 34.357 106.65 30.9416 103.175 32.8107L102.275 30.3931C102.819 29.8071 102.88 29.2223 102.273 28.6374C102.719 26.287 101.037 24.1679 102.161 21.5323C104.046 17.1112 104.52 16.6596 108.321 19.1026C109.455 19.8317 110.906 20.6533 110.463 22.0686C109.869 23.9609 108.288 22.3572 107.159 22.4343C105.757 22.5301 104.407 22.6579 104.392 24.4422C104.376 26.1978 105.655 26.5095 107.101 26.5007C108.625 26.4919 110.153 26.6439 111.672 26.5613C114.473 26.4093 116.109 25.4456 113.858 22.5037C112.878 21.2228 111.621 19.8086 113.235 18.5155C114.917 17.1685 116.083 19.1257 116.898 20.1676C117.711 21.2084 120.564 21.2073 118.875 24.0677C118.364 24.9345 121.071 25.526 122.454 25.8718C123.115 26.037 123.766 25.6273 123.931 24.8794C124.266 23.3606 123.552 22.3484 122.273 21.66C122.071 21.5549 121.876 21.4349 121.692 21.301C113.611 15.2785 113.708 13.3896 122.385 8.21074C123.885 7.31238 125.512 6.6499 127.209 6.24583C136.091 4.09809 145.193 3.478 154.207 2.40854C157.975 1.96137 161.966 3.26983 165.83 3.93618C167.299 4.18951 169.865 4.80409 169.901 5.38453C170.006 7.07189 167.695 7.01021 166.662 8.08738C166.076 8.69976 164.982 9.13592 165.565 10.1646C166.231 11.3376 167.705 11.3938 168.341 10.5281C172.133 5.37682 177.421 6.67978 182.622 6.35156C186.855 6.08502 191.129 5.52 195.479 4.00226C200.269 2.33033 205.981 1.84571 211.363 1.40845C212.441 1.32144 213.828 1.94264 214.582 1.45581C221.092 -2.74275 226.535 3.50554 232.613 3.20816C233.337 3.17291 233.895 3.79409 233.663 4.53093C233.489 5.08164 232.927 5.87246 232.485 5.9088C229.448 6.16102 226.396 6.22711 223.351 6.39342C222.723 6.42757 222.104 6.63683 221.48 6.7657C221.85 7.84618 222.797 7.47721 223.484 7.47611C229.989 7.46069 236.481 8.39248 243.006 7.59947C244.591 7.40672 246.888 7.17762 247.2 9.59521C247.445 11.4973 245.451 11.8575 244.154 12.5789C239.493 15.1738 234.295 17.456 237.866 24.538C238.312 25.4224 237.154 26.2397 237.173 26.9269C237.349 33.0342 232.085 37.8077 233.209 44.175C233.525 45.9659 232.416 47.8339 230.621 48.3956C226.699 49.6225 223.648 53.1283 219.169 52.8453C218.746 52.8188 218.221 52.8486 217.893 53.0766C211.481 57.524 202.942 59.6343 200.795 68.808C199.98 72.2917 197.968 72.7268 194.9 71.8368C190.04 70.427 187.636 66.6767 185.195 62.628C182.666 58.4327 181.569 54.635 185.443 50.6953C186.048 50.0807 186.005 49.3097 185.159 48.5068C183.227 46.6741 179.812 40.6692 179.3 38.6724C177.728 32.5463 171.714 27.5448 165.754 29.1595C159.17 30.9438 156.8 26.4985 153.493 22.9806C152.148 21.551 153.327 20.5509 154.542 19.9352C156.281 19.053 158.329 19.0585 160.013 17.8392C161.379 16.8513 161.471 16.0076 160.775 14.5537C160.041 13.0195 159.141 13.5592 158.146 13.9634C152.229 16.3667 146.976 19.3107 145.033 26.2925C144.383 28.633 142.56 30.5429 141.963 33.2237C141.449 35.53 138.334 35.0047 136.234 35.3505C135.468 35.4772 134.142 34.7425 134.075 35.8175C134.025 36.6149 135.616 36.2338 136.298 36.6314C141.018 39.3784 146.872 37.7064 151.583 41.1659C155.335 43.9206 159.755 45.3645 161.581 50.5433C162.471 53.071 165.924 53.9852 168.524 55.0932C169.739 55.6109 171.502 56.0107 170.175 57.6045C169.135 58.8523 168.642 61.8449 165.862 60.358C164.926 59.8568 164.228 58.9041 163.402 58.1816C162.922 57.7619 162.271 57.2013 161.738 57.6749C161.149 58.197 161.723 58.8468 162.132 59.3193C162.708 59.9846 163.412 60.5474 163.922 61.2556C164.854 62.5486 167.296 63.758 165.385 65.539C163.944 66.8838 162.129 69.0481 159.689 67.8872C154.881 65.6018 150.573 61.9209 144.684 62.9826C144.125 63.0828 143.577 62.3328 143.567 61.6114C143.555 60.804 144.122 60.4736 144.831 60.4163C145.916 60.3282 147.064 60.489 148.079 60.1828C150.863 59.3414 152.574 55.851 151.582 53.3354C150.43 50.4134 143.449 47.0155 140.144 47.3999C137.801 47.6731 139.33 48.6081 139.172 49.6181C138.725 52.4642 140.962 56.9744 134.988 57.2178C132.867 57.3049 134.546 59.077 135.401 59.8799C136.954 61.3393 140.587 61.5695 140.161 63.6952C139.756 65.7218 136.214 62.7756 134.419 64.8396C133.672 65.6987 132.279 65.7879 131.386 65.0488C127.882 62.1499 125.767 65.159 123.529 66.9565C116.874 72.3049 117.149 75.2611 124.875 79.0367C126.622 79.8903 128.233 81.1746 130.103 81.636C134.975 82.8399 139.126 84.6814 140.35 90.3338C140.566 91.3295 141.778 93.1336 143.243 91.7392C144.049 90.9716 144.055 89.6917 143.432 88.7654C141.524 85.9238 141.885 84.0382 145.158 82.5855C146.619 81.9378 146.175 80.2317 145.563 79.0477C144.476 76.944 144.893 74.7247 144.793 72.5406C144.539 66.94 147.641 64.8902 152.614 67.5512C154.505 68.5634 156.68 69.7508 157.739 71.4789C159.516 74.3789 160.913 75.8823 164.351 73.7202C166.586 72.3148 168.176 74.4725 168.899 76.2281C170.479 80.0687 173.369 82.5425 176.31 85.1936C178.549 87.2125 182.093 89.0254 179.984 93.3462C179.302 94.7417 180.842 95.0501 181.686 95.6272C183.152 96.6306 184.524 97.7419 184.85 99.6562C185 100.536 184.438 102.088 184.332 102.004C181.931 100.12 179.065 101.914 176.704 100.954C175.112 100.306 175.023 98.5944 175.619 96.9247C176.535 94.3595 175.209 94.4256 173.323 94.8992C172.07 95.2142 170.688 95.4157 169.43 95.223C164.892 94.5302 165.147 96.0942 166.527 99.7641C167.751 103.021 169.004 102.767 171.287 101.459C172.354 100.848 173.479 100.986 173.978 102.255C174.453 103.462 173.712 104.872 172.805 105.021C169.403 105.581 166.624 109.738 162.582 106.815C161.366 105.936 159.322 106.604 159.113 107.585C158.288 111.48 155.051 112.505 152.382 114.293C151.878 114.63 151.51 115.32 151.289 115.926C149.324 121.299 146.517 125.897 141.862 129.509C139.497 131.344 139.343 134.534 141.771 137.172C142.962 138.466 143.299 140.253 141.694 141.185C140.104 142.107 139.88 139.793 138.925 139.077C137.908 138.313 137.047 137.205 136.402 136.081C134.501 132.768 131.58 132.411 128.47 133.422C126.566 134.041 124.727 134.509 122.743 134.51C118.837 134.512 115.351 134.316 116.257 140.515C116.595 142.827 113.334 145.424 116.317 148.376C118.489 150.525 120.451 151.545 123.191 149.81C124.116 149.225 124.98 148.539 125.915 147.972C127.277 147.144 128.971 146.51 130.27 147.326C132.263 148.58 130.312 150.156 129.785 151.243C128.091 154.746 128.424 156.561 132.761 156.525C135.074 156.506 136.365 158.075 136.419 160.381C136.469 162.542 135.565 165.259 138.29 166.094C141.132 166.964 144.74 167.259 146.958 165.462C151.732 161.593 156.436 162.412 161.569 164.043C162.949 164.482 164.383 164.689 165.826 164.785C174.152 165.342 178.734 173.316 186.378 175.199C188.984 184.348 198.299 182.934 204.297 186.732C205.851 187.717 207.847 188.223 209.528 189.274C212.77 191.305 213.664 193.912 211.204 196.973C208.744 200.033 208.108 203.619 207.061 207.244C205.339 213.201 204.279 220.083 195.834 220.625C193.558 220.771 192.375 222.943 191.702 225.262C188.999 234.566 188.023 235.548 178.111 239.431C177.342 239.733 177.119 240.042 177.371 240.757C178.928 245.178 175.943 246.382 172.783 246.682C169.83 246.963 169.679 249.453 168.508 251.074C166.401 253.99 165.91 257.96 162.769 260.275C162.573 260.42 162.793 261.701 163.167 261.993C165.198 263.573 164.298 264.592 163.007 266.237C158.723 271.7 158.8 272 162.647 277.683C163.262 278.591 164.45 279.267 162.52 279.926C157.303 281.706 152.404 279.245 150.428 273.977C148.886 269.869 148.794 265.379 149.872 261.539C152.121 253.518 151.793 245.184 153.704 237.051C155.167 230.825 156.348 223.898 156.446 217.12C156.508 212.879 154.839 209.613 151.527 207.627C147.86 205.429 145.806 202.34 144.424 198.492C144.057 197.47 143.398 196.558 142.934 195.567C141.71 192.951 136.847 192.086 139.638 187.455C141.147 184.95 140.484 181.306 143.265 179.235C145.056 177.902 145.147 175.964 145.251 173.903C145.361 171.701 144.838 170.794 142.45 170.558C138.13 170.133 133.602 169.661 132.538 163.938C132.307 162.694 130.838 162.558 129.866 162.358C124.849 161.324 120.891 157.946 115.092 157.731C110.197 157.551 103.6 155.032 101.116 148.42C100.019 145.5 98.7919 143.378 94.2532 144.309C90.541 145.072 88.1321 140.337 86.8723 136.906C84.9076 131.558 82.1066 127.452 77.5701 123.77C72.6666 119.791 71.3198 113.253 71.4436 106.899C71.5283 102.557 71.8531 98.4479 67.2482 96.0854C66.2674 95.5821 65.8656 94.7725 65.7298 93.4729C65.1901 88.3183 64.773 88.0297 59.3753 87.5947C57.6386 87.4548 57.7071 85.9591 57.0685 84.8687C53.1423 78.1699 48.1562 73.2103 39.825 72.2972C36.8057 71.9657 34.9518 73.5451 32.5418 74.0176C29.9841 74.5187 26.9399 73.3094 28.6211 78.1303C29.1174 79.5555 26.916 81.7131 25.1153 81.1228C21.8234 80.0423 20.2551 81.831 18.5674 83.9523C18.1656 84.4578 17.6529 85.2365 17.1675 85.2553C11.2028 85.4855 6.27203 89.4968 0.382295 89.934L0 88.7853ZM123.995 39.3365C122.925 39.5193 121.857 39.733 121.115 40.6351C120.269 41.6638 120.587 42.7432 121.294 43.6045C123.584 46.3921 125.285 49.8461 129.335 50.6766C130.122 50.8374 129.131 53.2638 130.827 52.8398C131.654 52.6338 132.507 51.3892 132.806 50.4387C133.193 49.2128 132.093 48.3581 131.068 48.1015C127.554 47.2226 126.314 44.6992 125.937 41.3994C125.808 40.2727 125.469 39.2242 123.995 39.3365Z" fill="#626262"/>
<path d="M489.929 202.433C489.871 199.183 489.992 196.401 486.554 195.558C486.135 195.455 485.37 195.224 485.382 195.125C486.144 188.404 480.309 189.488 476.922 187.667C476.173 187.264 475.544 186.578 474.955 185.934C473.901 184.781 472.676 183.364 473.892 181.881C475.317 180.143 477.595 180.722 478.358 182.285C479.954 185.557 481.933 184.586 484.672 184.34C490.737 183.795 495.602 187.092 498.907 191.95C500.191 193.837 503.797 195.951 502.679 197.203C500.898 199.196 498.608 196.149 496.585 195.114C494.957 194.281 493.539 194.695 492.465 195.96C491.265 197.372 492.062 198.771 492.742 200.24C496.054 207.394 500.926 213.468 505.578 219.699C509.908 225.498 510.151 228.7 506.679 235.019C506.037 236.186 505.38 237.346 504.834 238.561C500.642 247.9 493.694 249.051 486.568 242.199C483.196 238.957 479.135 236.417 475.23 233.8C472.795 232.167 470.299 232.95 467.842 234.339C463.845 236.597 459.657 238.201 454.978 238.671C449.864 239.185 449.804 239.479 449.085 234.225C448.466 229.707 445.806 225.764 446.422 220.785C446.914 216.809 448.388 214.835 452.009 213.791C455.002 212.928 457.807 212.375 459.257 208.249C460.061 205.96 464.303 203.665 467.832 203.833C469.887 203.931 471.038 203.608 472.067 201.833C473.681 199.047 476.455 199.357 479.084 199.558C480.794 199.688 482.228 200.481 481.807 202.45C480.858 206.888 483.671 208.37 486.884 208.191C490.574 207.985 489.579 204.359 489.929 202.433ZM291.41 13.9483C289.308 14.4749 286.446 12.1968 285.111 15.4697C283.741 18.8308 287.554 19.7077 288.481 22.0068C288.997 23.2869 290.107 24.0084 291.133 24.8358C292.982 26.3274 294.942 26.5565 296.136 24.4193C297.977 21.1255 299.975 21.0682 302.663 23.191C303.359 23.7408 304.333 23.6218 305.069 23.0038C305.62 22.5422 305.921 21.695 305.372 21.2786C299.585 16.8941 304.762 17.6377 307.248 16.9514C308.255 16.6727 309.172 15.9819 310.066 15.3805C310.57 15.0423 311.272 14.5179 311.295 14.0497C311.328 13.3469 310.466 13.2477 309.862 13.2069C306.833 13.0042 303.989 11.5027 300.556 12.0029C297.454 11.3419 294.547 13.1618 291.41 13.9483ZM99.0532 25.6102C98.0386 24.4579 96.4738 24.1847 95.8498 25.7369C93.417 31.7871 90.4545 27.2021 88.6076 25.7666C83.6821 21.9407 81.5618 21.7347 77.3808 25.8438C75.5686 27.6251 75.4546 28.7422 78.1675 29.293C81.7832 30.0267 85.1818 31.082 88.4524 33.0561C92.4143 35.4478 100.388 33.2401 103.561 29.5265C104.105 28.9404 104.165 28.3555 103.559 27.7705C101.646 27.9314 100.288 27.0126 99.0532 25.6102ZM439.009 178.965C438.775 179.135 438.734 179.821 438.84 180.2C439.679 183.199 440.569 186.207 444.094 187.072C447.143 187.82 449.374 186.98 451.312 184.188C453.739 180.689 452.635 176.536 454.024 172.866C454.538 171.511 452.827 170.793 450.576 170.778C447.076 173.239 443.022 176.072 439.009 178.965ZM345.597 201.163C342.881 203.101 339.116 204.616 337.72 207.564C336.113 210.961 335.534 215.07 335.766 219.046C335.847 220.441 336.572 221.556 338.062 221.825C339.866 222.151 342.008 222.031 342.523 220.154C343.952 214.954 346.721 210.184 347.427 205.092C346.82 203.363 347.388 199.885 345.597 201.163ZM359.128 45.1774C354.636 40.1143 354.642 39.0468 359.737 34.7538C362.742 32.2211 366.022 30.1137 369.93 29.1773C371.599 28.7774 373.229 28.1318 374.794 27.4114C375.211 27.2197 375.548 26.3285 375.521 25.7799C375.468 24.741 374.618 24.2023 373.694 24.4326C365.276 26.5224 356.853 28.6232 351.401 36.4216C349.221 39.5392 349.97 42.929 353.306 44.6156C355.135 45.5398 357.117 45.2446 359.055 45.2677L359.128 45.1774ZM536.382 258.734C537.953 254.888 540.812 252.478 543.991 250.081C547.85 247.171 547.573 245.069 543.592 241.867C542.751 241.191 541.908 240.081 540.82 240.586C539.505 241.195 540.342 242.472 540.516 243.486C541.016 246.419 540.629 248.424 537.457 250.126C534.762 251.572 532.846 254.652 530.823 257.202C529.23 259.211 530.091 261.337 532.569 261.483C534.27 261.506 535.732 260.326 536.382 258.734ZM489.884 112.686C489.009 112.175 488.09 112.355 487.632 113.191C484.858 118.265 480.228 120.744 475.188 122.832C473.127 123.686 471.692 125.447 471.798 127.983C471.839 128.963 472.376 129.828 473.387 129.372C477.994 127.294 482.748 125.427 487.041 122.797C489.625 121.215 490.498 117.884 491.097 115.3C491.167 113.837 490.675 113.148 489.884 112.686ZM419.644 10.3769C416.521 8.30689 414.595 10.2777 413.427 12.7288C412.212 15.278 413.098 17.5275 416.044 18.3846C418.342 19.0533 420.677 19.5887 422.996 20.1836C424.343 19.0852 425.12 17.5837 425.846 16.0448C424.412 13.4394 422.004 11.9401 419.644 10.3769ZM483.672 29.1277C482.386 31.418 485.132 31.7672 486.105 32.979C486.513 33.488 486.972 33.9617 487.32 34.5092C488.298 36.046 489.474 37.6566 491.424 37.0088C493.835 36.2079 490.854 34.3902 491.795 33.1454C492.313 32.4602 492.75 31.7066 493.3 31.0512C494.601 29.499 493.741 28.6496 492.309 28.2497C491.079 27.906 489.756 27.9016 488.899 27.7992C486.771 27.9842 484.615 27.4477 483.672 29.1277ZM459.17 163.353C461.281 165.203 463.198 163.732 464.266 162.423C465.421 161.007 464.147 159.364 462.457 159.023C459.399 158.407 459.215 156.889 460.276 154.291C460.726 153.188 459.439 152.242 458.41 151.959C457.034 151.58 456.541 152.841 456.198 153.858C455.922 154.675 455.954 155.601 455.849 156.477C455.635 159.439 457.086 161.524 459.17 163.353ZM454.032 184.71C454.192 186.675 454.467 189.489 456.57 189.978C457.705 190.242 460.608 189.202 460.417 186.611C460.278 184.714 459.838 182.616 457.222 182.337C455.664 182.414 453.89 182.953 454.032 184.71Z" fill="#626262"/>
<path d="M193 190.345C192.149 190.345 191.316 190.578 190.609 191.016C189.901 191.454 189.349 192.076 189.023 192.803C188.698 193.531 188.612 194.332 188.778 195.104C188.944 195.877 189.354 196.587 189.956 197.144C190.558 197.701 191.325 198.08 192.16 198.234C192.995 198.387 193.861 198.308 194.647 198.007C195.434 197.705 196.106 197.195 196.579 196.54C197.052 195.885 197.304 195.115 197.304 194.327C197.302 193.272 196.847 192.26 196.041 191.514C195.234 190.768 194.141 190.347 193 190.345ZM193 196.138C192.613 196.138 192.235 196.032 191.913 195.833C191.591 195.634 191.34 195.351 191.192 195.02C191.044 194.689 191.006 194.325 191.081 193.974C191.157 193.623 191.343 193.301 191.617 193.047C191.89 192.794 192.239 192.622 192.618 192.552C192.998 192.482 193.391 192.518 193.749 192.655C194.106 192.792 194.412 193.024 194.627 193.322C194.842 193.619 194.957 193.969 194.957 194.327C194.954 194.807 194.747 195.266 194.381 195.605C194.014 195.944 193.518 196.135 193 196.138V196.138ZM193 186C190.614 186.002 188.326 186.881 186.639 188.442C184.952 190.003 184.003 192.12 184 194.327C184 201.333 191.992 206.583 192.325 206.8C192.522 206.93 192.758 207 193 207C193.242 207 193.478 206.93 193.675 206.8C195.187 205.771 196.572 204.59 197.803 203.279C200.552 200.356 202 197.26 202 194.327C201.997 192.12 201.048 190.003 199.361 188.442C197.674 186.881 195.386 186.002 193 186V186ZM196.062 201.813C195.13 202.806 194.105 203.72 193 204.547C191.895 203.72 190.87 202.806 189.938 201.813C188.304 200.066 186.348 197.342 186.348 194.327C186.348 192.695 187.049 191.129 188.296 189.975C189.544 188.821 191.236 188.172 193 188.172C194.764 188.172 196.456 188.821 197.704 189.975C198.951 191.129 199.652 192.695 199.652 194.327C199.652 197.342 197.705 200.066 196.062 201.813V201.813Z" fill="#FFA224"/>
<path d="M460.5 85.7241C459.791 85.7241 459.097 85.9243 458.507 86.2994C457.917 86.6745 457.458 87.2076 457.186 87.8314C456.915 88.4552 456.844 89.1416 456.982 89.8038C457.12 90.466 457.462 91.0742 457.964 91.5517C458.465 92.0291 459.104 92.3542 459.8 92.4859C460.496 92.6176 461.217 92.55 461.873 92.2917C462.528 92.0333 463.088 91.5957 463.482 91.0344C463.877 90.473 464.087 89.813 464.087 89.1378C464.085 88.233 463.706 87.3659 463.034 86.7262C462.362 86.0864 461.451 85.7261 460.5 85.7241ZM460.5 90.6895C460.178 90.6895 459.862 90.5985 459.594 90.428C459.326 90.2575 459.117 90.0151 458.994 89.7316C458.87 89.4481 458.838 89.1361 458.901 88.8351C458.964 88.5341 459.119 88.2576 459.347 88.0406C459.575 87.8236 459.866 87.6758 460.182 87.6159C460.498 87.556 460.826 87.5868 461.124 87.7042C461.422 87.8217 461.677 88.0205 461.856 88.2757C462.035 88.5309 462.13 88.8309 462.13 89.1378C462.128 89.5487 461.956 89.9422 461.651 90.2327C461.345 90.5233 460.932 90.6874 460.5 90.6895V90.6895ZM460.5 82C458.512 82.0021 456.605 82.7547 455.199 84.0929C453.793 85.431 453.002 87.2454 453 89.1378C453 95.1428 459.66 99.6428 459.938 99.829C460.102 99.9402 460.298 100 460.5 100C460.702 100 460.898 99.9402 461.063 99.829C462.323 98.9468 463.477 97.9347 464.503 96.8109C466.793 94.3049 468 91.6515 468 89.1378C467.998 87.2454 467.207 85.431 465.801 84.0929C464.395 82.7547 462.488 82.0021 460.5 82V82ZM463.052 95.554C462.275 96.4047 461.421 97.1888 460.5 97.8971C459.579 97.1888 458.725 96.4047 457.948 95.554C456.587 94.0567 454.957 91.7214 454.957 89.1378C454.957 87.7386 455.541 86.3967 456.58 85.4073C457.62 84.4179 459.03 83.862 460.5 83.862C461.97 83.862 463.38 84.4179 464.42 85.4073C465.459 86.3967 466.043 87.7386 466.043 89.1378C466.043 91.7214 464.421 94.0567 463.052 95.554V95.554Z" fill="#FFA224"/>
<path d="M417 43.931C416.243 43.931 415.504 44.1423 414.874 44.5382C414.245 44.9342 413.755 45.4969 413.465 46.1554C413.176 46.8138 413.1 47.5383 413.247 48.2373C413.395 48.9363 413.759 49.5784 414.295 50.0823C414.83 50.5862 415.511 50.9294 416.254 51.0685C416.996 51.2075 417.765 51.1361 418.464 50.8634C419.163 50.5907 419.761 50.1288 420.181 49.5363C420.602 48.9437 420.826 48.247 420.826 47.5343C420.824 46.5793 420.42 45.664 419.703 44.9887C418.986 44.3135 418.014 43.9331 417 43.931ZM417 49.1722C416.656 49.1722 416.32 49.0762 416.034 48.8962C415.748 48.7162 415.525 48.4604 415.393 48.1611C415.262 47.8618 415.227 47.5325 415.294 47.2148C415.361 46.8971 415.527 46.6052 415.77 46.3762C416.013 46.1471 416.323 45.9911 416.661 45.9279C416.998 45.8647 417.348 45.8971 417.666 46.0211C417.983 46.1451 418.255 46.355 418.446 46.6244C418.637 46.8937 418.739 47.2104 418.739 47.5343C418.737 47.9681 418.553 48.3834 418.227 48.6901C417.902 48.9968 417.461 49.1701 417 49.1722V49.1722ZM417 40C414.879 40.0022 412.845 40.7967 411.346 42.2091C409.846 43.6216 409.002 45.5368 409 47.5343C409 53.873 416.104 58.6229 416.4 58.8195C416.575 58.9369 416.785 59 417 59C417.215 59 417.425 58.9369 417.6 58.8195C418.944 57.8883 420.175 56.8199 421.27 55.6337C423.713 52.9885 425 50.1877 425 47.5343C424.998 45.5368 424.154 43.6216 422.654 42.2091C421.155 40.7967 419.121 40.0022 417 40V40ZM419.722 54.307C418.893 55.205 417.982 56.0326 417 56.7803C416.018 56.0326 415.107 55.205 414.278 54.307C412.826 52.7265 411.087 50.2614 411.087 47.5343C411.087 46.0574 411.71 44.6409 412.819 43.5966C413.928 42.5522 415.432 41.9655 417 41.9655C418.568 41.9655 420.072 42.5522 421.181 43.5966C422.29 44.6409 422.913 46.0574 422.913 47.5343C422.913 50.2614 421.183 52.7265 419.722 54.307V54.307Z" fill="#FFA224"/>
<path d="M287 92.1378C286.243 92.1378 285.504 92.3603 284.874 92.7771C284.245 93.1939 283.755 93.7863 283.465 94.4793C283.176 95.1724 283.1 95.9351 283.247 96.6709C283.395 97.4066 283.759 98.0825 284.295 98.613C284.83 99.1434 285.511 99.5047 286.254 99.651C286.996 99.7974 287.765 99.7223 288.464 99.4352C289.163 99.1481 289.761 98.6619 290.181 98.0382C290.602 97.4144 290.826 96.6811 290.826 95.9309C290.824 94.9256 290.42 93.9622 289.703 93.2513C288.986 92.5405 288.014 92.1401 287 92.1378ZM287 97.655C286.656 97.655 286.32 97.5539 286.034 97.3644C285.748 97.175 285.525 96.9057 285.393 96.5907C285.262 96.2756 285.227 95.929 285.294 95.5945C285.361 95.2601 285.527 94.9529 285.77 94.7118C286.013 94.4706 286.323 94.3064 286.661 94.2399C286.998 94.1734 287.348 94.2075 287.666 94.338C287.983 94.4685 288.255 94.6895 288.446 94.973C288.637 95.2565 288.739 95.5899 288.739 95.9309C288.737 96.3874 288.553 96.8247 288.227 97.1475C287.902 97.4703 287.461 97.6527 287 97.655V97.655ZM287 88C284.879 88.0023 282.845 88.8386 281.346 90.3254C279.846 91.8123 279.002 93.8282 279 95.9309C279 102.603 286.104 107.603 286.4 107.81C286.575 107.934 286.785 108 287 108C287.215 108 287.425 107.934 287.6 107.81C288.944 106.83 290.175 105.705 291.27 104.457C293.713 101.672 295 98.7239 295 95.9309C294.998 93.8282 294.154 91.8123 292.654 90.3254C291.155 88.8386 289.121 88.0023 287 88V88ZM289.722 103.06C288.893 104.005 287.982 104.876 287 105.663C286.018 104.876 285.107 104.005 284.278 103.06C282.826 101.396 281.087 98.8015 281.087 95.9309C281.087 94.3762 281.71 92.8852 282.819 91.7859C283.928 90.6865 285.432 90.0689 287 90.0689C288.568 90.0689 290.072 90.6865 291.181 91.7859C292.29 92.8852 292.913 94.3762 292.913 95.9309C292.913 98.8015 291.183 101.396 289.722 103.06V103.06Z" fill="#FFA224"/>
<path d="M392 148.103C391.432 148.103 390.878 148.27 390.406 148.583C389.934 148.895 389.566 149.34 389.349 149.86C389.132 150.379 389.075 150.951 389.186 151.503C389.296 152.055 389.57 152.562 389.971 152.96C390.372 153.358 390.884 153.629 391.44 153.738C391.997 153.848 392.574 153.792 393.098 153.576C393.622 153.361 394.071 152.996 394.386 152.529C394.701 152.061 394.87 151.511 394.87 150.948C394.868 150.194 394.565 149.472 394.027 148.938C393.489 148.405 392.761 148.105 392 148.103ZM392 152.241C391.742 152.241 391.49 152.165 391.275 152.023C391.061 151.881 390.894 151.679 390.795 151.443C390.696 151.207 390.67 150.947 390.721 150.696C390.771 150.445 390.895 150.215 391.078 150.034C391.26 149.853 391.493 149.73 391.746 149.68C391.999 149.63 392.261 149.656 392.499 149.754C392.737 149.851 392.941 150.017 393.085 150.23C393.228 150.442 393.304 150.692 393.304 150.948C393.303 151.291 393.165 151.618 392.92 151.861C392.676 152.103 392.345 152.24 392 152.241V152.241ZM392 145C390.409 145.002 388.884 145.629 387.759 146.744C386.634 147.859 386.002 149.371 386 150.948C386 155.952 391.328 159.702 391.55 159.857C391.681 159.95 391.839 160 392 160C392.161 160 392.319 159.95 392.45 159.857C393.458 159.122 394.381 158.279 395.202 157.342C397.035 155.254 398 153.043 398 150.948C397.998 149.371 397.366 147.859 396.241 146.744C395.116 145.629 393.591 145.002 392 145V145ZM394.041 156.295C393.42 157.004 392.737 157.657 392 158.248C391.263 157.657 390.58 157.004 389.959 156.295C388.87 155.047 387.565 153.101 387.565 150.948C387.565 149.782 388.032 148.664 388.864 147.839C389.696 147.015 390.824 146.552 392 146.552C393.176 146.552 394.304 147.015 395.136 147.839C395.968 148.664 396.435 149.782 396.435 150.948C396.435 153.101 395.137 155.047 394.041 156.295V156.295Z" fill="#FFA224"/>
<path d="M429.5 148.276C429.074 148.276 428.658 148.398 428.304 148.627C427.95 148.857 427.675 149.182 427.512 149.564C427.349 149.945 427.306 150.364 427.389 150.769C427.472 151.174 427.677 151.545 427.978 151.837C428.279 152.129 428.663 152.328 429.08 152.408C429.498 152.489 429.93 152.447 430.324 152.289C430.717 152.131 431.053 151.864 431.289 151.521C431.526 151.178 431.652 150.775 431.652 150.362C431.651 149.809 431.424 149.279 431.02 148.888C430.617 148.497 430.07 148.277 429.5 148.276ZM429.5 151.31C429.307 151.31 429.117 151.255 428.957 151.15C428.796 151.046 428.67 150.898 428.596 150.725C428.522 150.552 428.503 150.361 428.541 150.177C428.578 149.993 428.671 149.824 428.808 149.691C428.945 149.559 429.119 149.469 429.309 149.432C429.499 149.395 429.696 149.414 429.874 149.486C430.053 149.558 430.206 149.679 430.313 149.835C430.421 149.991 430.478 150.174 430.478 150.362C430.477 150.613 430.373 150.854 430.19 151.031C430.007 151.209 429.759 151.309 429.5 151.31V151.31ZM429.5 146C428.307 146.001 427.163 146.461 426.319 147.279C425.476 148.097 425.001 149.205 425 150.362C425 154.032 428.996 156.782 429.162 156.895C429.261 156.963 429.379 157 429.5 157C429.621 157 429.739 156.963 429.838 156.895C430.594 156.356 431.286 155.738 431.902 155.051C433.276 153.52 434 151.898 434 150.362C433.999 149.205 433.524 148.097 432.681 147.279C431.837 146.461 430.693 146.001 429.5 146V146ZM431.031 154.283C430.565 154.803 430.053 155.282 429.5 155.715C428.947 155.282 428.435 154.803 427.969 154.283C427.152 153.368 426.174 151.941 426.174 150.362C426.174 149.507 426.524 148.687 427.148 148.082C427.772 147.478 428.618 147.138 429.5 147.138C430.382 147.138 431.228 147.478 431.852 148.082C432.476 148.687 432.826 149.507 432.826 150.362C432.826 151.941 431.853 153.368 431.031 154.283V154.283Z" fill="#FFA224"/>
<path d="M430.5 180.241C430.264 180.241 430.032 180.308 429.836 180.433C429.639 180.558 429.486 180.736 429.395 180.944C429.305 181.152 429.281 181.381 429.327 181.601C429.373 181.822 429.487 182.025 429.655 182.184C429.822 182.343 430.035 182.451 430.267 182.495C430.499 182.539 430.739 182.517 430.958 182.431C431.176 182.344 431.363 182.199 431.494 182.011C431.626 181.824 431.696 181.604 431.696 181.379C431.695 181.078 431.569 180.789 431.345 180.575C431.121 180.362 430.817 180.242 430.5 180.241ZM430.5 181.896C430.393 181.896 430.287 181.866 430.198 181.809C430.109 181.752 430.039 181.672 429.998 181.577C429.957 181.483 429.946 181.379 429.967 181.278C429.988 181.178 430.04 181.086 430.116 181.014C430.192 180.941 430.289 180.892 430.394 180.872C430.499 180.852 430.609 180.862 430.708 180.901C430.807 180.941 430.892 181.007 430.952 181.092C431.012 181.177 431.043 181.277 431.043 181.379C431.043 181.516 430.985 181.647 430.884 181.744C430.782 181.841 430.644 181.896 430.5 181.896ZM430.5 179C429.837 179.001 429.202 179.252 428.733 179.698C428.264 180.144 428.001 180.748 428 181.379C428 183.381 430.22 184.881 430.312 184.943C430.367 184.98 430.433 185 430.5 185C430.567 185 430.633 184.98 430.688 184.943C431.108 184.649 431.492 184.312 431.834 183.937C432.598 183.102 433 182.217 433 181.379C432.999 180.748 432.736 180.144 432.267 179.698C431.798 179.252 431.163 179.001 430.5 179ZM431.351 183.518C431.092 183.802 430.807 184.063 430.5 184.299C430.193 184.063 429.908 183.802 429.649 183.518C429.196 183.019 428.652 182.24 428.652 181.379C428.652 180.913 428.847 180.466 429.193 180.136C429.54 179.806 430.01 179.621 430.5 179.621C430.99 179.621 431.46 179.806 431.807 180.136C432.153 180.466 432.348 180.913 432.348 181.379C432.348 182.24 431.807 183.019 431.351 183.518Z" fill="#FFA224"/>
<path d="M171.5 219.103C170.885 219.103 170.284 219.27 169.773 219.583C169.262 219.895 168.863 220.34 168.628 220.86C168.393 221.379 168.331 221.951 168.451 222.503C168.571 223.055 168.867 223.562 169.302 223.96C169.737 224.358 170.29 224.629 170.894 224.738C171.497 224.848 172.122 224.792 172.69 224.576C173.258 224.361 173.743 223.996 174.085 223.529C174.426 223.061 174.609 222.511 174.609 221.948C174.607 221.194 174.279 220.472 173.696 219.938C173.114 219.405 172.324 219.105 171.5 219.103ZM171.5 223.241C171.221 223.241 170.947 223.165 170.715 223.023C170.483 222.881 170.301 222.679 170.195 222.443C170.088 222.207 170.06 221.947 170.114 221.696C170.169 221.445 170.303 221.215 170.501 221.034C170.698 220.853 170.95 220.73 171.224 220.68C171.498 220.63 171.783 220.656 172.041 220.754C172.299 220.851 172.52 221.017 172.675 221.23C172.83 221.442 172.913 221.692 172.913 221.948C172.911 222.291 172.762 222.618 172.497 222.861C172.233 223.103 171.874 223.24 171.5 223.241V223.241ZM171.5 216C169.777 216.002 168.124 216.629 166.906 217.744C165.687 218.859 165.002 220.371 165 221.948C165 226.952 170.772 230.702 171.012 230.857C171.155 230.95 171.325 231 171.5 231C171.675 231 171.845 230.95 171.987 230.857C173.08 230.122 174.08 229.279 174.969 228.342C176.954 226.254 178 224.043 178 221.948C177.998 220.371 177.313 218.859 176.094 217.744C174.876 216.629 173.223 216.002 171.5 216V216ZM173.711 227.295C173.038 228.004 172.298 228.657 171.5 229.248C170.702 228.657 169.962 228.004 169.289 227.295C168.109 226.047 166.696 224.101 166.696 221.948C166.696 220.782 167.202 219.664 168.103 218.839C169.004 218.015 170.226 217.552 171.5 217.552C172.774 217.552 173.996 218.015 174.897 218.839C175.798 219.664 176.304 220.782 176.304 221.948C176.304 224.101 174.898 226.047 173.711 227.295V227.295Z" fill="#FFA224"/>
<path d="M114.5 93.9654C113.601 93.9654 112.723 94.2324 111.976 94.7325C111.229 95.2326 110.646 95.9435 110.302 96.7752C109.958 97.6069 109.869 98.5221 110.044 99.405C110.219 100.288 110.652 101.099 111.287 101.736C111.923 102.372 112.732 102.806 113.614 102.981C114.495 103.157 115.409 103.067 116.239 102.722C117.069 102.378 117.779 101.794 118.278 101.046C118.777 100.297 119.043 99.4173 119.043 98.5171C119.041 97.3107 118.561 96.1546 117.71 95.3016C116.858 94.4486 115.704 93.9682 114.5 93.9654ZM114.5 100.586C114.092 100.586 113.692 100.465 113.353 100.237C113.013 100.01 112.748 99.6868 112.592 99.3088C112.436 98.9307 112.395 98.5148 112.474 98.1134C112.554 97.7121 112.751 97.3434 113.04 97.0541C113.328 96.7648 113.696 96.5677 114.097 96.4879C114.498 96.4081 114.913 96.449 115.29 96.6056C115.668 96.7622 115.99 97.0274 116.217 97.3676C116.444 97.7079 116.565 98.1079 116.565 98.5171C116.563 99.0649 116.344 99.5896 115.957 99.977C115.571 100.364 115.047 100.583 114.5 100.586V100.586ZM114.5 89C111.981 89.0027 109.567 90.0063 107.786 91.7905C106.005 93.5747 105.003 95.9938 105 98.5171C105 106.524 113.436 112.524 113.787 112.772C113.996 112.92 114.245 113 114.5 113C114.755 113 115.004 112.92 115.212 112.772C116.809 111.596 118.27 110.246 119.57 108.748C122.472 105.407 124 101.869 124 98.5171C123.997 95.9938 122.995 93.5747 121.214 91.7905C119.433 90.0063 117.019 89.0027 114.5 89V89ZM117.732 107.072C116.748 108.206 115.667 109.252 114.5 110.196C113.333 109.252 112.252 108.206 111.268 107.072C109.543 105.076 107.478 101.962 107.478 98.5171C107.478 96.6514 108.218 94.8622 109.535 93.543C110.852 92.2238 112.638 91.4827 114.5 91.4827C116.362 91.4827 118.148 92.2238 119.465 93.543C120.782 94.8622 121.522 96.6514 121.522 98.5171C121.522 101.962 119.467 105.076 117.732 107.072V107.072Z" fill="#FFA224"/>
</svg>
