<svg width="580" height="328" viewBox="0 0 580 328" fill="none" xmlns="http://www.w3.org/2000/svg">
<path d="M425.306 1.72152C426.352 1.72152 427.236 1.86217 427.959 2.14346C428.682 2.4135 429.26 2.73418 429.694 3.10549C430.127 3.46554 430.444 3.77497 430.644 4.03376C430.8 4.22504 431 4.5007 431.245 4.86076C431.501 5.22082 431.757 5.72715 432.012 6.37975C432.268 7.0211 432.485 7.85935 432.663 8.89451C432.841 9.92968 432.93 11.2236 432.93 12.7764C432.93 16.2307 432.174 18.9648 430.661 20.9789C429.149 22.993 426.975 24 424.139 24C423.116 24 422.17 23.8987 421.303 23.6962C420.435 23.5049 419.69 23.2405 419.068 22.903C419.101 22.3629 419.24 21.8228 419.485 21.2827C419.729 20.7314 420.057 20.2925 420.469 19.9662C420.903 20.1575 421.397 20.3263 421.953 20.4726C422.51 20.6188 423.138 20.692 423.838 20.692C425.462 20.692 426.641 20.135 427.375 19.0211C428.12 17.9072 428.532 16.4951 428.609 14.7848C428.009 15.2911 427.325 15.7018 426.558 16.0169C425.801 16.3319 424.973 16.4895 424.072 16.4895C422.27 16.4895 420.808 15.9156 419.685 14.7679C418.562 13.609 418 11.7862 418 9.29958C418 7.74684 418.323 6.40225 418.968 5.26582C419.624 4.1294 420.502 3.25739 421.603 2.64979C422.704 2.03094 423.939 1.72152 425.306 1.72152ZM422.17 9.04641C422.17 10.5316 422.443 11.5724 422.988 12.1688C423.544 12.7539 424.261 13.0464 425.14 13.0464C426.374 13.0464 427.531 12.5401 428.609 11.5274V11.038C428.609 10.0703 428.515 9.12518 428.326 8.20253C428.148 7.26864 427.848 6.52602 427.425 5.97468C427.191 5.67089 426.897 5.4121 426.541 5.19831C426.185 4.98453 425.757 4.87764 425.256 4.87764C424.211 4.87764 423.433 5.26582 422.921 6.04219C422.421 6.80731 422.17 7.80872 422.17 9.04641Z" fill="#282828"/>
<path d="M456.86 8.92827C456.882 8.03938 456.765 7.17862 456.51 6.34599C456.265 5.51336 455.831 4.827 455.208 4.28692C454.586 3.73558 453.713 3.45992 452.589 3.45992C450.966 3.45992 449.759 4.20253 448.97 5.68776C448.191 7.16174 447.802 9.31083 447.802 12.135C447.802 14.7792 448.252 16.7989 449.153 18.1941C450.065 19.5781 451.333 20.27 452.956 20.27C454.035 20.27 455.053 20.0394 456.009 19.5781C456.977 19.1055 457.911 18.5035 458.812 17.7722C459.245 18.0647 459.662 18.4754 460.063 19.0042C460.463 19.5331 460.719 20.0506 460.83 20.557C459.896 21.4909 458.667 22.301 457.143 22.9873C455.62 23.6624 453.979 24 452.222 24C450.554 24 449.153 23.6681 448.019 23.0042C446.884 22.3291 445.972 21.4233 445.283 20.2869C444.593 19.1392 444.093 17.8622 443.782 16.4557C443.481 15.038 443.331 13.5921 443.331 12.1181C443.331 9.3052 443.759 7.00985 444.616 5.23207C445.483 3.44304 446.623 2.12658 448.035 1.2827C449.459 0.427567 451.016 0 452.706 0C454.385 0 455.842 0.315049 457.077 0.945148C458.311 1.56399 459.267 2.391 459.946 3.42616C460.624 4.45007 460.963 5.56399 460.963 6.76793C460.963 8.36568 460.157 9.16456 458.545 9.16456C458.233 9.16456 457.95 9.14768 457.694 9.11392C457.438 9.06892 457.16 9.00703 456.86 8.92827Z" fill="#282828"/>
<path d="M477.949 15.173C477.949 16.9283 477.671 18.4698 477.115 19.7975C476.559 21.1252 475.73 22.1603 474.629 22.903C473.528 23.6343 472.166 24 470.542 24C468.919 24 467.556 23.6287 466.455 22.8861C465.365 22.1435 464.542 21.1083 463.986 19.7806C463.43 18.4529 463.152 16.917 463.152 15.173C463.152 13.429 463.43 11.8931 463.986 10.5654C464.554 9.23769 465.382 8.20253 466.472 7.45992C467.573 6.7173 468.93 6.34599 470.542 6.34599C472.177 6.34599 473.545 6.72293 474.646 7.47679C475.747 8.21941 476.57 9.25457 477.115 10.5823C477.671 11.8987 477.949 13.429 477.949 15.173ZM467.406 15.173C467.406 16.1744 467.49 17.1083 467.656 17.9747C467.834 18.8298 468.151 19.5218 468.607 20.0506C469.063 20.5795 469.714 20.8439 470.559 20.8439C471.404 20.8439 472.055 20.5795 472.511 20.0506C472.967 19.5218 473.278 18.8298 473.445 17.9747C473.623 17.1083 473.712 16.1744 473.712 15.173C473.712 14.1828 473.623 13.2546 473.445 12.3882C473.278 11.5218 472.967 10.8242 472.511 10.2954C472.055 9.75527 471.404 9.48523 470.559 9.48523C469.714 9.48523 469.063 9.75527 468.607 10.2954C468.151 10.8242 467.834 11.5218 467.656 12.3882C467.49 13.2546 467.406 14.1828 467.406 15.173Z" fill="#282828"/>
<path d="M481.485 10.6329C481.485 10.0141 481.435 9.4346 481.335 8.89451C481.235 8.35443 481.063 7.87623 480.818 7.45992C481.118 7.20112 481.497 6.98734 481.953 6.81857C482.42 6.64979 482.903 6.5654 483.404 6.5654C484.227 6.5654 484.799 6.79044 485.122 7.24051C485.445 7.69058 485.606 8.34318 485.606 9.19831V17.2321C485.606 18.2222 485.728 18.948 485.973 19.4093C486.229 19.8594 486.718 20.0844 487.441 20.0844C487.963 20.0844 488.542 19.9381 489.176 19.6456C489.821 19.353 490.416 18.9255 490.96 18.3629V6.80169C491.239 6.75668 491.561 6.72293 491.928 6.70042C492.295 6.66667 492.656 6.64979 493.012 6.64979C493.368 6.64979 493.73 6.66667 494.097 6.70042C494.464 6.72293 494.792 6.75668 495.081 6.80169V18.7848C495.081 19.3924 495.153 19.9606 495.298 20.4895C495.453 21.007 495.692 21.4065 496.015 21.6878C495.926 22.0591 495.742 22.4529 495.464 22.8692C495.198 23.2855 494.914 23.5949 494.614 23.7975C493.802 23.7075 493.129 23.4487 492.595 23.0211C492.061 22.5823 491.656 22.0366 491.378 21.384C490.666 22.0703 489.854 22.6554 488.942 23.1392C488.03 23.6118 487.051 23.8481 486.006 23.8481C484.46 23.8481 483.32 23.3024 482.586 22.211C481.852 21.1195 481.485 19.7581 481.485 18.1266V10.6329Z" fill="#282828"/>
<path d="M513.492 19.73C513.492 20.3488 513.537 20.9283 513.626 21.4684C513.726 22.0084 513.898 22.481 514.143 22.8861C513.842 23.1449 513.464 23.3586 513.008 23.5274C512.552 23.6962 512.069 23.7806 511.557 23.7806C510.745 23.7806 510.172 23.5612 509.839 23.1224C509.516 22.6723 509.355 22.0197 509.355 21.1646V13.1139C509.355 12.1238 509.227 11.4037 508.971 10.9536C508.727 10.4923 508.249 10.2616 507.537 10.2616C507.003 10.2616 506.414 10.4079 505.769 10.7004C505.135 10.993 504.551 11.4205 504.017 11.9831V23.5443C503.728 23.6006 503.4 23.6399 503.033 23.6624C502.677 23.685 502.316 23.6962 501.949 23.6962C501.593 23.6962 501.231 23.685 500.864 23.6624C500.497 23.6399 500.169 23.6006 499.88 23.5443V6.85232L500.097 6.63291H501.665C502.321 6.63291 502.833 6.81294 503.2 7.173C503.578 7.5218 503.822 8.01688 503.934 8.65823C504.623 8.03938 505.39 7.52743 506.236 7.12236C507.092 6.70605 508.004 6.49789 508.971 6.49789C510.517 6.49789 511.657 7.0436 512.391 8.13502C513.125 9.22644 513.492 10.5879 513.492 12.2194V19.73Z" fill="#282828"/>
<path d="M518.743 4.27004C518.743 3.33615 518.905 2.67229 519.227 2.27848C519.55 1.87342 520.133 1.67089 520.979 1.67089H522.563L522.78 1.8903V6.83544L526.834 6.76793C526.956 7.27426 527.017 7.77496 527.017 8.27004C527.017 8.82138 526.956 9.33333 526.834 9.80591L522.78 9.7384V18.9367C522.78 19.4093 522.886 19.7806 523.097 20.0506C523.308 20.3207 523.675 20.4557 524.198 20.4557H526.317C526.539 21.0858 526.65 21.7665 526.65 22.4979C526.65 22.6554 526.645 22.8129 526.634 22.9705C526.623 23.128 526.6 23.2799 526.567 23.4262C525.989 23.4937 525.349 23.5556 524.649 23.6118C523.948 23.6681 523.27 23.6962 522.613 23.6962C520.033 23.6962 518.743 22.3797 518.743 19.7468V9.75527L516.224 9.80591C516.113 9.33333 516.058 8.82138 516.058 8.27004C516.058 7.77496 516.113 7.27426 516.224 6.76793L518.743 6.81857V4.27004Z" fill="#282828"/>
<path d="M528.398 8.74262C528.487 8.37131 528.665 7.96625 528.932 7.52743C529.21 7.08861 529.494 6.76231 529.783 6.54852C530.695 6.6948 531.44 7.03235 532.018 7.56118C532.596 8.07876 533.03 8.74824 533.319 9.56962C533.697 8.71449 534.231 8 534.921 7.42616C535.61 6.85232 536.505 6.5654 537.606 6.5654C537.984 6.5654 538.318 6.5879 538.607 6.63291C538.907 6.67792 539.219 6.73418 539.541 6.80169C539.541 7.33052 539.458 7.97187 539.291 8.72574C539.124 9.47961 538.869 10.1491 538.524 10.7342C538.279 10.6554 538.029 10.6048 537.773 10.5823C537.528 10.5485 537.278 10.5204 537.022 10.4979C536.244 10.4979 535.593 10.7117 535.071 11.1392C534.559 11.5556 534.125 12.0788 533.77 12.7089V23.5443C533.492 23.6006 533.169 23.6399 532.802 23.6624C532.435 23.685 532.074 23.6962 531.718 23.6962C531.362 23.6962 531.001 23.685 530.634 23.6624C530.267 23.6399 529.938 23.6006 529.649 23.5443V12.2363C529.649 11.3024 529.51 10.5485 529.232 9.97468C528.965 9.38959 528.687 8.9789 528.398 8.74262Z" fill="#282828"/>
<path d="M547.363 23.5443C547.085 23.6006 546.762 23.6399 546.395 23.6624C546.028 23.685 545.667 23.6962 545.311 23.6962C544.955 23.6962 544.594 23.685 544.227 23.6624C543.86 23.6399 543.532 23.6006 543.243 23.5443V11.6456C543.243 11.0605 543.131 10.6104 542.909 10.2954C542.687 9.96906 542.297 9.80591 541.741 9.80591H541.324C541.202 9.35584 541.141 8.87764 541.141 8.37131C541.141 7.84248 541.202 7.33052 541.324 6.83544C541.769 6.79044 542.208 6.75668 542.642 6.73418C543.087 6.70042 543.454 6.68354 543.743 6.68354H544.31C545.255 6.68354 546.001 6.99297 546.545 7.61181C547.09 8.21941 547.363 9.04641 547.363 10.0928V23.5443ZM542.225 2.21097C542.225 1.59212 542.336 1.02954 542.559 0.523207C543.104 0.21941 543.799 0.0675117 544.644 0.0675117C545 0.0675117 545.383 0.112519 545.795 0.202533C546.206 0.292546 546.518 0.399437 546.729 0.523207C546.84 0.770747 546.924 1.05204 546.979 1.36709C547.035 1.67089 547.063 1.95218 547.063 2.21097C547.063 2.82982 546.951 3.39241 546.729 3.89873C546.529 4.0225 546.217 4.1294 545.795 4.21941C545.383 4.30942 545 4.35443 544.644 4.35443C544.266 4.35443 543.876 4.31505 543.476 4.23629C543.076 4.14627 542.77 4.03376 542.559 3.89873C542.336 3.39241 542.225 2.82982 542.225 2.21097Z" fill="#282828"/>
<path d="M564.452 22.0928C563.64 22.6892 562.667 23.1561 561.533 23.4937C560.399 23.8312 559.253 24 558.097 24C556.718 24 555.567 23.7637 554.644 23.2911C553.732 22.8073 553.009 22.1547 552.475 21.3333C551.941 20.5007 551.557 19.5612 551.324 18.5148C551.101 17.4684 550.99 16.3769 550.99 15.2405C550.99 13.5527 551.246 12.0394 551.758 10.7004C552.269 9.36146 553.053 8.3038 554.11 7.52743C555.177 6.7398 556.523 6.34599 558.147 6.34599C559.603 6.34599 560.832 6.66667 561.833 7.30802C562.834 7.93812 563.596 8.79888 564.119 9.8903C564.641 10.9705 564.903 12.1857 564.903 13.5359C564.903 14.1547 564.875 14.6779 564.819 15.1055C564.775 15.5331 564.697 16 564.586 16.5063H555.227C555.294 17.7103 555.572 18.7117 556.061 19.5105C556.551 20.3094 557.44 20.7089 558.73 20.7089C559.542 20.7089 560.326 20.5963 561.083 20.3713C561.839 20.1463 562.567 19.865 563.268 19.5274C563.59 19.8425 563.852 20.2475 564.052 20.7426C564.263 21.2264 564.397 21.6765 564.452 22.0928ZM558.13 9.38397C557.196 9.38397 556.49 9.74402 556.011 10.4641C555.544 11.1842 555.277 12.2138 555.211 13.5527H561.016V13.1477C561.016 12.1238 560.793 11.2405 560.349 10.4979C559.904 9.75527 559.164 9.38397 558.13 9.38397Z" fill="#282828"/>
<path d="M567.239 22.346C567.25 21.8847 567.378 21.3727 567.622 20.8101C567.878 20.2363 568.173 19.7918 568.507 19.4768C569.218 19.8594 569.969 20.1969 570.759 20.4895C571.548 20.782 572.349 20.9283 573.161 20.9283C573.961 20.9283 574.59 20.7651 575.046 20.4388C575.502 20.1125 575.73 19.6906 575.73 19.173C575.73 18.2954 575.107 17.6315 573.861 17.1814L571.96 16.4726C570.803 16.045 569.813 15.4487 568.99 14.6835C568.167 13.9072 567.756 12.8664 567.756 11.5612C567.756 9.95218 568.329 8.68073 569.474 7.74684C570.62 6.81294 572.082 6.34599 573.861 6.34599C574.829 6.34599 575.846 6.47539 576.914 6.73418C577.993 6.99297 578.882 7.29677 579.583 7.64557C579.605 8.1519 579.5 8.70324 579.266 9.29958C579.044 9.89592 578.76 10.3404 578.415 10.6329C577.793 10.3404 577.081 10.0703 576.28 9.82279C575.49 9.57525 574.69 9.45148 573.878 9.45148C573.255 9.45148 572.766 9.60338 572.41 9.90717C572.054 10.211 571.876 10.5992 571.876 11.0717C571.876 11.8031 572.46 12.3882 573.628 12.827L575.696 13.5865C576.942 14.0478 577.97 14.6948 578.782 15.5274C579.594 16.3601 580 17.4515 580 18.8017C580 20.4107 579.388 21.6821 578.165 22.616C576.942 23.5387 575.29 24 573.211 24C572.032 24 570.925 23.8368 569.891 23.5105C568.868 23.173 567.984 22.7848 567.239 22.346Z" fill="#282828"/>
<path d="M450 32.6731V33.6987H452.76V43.891H453.965V32.6731H450Z" fill="#282828"/>
<path d="M456.429 32.6731V35.7981H457.617V33.6987H463.639L458.821 43.891H460.126L465.028 33.4904V32.6731H456.429Z" fill="#282828"/>
<path d="M469.382 37.2724H467.877L468.278 33.6987H473.631V32.6731H467.224L466.622 38.2981H469.114C472.092 38.2981 473.029 39.1955 473.029 40.6378C473.029 42 471.975 42.9295 469.984 42.9295C468.479 42.9295 467.141 42.3846 466.388 41.6314L465.802 42.5449C466.706 43.4263 468.312 43.9872 470.001 43.9872C472.862 43.9872 474.25 42.4968 474.25 40.5897C474.25 38.6026 472.912 37.2724 469.382 37.2724Z" fill="#282828"/>
<path d="M485.577 32.6731H481.194V43.891H482.432V40.3494H485.577C488.555 40.3494 490.362 38.9071 490.362 36.5192C490.362 34.1154 488.555 32.6731 485.577 32.6731ZM485.544 39.3077H482.432V33.6987H485.544C487.886 33.6987 489.124 34.7244 489.124 36.5192C489.124 38.2821 487.886 39.3077 485.544 39.3077Z" fill="#282828"/>
<path d="M495.784 35.3974C494.395 35.3974 493.09 35.8141 492.204 36.5353L492.739 37.3846C493.458 36.7756 494.529 36.391 495.667 36.391C497.306 36.391 498.159 37.1763 498.159 38.6186V39.1314H495.365C492.839 39.1314 491.97 40.2212 491.97 41.5192C491.97 42.9776 493.191 43.9712 495.181 43.9712C496.637 43.9712 497.674 43.4423 498.209 42.5769V43.891H499.347V38.6667C499.347 36.4872 498.059 35.3974 495.784 35.3974ZM495.365 43.0737C493.96 43.0737 493.141 42.4647 493.141 41.4872C493.141 40.6218 493.693 39.9808 495.399 39.9808H498.159V41.359C497.691 42.4647 496.704 43.0737 495.365 43.0737Z" fill="#282828"/>
<path d="M503.71 37.1122V35.4615H502.573V43.891H503.76V39.5962C503.76 37.609 504.881 36.4872 506.721 36.4872C506.805 36.4872 506.905 36.5032 507.006 36.5032V35.3974C505.383 35.3974 504.262 35.9904 503.71 37.1122Z" fill="#282828"/>
<path d="M513.748 42.5609C513.413 42.8494 512.928 42.9936 512.443 42.9936C511.456 42.9936 510.92 42.4487 510.92 41.4551V36.4231H513.597V35.4615H510.92V33.6186H509.733V35.4615H508.16V36.4231H509.733V41.5192C509.733 43.0737 510.653 43.9712 512.309 43.9712C512.995 43.9712 513.697 43.7788 514.166 43.3782L513.748 42.5609Z" fill="#282828"/>
<path d="M516.93 33.6186C517.432 33.6186 517.8 33.25 517.8 32.7853C517.8 32.3526 517.415 32 516.93 32C516.445 32 516.06 32.3686 516.06 32.8013C516.06 33.25 516.445 33.6186 516.93 33.6186ZM516.328 43.891H517.516V35.4615H516.328V43.891Z" fill="#282828"/>
<path d="M524.467 43.9712C525.956 43.9712 527.211 43.3942 527.913 42.3045L527.027 41.7276C526.424 42.5769 525.488 42.9615 524.467 42.9615C522.543 42.9615 521.138 41.6635 521.138 39.6763C521.138 37.7051 522.543 36.391 524.467 36.391C525.488 36.391 526.424 36.7917 527.027 37.641L527.913 37.0641C527.211 35.9583 525.956 35.3974 524.467 35.3974C521.841 35.3974 519.934 37.1603 519.934 39.6763C519.934 42.1923 521.841 43.9712 524.467 43.9712Z" fill="#282828"/>
<path d="M530.849 33.6186C531.35 33.6186 531.718 33.25 531.718 32.7853C531.718 32.3526 531.334 32 530.849 32C530.363 32 529.979 32.3686 529.979 32.8013C529.979 33.25 530.363 33.6186 530.849 33.6186ZM530.246 43.891H531.434V35.4615H530.246V43.891Z" fill="#282828"/>
<path d="M539.272 35.3974C537.817 35.3974 536.596 36.0064 535.876 37.1282V35.4615H534.739V47H535.927V42.3045C536.663 43.3942 537.867 43.9712 539.272 43.9712C541.781 43.9712 543.655 42.2404 543.655 39.6763C543.655 37.1282 541.781 35.3974 539.272 35.3974ZM539.189 42.9615C537.315 42.9615 535.91 41.6474 535.91 39.6763C535.91 37.7212 537.315 36.391 539.189 36.391C541.045 36.391 542.467 37.7212 542.467 39.6763C542.467 41.6474 541.045 42.9615 539.189 42.9615Z" fill="#282828"/>
<path d="M549.105 35.3974C547.717 35.3974 546.412 35.8141 545.525 36.5353L546.061 37.3846C546.78 36.7756 547.851 36.391 548.988 36.391C550.628 36.391 551.481 37.1763 551.481 38.6186V39.1314H548.687C546.161 39.1314 545.291 40.2212 545.291 41.5192C545.291 42.9776 546.512 43.9712 548.503 43.9712C549.958 43.9712 550.996 43.4423 551.531 42.5769V43.891H552.668V38.6667C552.668 36.4872 551.38 35.3974 549.105 35.3974ZM548.687 43.0737C547.282 43.0737 546.462 42.4647 546.462 41.4872C546.462 40.6218 547.014 39.9808 548.72 39.9808H551.481V41.359C551.012 42.4647 550.025 43.0737 548.687 43.0737Z" fill="#282828"/>
<path d="M560.378 35.3974C558.855 35.3974 557.668 35.9904 557.032 37.016V35.4615H555.894V43.891H557.082V39.4679C557.082 37.5449 558.27 36.4231 560.16 36.4231C561.833 36.4231 562.803 37.3365 562.803 39.1154V43.891H563.991V39.0032C563.991 36.5833 562.519 35.3974 560.378 35.3974Z" fill="#282828"/>
<path d="M571.431 42.5609C571.096 42.8494 570.611 42.9936 570.126 42.9936C569.139 42.9936 568.604 42.4487 568.604 41.4551V36.4231H571.28V35.4615H568.604V33.6186H567.416V35.4615H565.844V36.4231H567.416V41.5192C567.416 43.0737 568.336 43.9712 569.992 43.9712C570.678 43.9712 571.381 43.7788 571.849 43.3782L571.431 42.5609Z" fill="#282828"/>
<path d="M576.37 43.9712C578.662 43.9712 580 43.0256 580 41.5673C580 38.3301 574.296 40.0449 574.296 37.7692C574.296 36.9679 574.998 36.375 576.587 36.375C577.491 36.375 578.411 36.5833 579.18 37.0962L579.699 36.1827C578.963 35.7019 577.725 35.3974 576.587 35.3974C574.346 35.3974 573.108 36.4231 573.108 37.8013C573.108 41.1346 578.812 39.4038 578.812 41.5994C578.812 42.4327 578.126 42.9776 576.454 42.9776C575.216 42.9776 574.028 42.5609 573.325 42.0321L572.79 42.9295C573.509 43.5224 574.915 43.9712 576.37 43.9712Z" fill="#282828"/>
<path d="M427.42 66.0169C431.127 66.7661 434.695 67.092 435.287 72.3699C435.588 75.0582 439.233 75.3332 441.923 75.4057C446.749 75.5367 448.011 76.313 447.724 80.5948C447.492 84.0528 448.615 85.0759 451.864 85.3607C456.142 85.7353 460.15 86.9489 464.652 85.2264C468.703 83.6771 471.02 85.7223 472.944 90.578C473.352 91.6065 473.936 92.9782 475.144 92.2366C480.649 88.8566 487.222 91.4896 493.12 88.5068C497.038 86.5256 502.62 87.4231 506.551 91.1821C508.452 92.9999 510.707 93.8736 513.066 92.2756C515.567 90.5812 517.638 92.1402 518.925 93.4578C523.014 97.6423 527.63 96.3983 532.321 95.5084C532.949 95.3893 533.557 95.1641 534.174 94.9887C536.722 94.2622 534.334 100.081 537.19 97.6011C538.703 96.2868 539.762 96.0118 541.473 95.805C549.271 94.862 555.021 99.263 561 103.164L558.14 109.849C557.933 109.797 557.725 109.749 557.516 109.705C555.82 109.353 554.272 106.4 553.761 107.207C552.703 108.875 550.576 110.301 550.853 112.633C551.207 115.625 549.72 116.332 547.057 116.459C544.685 116.571 542.262 116.989 540.426 118.855C538.93 120.376 537.157 120.406 535.036 120.325C529.555 120.115 526.604 122.705 525.919 128.234C525.215 133.905 519.894 135.94 517.079 139.934C516.17 141.224 515.354 139.552 514.865 138.691C512.632 134.752 514.015 131.091 516.008 127.635C516.971 125.963 518.521 124.634 519.743 123.1C520.485 122.17 522.416 121.572 521.536 120.126C520.759 118.846 518.971 118.498 517.422 118.539C515.486 118.589 514.176 119.91 513.284 121.41C511.73 124.023 509.897 123.639 507.204 123.158C500.181 121.906 492.91 121.173 488.019 128.186C486.724 130.043 482.717 130.313 483.939 133.329C485.089 136.166 488.63 134.289 491.029 135.024C492.801 135.566 495.191 134.958 495.27 137.332C495.355 139.892 497.972 142.756 495.052 145.036C494.146 145.744 493.328 146.175 493.205 147.38C493.143 147.988 493.164 148.907 492.417 148.905C491.711 148.903 491.788 147.995 491.716 147.412C491.662 146.981 491.699 146.54 491.649 146.108C491.51 144.897 492.046 143.582 491.101 142.492C490.771 143.719 490.658 145.061 490.074 146.154C487.292 151.369 484.326 156.295 477.823 157.865C471.866 159.302 471.274 160.516 472.707 166.503C473.229 168.686 473.241 170.545 470.889 171.317C468.615 172.063 467.907 169.961 467.122 168.506C466.517 167.384 466.178 166.066 465.981 164.796C465.693 162.936 464.655 162.768 463.198 163.301C462.064 163.715 460.861 165.121 459.826 163.456C459.113 162.307 458.658 161.547 457.628 162.988C457.011 163.851 456.039 164.914 456.16 165.754C456.422 167.582 457.784 166.103 458.67 166.188C461.202 166.435 463.588 166.735 460.261 169.705C458.752 171.051 459.203 172.814 459.549 174.572C461.316 183.552 457.448 190.185 448.884 193.23C446.744 193.991 444.071 193.861 443.147 196.863C442.558 198.776 441.679 198.614 440.824 196.698C439.791 194.383 438.244 195.865 437.084 196.672C435.51 197.77 435.483 199.145 436.945 200.463C437.593 201.047 438.287 201.586 438.893 202.211C443.028 206.471 441.573 212.436 435.946 214.661C434.394 215.274 434.156 214.22 433.535 213.343C431.845 210.958 428.93 208.143 426.76 210.096C423.961 212.617 426.921 215.61 429.148 217.731C430.787 219.291 432.716 221.169 432.3 223.196C431.348 227.832 435.475 230.651 435.737 234.758C435.856 236.609 437.647 236.886 439.139 237.298C443.514 238.505 447.587 240.999 452.422 240.249C453.253 240.12 454.475 240.453 454.536 241.343C454.623 242.605 453.305 242.241 452.535 242.31C447.02 242.803 441.375 241.878 436.415 240.301C432.591 239.085 429.355 234.708 426.87 231.055C424.806 228.013 422.543 225.109 420.096 222.363C419.381 221.56 418.042 221.054 418.907 219.84C419.883 218.471 421.307 219.01 422.319 219.896C423.788 221.184 425.07 222.682 426.448 224.073C426.905 224.534 427.559 225.039 428.111 224.574C428.76 224.031 428.066 223.44 427.726 222.968C424.137 217.97 422.791 212.426 423.284 206.317C423.468 204.039 423.094 201.759 419.697 202.488C416.775 203.116 416.852 200.341 415.837 198.912C411.578 192.914 409.996 192.761 404.525 197.623C403.268 198.739 401.891 199.721 400.517 200.691C395.79 204.029 394.545 208.973 396.973 214.462C397.47 215.587 398.689 216.832 397.343 217.971C396.103 219.022 395.057 217.693 393.876 217.291C388.423 215.437 386.369 210.916 385.619 206.051C384.502 198.805 379.021 194.616 375.103 189.308C374.098 187.945 372.596 187.657 371.021 187.63C369.053 187.595 367.068 187.422 365.12 187.612C363.907 187.73 362.752 187.554 361.614 187.306C359.674 186.884 358.523 189.366 360.105 190.56C360.861 191.129 361.68 191.648 362.378 192.265C363.636 193.376 362.341 194.049 361.976 194.991C359.665 200.951 353.902 202.485 348.951 204.749C345.854 206.164 342.922 208.303 339.301 208.515C338.628 208.554 337.959 208.906 337.959 209.671C337.959 210.702 338.779 211.2 339.652 211.278C341.87 211.478 343.824 210.274 345.946 209.937C348.901 209.469 350.326 211.464 349.008 214.137C346.409 219.412 343.067 224.279 338.28 227.988C330.949 233.669 330.251 235.989 333 244.497C335.154 251.165 334.902 252.171 329.059 256.582C326.829 258.265 324.919 259.808 326.027 262.994C326.466 264.255 326.574 265.977 325.525 266.697C321.333 269.578 319.961 274.37 317.329 278.267C313.098 284.533 306.614 284.232 300.376 284.704C298.421 284.852 296.946 282.923 296.748 281.415C296.035 275.987 293.33 271.047 291.455 266.261C288.571 258.896 286.407 252.546 289.297 244.78C290.126 242.551 289.034 238.869 287.559 236.703C285.09 233.075 283.916 229.42 284.03 225.153C284.066 223.793 283.323 222.099 281.946 222.299C278.19 222.842 275.144 219.399 271.997 220.104C268.467 220.896 264.601 220.204 261.357 222.212C259.178 223.561 257.25 223.019 255.266 221.721C250.283 218.462 247.46 213.131 243.112 209.264C242.656 208.858 242.381 208.061 242.49 207.462C243.985 199.225 241.126 189.753 248.936 183.291C252.733 180.149 254.232 175.334 257.885 172.115C259.419 170.762 259.49 168.932 257.159 168.026C255.604 167.422 253.983 166.553 254.489 164.882C255.332 162.099 253.709 159.165 255.126 156.618C256.399 154.332 258.871 154.747 261.036 154.861C267.489 155.204 268.079 154.711 266.932 148.163C266.447 145.389 267.11 144.096 269.492 142.381C272.254 140.391 274.893 138.077 277.702 136.103C282.219 132.927 282.729 131.693 279.503 126.868C278.494 125.359 277.839 123.882 277.44 122.183C276.333 117.447 277.079 115.41 281.571 113.309C284.706 111.844 287.056 109.927 288.434 106.724C290.829 101.158 295.442 98.0028 300.902 95.9111C303.143 95.0526 305.485 94.4539 307.741 93.63C311.761 92.1619 315.195 91.4831 318.839 95.3211C321.238 97.8469 325.815 97.4582 328.991 99.5066C330.07 100.204 331.748 100.324 332.424 101.24C335.067 104.82 337.005 106.674 338.506 100.48C338.851 99.0584 341.135 98.5842 342.366 100.044C344.238 102.262 345.923 101.742 348.047 100.522C351.609 98.4759 355.741 99.5131 359.577 98.7693C363.648 97.98 360.977 96.2337 360.453 94.7278L360.525 94.6379C363.728 95.2908 366.916 96.0345 370.14 96.5585C371.846 96.8357 373.048 96.8768 373.578 94.2189C374.728 88.4495 377.331 87.3614 383.697 87.958C385.975 88.1712 388.177 87.7804 390.484 88.7948C391.817 89.3806 394.207 89.1229 394.577 86.767C395.093 83.4812 396.78 83.9045 399.268 84.6299C401.567 85.3 404.706 86.4466 404.674 81.8269C404.665 80.6165 406.168 80.3956 407.225 80.1661C411.865 79.1592 416.193 77.0394 421.195 77.2614C425.789 77.4649 427.028 74.4302 424.559 70.0726C425.913 69.0051 426.692 67.5294 427.42 66.0169ZM280.222 155.993C275.38 156.844 272.094 159.751 270.122 163.939C269.158 165.987 268.318 167.823 266.187 168.831C265.476 169.167 264.036 168.974 264.21 169.896C264.346 170.615 265.799 170.465 266.578 170.194C270.482 168.84 274.367 167.572 278.551 167.21C280.837 167.012 282.889 167.339 284.881 168.246C286.839 169.138 286.588 170.981 286.696 172.731C286.78 174.09 287.85 175.224 289.218 175.294C293.6 175.518 297.775 179.216 302.418 175.994C303.134 175.497 304.69 175.6 305.563 176.025C310.391 178.384 315.556 176.747 320.518 177.426C322.949 177.758 323.812 175.391 324.278 173.635C324.847 171.487 323.095 171.443 321.414 171.327C319.959 171.227 318.449 170.014 317.126 170.239C312.569 171.015 310.563 169.132 310.275 164.78C310.217 163.901 309.681 163.063 308.583 163.213C307.844 163.315 307.909 164.121 307.629 164.656C306.016 167.746 301.839 168.277 299.841 165.648C299.235 164.851 299.182 162.737 298.302 163.176C293.766 165.441 291.76 161.25 288.738 159.795C286.753 158.839 285.52 158.488 285.32 161.355C285.215 162.881 284.358 164.807 282.629 164.3C280.145 163.572 282.349 161.859 282.456 160.565C282.62 158.626 284.03 156.045 280.222 155.993ZM297.53 132.242C300.553 132.399 300.303 132.241 301.531 130.315C304.415 125.79 303.272 121.318 301.766 116.812C301.343 115.544 301.511 113.202 299.177 114.03C297.399 114.662 296.286 116.721 297.438 118.279C301.332 123.549 296.209 126.093 294.113 129.281C292.803 131.274 290.171 133.295 287.947 129.531C287.622 128.98 286.872 128.534 286.345 129.053C285.968 129.426 285.818 130.273 285.923 130.844C286.617 134.583 289.578 133.787 292.108 133.793C294.06 133.798 295.297 131.295 297.53 132.242ZM333.503 158.551C332.58 154.973 327.48 155.283 326.726 151.177C326.554 150.241 325.268 152.615 324.353 153.304C322.904 154.394 321.441 154.72 320.543 152.927C319.809 151.46 319.019 150.578 317.742 151.918C316.282 153.449 314.553 155.029 314.833 157.501C315.012 159.072 316.226 159.968 317.56 159.679C321.746 158.772 325.624 159.354 329.576 160.903C331.232 161.55 333.046 160.773 333.503 158.551ZM329.376 192.515C328.006 192.809 327.953 193.8 327.881 194.884C327.67 198.043 329.953 199.88 331.632 202.031C332.393 203.007 333.175 204.751 334.434 204.217C336.251 203.446 335.106 201.671 334.763 200.331C334.111 197.784 332.224 195.922 330.903 193.748C330.6 193.248 329.945 192.96 329.376 192.515Z" fill="white"/>
<path d="M0 135.785C5.46183 132.389 10.9921 129.14 17.1055 127.048C17.8853 126.781 18.9692 126.291 18.8845 125.335C18.7868 124.228 17.4694 124.71 16.7786 124.298C13.9646 122.619 11.0475 121.087 8.38009 119.194C5.08496 116.854 5.2381 114.918 8.63097 112.822C9.36298 112.369 10.2242 112.135 11.0214 111.787C11.9348 111.387 13.7941 111.662 13.4292 110.295C13.1088 109.095 11.5199 110.229 10.4979 110.171C9.63884 110.122 8.71568 110.172 7.94132 109.865C6.44798 109.272 5.13058 108.143 5.39775 106.421C5.73769 104.228 7.65786 104.058 9.45747 104.037C10.259 104.027 11.408 104.98 11.7643 103.962C12.0955 103.017 10.7227 102.866 10.0309 102.412C4.86232 99.0082 4.88187 98.1755 10.0885 95.1103C11.4059 94.3349 12.6396 93.3822 14.0222 92.7621C17.9527 90.9999 21.6464 89.9326 26.285 91.5869C31.3124 93.38 36.9664 93.2754 42.2697 94.3845C48.8491 95.7601 55.0962 95.7921 61.8059 94.0629C68.2506 92.402 75.1591 93.6377 81.6233 95.943C82.3999 96.2194 83.3958 96.9155 83.9997 96.0014C84.5459 95.1742 83.8791 94.2766 83.1482 93.7776C82.0567 93.0342 81.0586 92.4097 80.7816 90.8677C80.4678 89.1209 79.449 88.731 78.1208 90.1793C76.546 91.8964 74.6508 91.8656 72.7176 91.012C70.7388 90.1386 69.2259 88.8565 70.5954 86.4356C71.3622 85.0798 72.2017 83.8418 72.1094 82.1688C71.9791 79.8217 74.0024 79.3051 75.1558 80.0563C78.8669 82.4706 83.5196 81.1323 87.2893 84.0863C90.389 86.516 94.6692 87.2287 98.7582 84.7009C101.118 83.2427 103.609 82.9199 103.093 87.2231C102.893 88.894 103.446 90.7179 104.666 91.3732C108.018 93.1718 110.83 94.5585 106.059 98.0775C105.058 98.8154 105.802 100.205 107.047 100.563C108.531 100.99 110.658 101.286 110.829 99.3673C111.029 97.1193 111.798 95.8989 113.528 94.6026C116.35 92.4879 115.876 91.197 112.25 91.1585C109.305 91.1265 108.296 88.0316 106.079 86.7991C108.661 86.3277 109.675 83.1876 112.459 82.9937C113.974 82.888 115.475 82.5554 116.979 82.3042C119.125 81.9463 120.595 80.8625 120.911 78.5253C121.071 77.3402 120.987 76.2476 119.606 75.969C117.637 75.5725 115.906 74.3851 114.129 77.2763C111.621 81.357 106.65 77.9416 103.175 79.8107L102.275 77.3931C102.819 76.8071 102.88 76.2223 102.273 75.6374C102.719 73.287 101.037 71.1679 102.161 68.5323C104.046 64.1112 104.52 63.6596 108.321 66.1026C109.455 66.8317 110.906 67.6533 110.463 69.0686C109.869 70.9609 108.288 69.3572 107.159 69.4343C105.757 69.5301 104.407 69.6579 104.392 71.4422C104.376 73.1978 105.655 73.5095 107.101 73.5007C108.625 73.4919 110.153 73.6439 111.672 73.5613C114.473 73.4093 116.109 72.4456 113.858 69.5037C112.878 68.2228 111.621 66.8086 113.235 65.5155C114.917 64.1685 116.083 66.1257 116.898 67.1676C117.711 68.2084 120.564 68.2073 118.875 71.0677C118.364 71.9345 121.071 72.526 122.454 72.8718C123.115 73.037 123.766 72.6273 123.931 71.8794C124.266 70.3606 123.552 69.3484 122.273 68.66C122.071 68.5549 121.876 68.4349 121.692 68.301C113.611 62.2785 113.708 60.3896 122.385 55.2107C123.885 54.3124 125.512 53.6499 127.209 53.2458C136.091 51.0981 145.193 50.478 154.207 49.4085C157.975 48.9614 161.966 50.2698 165.83 50.9362C167.299 51.1895 169.865 51.8041 169.901 52.3845C170.006 54.0719 167.695 54.0102 166.662 55.0874C166.076 55.6998 164.982 56.1359 165.565 57.1646C166.231 58.3376 167.705 58.3938 168.341 57.5281C172.133 52.3768 177.421 53.6798 182.622 53.3516C186.855 53.085 191.129 52.52 195.479 51.0023C200.269 49.3303 205.981 48.8457 211.363 48.4085C212.441 48.3214 213.828 48.9426 214.582 48.4558C221.092 44.2573 226.535 50.5055 232.613 50.2082C233.337 50.1729 233.895 50.7941 233.663 51.5309C233.489 52.0816 232.927 52.8725 232.485 52.9088C229.448 53.161 226.396 53.2271 223.351 53.3934C222.723 53.4276 222.104 53.6368 221.48 53.7657C221.85 54.8462 222.797 54.4772 223.484 54.4761C229.989 54.4607 236.481 55.3925 243.006 54.5995C244.591 54.4067 246.888 54.1776 247.2 56.5952C247.445 58.4973 245.451 58.8575 244.154 59.5789C239.493 62.1738 234.295 64.456 237.866 71.538C238.312 72.4224 237.154 73.2397 237.173 73.9269C237.349 80.0342 232.085 84.8077 233.209 91.175C233.525 92.9659 232.416 94.8339 230.621 95.3956C226.699 96.6225 223.648 100.128 219.169 99.8453C218.746 99.8188 218.221 99.8486 217.893 100.077C211.481 104.524 202.942 106.634 200.795 115.808C199.98 119.292 197.968 119.727 194.9 118.837C190.04 117.427 187.636 113.677 185.195 109.628C182.666 105.433 181.569 101.635 185.443 97.6953C186.048 97.0807 186.005 96.3097 185.159 95.5068C183.227 93.6741 179.812 87.6692 179.3 85.6724C177.728 79.5463 171.714 74.5448 165.754 76.1595C159.17 77.9438 156.8 73.4985 153.493 69.9806C152.148 68.551 153.327 67.5509 154.542 66.9352C156.281 66.053 158.329 66.0585 160.013 64.8392C161.379 63.8513 161.471 63.0076 160.775 61.5537C160.041 60.0195 159.141 60.5592 158.146 60.9634C152.229 63.3667 146.976 66.3107 145.033 73.2925C144.383 75.633 142.56 77.5429 141.963 80.2237C141.449 82.53 138.334 82.0047 136.234 82.3505C135.468 82.4772 134.142 81.7425 134.075 82.8175C134.025 83.6149 135.616 83.2338 136.298 83.6314C141.018 86.3784 146.872 84.7064 151.583 88.1659C155.335 90.9206 159.755 92.3645 161.581 97.5433C162.471 100.071 165.924 100.985 168.524 102.093C169.739 102.611 171.502 103.011 170.175 104.604C169.135 105.852 168.642 108.845 165.862 107.358C164.926 106.857 164.228 105.904 163.402 105.182C162.922 104.762 162.271 104.201 161.738 104.675C161.149 105.197 161.723 105.847 162.132 106.319C162.708 106.985 163.412 107.547 163.922 108.256C164.854 109.549 167.296 110.758 165.385 112.539C163.944 113.884 162.129 116.048 159.689 114.887C154.881 112.602 150.573 108.921 144.684 109.983C144.125 110.083 143.577 109.333 143.567 108.611C143.555 107.804 144.122 107.474 144.831 107.416C145.916 107.328 147.064 107.489 148.079 107.183C150.863 106.341 152.574 102.851 151.582 100.335C150.43 97.4134 143.449 94.0155 140.144 94.3999C137.801 94.6731 139.33 95.6081 139.172 96.6181C138.725 99.4642 140.962 103.974 134.988 104.218C132.867 104.305 134.546 106.077 135.401 106.88C136.954 108.339 140.587 108.57 140.161 110.695C139.756 112.722 136.214 109.776 134.419 111.84C133.672 112.699 132.279 112.788 131.386 112.049C127.882 109.15 125.767 112.159 123.529 113.956C116.874 119.305 117.149 122.261 124.875 126.037C126.622 126.89 128.233 128.175 130.103 128.636C134.975 129.84 139.126 131.681 140.35 137.334C140.566 138.33 141.778 140.134 143.243 138.739C144.049 137.972 144.055 136.692 143.432 135.765C141.524 132.924 141.885 131.038 145.158 129.585C146.619 128.938 146.175 127.232 145.563 126.048C144.476 123.944 144.893 121.725 144.793 119.541C144.539 113.94 147.641 111.89 152.614 114.551C154.505 115.563 156.68 116.751 157.739 118.479C159.516 121.379 160.913 122.882 164.351 120.72C166.586 119.315 168.176 121.472 168.899 123.228C170.479 127.069 173.369 129.543 176.31 132.194C178.549 134.212 182.093 136.025 179.984 140.346C179.302 141.742 180.842 142.05 181.686 142.627C183.152 143.631 184.524 144.742 184.85 146.656C185 147.536 184.438 149.088 184.332 149.004C181.931 147.12 179.065 148.914 176.704 147.954C175.112 147.306 175.023 145.594 175.619 143.925C176.535 141.359 175.209 141.426 173.323 141.899C172.07 142.214 170.688 142.416 169.43 142.223C164.892 141.53 165.147 143.094 166.527 146.764C167.751 150.021 169.004 149.767 171.287 148.459C172.354 147.848 173.479 147.986 173.978 149.255C174.453 150.462 173.712 151.872 172.805 152.021C169.403 152.581 166.624 156.738 162.582 153.815C161.366 152.936 159.322 153.604 159.113 154.585C158.288 158.48 155.051 159.505 152.382 161.293C151.878 161.63 151.51 162.32 151.289 162.926C149.324 168.299 146.517 172.897 141.862 176.509C139.497 178.344 139.343 181.534 141.771 184.172C142.962 185.466 143.299 187.253 141.694 188.185C140.104 189.107 139.88 186.793 138.925 186.077C137.908 185.313 137.047 184.205 136.402 183.081C134.501 179.768 131.58 179.411 128.47 180.422C126.566 181.041 124.727 181.509 122.743 181.51C118.837 181.512 115.351 181.316 116.257 187.515C116.595 189.827 113.334 192.424 116.317 195.376C118.489 197.525 120.451 198.545 123.191 196.81C124.116 196.225 124.98 195.539 125.915 194.972C127.277 194.144 128.971 193.51 130.27 194.326C132.263 195.58 130.312 197.156 129.785 198.243C128.091 201.746 128.424 203.561 132.761 203.525C135.074 203.506 136.365 205.075 136.419 207.381C136.469 209.542 135.565 212.259 138.29 213.094C141.132 213.964 144.74 214.259 146.958 212.462C151.732 208.593 156.436 209.412 161.569 211.043C162.949 211.482 164.383 211.689 165.826 211.785C174.152 212.342 178.734 220.316 186.378 222.199C188.984 231.348 198.299 229.934 204.297 233.732C205.851 234.717 207.847 235.223 209.528 236.274C212.77 238.305 213.664 240.912 211.204 243.973C208.744 247.033 208.108 250.619 207.061 254.244C205.339 260.201 204.279 267.083 195.834 267.625C193.558 267.771 192.375 269.943 191.702 272.262C188.999 281.566 188.023 282.548 178.111 286.431C177.342 286.733 177.119 287.042 177.371 287.757C178.928 292.178 175.943 293.382 172.783 293.682C169.83 293.963 169.679 296.453 168.508 298.074C166.401 300.99 165.91 304.96 162.769 307.275C162.573 307.42 162.793 308.701 163.167 308.993C165.198 310.573 164.298 311.592 163.007 313.237C158.723 318.7 158.8 319 162.647 324.683C163.262 325.591 164.45 326.267 162.52 326.926C157.303 328.706 152.404 326.245 150.428 320.977C148.886 316.869 148.794 312.379 149.872 308.539C152.121 300.518 151.793 292.184 153.704 284.051C155.167 277.825 156.348 270.898 156.446 264.12C156.508 259.879 154.839 256.613 151.527 254.627C147.86 252.429 145.806 249.34 144.424 245.492C144.057 244.47 143.398 243.558 142.934 242.567C141.71 239.951 136.847 239.086 139.638 234.455C141.147 231.95 140.484 228.306 143.265 226.235C145.056 224.902 145.147 222.964 145.251 220.903C145.361 218.701 144.838 217.794 142.45 217.558C138.13 217.133 133.602 216.661 132.538 210.938C132.307 209.694 130.838 209.558 129.866 209.358C124.849 208.324 120.891 204.946 115.092 204.731C110.197 204.551 103.6 202.032 101.116 195.42C100.019 192.5 98.7919 190.378 94.2532 191.309C90.541 192.072 88.1321 187.337 86.8723 183.906C84.9076 178.558 82.1066 174.452 77.5701 170.77C72.6666 166.791 71.3198 160.253 71.4436 153.899C71.5283 149.557 71.8531 145.448 67.2482 143.085C66.2674 142.582 65.8656 141.773 65.7298 140.473C65.1901 135.318 64.773 135.03 59.3753 134.595C57.6386 134.455 57.7071 132.959 57.0685 131.869C53.1423 125.17 48.1562 120.21 39.825 119.297C36.8057 118.966 34.9518 120.545 32.5418 121.018C29.9841 121.519 26.9399 120.309 28.6211 125.13C29.1174 126.555 26.916 128.713 25.1153 128.123C21.8234 127.042 20.2551 128.831 18.5674 130.952C18.1656 131.458 17.6529 132.237 17.1675 132.255C11.2028 132.485 6.27203 136.497 0.382295 136.934L0 135.785ZM123.995 86.3365C122.925 86.5193 121.857 86.733 121.115 87.6351C120.269 88.6638 120.587 89.7432 121.294 90.6045C123.584 93.3921 125.285 96.8461 129.335 97.6766C130.122 97.8374 129.131 100.264 130.827 99.8398C131.654 99.6338 132.507 98.3892 132.806 97.4387C133.193 96.2128 132.093 95.3581 131.068 95.1015C127.554 94.2226 126.314 91.6992 125.937 88.3994C125.808 87.2727 125.469 86.2242 123.995 86.3365Z" fill="white"/>
<path d="M489.929 249.433C489.871 246.183 489.992 243.401 486.554 242.558C486.135 242.455 485.37 242.224 485.382 242.125C486.144 235.404 480.309 236.488 476.922 234.667C476.173 234.264 475.544 233.578 474.955 232.934C473.901 231.781 472.676 230.364 473.892 228.881C475.317 227.143 477.595 227.722 478.358 229.285C479.954 232.557 481.933 231.586 484.672 231.34C490.737 230.795 495.602 234.092 498.907 238.95C500.191 240.837 503.797 242.951 502.679 244.203C500.898 246.196 498.608 243.149 496.585 242.114C494.957 241.281 493.539 241.695 492.465 242.96C491.265 244.372 492.062 245.771 492.742 247.24C496.054 254.394 500.926 260.468 505.578 266.699C509.908 272.498 510.151 275.7 506.679 282.019C506.037 283.186 505.38 284.346 504.834 285.561C500.642 294.9 493.694 296.051 486.568 289.199C483.196 285.957 479.135 283.417 475.23 280.8C472.795 279.167 470.299 279.95 467.842 281.339C463.845 283.597 459.657 285.201 454.978 285.671C449.864 286.185 449.804 286.479 449.085 281.225C448.466 276.707 445.806 272.764 446.422 267.785C446.914 263.809 448.388 261.835 452.009 260.791C455.002 259.928 457.807 259.375 459.257 255.249C460.061 252.96 464.303 250.665 467.832 250.833C469.887 250.931 471.038 250.608 472.067 248.833C473.681 246.047 476.455 246.357 479.084 246.558C480.794 246.688 482.228 247.481 481.807 249.45C480.858 253.888 483.671 255.37 486.884 255.191C490.574 254.985 489.579 251.359 489.929 249.433ZM291.41 60.9483C289.308 61.4749 286.446 59.1968 285.111 62.4697C283.741 65.8308 287.554 66.7077 288.481 69.0068C288.997 70.2869 290.107 71.0084 291.133 71.8358C292.982 73.3274 294.942 73.5565 296.136 71.4193C297.977 68.1255 299.975 68.0682 302.663 70.191C303.359 70.7408 304.333 70.6218 305.069 70.0038C305.62 69.5422 305.921 68.695 305.372 68.2786C299.585 63.8941 304.762 64.6377 307.248 63.9514C308.255 63.6727 309.172 62.9819 310.066 62.3805C310.57 62.0423 311.272 61.5179 311.295 61.0497C311.328 60.3469 310.466 60.2477 309.862 60.2069C306.833 60.0042 303.989 58.5027 300.556 59.0029C297.454 58.3419 294.547 60.1618 291.41 60.9483ZM99.0532 72.6102C98.0386 71.4579 96.4738 71.1847 95.8498 72.7369C93.417 78.7871 90.4545 74.2021 88.6076 72.7666C83.6821 68.9407 81.5618 68.7347 77.3808 72.8438C75.5686 74.6251 75.4546 75.7422 78.1675 76.293C81.7832 77.0267 85.1818 78.082 88.4524 80.0561C92.4143 82.4478 100.388 80.2401 103.561 76.5265C104.105 75.9404 104.165 75.3555 103.559 74.7705C101.646 74.9314 100.288 74.0126 99.0532 72.6102ZM439.009 225.965C438.775 226.135 438.734 226.821 438.84 227.2C439.679 230.199 440.569 233.207 444.094 234.072C447.143 234.82 449.374 233.98 451.312 231.188C453.739 227.689 452.635 223.536 454.024 219.866C454.538 218.511 452.827 217.793 450.576 217.778C447.076 220.239 443.022 223.072 439.009 225.965ZM345.597 248.163C342.881 250.101 339.116 251.616 337.72 254.564C336.113 257.961 335.534 262.07 335.766 266.046C335.847 267.441 336.572 268.556 338.062 268.825C339.866 269.151 342.008 269.031 342.523 267.154C343.952 261.954 346.721 257.184 347.427 252.092C346.82 250.363 347.388 246.885 345.597 248.163ZM359.128 92.1774C354.636 87.1143 354.642 86.0468 359.737 81.7538C362.742 79.2211 366.022 77.1137 369.93 76.1773C371.599 75.7774 373.229 75.1318 374.794 74.4114C375.211 74.2197 375.548 73.3285 375.521 72.7799C375.468 71.741 374.618 71.2023 373.694 71.4326C365.276 73.5224 356.853 75.6232 351.401 83.4216C349.221 86.5392 349.97 89.929 353.306 91.6156C355.135 92.5398 357.117 92.2446 359.055 92.2677L359.128 92.1774ZM536.382 305.734C537.953 301.888 540.812 299.478 543.991 297.081C547.85 294.171 547.573 292.069 543.592 288.867C542.751 288.191 541.908 287.081 540.82 287.586C539.505 288.195 540.342 289.472 540.516 290.486C541.016 293.419 540.629 295.424 537.457 297.126C534.762 298.572 532.846 301.652 530.823 304.202C529.23 306.211 530.091 308.337 532.569 308.483C534.27 308.506 535.732 307.326 536.382 305.734ZM489.884 159.686C489.009 159.175 488.09 159.355 487.632 160.191C484.858 165.265 480.228 167.744 475.188 169.832C473.127 170.686 471.692 172.447 471.798 174.983C471.839 175.963 472.376 176.828 473.387 176.372C477.994 174.294 482.748 172.427 487.041 169.797C489.625 168.215 490.498 164.884 491.097 162.3C491.167 160.837 490.675 160.148 489.884 159.686ZM419.644 57.3769C416.521 55.3069 414.595 57.2777 413.427 59.7288C412.212 62.278 413.098 64.5275 416.044 65.3846C418.342 66.0533 420.677 66.5887 422.996 67.1836C424.343 66.0852 425.12 64.5837 425.846 63.0448C424.412 60.4394 422.004 58.9401 419.644 57.3769ZM483.672 76.1277C482.386 78.418 485.132 78.7672 486.105 79.979C486.513 80.488 486.972 80.9617 487.32 81.5092C488.298 83.046 489.474 84.6566 491.424 84.0088C493.835 83.2079 490.854 81.3902 491.795 80.1454C492.313 79.4602 492.75 78.7066 493.3 78.0512C494.601 76.499 493.741 75.6496 492.309 75.2497C491.079 74.906 489.756 74.9016 488.899 74.7992C486.771 74.9842 484.615 74.4477 483.672 76.1277ZM459.17 210.353C461.281 212.203 463.198 210.732 464.266 209.423C465.421 208.007 464.147 206.364 462.457 206.023C459.399 205.407 459.215 203.889 460.276 201.291C460.726 200.188 459.439 199.242 458.41 198.959C457.034 198.58 456.541 199.841 456.198 200.858C455.922 201.675 455.954 202.601 455.849 203.477C455.635 206.439 457.086 208.524 459.17 210.353ZM454.032 231.71C454.192 233.675 454.467 236.489 456.57 236.978C457.705 237.242 460.608 236.202 460.417 233.611C460.278 231.714 459.838 229.616 457.222 229.337C455.664 229.414 453.89 229.953 454.032 231.71Z" fill="white"/>
<path d="M193 237.345C192.149 237.345 191.316 237.578 190.609 238.016C189.901 238.454 189.349 239.076 189.023 239.803C188.698 240.531 188.612 241.332 188.778 242.104C188.944 242.877 189.354 243.587 189.956 244.144C190.558 244.701 191.325 245.08 192.16 245.234C192.995 245.387 193.861 245.308 194.647 245.007C195.434 244.705 196.106 244.195 196.579 243.54C197.052 242.885 197.304 242.115 197.304 241.327C197.302 240.272 196.847 239.26 196.041 238.514C195.234 237.768 194.141 237.347 193 237.345ZM193 243.138C192.613 243.138 192.235 243.032 191.913 242.833C191.591 242.634 191.34 242.351 191.192 242.02C191.044 241.689 191.006 241.325 191.081 240.974C191.157 240.623 191.343 240.301 191.617 240.047C191.89 239.794 192.239 239.622 192.618 239.552C192.998 239.482 193.391 239.518 193.749 239.655C194.106 239.792 194.412 240.024 194.627 240.322C194.842 240.619 194.957 240.969 194.957 241.327C194.954 241.807 194.747 242.266 194.381 242.605C194.014 242.944 193.518 243.135 193 243.138V243.138ZM193 233C190.614 233.002 188.326 233.881 186.639 235.442C184.952 237.003 184.003 239.12 184 241.327C184 248.333 191.992 253.583 192.325 253.8C192.522 253.93 192.758 254 193 254C193.242 254 193.478 253.93 193.675 253.8C195.187 252.771 196.572 251.59 197.803 250.279C200.552 247.356 202 244.26 202 241.327C201.997 239.12 201.048 237.003 199.361 235.442C197.674 233.881 195.386 233.002 193 233V233ZM196.062 248.813C195.13 249.806 194.105 250.72 193 251.547C191.895 250.72 190.87 249.806 189.938 248.813C188.304 247.066 186.348 244.342 186.348 241.327C186.348 239.695 187.049 238.129 188.296 236.975C189.544 235.821 191.236 235.172 193 235.172C194.764 235.172 196.456 235.821 197.704 236.975C198.951 238.129 199.652 239.695 199.652 241.327C199.652 244.342 197.705 247.066 196.062 248.813V248.813Z" fill="#282828"/>
<path d="M460.5 132.724C459.791 132.724 459.097 132.924 458.507 133.299C457.917 133.674 457.458 134.208 457.186 134.831C456.915 135.455 456.844 136.142 456.982 136.804C457.12 137.466 457.462 138.074 457.964 138.552C458.465 139.029 459.104 139.354 459.8 139.486C460.496 139.618 461.217 139.55 461.873 139.292C462.528 139.033 463.088 138.596 463.482 138.034C463.877 137.473 464.087 136.813 464.087 136.138C464.085 135.233 463.706 134.366 463.034 133.726C462.362 133.086 461.451 132.726 460.5 132.724ZM460.5 137.689C460.178 137.689 459.862 137.598 459.594 137.428C459.326 137.257 459.117 137.015 458.994 136.732C458.87 136.448 458.838 136.136 458.901 135.835C458.964 135.534 459.119 135.258 459.347 135.041C459.575 134.824 459.866 134.676 460.182 134.616C460.498 134.556 460.826 134.587 461.124 134.704C461.422 134.822 461.677 135.021 461.856 135.276C462.035 135.531 462.13 135.831 462.13 136.138C462.128 136.549 461.956 136.942 461.651 137.233C461.345 137.523 460.932 137.687 460.5 137.689V137.689ZM460.5 129C458.512 129.002 456.605 129.755 455.199 131.093C453.793 132.431 453.002 134.245 453 136.138C453 142.143 459.66 146.643 459.938 146.829C460.102 146.94 460.298 147 460.5 147C460.702 147 460.898 146.94 461.063 146.829C462.323 145.947 463.477 144.935 464.503 143.811C466.793 141.305 468 138.652 468 136.138C467.998 134.245 467.207 132.431 465.801 131.093C464.395 129.755 462.488 129.002 460.5 129V129ZM463.052 142.554C462.275 143.405 461.421 144.189 460.5 144.897C459.579 144.189 458.725 143.405 457.948 142.554C456.587 141.057 454.957 138.721 454.957 136.138C454.957 134.739 455.541 133.397 456.58 132.407C457.62 131.418 459.03 130.862 460.5 130.862C461.97 130.862 463.38 131.418 464.42 132.407C465.459 133.397 466.043 134.739 466.043 136.138C466.043 138.721 464.421 141.057 463.052 142.554V142.554Z" fill="#282828"/>
<path d="M417 90.931C416.243 90.931 415.504 91.1423 414.874 91.5382C414.245 91.9342 413.755 92.4969 413.465 93.1554C413.176 93.8138 413.1 94.5383 413.247 95.2373C413.395 95.9363 413.759 96.5784 414.295 97.0823C414.83 97.5862 415.511 97.9294 416.254 98.0685C416.996 98.2075 417.765 98.1361 418.464 97.8634C419.163 97.5907 419.761 97.1288 420.181 96.5363C420.602 95.9437 420.826 95.247 420.826 94.5343C420.824 93.5793 420.42 92.664 419.703 91.9887C418.986 91.3135 418.014 90.9331 417 90.931ZM417 96.1722C416.656 96.1722 416.32 96.0762 416.034 95.8962C415.748 95.7162 415.525 95.4604 415.393 95.1611C415.262 94.8618 415.227 94.5325 415.294 94.2148C415.361 93.8971 415.527 93.6052 415.77 93.3762C416.013 93.1471 416.323 92.9911 416.661 92.9279C416.998 92.8647 417.348 92.8971 417.666 93.0211C417.983 93.1451 418.255 93.355 418.446 93.6244C418.637 93.8937 418.739 94.2104 418.739 94.5343C418.737 94.9681 418.553 95.3834 418.227 95.6901C417.902 95.9968 417.461 96.1701 417 96.1722V96.1722ZM417 87C414.879 87.0022 412.845 87.7967 411.346 89.2091C409.846 90.6216 409.002 92.5368 409 94.5343C409 100.873 416.104 105.623 416.4 105.819C416.575 105.937 416.785 106 417 106C417.215 106 417.425 105.937 417.6 105.819C418.944 104.888 420.175 103.82 421.27 102.634C423.713 99.9885 425 97.1877 425 94.5343C424.998 92.5368 424.154 90.6216 422.654 89.2091C421.155 87.7967 419.121 87.0022 417 87V87ZM419.722 101.307C418.893 102.205 417.982 103.033 417 103.78C416.018 103.033 415.107 102.205 414.278 101.307C412.826 99.7265 411.087 97.2614 411.087 94.5343C411.087 93.0574 411.71 91.6409 412.819 90.5966C413.928 89.5522 415.432 88.9655 417 88.9655C418.568 88.9655 420.072 89.5522 421.181 90.5966C422.29 91.6409 422.913 93.0574 422.913 94.5343C422.913 97.2614 421.183 99.7265 419.722 101.307V101.307Z" fill="#282828"/>
<path d="M287 139.138C286.243 139.138 285.504 139.36 284.874 139.777C284.245 140.194 283.755 140.786 283.465 141.479C283.176 142.172 283.1 142.935 283.247 143.671C283.395 144.407 283.759 145.082 284.295 145.613C284.83 146.143 285.511 146.505 286.254 146.651C286.996 146.797 287.765 146.722 288.464 146.435C289.163 146.148 289.761 145.662 290.181 145.038C290.602 144.414 290.826 143.681 290.826 142.931C290.824 141.926 290.42 140.962 289.703 140.251C288.986 139.54 288.014 139.14 287 139.138ZM287 144.655C286.656 144.655 286.32 144.554 286.034 144.364C285.748 144.175 285.525 143.906 285.393 143.591C285.262 143.276 285.227 142.929 285.294 142.595C285.361 142.26 285.527 141.953 285.77 141.712C286.013 141.471 286.323 141.306 286.661 141.24C286.998 141.173 287.348 141.208 287.666 141.338C287.983 141.469 288.255 141.689 288.446 141.973C288.637 142.257 288.739 142.59 288.739 142.931C288.737 143.387 288.553 143.825 288.227 144.147C287.902 144.47 287.461 144.653 287 144.655V144.655ZM287 135C284.879 135.002 282.845 135.839 281.346 137.325C279.846 138.812 279.002 140.828 279 142.931C279 149.603 286.104 154.603 286.4 154.81C286.575 154.934 286.785 155 287 155C287.215 155 287.425 154.934 287.6 154.81C288.944 153.83 290.175 152.705 291.27 151.457C293.713 148.672 295 145.724 295 142.931C294.998 140.828 294.154 138.812 292.654 137.325C291.155 135.839 289.121 135.002 287 135V135ZM289.722 150.06C288.893 151.005 287.982 151.876 287 152.663C286.018 151.876 285.107 151.005 284.278 150.06C282.826 148.396 281.087 145.802 281.087 142.931C281.087 141.376 281.71 139.885 282.819 138.786C283.928 137.687 285.432 137.069 287 137.069C288.568 137.069 290.072 137.687 291.181 138.786C292.29 139.885 292.913 141.376 292.913 142.931C292.913 145.802 291.183 148.396 289.722 150.06V150.06Z" fill="#282828"/>
<path d="M392 195.103C391.432 195.103 390.878 195.27 390.406 195.583C389.934 195.895 389.566 196.34 389.349 196.86C389.132 197.379 389.075 197.951 389.186 198.503C389.296 199.055 389.57 199.562 389.971 199.96C390.372 200.358 390.884 200.629 391.44 200.738C391.997 200.848 392.574 200.792 393.098 200.576C393.622 200.361 394.071 199.996 394.386 199.529C394.701 199.061 394.87 198.511 394.87 197.948C394.868 197.194 394.565 196.472 394.027 195.938C393.489 195.405 392.761 195.105 392 195.103ZM392 199.241C391.742 199.241 391.49 199.165 391.275 199.023C391.061 198.881 390.894 198.679 390.795 198.443C390.696 198.207 390.67 197.947 390.721 197.696C390.771 197.445 390.895 197.215 391.078 197.034C391.26 196.853 391.493 196.73 391.746 196.68C391.999 196.63 392.261 196.656 392.499 196.754C392.737 196.851 392.941 197.017 393.085 197.23C393.228 197.442 393.304 197.692 393.304 197.948C393.303 198.291 393.165 198.618 392.92 198.861C392.676 199.103 392.345 199.24 392 199.241V199.241ZM392 192C390.409 192.002 388.884 192.629 387.759 193.744C386.634 194.859 386.002 196.371 386 197.948C386 202.952 391.328 206.702 391.55 206.857C391.681 206.95 391.839 207 392 207C392.161 207 392.319 206.95 392.45 206.857C393.458 206.122 394.381 205.279 395.202 204.342C397.035 202.254 398 200.043 398 197.948C397.998 196.371 397.366 194.859 396.241 193.744C395.116 192.629 393.591 192.002 392 192V192ZM394.041 203.295C393.42 204.004 392.737 204.657 392 205.248C391.263 204.657 390.58 204.004 389.959 203.295C388.87 202.047 387.565 200.101 387.565 197.948C387.565 196.782 388.032 195.664 388.864 194.839C389.696 194.015 390.824 193.552 392 193.552C393.176 193.552 394.304 194.015 395.136 194.839C395.968 195.664 396.435 196.782 396.435 197.948C396.435 200.101 395.137 202.047 394.041 203.295V203.295Z" fill="#282828"/>
<path d="M429.5 195.276C429.074 195.276 428.658 195.398 428.304 195.627C427.95 195.857 427.675 196.182 427.512 196.564C427.349 196.945 427.306 197.364 427.389 197.769C427.472 198.174 427.677 198.545 427.978 198.837C428.279 199.129 428.663 199.328 429.08 199.408C429.498 199.489 429.93 199.447 430.324 199.289C430.717 199.131 431.053 198.864 431.289 198.521C431.526 198.178 431.652 197.775 431.652 197.362C431.651 196.809 431.424 196.279 431.02 195.888C430.617 195.497 430.07 195.277 429.5 195.276ZM429.5 198.31C429.307 198.31 429.117 198.255 428.957 198.15C428.796 198.046 428.67 197.898 428.596 197.725C428.522 197.552 428.503 197.361 428.541 197.177C428.578 196.993 428.671 196.824 428.808 196.691C428.945 196.559 429.119 196.469 429.309 196.432C429.499 196.395 429.696 196.414 429.874 196.486C430.053 196.558 430.206 196.679 430.313 196.835C430.421 196.991 430.478 197.174 430.478 197.362C430.477 197.613 430.373 197.854 430.19 198.031C430.007 198.209 429.759 198.309 429.5 198.31V198.31ZM429.5 193C428.307 193.001 427.163 193.461 426.319 194.279C425.476 195.097 425.001 196.205 425 197.362C425 201.032 428.996 203.782 429.162 203.895C429.261 203.963 429.379 204 429.5 204C429.621 204 429.739 203.963 429.838 203.895C430.594 203.356 431.286 202.738 431.902 202.051C433.276 200.52 434 198.898 434 197.362C433.999 196.205 433.524 195.097 432.681 194.279C431.837 193.461 430.693 193.001 429.5 193V193ZM431.031 201.283C430.565 201.803 430.053 202.282 429.5 202.715C428.947 202.282 428.435 201.803 427.969 201.283C427.152 200.368 426.174 198.941 426.174 197.362C426.174 196.507 426.524 195.687 427.148 195.082C427.772 194.478 428.618 194.138 429.5 194.138C430.382 194.138 431.228 194.478 431.852 195.082C432.476 195.687 432.826 196.507 432.826 197.362C432.826 198.941 431.853 200.368 431.031 201.283V201.283Z" fill="#282828"/>
<path d="M430.5 227.241C430.264 227.241 430.032 227.308 429.836 227.433C429.639 227.558 429.486 227.736 429.395 227.944C429.305 228.152 429.281 228.381 429.327 228.601C429.373 228.822 429.487 229.025 429.655 229.184C429.822 229.343 430.035 229.451 430.267 229.495C430.499 229.539 430.739 229.517 430.958 229.431C431.176 229.344 431.363 229.199 431.494 229.011C431.626 228.824 431.696 228.604 431.696 228.379C431.695 228.078 431.569 227.789 431.345 227.575C431.121 227.362 430.817 227.242 430.5 227.241ZM430.5 228.896C430.393 228.896 430.287 228.866 430.198 228.809C430.109 228.752 430.039 228.672 429.998 228.577C429.957 228.483 429.946 228.379 429.967 228.278C429.988 228.178 430.04 228.086 430.116 228.014C430.192 227.941 430.289 227.892 430.394 227.872C430.499 227.852 430.609 227.862 430.708 227.901C430.807 227.941 430.892 228.007 430.952 228.092C431.012 228.177 431.043 228.277 431.043 228.379C431.043 228.516 430.985 228.647 430.884 228.744C430.782 228.841 430.644 228.896 430.5 228.896V228.896ZM430.5 226C429.837 226.001 429.202 226.252 428.733 226.698C428.264 227.144 428.001 227.748 428 228.379C428 230.381 430.22 231.881 430.312 231.943C430.367 231.98 430.433 232 430.5 232C430.567 232 430.633 231.98 430.687 231.943C431.108 231.649 431.492 231.312 431.834 230.937C432.598 230.102 433 229.217 433 228.379C432.999 227.748 432.736 227.144 432.267 226.698C431.798 226.252 431.163 226.001 430.5 226V226ZM431.351 230.518C431.092 230.802 430.807 231.063 430.5 231.299C430.193 231.063 429.908 230.802 429.649 230.518C429.196 230.019 428.652 229.24 428.652 228.379C428.652 227.913 428.847 227.466 429.193 227.136C429.54 226.806 430.01 226.621 430.5 226.621C430.99 226.621 431.46 226.806 431.807 227.136C432.153 227.466 432.348 227.913 432.348 228.379C432.348 229.24 431.807 230.019 431.351 230.518V230.518Z" fill="#282828"/>
<path d="M171.5 266.103C170.885 266.103 170.284 266.27 169.773 266.583C169.262 266.895 168.863 267.34 168.628 267.86C168.393 268.379 168.331 268.951 168.451 269.503C168.571 270.055 168.867 270.562 169.302 270.96C169.737 271.358 170.29 271.629 170.894 271.738C171.497 271.848 172.122 271.792 172.69 271.576C173.258 271.361 173.743 270.996 174.085 270.529C174.426 270.061 174.609 269.511 174.609 268.948C174.607 268.194 174.279 267.472 173.696 266.938C173.114 266.405 172.324 266.105 171.5 266.103ZM171.5 270.241C171.221 270.241 170.947 270.165 170.715 270.023C170.483 269.881 170.301 269.679 170.195 269.443C170.088 269.207 170.06 268.947 170.114 268.696C170.169 268.445 170.303 268.215 170.501 268.034C170.698 267.853 170.95 267.73 171.224 267.68C171.498 267.63 171.783 267.656 172.041 267.754C172.299 267.851 172.52 268.017 172.675 268.23C172.83 268.442 172.913 268.692 172.913 268.948C172.911 269.291 172.762 269.618 172.497 269.861C172.233 270.103 171.874 270.24 171.5 270.241V270.241ZM171.5 263C169.777 263.002 168.124 263.629 166.906 264.744C165.687 265.859 165.002 267.371 165 268.948C165 273.952 170.772 277.702 171.012 277.857C171.155 277.95 171.325 278 171.5 278C171.675 278 171.845 277.95 171.987 277.857C173.08 277.122 174.08 276.279 174.969 275.342C176.954 273.254 178 271.043 178 268.948C177.998 267.371 177.313 265.859 176.094 264.744C174.876 263.629 173.223 263.002 171.5 263V263ZM173.711 274.295C173.038 275.004 172.298 275.657 171.5 276.248C170.702 275.657 169.962 275.004 169.289 274.295C168.109 273.047 166.696 271.101 166.696 268.948C166.696 267.782 167.202 266.664 168.103 265.839C169.004 265.015 170.226 264.552 171.5 264.552C172.774 264.552 173.996 265.015 174.897 265.839C175.798 266.664 176.304 267.782 176.304 268.948C176.304 271.101 174.898 273.047 173.711 274.295V274.295Z" fill="#282828"/>
<path d="M114.5 140.965C113.601 140.965 112.723 141.232 111.976 141.733C111.229 142.233 110.646 142.944 110.302 143.775C109.958 144.607 109.869 145.522 110.044 146.405C110.219 147.288 110.652 148.099 111.287 148.736C111.923 149.372 112.732 149.806 113.614 149.981C114.495 150.157 115.409 150.067 116.239 149.722C117.069 149.378 117.779 148.794 118.278 148.046C118.777 147.297 119.043 146.417 119.043 145.517C119.041 144.311 118.561 143.155 117.71 142.302C116.858 141.449 115.704 140.968 114.5 140.965ZM114.5 147.586C114.092 147.586 113.692 147.465 113.353 147.237C113.013 147.01 112.748 146.687 112.592 146.309C112.436 145.931 112.395 145.515 112.474 145.113C112.554 144.712 112.751 144.343 113.04 144.054C113.328 143.765 113.696 143.568 114.097 143.488C114.498 143.408 114.913 143.449 115.29 143.606C115.668 143.762 115.99 144.027 116.217 144.368C116.444 144.708 116.565 145.108 116.565 145.517C116.563 146.065 116.344 146.59 115.957 146.977C115.571 147.364 115.047 147.583 114.5 147.586V147.586ZM114.5 136C111.981 136.003 109.567 137.006 107.786 138.791C106.005 140.575 105.003 142.994 105 145.517C105 153.524 113.436 159.524 113.787 159.772C113.996 159.92 114.245 160 114.5 160C114.755 160 115.004 159.92 115.212 159.772C116.809 158.596 118.27 157.246 119.57 155.748C122.472 152.407 124 148.869 124 145.517C123.997 142.994 122.995 140.575 121.214 138.791C119.433 137.006 117.019 136.003 114.5 136V136ZM117.732 154.072C116.748 155.206 115.667 156.252 114.5 157.196C113.333 156.252 112.252 155.206 111.268 154.072C109.543 152.076 107.478 148.962 107.478 145.517C107.478 143.651 108.218 141.862 109.535 140.543C110.852 139.224 112.638 138.483 114.5 138.483C116.362 138.483 118.148 139.224 119.465 140.543C120.782 141.862 121.522 143.651 121.522 145.517C121.522 148.962 119.467 152.076 117.732 154.072V154.072Z" fill="#282828"/>
</svg>
