<svg width="62" height="49" viewBox="0 0 62 49" fill="none" xmlns="http://www.w3.org/2000/svg">
<path d="M3.56425 44.6997L3.68139 44.9223L3.88074 45.0756C4.90697 45.865 6.4914 46.401 8.45538 46.7812L8.47581 46.7851L8.49637 46.7883C10.5229 47.105 12.3511 47.2671 13.9749 47.2671C15.6867 47.2671 17.5677 47.0371 19.6113 46.5903C21.661 46.1553 23.2289 45.6953 24.1921 45.1767L24.4228 45.0524L24.577 44.8405C25.2472 43.9188 25.6466 42.473 25.8985 40.7197C26.2149 38.9429 26.3779 37.3299 26.3779 35.8871C26.3779 34.379 26.2141 32.8165 25.8914 31.2016C25.5785 29.5758 25.1729 28.2498 24.589 27.4156L24.501 27.2899L24.3831 27.1917C23.4202 26.3892 22.0191 25.876 20.3344 25.5516C19.2635 25.3375 18.2941 25.1785 17.4298 25.0777C17.6032 23.4804 18.0617 21.9627 18.8067 20.5176C19.8024 18.6448 21.0931 16.9116 22.6856 15.3177C24.3431 13.7208 26.1752 12.3919 28.184 11.3285L28.7348 11.0369L28.7912 10.4162C28.9415 8.76259 28.4828 7.12952 27.5219 5.54506C26.6169 3.95034 25.4008 2.75243 23.8623 2.01982L23.3935 1.79658L22.9161 2.00059C15.9267 4.98694 10.5594 9.20941 6.88178 14.6936L6.88005 14.6962C3.27319 20.1065 1.47891 26.2837 1.47891 33.1901C1.47891 35.234 1.63859 37.3361 1.95614 39.4954L1.95897 39.5147L1.96246 39.5338C2.34502 41.6379 2.86811 43.377 3.56425 44.6997ZM35.4632 44.6997L35.5804 44.9223L35.7797 45.0756C36.806 45.865 38.3904 46.401 40.3544 46.7812L40.3748 46.7851L40.3954 46.7883C42.4219 47.105 44.2501 47.2671 45.8739 47.2671C47.5857 47.2671 49.4667 47.0371 51.5103 46.5903C53.56 46.1553 55.1279 45.6953 56.0911 45.1767L56.3218 45.0524L56.476 44.8405C57.1463 43.9188 57.5456 42.473 57.7975 40.7196C58.1139 38.9429 58.2769 37.3299 58.2769 35.8871C58.2769 34.3791 58.1131 32.8167 57.7904 31.2018C57.4775 29.5759 57.072 28.2498 56.488 27.4156L56.4 27.2899L56.2821 27.1917C55.3192 26.3892 53.9181 25.876 52.2334 25.5516C51.1625 25.3375 50.1931 25.1785 49.3288 25.0777C49.5022 23.4804 49.9608 21.9627 50.7057 20.5175C51.7014 18.6448 52.9922 16.9116 54.5847 15.3177C56.2421 13.7208 58.0742 12.3919 60.083 11.3285L60.6338 11.0369L60.6902 10.4162C60.8405 8.76259 60.3818 7.12953 59.4209 5.54508C58.5159 3.95035 57.2998 2.75243 55.7613 2.01982L55.2925 1.79658L54.8151 2.00059C47.8257 4.98694 42.4584 9.20941 38.7808 14.6936L38.779 14.6962C35.1722 20.1065 33.3779 26.2837 33.3779 33.1901C33.3779 35.234 33.5376 37.3361 33.8551 39.4954L33.858 39.5147L33.8615 39.5338C34.244 41.6379 34.7671 43.377 35.4632 44.6997Z" stroke="#FFA224" stroke-width="2.3"/>
</svg>
