<svg width="168" height="167" viewBox="0 0 168 167" fill="none" xmlns="http://www.w3.org/2000/svg">
    <path d="M81.0788 58.4782L56.216 83.4057C54.0217 81.22 52.4508 78.4867 51.6658 75.4883C50.8755 72.5037 50.8826 69.3631 51.6853 66.3818C52.488 63.4006 54.0587 60.6835 56.24 58.5017C58.4212 56.3148 61.1399 54.7436 64.1218 53.9473C67.1038 53.1511 70.2426 53.1576 73.221 53.9668C76.1854 54.7648 78.8929 56.3194 81.0788 58.4782Z" fill="#FFA224"/>
    <path d="M86.1451 110.026L85.0891 107.676L75.4024 85.8259L75.0508 85.0269C76.3377 84.45 77.5435 83.7077 78.6389 82.8185C79.0114 82.5548 79.3646 82.2646 79.6949 81.9495C80.0331 81.6383 80.3544 81.3085 80.6569 80.9624C81.6287 79.9302 82.4633 78.7774 83.1422 77.5322L83.8935 77.955L110.867 91.7937C111.383 92.0286 111.547 92.0991 110.867 91.7937C113.239 92.8744 115.341 94.4696 117.023 96.4639C118.704 98.4582 119.923 100.802 120.589 103.325C121.256 105.849 121.354 108.489 120.878 111.056C120.401 113.622 119.362 116.05 117.834 118.165C116.306 120.28 114.328 122.027 112.043 123.283C109.758 124.538 107.223 125.27 104.622 125.424C102.02 125.578 99.4178 125.151 97.0011 124.175C94.5845 123.198 92.4145 121.695 90.6483 119.776C89.0567 118.058 87.8279 116.036 87.0361 113.831C87.0361 113.831 86.8011 112.351 86.6135 111.67C86.4851 111.114 86.3292 110.565 86.1451 110.026Z" fill="#FFA224"/>
    <path d="M76.5508 82.9835C77.8197 82.3555 79.0023 81.5658 80.0691 80.634C80.4209 80.3286 80.772 80.0228 81.0769 79.7174C81.3818 79.412 81.7105 79.0362 81.992 78.6838C82.9205 77.6225 83.7089 76.446 84.3375 75.1831" fill="#282828"/>
    <path d="M76.5508 82.9835C77.8197 82.3555 79.0023 81.5658 80.0691 80.634C80.4209 80.3286 80.772 80.0228 81.0769 79.7174C81.3818 79.412 81.7105 79.0362 81.992 78.6838C82.9205 77.6225 83.7089 76.446 84.3375 75.1831" stroke="#282828" stroke-width="2" stroke-miterlimit="10"/>
    <path d="M84.3644 75.1831L85.1386 75.5588L106.53 86.1314L108.876 87.2362C109.389 87.4652 109.924 87.646 110.471 87.7765C111.163 87.988 111.868 88.1527 112.582 88.2698C114.99 89.2583 117.15 90.7699 118.905 92.6957C120.66 94.6215 121.966 96.9135 122.73 99.4063C123.494 101.899 123.695 104.531 123.321 107.111C122.946 109.691 122.005 112.156 120.564 114.328C119.124 116.5 117.22 118.324 114.99 119.669C112.76 121.015 110.26 121.848 107.67 122.108C105.08 122.369 102.465 122.05 100.012 121.176C97.56 120.301 95.3317 118.892 93.4888 117.051C91.8263 115.389 90.5173 113.407 89.6418 111.224C89.6418 111.224 89.3376 109.767 89.1265 109.086C88.9154 108.404 88.7981 108.005 88.587 107.488L87.4372 105.139L76.8823 83.712L76.5078 82.9365" stroke="#282828" stroke-width="2" stroke-linejoin="round"/>
    <path d="M68.6009 51.9706C69.9403 51.9738 71.2732 52.1555 72.5647 52.5109L73.174 52.6514C74.7766 53.188 76.2826 53.9815 77.6314 55.0009L56.3339 76.3578C55.2421 74.8279 54.4465 73.1068 53.9884 71.2831L53.8704 70.9068C53.2627 68.3626 53.3169 65.7047 54.0273 63.1873C54.7377 60.6699 56.0806 58.3774 57.9281 56.5284C59.3326 55.113 61.0029 53.99 62.8425 53.2239C64.6821 52.4577 66.6556 52.0633 68.6479 52.0641L68.6009 51.9706ZM68.6479 49.7146C66.3469 49.712 64.0677 50.1657 61.9423 51.0488C59.8169 51.9318 57.8866 53.2272 56.2629 54.8604C54.0815 57.0421 52.5109 59.7598 51.7081 62.7411C50.9054 65.7223 50.8995 68.8624 51.6898 71.847C52.4748 74.8453 54.0457 77.5786 56.24 79.7644L81.1028 54.8368C78.9184 52.649 76.2011 51.0699 73.221 50.2555C71.6911 49.8454 70.1137 49.64 68.5299 49.6446L68.6479 49.7146Z" fill="#282828"/>
    <path d="M39.2344 59.3241L56.216 54.7661" stroke="#282828" stroke-width="2" stroke-linecap="round" stroke-linejoin="round"/>
    <path d="M56.2148 54.7659L60.7417 37.7793" stroke="#282828" stroke-width="2" stroke-linecap="round" stroke-linejoin="round"/>
    <path d="M98.8594 120.716C103.755 117.891 108.252 114.422 112.229 110.402C116.051 106.539 119.354 102.195 122.057 97.4795" stroke="#282828" stroke-width="2" stroke-linejoin="round"/>
    <path d="M88.0703 106.079C96.1714 101.442 102.885 94.7163 107.515 86.6016" stroke="#282828" stroke-width="2" stroke-linejoin="round"/>
    <path d="M116.402 90.5249C113.52 95.6884 109.946 100.432 105.777 104.622C101.644 108.781 96.9539 112.347 91.8438 115.218" stroke="#282828" stroke-width="2" stroke-linejoin="round"/>
    <path d="M127.849 58.4546C130.354 60.9546 132.048 64.1533 132.709 67.6328C133.369 71.1124 132.966 74.7107 131.552 77.9571C130.138 81.2034 127.779 83.9468 124.783 85.8286C121.788 87.7103 118.294 88.6425 114.761 88.5038C114.046 88.4878 113.334 88.4254 112.627 88.3163V88.3163C111.914 88.1992 111.209 88.0344 110.517 87.823C109.97 87.6925 109.435 87.5116 108.921 87.2826L106.576 86.1779L85.1844 75.6053L84.4102 75.2296C86.4313 71.2034 86.8429 66.5564 85.56 62.237L87.7876 61.485L101.509 57.0212L108.921 54.6717C112.102 53.3887 115.586 53.0631 118.948 53.7351C122.31 54.407 125.404 56.0474 127.849 58.4546Z" stroke="#282828" stroke-width="2" stroke-linejoin="round"/>
    <path d="M76.5501 82.9834L76.9246 83.7589L87.4795 105.186L88.6293 107.535C88.8404 108.052 89.0046 108.592 89.1687 109.133C89.3799 109.826 89.5443 110.533 89.6612 111.248C89.6612 111.248 89.8485 112.728 89.8719 113.432C89.9751 116.058 89.4906 118.674 88.4541 121.088C87.4175 123.502 85.8549 125.653 83.881 127.384C81.9071 129.114 79.5718 130.381 77.046 131.091C74.5202 131.801 71.8679 131.936 69.2833 131.486C66.6987 131.036 64.247 130.013 62.1082 128.492C59.9693 126.97 58.1979 124.989 56.9224 122.693C55.6468 120.396 54.9003 117.844 54.7372 115.221C54.574 112.598 54.9987 109.972 55.9798 107.535V107.535L58.3253 100.135L62.8045 86.3665L63.5317 84.017C67.8421 85.3631 72.5053 84.993 76.5501 82.9834V82.9834Z" stroke="#282828" stroke-width="2" stroke-linejoin="round"/>
    <path d="M12.7539 39.119C13.0823 38.6021 13.4105 38.0614 13.7388 37.568L14.7009 36.0881C15.0559 35.5049 15.5266 35.0007 16.0844 34.6076C16.5333 34.2766 17.0753 34.0958 17.6328 34.0908C18.214 34.125 18.7741 34.3202 19.2511 34.6547C19.5772 34.8731 19.8474 35.1657 20.039 35.5088C20.2306 35.8518 20.3376 36.2357 20.3528 36.6284C20.3581 37.0121 20.2699 37.3912 20.0951 37.7326L19.8844 37.5915C20.1683 37.2299 20.5396 36.9472 20.9632 36.7695C21.4121 36.601 21.8935 36.5365 22.3708 36.5814C22.8849 36.6057 23.3811 36.7769 23.8012 37.0747C24.3196 37.4076 24.7336 37.88 24.9969 38.4376C25.2501 38.9802 25.3163 39.5918 25.1847 40.1761C25.0264 40.9174 24.7238 41.6197 24.2937 42.2434L23.1919 43.8179C22.8401 44.3348 22.4638 44.8515 22.112 45.3919H21.9482L12.7768 39.236L12.7539 39.119ZM21.9722 42.8308L22.4647 42.0788C22.6166 41.8669 22.7568 41.6478 22.8862 41.4214C23.0866 41.1678 23.2232 40.8694 23.2847 40.5519C23.3443 40.3127 23.3443 40.0625 23.2847 39.8234C23.221 39.6172 23.1177 39.4256 22.9801 39.2595C22.8384 39.1263 22.6897 39.001 22.5346 38.8838C22.2984 38.7284 22.036 38.6166 21.7604 38.5546C21.462 38.4651 21.1448 38.4651 20.8464 38.5546C20.4739 38.7332 20.1625 39.0199 19.9543 39.3771L18.5708 41.4214L17.2571 40.5283L18.5238 38.6251C18.728 38.3429 18.8496 38.0096 18.8754 37.6621C18.8996 37.3974 18.8332 37.1322 18.6876 36.9101C18.5521 36.7111 18.3769 36.5431 18.1722 36.4168C17.9766 36.2756 17.7517 36.1797 17.5148 36.1351C17.2791 36.0546 17.0233 36.0546 16.7876 36.1351C16.472 36.2887 16.2107 36.534 16.0374 36.8395L15.6618 37.4269L15.2162 38.0378L21.9722 42.8308Z" fill="#282828"/>
    <path d="M23.0521 33.1276C22.8349 32.9328 22.5985 32.7598 22.3477 32.6108C22.1302 32.4838 21.8925 32.396 21.6445 32.3521C21.6482 32.1257 21.6962 31.9022 21.7854 31.6942C21.8869 31.4573 22.0209 31.2357 22.184 31.0363C22.2882 30.9038 22.419 30.7955 22.5688 30.7185C22.7185 30.6415 22.8839 30.5977 23.0521 30.59C23.3978 30.6491 23.7163 30.813 23.966 31.0598L26.828 33.6209C27.073 33.8588 27.3705 34.0358 27.6962 34.1377C27.8246 34.1611 27.9569 34.147 28.0775 34.097C28.1982 34.047 28.302 33.9629 28.3765 33.8555C28.5385 33.6509 28.6646 33.4211 28.751 33.1747C28.983 32.5535 28.983 31.8691 28.751 31.2479L30.2055 32.5167C30.2756 33.0706 30.2756 33.6309 30.2055 34.1848C30.0966 34.7521 29.8378 35.2793 29.4553 35.7117C29.1763 36.0582 28.7867 36.2987 28.3524 36.3931C27.9456 36.5051 27.5166 36.5051 27.1098 36.3931C26.6478 36.2098 26.225 35.9389 25.866 35.5947L23.0521 33.1276ZM30.4632 30.6606C30.6622 30.8479 30.8925 30.9988 31.1434 31.1068C31.3455 31.2116 31.5751 31.2526 31.8008 31.2244C31.927 31.4115 32.0211 31.6178 32.0814 31.8353C32.1148 32.0454 32.1148 32.2596 32.0814 32.4697C31.8937 32.6761 31.6598 32.8346 31.3988 32.9326C31.1379 33.0306 30.858 33.0654 30.5811 33.0336C30.0198 32.9769 29.4922 32.7375 29.0797 32.3521L24.6463 28.4052C24.7236 28.2538 24.8183 28.1115 24.928 27.9819C25.0402 27.8226 25.1662 27.6734 25.3037 27.5356L25.6782 27.1364L26.0538 26.7842L30.4632 30.6606Z" fill="#282828"/>
    <path d="M33.1821 30.4255C33.024 30.2098 32.8972 29.9729 32.8065 29.7212C32.7153 29.4652 32.6759 29.1935 32.6896 28.9221C33.0794 28.8182 33.4625 28.6929 33.8383 28.5464C34.214 28.3916 34.5634 28.1774 34.8714 27.912C35.1071 27.7119 35.2846 27.4522 35.3868 27.16C35.4139 27.0506 35.4158 26.9363 35.3913 26.8262C35.3669 26.7161 35.3168 26.6132 35.2459 26.5256C35.182 26.4496 35.1033 26.3871 35.0145 26.3427C34.9258 26.2982 34.8296 26.2725 34.7305 26.2669C34.4649 26.2504 34.1991 26.2989 33.9563 26.408L33.0412 26.7843C32.6827 26.9402 32.3035 27.0428 31.9154 27.0895C31.5607 27.1735 31.1913 27.1735 30.8366 27.0895C30.4661 26.9798 30.1387 26.7582 29.8986 26.4551C29.5692 26.1026 29.3491 25.6617 29.2653 25.1863C29.1931 24.7135 29.2664 24.2302 29.476 23.8005C29.7015 23.3 30.0383 22.8579 30.4609 22.5081C30.8422 22.1627 31.2683 21.87 31.7276 21.6386C32.1275 21.4039 32.5524 21.2148 32.9943 21.0747C33.1296 21.2115 33.241 21.3703 33.323 21.5445C33.4137 21.7241 33.4842 21.9132 33.5337 22.1083C33.5672 22.279 33.5672 22.4551 33.5337 22.6257C33.1722 22.7317 32.8201 22.8651 32.4789 23.0249C32.1063 23.1824 31.7644 23.4053 31.4699 23.6829C31.2744 23.8337 31.1406 24.051 31.0943 24.2938C31.0781 24.3904 31.0852 24.4891 31.1137 24.5828C31.1422 24.6766 31.192 24.7628 31.2592 24.8341C31.3823 24.9664 31.5481 25.0494 31.7276 25.0687C31.963 25.06 32.1944 25.0045 32.4079 24.9046L33.4169 24.5048C33.9713 24.2647 34.5725 24.1525 35.176 24.1762C35.4727 24.2017 35.7613 24.2877 36.0235 24.4291C36.2857 24.5705 36.5158 24.7647 36.7004 24.9987C36.9577 25.255 37.1446 25.573 37.2433 25.9228C37.3419 26.2726 37.3493 26.6421 37.2639 26.9954C37.0622 27.8471 36.5835 28.6073 35.9033 29.1567C35.4872 29.5371 35.0116 29.8469 34.4957 30.0733C34.0734 30.2425 33.6323 30.3606 33.1821 30.4255Z" fill="#282828"/>
    <path d="M33.6296 17.1044C33.449 16.8768 33.3205 16.6118 33.2539 16.3289C33.3227 16.1727 33.4182 16.0298 33.5356 15.9061C33.6729 15.7609 33.8218 15.6275 33.9812 15.5069C34.1414 15.3864 34.315 15.2836 34.4977 15.2012C34.6421 15.121 34.8014 15.0727 34.9661 15.0601C35.0991 15.1224 35.2195 15.2104 35.3188 15.3188L35.6235 15.6245C35.8025 15.8589 35.9229 16.1324 35.9751 16.4229C35.8968 16.5664 35.8021 16.7002 35.6933 16.8222C35.5646 16.9746 35.4241 17.1165 35.2719 17.2455L34.7554 17.5506L34.2629 17.6917C34.0141 17.5412 33.7985 17.3413 33.6296 17.1044ZM41.9569 23.8941C41.8428 24.0228 41.7168 24.1411 41.5812 24.2468L41.1586 24.599L40.6902 24.9048L40.2435 25.1629L36.8191 20.5815C36.6973 20.3829 36.5177 20.2271 36.3038 20.1353C36.1963 20.115 36.0852 20.1194 35.9797 20.1479C35.8741 20.1764 35.7761 20.2283 35.6933 20.2999H35.5296C35.3295 20.1582 35.1545 19.9829 35.013 19.7825L34.7794 19.4538L34.6145 19.1016C34.7751 18.9329 34.9481 18.7755 35.131 18.6313L35.5765 18.2791L35.8113 18.1145C35.9765 17.9787 36.1687 17.8792 36.3748 17.8225C36.5809 17.7659 36.7957 17.7536 37.007 17.7858C37.4529 17.8954 37.8393 18.1733 38.0858 18.5613L41.9569 23.8941Z" fill="#282828"/>
    <path d="M40.571 14.8253C40.7157 14.7224 40.8837 14.6577 41.06 14.6372C41.2363 14.6166 41.4156 14.6408 41.58 14.7077C41.9432 14.8826 42.2394 15.1715 42.4241 15.5303L45.8725 21.2628L45.4739 21.5915L45.0044 21.8972L44.5119 22.1554C44.3563 22.2445 44.1911 22.3156 44.0194 22.367L39.8438 15.3186V15.1775L40.571 14.8253ZM48.8743 17.1748C49.0078 17.4298 49.1733 17.6668 49.3667 17.8797C49.5333 18.0695 49.7317 18.2284 49.9531 18.3495C49.8901 18.568 49.7774 18.769 49.6244 18.9369C49.4593 19.1255 49.2706 19.2913 49.0621 19.4302C48.9288 19.5368 48.771 19.6079 48.6028 19.6367C48.4346 19.6654 48.2611 19.6511 48.1 19.5948C47.7915 19.4288 47.5385 19.1754 47.3728 18.8663L45.4029 15.6008C45.2518 15.2917 45.0266 15.025 44.7467 14.8253C44.6366 14.7485 44.5052 14.7072 44.371 14.7072C44.2368 14.7072 44.1055 14.7485 43.9954 14.8253C43.7808 14.9657 43.5912 15.1402 43.433 15.3421C43.254 15.5999 43.1195 15.886 43.0345 16.1882C42.9338 16.5229 42.8934 16.873 42.9165 17.2218L41.9087 15.5538C42.0272 15.0035 42.2247 14.4728 42.4951 13.9793C42.7561 13.4781 43.1543 13.0623 43.6438 12.781C44.0171 12.53 44.4614 12.4066 44.9105 12.4288C45.3334 12.4774 45.7335 12.6488 46.0603 12.9221C46.4394 13.2346 46.7636 13.6077 47.0212 14.0263L48.8743 17.1748Z" fill="#282828"/>
    <path d="M51.4558 14.3084L50.8454 12.9456L54.0831 11.5127V11.3246C53.9732 11.0548 53.8137 10.8076 53.6135 10.5961C53.4415 10.3928 53.2134 10.2457 52.9573 10.1734C52.6987 10.0856 52.4177 10.0856 52.159 10.1734C51.9576 10.2459 51.782 10.3757 51.6528 10.5468C51.5237 10.7178 51.4465 10.9225 51.4318 11.1364C51.4416 11.7252 51.5865 12.3038 51.8544 12.828L52.1121 13.4389C52.2686 13.8164 52.4742 14.1717 52.7225 14.496C52.913 14.7778 53.1943 14.9853 53.5196 15.0834C53.7029 15.1389 53.8966 15.1553 54.0865 15.131C54.2765 15.1067 54.459 15.0427 54.6225 14.9429C54.9871 14.8047 55.3214 14.5972 55.6075 14.332C55.9034 14.0982 56.1783 13.8386 56.4286 13.5565C56.6596 13.6414 56.8676 13.7778 57.0379 13.9557C57.2209 14.1107 57.3796 14.2929 57.5075 14.496C57.2332 14.9575 56.8846 15.3704 56.4756 15.7178C56.0302 16.0937 55.5315 16.4027 54.997 16.6344C54.4719 16.8923 53.8936 17.0209 53.3089 17.0101C52.8161 16.9875 52.3387 16.8335 51.9254 16.5638C51.5013 16.3035 51.1333 15.96 50.8454 15.5537C50.5335 15.1115 50.2667 14.6391 50.0483 14.1438C49.7331 13.4629 49.543 12.7309 49.486 11.9825C49.4485 11.3184 49.6031 10.6574 49.9315 10.0793C50.2973 9.46564 50.8586 8.99357 51.5257 8.73994C52.1013 8.46221 52.7447 8.35646 53.3788 8.43478C53.9508 8.50332 54.4899 8.74055 54.9272 9.11622C55.393 9.51304 55.7619 10.011 56.006 10.5726C56.1293 10.8111 56.2241 11.0637 56.2878 11.3246C56.3671 11.545 56.4217 11.7736 56.4515 12.006L51.4558 14.3084Z" fill="#282828"/>
    <path d="M59.1002 14.0969C59.0117 13.5592 59.0691 13.0077 59.2652 12.4994C59.6685 12.5709 60.0759 12.6181 60.4849 12.6405C60.8903 12.6586 61.295 12.6027 61.6805 12.4759C61.9755 12.3906 62.2428 12.2285 62.4547 12.0061C62.5213 11.9161 62.5679 11.8131 62.5922 11.7038C62.6164 11.5945 62.6178 11.4814 62.5956 11.3717C62.5333 11.1796 62.3983 11.0196 62.22 10.9254C61.9766 10.813 61.7135 10.749 61.4458 10.7373H60.4608C60.0725 10.7128 59.6881 10.6497 59.3121 10.5492C58.967 10.4438 58.6477 10.2679 58.3741 10.0323C58.0875 9.77249 57.8761 9.43976 57.7637 9.06927C57.6361 8.6001 57.6361 8.10501 57.7637 7.63584C57.8994 7.18173 58.159 6.77477 58.5139 6.46111C58.9238 6.09426 59.4146 5.82854 59.9455 5.6856C60.4315 5.52673 60.9353 5.43225 61.4458 5.40396C61.9129 5.34321 62.3862 5.34321 62.8533 5.40396C62.9169 5.57785 62.9571 5.75964 62.9713 5.9443C62.9954 6.1472 62.9954 6.35228 62.9713 6.55518C62.9477 6.73198 62.8833 6.9008 62.7834 7.04848C62.4086 7.02214 62.0325 7.02214 61.6576 7.04848C61.2518 7.05155 60.8481 7.11507 60.4608 7.23662C60.233 7.30113 60.0348 7.44197 59.8985 7.63584C59.8533 7.72292 59.8298 7.8199 59.8298 7.91805C59.8298 8.01621 59.8533 8.11262 59.8985 8.19969C59.9207 8.28628 59.9609 8.367 60.0176 8.43602C60.0743 8.50503 60.1455 8.56047 60.226 8.59892C60.4436 8.6828 60.6734 8.73055 60.9063 8.74002H61.9852C62.588 8.74931 63.1817 8.89423 63.7214 9.16334C64.0122 9.32352 64.2652 9.54363 64.4647 9.80921C64.6642 10.0748 64.8061 10.3793 64.8793 10.7035C64.9525 11.0277 64.9557 11.3638 64.8896 11.6895C64.8235 12.0152 64.6893 12.3236 64.4956 12.5935C63.9582 13.2964 63.1968 13.7935 62.3379 14.0028C61.8057 14.1669 61.2524 14.2542 60.6956 14.2615C60.1593 14.2705 59.6234 14.2152 59.1002 14.0969Z" fill="#282828"/>
    <path d="M66.3701 11.841C66.3374 11.5757 66.3374 11.3072 66.3701 11.042C66.4231 10.7779 66.5184 10.5244 66.6518 10.2905C67.0454 10.3991 67.4442 10.485 67.8475 10.5487C68.243 10.6199 68.6487 10.6199 69.0443 10.5487C69.3488 10.5065 69.6344 10.376 69.8655 10.1729C69.9521 10.0943 70.0163 9.9944 70.0533 9.88328C70.0903 9.77216 70.0984 9.65354 70.0762 9.53855C70.0561 9.44204 70.017 9.3503 69.9605 9.26953C69.9041 9.18876 69.8311 9.12075 69.7475 9.06877C69.5272 8.92979 69.2787 8.84126 69.0202 8.81007L68.0353 8.66897C67.6505 8.60615 67.2733 8.50408 66.9095 8.36381C66.5734 8.22422 66.2701 8.01618 66.0185 7.75293C65.7717 7.45432 65.6025 7.09932 65.526 6.7193C65.382 6.26048 65.382 5.76821 65.526 5.30939C65.6897 4.86437 65.9838 4.47948 66.3701 4.20521C66.8297 3.90767 67.338 3.69293 67.8715 3.57081C68.3863 3.52067 68.9051 3.52067 69.4199 3.57081C69.8863 3.58734 70.3495 3.65049 70.8034 3.75895C70.8286 3.94606 70.8286 4.13568 70.8034 4.3228C70.8259 4.51794 70.8259 4.71502 70.8034 4.91016C70.7444 5.07567 70.6654 5.23333 70.5687 5.37994C70.1983 5.29067 69.8221 5.22768 69.4429 5.1918C69.0472 5.1215 68.6428 5.1215 68.2472 5.1918C68.0087 5.21714 67.7891 5.33558 67.6368 5.52105C67.5684 5.59593 67.5193 5.68646 67.4947 5.7849C67.4702 5.88335 67.4707 5.9866 67.4959 6.0849C67.5317 6.25695 67.6329 6.40831 67.7776 6.50764C67.9894 6.61942 68.2201 6.69131 68.4579 6.7193L69.5139 6.85983C70.119 6.93423 70.6972 7.15171 71.202 7.49423C71.451 7.65582 71.6625 7.87017 71.8204 8.12175C71.9784 8.37333 72.0795 8.65636 72.1171 8.95118C72.206 9.30436 72.2049 9.67437 72.1148 10.0273C72.0247 10.3801 71.8479 10.7044 71.6006 10.9714C70.9744 11.6182 70.1473 12.0324 69.255 12.1461C68.7029 12.2275 68.1419 12.2275 67.5898 12.1461C67.174 12.0859 66.7653 11.9838 66.3701 11.841Z" fill="#282828"/>
    <path d="M79.5526 3.89978C79.5189 3.72124 79.5189 3.538 79.5526 3.35945C79.5981 3.13293 79.6685 2.91276 79.7633 2.70211C79.8369 2.52684 79.9316 2.36069 80.045 2.20824L80.983 2.53748C81.3509 2.65715 81.6986 2.83131 82.0149 3.0543L83.001 3.6887C83.0339 3.74585 83.0503 3.81085 83.0503 3.87684C83.0503 3.94283 83.0339 4.00726 83.001 4.06441C82.9914 4.13579 82.9579 4.20219 82.9071 4.25312C82.8563 4.30405 82.7905 4.33698 82.7193 4.34662H81.5465C81.1656 4.34153 80.7872 4.28608 80.4207 4.182L79.5526 3.89978ZM81.8981 7.40104L81.4056 7.18938C81.2051 7.07557 81.0159 6.94193 80.8422 6.79016C80.692 6.67548 80.5581 6.54076 80.4436 6.39036L81.054 5.59191C81.2844 5.27082 81.5601 4.98553 81.8741 4.74584L82.7662 4.01737C82.8286 3.98803 82.8966 3.97321 82.9655 3.97321C83.0344 3.97321 83.1024 3.98803 83.1648 4.01737C83.2166 4.06189 83.2564 4.11849 83.2816 4.182C83.3052 4.24243 83.3052 4.30971 83.2816 4.37014C83.1409 4.72256 83.0238 5.0984 82.883 5.47432C82.7542 5.83886 82.5815 6.18594 82.3677 6.50795L81.8981 7.40104ZM82.2268 0.634277H82.7662H83.4465C83.6379 0.652495 83.8261 0.692008 84.0089 0.751865V1.73846C83.9922 2.12831 83.929 2.51476 83.821 2.88967C83.7272 3.29692 83.6343 3.67278 83.5404 4.01737C83.5004 4.07392 83.4469 4.12069 83.3858 4.15332C83.3248 4.18594 83.2569 4.2037 83.1877 4.20551C83.1202 4.2083 83.0531 4.19455 82.9918 4.16594C82.9306 4.13732 82.8773 4.0945 82.8361 4.04089C82.7188 3.68847 82.6247 3.3126 82.5074 2.91319C82.3919 2.53914 82.3214 2.15273 82.2967 1.76198L82.2268 0.634277ZM85.9089 6.29629C85.8221 6.46014 85.7025 6.60456 85.5573 6.7196C85.3956 6.86559 85.2226 6.99892 85.0408 7.11883C84.8762 7.21917 84.7042 7.30587 84.5254 7.37752L83.9619 6.55498C83.733 6.23463 83.5445 5.88761 83.3996 5.52135L83.001 4.44069C82.9964 4.36945 83.0079 4.29788 83.0365 4.23247C83.0651 4.16706 83.1094 4.10935 83.1648 4.06441H83.3286C83.4052 4.04222 83.4867 4.04222 83.5633 4.06441L84.4784 4.76936C84.7916 5.00083 85.0685 5.27825 85.2996 5.59191L85.9089 6.29629ZM86.1196 2.13768C86.2556 2.26907 86.3607 2.43023 86.4254 2.60804C86.5202 2.81051 86.5907 3.02346 86.6361 3.24244C86.6792 3.42792 86.6792 3.6208 86.6361 3.80629L85.6741 4.08793C85.3114 4.21114 84.9312 4.2748 84.5483 4.27607H83.3996C83.3288 4.25935 83.2629 4.22451 83.2095 4.17511C83.156 4.12572 83.1161 4.06317 83.0938 3.99385C83.0665 3.93497 83.0525 3.87121 83.0525 3.80629C83.0525 3.74136 83.0665 3.67704 83.0938 3.61815L84.0558 2.96023C84.3795 2.74364 84.7254 2.56253 85.0877 2.4199L86.1196 2.13768Z" fill="#282828"/>
    <path d="M96.5135 0H96.6303L98.6483 0.399226L98.3196 2.18484C98.3196 2.3963 98.3201 2.60773 98.2028 2.74869C98.0855 2.88966 98.2028 3.10111 98.2028 3.33606L97.1938 8.6694C97.1938 8.85735 97.1938 9.0223 97.1938 9.16327C97.1938 9.30423 97.1943 9.46861 97.077 9.65656L96.7483 11.4657L95.8573 11.3011C95.5193 11.2456 95.2155 11.0602 95.0121 10.7843C94.9173 10.636 94.8566 10.4688 94.8323 10.2944C94.808 10.12 94.8206 9.94219 94.8712 9.77358L96.5135 0ZM101.979 10.5256C101.921 11.0092 101.725 11.466 101.415 11.8414C101.247 11.9783 101.049 12.0712 100.836 12.1121C100.623 12.1531 100.402 12.1412 100.196 12.0766L95.8103 11.2305L96.1619 9.46842L97.053 9.58601L98.0379 9.75063L101.979 10.5256ZM101.58 5.61555C101.604 5.7713 101.604 5.92958 101.58 6.08533C101.596 6.23373 101.596 6.38319 101.58 6.53159C101.58 6.64906 101.58 6.78987 101.58 6.95433C101.58 7.11879 101.462 7.2602 101.415 7.40117L98.6712 6.88378L98.1559 6.76676L97.4756 6.62566L96.8892 6.50807L97.1938 4.76949L97.8031 4.88708H98.4834H98.9999L101.58 5.61555ZM103.362 1.19825C103.375 1.35464 103.375 1.51164 103.362 1.66803V2.06783C103.362 2.1853 103.363 2.34963 103.245 2.51409C103.181 2.68496 103.103 2.84994 103.011 3.00739L99.4683 2.32595H98.9289L98.2727 2.18484L97.6634 2.04431L98.015 0.258694L103.362 1.19825Z" fill="#282828"/>
    <path d="M109.014 9.60983C109.118 9.27955 109.197 8.9414 109.249 8.59914C109.296 8.32716 109.254 8.04758 109.131 7.80069C109.059 7.68219 108.963 7.57914 108.851 7.4984C108.738 7.41767 108.61 7.36102 108.475 7.33091C108.273 7.26294 108.055 7.25785 107.85 7.31657C107.644 7.37529 107.461 7.49481 107.325 7.65958C106.899 8.21051 106.589 8.84184 106.411 9.51576C106.151 10.1556 106.077 10.856 106.199 11.536C106.27 11.7595 106.396 11.9623 106.563 12.1262C106.731 12.2901 106.936 12.4103 107.161 12.4761C107.502 12.5457 107.853 12.5457 108.193 12.4761C108.535 12.4254 108.873 12.3466 109.202 12.2409C109.366 12.4317 109.486 12.6564 109.554 12.8988C109.597 13.1555 109.597 13.4177 109.554 13.6744C109.062 13.9166 108.529 14.0601 107.982 14.0971C107.397 14.1522 106.806 14.0881 106.246 13.909C105.735 13.7522 105.264 13.4882 104.863 13.134C104.517 12.8031 104.26 12.3913 104.113 11.9358C103.945 11.4614 103.872 10.9579 103.901 10.4553C103.938 9.88167 104.04 9.3142 104.205 8.76377C104.396 8.11393 104.699 7.5019 105.097 6.95463C105.412 6.52252 105.82 6.16891 106.293 5.921C106.696 5.69626 107.146 5.56783 107.607 5.54529C108.051 5.5158 108.497 5.57121 108.92 5.70934C109.341 5.83774 109.738 6.03631 110.093 6.29671C110.392 6.53092 110.646 6.81774 110.843 7.14277C111.008 7.45047 111.12 7.78405 111.172 8.12936C111.245 8.46214 111.245 8.80727 111.172 9.14005C111.137 9.28602 111.074 9.4234 110.985 9.54444C110.897 9.66547 110.784 9.76725 110.655 9.84443C110.384 9.95175 110.083 9.95175 109.811 9.84443L109.366 9.68038L109.014 9.60983Z" fill="#282828"/>
    <path d="M119.006 14.4962C118.713 15.2139 118.274 15.8624 117.716 16.3994C117.225 16.8526 116.614 17.1547 115.957 17.269C115.249 17.3541 114.532 17.2313 113.893 16.9162C113.232 16.6433 112.662 16.1873 112.251 15.601C111.919 15.0225 111.749 14.3649 111.758 13.6978C111.785 12.8845 111.977 12.0853 112.322 11.3483C112.626 10.644 113.064 10.0055 113.611 9.46862C114.105 9.01979 114.714 8.71835 115.37 8.59904C116.075 8.53757 116.785 8.65911 117.43 8.95123C118.074 9.24335 118.633 9.69672 119.052 10.2676C119.403 10.8394 119.583 11.4995 119.569 12.1703C119.545 12.9765 119.353 13.7687 119.006 14.4962ZM114.314 12.3819C114.121 12.7878 113.972 13.2132 113.869 13.6507C113.785 14.0061 113.785 14.376 113.869 14.7314C114 15.0504 114.248 15.3066 114.563 15.4467C114.878 15.5867 115.234 15.6 115.558 15.4834C115.883 15.3148 116.158 15.0635 116.355 14.7549C116.603 14.3884 116.823 14.0036 117.013 13.6037C117.188 13.1933 117.329 12.7688 117.434 12.3349C117.528 11.9807 117.528 11.6084 117.434 11.2542C117.383 11.0895 117.295 10.9386 117.178 10.8126C117.06 10.6865 116.915 10.5883 116.754 10.5258C116.596 10.4506 116.424 10.4116 116.25 10.4116C116.075 10.4116 115.904 10.4506 115.746 10.5258C115.424 10.6899 115.155 10.9427 114.972 11.2542C114.717 11.6036 114.504 11.9822 114.339 12.3819H114.314Z" fill="#282828"/>
    <path d="M124.187 12.6168C124.348 12.6978 124.486 12.8173 124.588 12.965C124.691 13.1127 124.754 13.2836 124.774 13.4623C124.776 13.8656 124.653 14.2596 124.422 14.59L120.928 20.2996L120.482 20.088C120.308 20.0217 120.142 19.9347 119.989 19.8293L119.52 19.5006C119.372 19.4102 119.23 19.3077 119.098 19.1949L123.343 12.1465H123.484L124.187 12.6168ZM125.877 21.0981C125.723 21.3419 125.597 21.6021 125.501 21.8736C125.409 22.1054 125.361 22.3526 125.36 22.6021C125.136 22.6483 124.904 22.6483 124.68 22.6021C124.43 22.5535 124.191 22.4575 123.977 22.3199C123.823 22.2544 123.69 22.1514 123.587 22.0199C123.485 21.8884 123.416 21.7326 123.39 21.5679C123.383 21.2147 123.49 20.8689 123.695 20.5813L125.689 17.3158C125.891 17.0307 126.021 16.6994 126.064 16.3521C126.064 16.1172 125.947 15.9057 125.642 15.7412C125.426 15.6097 125.188 15.5222 124.939 15.4831C124.628 15.4365 124.312 15.4365 124.001 15.4831C123.651 15.5545 123.316 15.6897 123.015 15.8823L124.048 14.2143C124.583 14.0719 125.135 14.0006 125.689 14.0027C126.259 14.0005 126.818 14.1554 127.307 14.4495C127.693 14.6855 128.002 15.028 128.198 15.4361C128.317 15.8347 128.317 16.2593 128.198 16.6579C128.112 17.1438 127.928 17.6069 127.659 18.0202L125.877 21.0981Z" fill="#282828"/>
    <path d="M134.837 25.2571C134.367 25.8719 133.777 26.384 133.101 26.7611C132.515 27.0848 131.844 27.2238 131.177 27.1603C130.475 27.0861 129.814 26.799 129.279 26.3377C128.706 25.9041 128.267 25.318 128.012 24.6462C127.824 24.0018 127.824 23.3174 128.012 22.673C128.236 21.9351 128.602 21.2482 129.091 20.6522C129.562 20.0454 130.152 19.5414 130.826 19.1717C131.401 18.8389 132.064 18.6914 132.726 18.749C133.429 18.8566 134.093 19.148 134.649 19.5933C135.205 20.0387 135.633 20.6226 135.892 21.2866C136.092 21.9212 136.092 22.6022 135.892 23.2369C135.686 23.9769 135.325 24.6649 134.837 25.2571ZM130.826 22.0386C130.536 22.3863 130.284 22.7643 130.076 23.1663C129.898 23.4825 129.802 23.8374 129.794 24.1999C129.805 24.3726 129.856 24.5404 129.942 24.6909C130.027 24.8414 130.144 24.9704 130.286 25.0689C130.416 25.1771 130.566 25.2579 130.727 25.3064C130.889 25.3549 131.057 25.3702 131.224 25.3511C131.586 25.2695 131.919 25.0909 132.186 24.8343C132.526 24.5481 132.833 24.2246 133.101 23.8707C133.383 23.5252 133.634 23.1558 133.852 22.7665C134.027 22.4412 134.124 22.0791 134.133 21.7094C134.116 21.5382 134.062 21.3726 133.978 21.2229C133.893 21.0733 133.778 20.9433 133.641 20.8404C133.514 20.7297 133.363 20.6488 133.201 20.604C133.039 20.5593 132.869 20.5517 132.703 20.5817C132.343 20.6543 132.01 20.825 131.741 21.075C131.401 21.3609 131.094 21.6844 130.826 22.0386Z" fill="#282828"/>
    <path d="M140.537 24.7402C140.666 24.8614 140.763 25.0127 140.821 25.1807C140.878 25.3487 140.894 25.528 140.865 25.7033C140.76 26.0895 140.539 26.4344 140.232 26.6904L135.306 31.2248C135.166 31.1235 135.033 31.0139 134.908 30.8961L134.532 30.4963L134.156 30.0735L133.852 29.6508L139.833 24.1528H139.997L140.537 24.7402ZM140.537 29.4391C140.825 29.2202 141.038 28.916 141.146 28.5696C141.16 28.4511 141.149 28.331 141.113 28.2174C141.076 28.1038 141.016 28 140.935 27.9122C140.728 27.7105 140.468 27.5716 140.185 27.5124C139.849 27.4164 139.502 27.3693 139.153 27.3719C138.818 27.396 138.487 27.4587 138.167 27.5594L139.599 26.2436C140.005 26.2204 140.412 26.2204 140.818 26.2436C141.215 26.284 141.602 26.3874 141.967 26.5493C142.327 26.6809 142.649 26.8987 142.905 27.1837C143.205 27.4827 143.403 27.8693 143.468 28.2879C143.524 28.6895 143.458 29.0984 143.281 29.4627C143.104 29.8811 142.831 30.2515 142.484 30.5433L138.261 34.4203L137.886 34.091L137.488 33.6918L137.112 33.2685L136.808 32.8457L140.537 29.4391ZM143.538 32.7046C143.833 32.486 144.041 32.1699 144.125 31.8121C144.139 31.6973 144.128 31.5806 144.091 31.4708C144.055 31.3611 143.994 31.261 143.914 31.1777C143.722 30.9681 143.466 30.8278 143.187 30.7785C142.845 30.7169 142.496 30.7169 142.155 30.7785C141.789 30.7835 141.426 30.8384 141.076 30.9425L142.647 29.5097C143.045 29.463 143.447 29.463 143.844 29.5097C144.24 29.5924 144.625 29.7183 144.993 29.8854C145.349 30.0349 145.669 30.2593 145.931 30.5433C146.221 30.8553 146.409 31.2488 146.47 31.671C146.512 32.0647 146.448 32.4623 146.284 32.8222C146.077 33.2291 145.799 33.5952 145.462 33.9029L142.671 36.464C142.457 36.6574 142.261 36.8698 142.085 37.0984C141.931 37.3047 141.811 37.535 141.732 37.7799C141.511 37.7455 141.297 37.6738 141.099 37.5682C140.866 37.4543 140.659 37.2946 140.49 37.0984C140.366 36.9868 140.27 36.8483 140.209 36.6935C140.148 36.5386 140.124 36.3712 140.138 36.2053C140.244 35.87 140.438 35.5699 140.7 35.3363L143.538 32.7046Z" fill="#282828"/>
    <path d="M144.055 41.962L143.726 41.5857L143.375 41.1394L143.07 40.6697L142.812 40.1999L147.504 36.8868C147.706 36.7805 147.864 36.6057 147.949 36.3935C147.981 36.2898 147.987 36.18 147.966 36.0734C147.946 35.9668 147.899 35.8668 147.831 35.7826L147.69 35.595C147.853 35.4124 148.033 35.2465 148.23 35.1011L148.582 34.8901L148.934 34.7019L149.38 35.2422C149.501 35.3822 149.611 35.5313 149.708 35.6885L149.895 35.9237C150.144 36.2788 150.245 36.717 150.177 37.1454C150.056 37.5873 149.771 37.9657 149.38 38.2026L144.055 41.962ZM151.092 33.7859C151.326 33.6065 151.599 33.4854 151.889 33.4331C152.039 33.4998 152.174 33.5959 152.287 33.7153C152.433 33.8521 152.567 34.0013 152.687 34.1616C152.807 34.3305 152.909 34.5116 152.992 34.7019C153.051 34.8547 153.098 35.0117 153.133 35.1717C153.053 35.3002 152.959 35.4189 152.851 35.5245C152.753 35.6316 152.643 35.726 152.522 35.8061C152.283 35.9761 152.012 36.0963 151.725 36.1589C151.577 36.0784 151.443 35.9751 151.326 35.8531C151.175 35.722 151.041 35.5721 150.928 35.4069C150.807 35.2509 150.712 35.0764 150.646 34.8901C150.566 34.7454 150.518 34.5852 150.505 34.4203C150.623 34.1697 150.801 33.9518 151.022 33.7859H151.092Z" fill="#282828"/>
    <path d="M151.751 45.3683C152.047 45.2023 152.33 45.0139 152.596 44.8044C152.817 44.6338 152.974 44.3937 153.042 44.123C153.075 43.9859 153.076 43.8434 153.048 43.7054C153.019 43.5674 152.961 43.437 152.877 43.324C152.777 43.1382 152.622 42.9888 152.433 42.8961C152.243 42.8034 152.03 42.7721 151.822 42.8072C151.128 42.9191 150.465 43.1753 149.875 43.5591C149.251 43.8538 148.728 44.3284 148.374 44.922C148.259 45.1264 148.198 45.3568 148.198 45.5914C148.198 45.826 148.259 46.0565 148.374 46.2608C148.538 46.5694 148.781 46.829 149.078 47.0128C149.356 47.2161 149.655 47.3893 149.969 47.5296C149.956 47.7751 149.892 48.0153 149.781 48.2346C149.676 48.4732 149.524 48.6887 149.336 48.869C148.803 48.737 148.306 48.4881 147.881 48.1405C147.409 47.789 147.018 47.3403 146.733 46.8247C146.447 46.3719 146.278 45.8555 146.24 45.3212C146.201 44.8468 146.281 44.37 146.474 43.9349C146.672 43.4688 146.959 43.0458 147.319 42.6896C147.723 42.2846 148.181 41.9369 148.68 41.6559C149.258 41.3013 149.892 41.047 150.555 40.904C151.073 40.7853 151.61 40.7853 152.127 40.904C152.573 41.0157 152.989 41.2243 153.347 41.5148C153.69 41.7915 153.984 42.1257 154.215 42.502C154.438 42.8884 154.596 43.3092 154.683 43.7473C154.766 44.1186 154.766 44.5037 154.683 44.875C154.621 45.2137 154.485 45.5344 154.285 45.8145C154.082 46.0891 153.827 46.3208 153.534 46.496C153.409 46.5834 153.268 46.645 153.119 46.6772C152.97 46.7095 152.816 46.712 152.666 46.6841C152.398 46.5729 152.175 46.3743 152.033 46.1203C152.033 45.9793 151.869 45.8379 151.822 45.7205C151.791 45.6047 151.767 45.4872 151.751 45.3683Z" fill="#282828"/>
    <path d="M149.685 50.3255C150.205 50.1687 150.76 50.1687 151.28 50.3255C151.257 50.7324 151.257 51.1403 151.28 51.5473C151.302 51.9528 151.397 52.351 151.562 52.722C151.679 53.0056 151.874 53.2501 152.125 53.4269C152.224 53.4847 152.338 53.5153 152.453 53.5153C152.569 53.5153 152.682 53.4847 152.782 53.4269C152.871 53.3875 152.95 53.3295 153.014 53.2566C153.079 53.1836 153.128 53.0975 153.156 53.0042C153.25 52.7653 153.291 52.5084 153.274 52.2522V51.2421C153.227 50.852 153.227 50.4575 153.274 50.0674C153.341 49.7114 153.485 49.3747 153.696 49.0808C153.931 48.7762 154.237 48.5341 154.587 48.3758C155.025 48.169 155.517 48.1032 155.994 48.1877C156.458 48.2693 156.89 48.4811 157.238 48.7986C157.642 49.1735 157.961 49.6301 158.176 50.1379C158.375 50.6045 158.518 51.0934 158.599 51.5943C158.708 52.0559 158.754 52.5301 158.739 53.0042C158.568 53.0866 158.386 53.1423 158.199 53.1688C157.997 53.2039 157.792 53.2039 157.59 53.1688C157.428 53.2069 157.259 53.2069 157.097 53.1688C157.119 52.7932 157.119 52.4167 157.097 52.0411C157.057 51.6361 156.954 51.2399 156.793 50.8664C156.754 50.7524 156.692 50.6473 156.612 50.5584C156.531 50.4694 156.433 50.398 156.323 50.349C156.235 50.3088 156.138 50.2882 156.041 50.2882C155.944 50.2882 155.848 50.3088 155.76 50.349C155.677 50.3822 155.604 50.4332 155.543 50.4981C155.482 50.5631 155.436 50.6407 155.408 50.7253C155.367 50.9505 155.367 51.1815 155.408 51.4067V52.4874C155.467 53.0927 155.387 53.7037 155.173 54.273C155.046 54.5788 154.857 54.8541 154.617 55.0812C154.376 55.3083 154.089 55.4819 153.777 55.5906C153.465 55.6993 153.134 55.7409 152.805 55.7122C152.475 55.6834 152.156 55.5853 151.867 55.4242C151.112 54.9608 150.534 54.2576 150.225 53.4269C150.004 52.9174 149.854 52.3799 149.779 51.8295C149.698 51.3327 149.666 50.8286 149.685 50.3255Z" fill="#282828"/>
    <path d="M157.285 64.4926C157.3 64.308 157.339 64.1262 157.402 63.9523C157.453 63.7357 157.54 63.5292 157.66 63.3414C157.733 63.1682 157.837 63.0093 157.965 62.8716L158.879 63.2708C159.228 63.4484 159.558 63.661 159.864 63.9052L160.756 64.6337C160.789 64.6951 160.806 64.7636 160.806 64.8333C160.806 64.903 160.789 64.9715 160.756 65.0329L160.639 65.1975C160.577 65.2102 160.513 65.2102 160.451 65.1975L159.302 65.0329C158.908 64.9919 158.521 64.8974 158.152 64.7513L157.285 64.4926ZM159.208 68.2049C159.04 68.1414 158.882 68.0541 158.739 67.9462L158.223 67.5C158.083 67.3707 157.965 67.2202 157.872 67.0537L158.552 66.3252C158.812 66.0332 159.111 65.7799 159.443 65.5733L160.405 64.9394C160.467 64.9101 160.535 64.8947 160.604 64.8947C160.673 64.8947 160.741 64.9101 160.803 64.9394L160.92 65.08C160.933 65.1578 160.933 65.2373 160.92 65.3151C160.78 65.6441 160.592 65.9963 160.428 66.3488C160.255 66.701 160.043 67.0319 159.794 67.3354L159.208 68.2049ZM160.217 61.5087C160.396 61.4776 160.578 61.4776 160.756 61.5087C160.983 61.4856 161.211 61.4856 161.437 61.5087C161.623 61.5391 161.805 61.5946 161.976 61.6733L161.858 62.6599C161.809 63.0456 161.715 63.4246 161.578 63.7882C161.413 64.1876 161.296 64.54 161.155 64.8924C161.06 64.9824 160.934 65.0323 160.803 65.0329C160.743 65.0565 160.676 65.0565 160.616 65.0329C160.58 65.0208 160.548 64.9993 160.523 64.9704C160.498 64.9414 160.481 64.9064 160.475 64.8689C160.475 64.5164 160.31 64.1406 160.24 63.7412C160.195 63.3588 160.195 62.9724 160.24 62.59L160.217 61.5087ZM163.313 67.5235C163.203 67.6712 163.068 67.7988 162.914 67.8998C162.741 68.0391 162.552 68.1571 162.351 68.252C162.185 68.3492 162.002 68.4132 161.811 68.4401L161.319 67.5705C161.126 67.2328 160.985 66.8688 160.897 66.4899C160.78 66.0905 160.686 65.7146 160.616 65.3857C160.611 65.3152 160.626 65.2444 160.659 65.1821C160.692 65.1197 160.742 65.0681 160.803 65.0329C160.924 64.9833 161.058 64.9833 161.178 65.0329L162.023 65.8555C162.318 66.1126 162.57 66.4135 162.773 66.748L163.313 67.5235ZM163.946 63.3884C164.052 63.5384 164.131 63.7051 164.181 63.8817C164.258 64.1029 164.312 64.3312 164.345 64.5631C164.367 64.7504 164.367 64.9397 164.345 65.127L163.383 65.3151C162.993 65.3643 162.599 65.3643 162.21 65.3151H161.061C160.996 65.2895 160.939 65.248 160.894 65.1947C160.849 65.1414 160.818 65.0777 160.803 65.0094C160.777 64.9462 160.763 64.8784 160.763 64.8098C160.763 64.7412 160.777 64.6734 160.803 64.6102L161.811 64.0698C162.151 63.8766 162.513 63.7268 162.89 63.6236L163.946 63.3884Z" fill="#282828"/>
    <path d="M167.627 77.3208H167.745V79.3886H165.938H164.766L159.347 79.5297H158.338H156.509V78.7777C156.494 78.6085 156.512 78.438 156.564 78.2764C156.617 78.1148 156.702 77.9657 156.814 77.8382C156.943 77.7179 157.094 77.6245 157.26 77.564C157.425 77.5035 157.6 77.4767 157.776 77.4854L167.627 77.3208ZM158.55 84.8866C158.066 84.9364 157.578 84.8465 157.143 84.6279C156.97 84.4988 156.834 84.3271 156.748 84.1294C156.661 83.9317 156.628 83.7148 156.65 83.5002L156.532 79.0364H158.316V79.929C158.316 80.2109 158.316 80.5396 158.316 80.9156L158.55 84.8866ZM163.241 83.4767H162.772H162.326H161.904H161.435V80.681C161.421 80.5089 161.421 80.3361 161.435 80.1641V79.4592C161.423 79.2557 161.423 79.0517 161.435 78.8483H163.17C163.17 79.0128 163.17 79.2242 163.17 79.4592C163.158 79.6861 163.158 79.9137 163.17 80.1406C163.156 80.3205 163.156 80.5011 163.17 80.681L163.241 83.4767ZM167.932 84.2992H167.463H166.595H166.055V80.681V78.7777H167.861L167.932 84.2992Z" fill="#282828"/>
    <path d="M157.779 94.0256C157.498 93.991 157.214 93.991 156.933 94.0256C156.675 94.049 156.422 94.1126 156.183 94.2138C156.075 94.0204 155.989 93.8155 155.926 93.6029C155.879 93.3465 155.879 93.0837 155.926 92.8274C155.924 92.6605 155.965 92.496 156.042 92.3484C156.12 92.2008 156.233 92.075 156.371 91.9819C156.683 91.8274 157.038 91.7778 157.38 91.8408L161.179 92.24C161.519 92.3167 161.871 92.3167 162.211 92.24C162.329 92.1775 162.428 92.0824 162.495 91.9658C162.561 91.8493 162.593 91.7161 162.587 91.5821C162.64 91.3343 162.64 91.0779 162.587 90.8301C162.509 90.5325 162.373 90.2534 162.188 90.0081C161.971 89.7249 161.71 89.4787 161.414 89.2796L163.361 89.4913C163.709 89.927 164.007 90.3994 164.252 90.9006C164.488 91.4145 164.586 91.9823 164.534 92.5457C164.494 92.9971 164.313 93.4239 164.017 93.7669C163.736 94.0787 163.369 94.2996 162.962 94.4013C162.474 94.4976 161.973 94.4976 161.485 94.4013L157.779 94.0256ZM164.697 88.8569C164.693 89.0313 164.647 89.202 164.561 89.3536C164.475 89.5053 164.352 89.6329 164.205 89.7259C163.842 89.9064 163.433 89.9722 163.032 89.914L156.371 89.2091V88.6923C156.36 88.5045 156.36 88.3162 156.371 88.1284C156.348 87.949 156.348 87.7675 156.371 87.5881C156.391 87.4119 156.43 87.2386 156.488 87.0713L164.58 87.9168V88.0344L164.697 88.8569Z" fill="#282828"/>
    <path d="M164.531 98.6073C164.893 98.6586 165.23 98.8229 165.493 99.0771C165.562 99.2241 165.597 99.385 165.597 99.5474C165.597 99.7098 165.562 99.8702 165.493 100.017L165.328 100.839H165.187L157.166 99.1006C156.982 99.0495 156.788 99.0495 156.603 99.1006C156.519 99.1553 156.449 99.2281 156.396 99.3134C156.343 99.3987 156.31 99.4948 156.299 99.5944L156.064 100.605C155.715 100.673 155.357 100.673 155.008 100.605H154.773H154.563C154.563 100.323 154.562 99.9933 154.679 99.6409C154.797 99.2885 154.68 98.9597 154.844 98.6308C154.867 98.3625 154.951 98.1031 155.09 97.8731C155.23 97.643 155.421 97.4487 155.648 97.3052C155.876 97.1617 156.133 97.0733 156.401 97.0465C156.668 97.0197 156.938 97.0554 157.19 97.1509L164.531 98.6073ZM162.537 102.367C162.287 102.391 162.036 102.391 161.787 102.367C161.527 102.313 161.274 102.226 161.036 102.108L161.693 99.2887L162.163 96.9392C162.427 96.9063 162.695 96.9063 162.96 96.9392L163.687 97.1744L163.101 99.5239L162.537 102.367Z" fill="#282828"/>
    <path d="M161.036 103.752C161.229 103.875 161.404 104.026 161.553 104.199C161.71 104.359 161.829 104.551 161.905 104.763C161.796 105.034 161.632 105.278 161.421 105.481C161.211 105.683 160.959 105.839 160.685 105.937C160.062 106.104 159.407 106.104 158.785 105.937L153.391 104.269C153.391 104.128 153.391 103.963 153.391 103.776L153.531 103.235C153.584 103.052 153.646 102.871 153.719 102.695L153.93 102.225L159.138 103.823C159.498 103.953 159.882 104.002 160.263 103.964C160.536 103.969 160.804 103.895 161.036 103.752ZM160.357 109.415C160.035 109.315 159.727 109.173 159.442 108.992C159.12 108.811 158.827 108.581 158.574 108.31C158.574 108.193 158.714 108.075 158.785 107.981L158.926 107.629C158.983 107.39 158.983 107.14 158.926 106.901C158.89 106.676 158.81 106.46 158.691 106.266C158.556 106.061 158.399 105.872 158.223 105.702C158.027 105.512 157.815 105.339 157.589 105.185L158.012 105.021C158.409 105.159 158.793 105.332 159.161 105.538C159.529 105.742 159.869 105.995 160.17 106.29C160.443 106.565 160.645 106.904 160.756 107.276C160.872 107.675 160.872 108.099 160.756 108.498C160.756 108.686 160.638 108.851 160.568 108.992L160.357 109.415Z" fill="#282828"/>
    <path d="M154.919 110.307L156.303 110.895L154.943 114.137H155.106C155.384 114.249 155.677 114.32 155.974 114.348C156.235 114.364 156.495 114.308 156.725 114.184C156.96 114.045 157.142 113.829 157.241 113.573C157.336 113.382 157.374 113.166 157.349 112.953C157.324 112.741 157.237 112.54 157.1 112.375C156.701 111.941 156.201 111.61 155.646 111.412L155.037 111.153C154.659 110.996 154.266 110.878 153.864 110.801C153.544 110.691 153.197 110.691 152.878 110.801C152.539 110.982 152.281 111.284 152.152 111.647C152.014 112.01 151.919 112.389 151.87 112.774C151.835 113.15 151.835 113.527 151.87 113.902C151.639 113.996 151.392 114.045 151.143 114.043C150.901 114.07 150.657 114.07 150.415 114.043C150.32 113.515 150.32 112.974 150.415 112.446C150.48 111.863 150.63 111.293 150.861 110.754C151.064 110.202 151.403 109.709 151.846 109.321C152.215 109.004 152.66 108.785 153.136 108.686C153.631 108.581 154.142 108.581 154.637 108.686C155.159 108.781 155.671 108.93 156.162 109.133C156.862 109.425 157.506 109.838 158.062 110.354C158.542 110.806 158.883 111.384 159.047 112.022C159.176 112.73 159.085 113.459 158.788 114.114C158.559 114.71 158.16 115.224 157.64 115.594C157.179 115.942 156.621 116.139 156.044 116.158C155.432 116.195 154.821 116.083 154.262 115.829L153.535 115.5L152.949 115.1L154.919 110.307Z" fill="#282828"/>
    <path d="M155.456 120.786C155.366 120.96 155.237 121.11 155.078 121.225C154.919 121.339 154.736 121.414 154.542 121.444C154.088 121.482 153.633 121.366 153.252 121.115L145.7 116.792C145.278 116.534 145.019 116.299 144.948 116.041C144.911 115.88 144.908 115.712 144.94 115.55C144.973 115.388 145.039 115.234 145.136 115.1L145.535 114.396H145.7L155.738 120.152V120.293L155.456 120.786ZM148.818 124.24C148.082 123.854 147.442 123.307 146.942 122.642C146.573 122.131 146.347 121.531 146.286 120.904C146.243 120.337 146.373 119.772 146.661 119.283C146.907 118.835 147.252 118.449 147.67 118.155C148.072 117.906 148.486 117.678 148.912 117.473L150.132 118.507C149.753 118.663 149.386 118.844 149.03 119.047C148.713 119.228 148.446 119.487 148.256 119.799C148.199 119.925 148.169 120.061 148.169 120.199C148.169 120.336 148.199 120.473 148.256 120.598C148.361 120.928 148.547 121.227 148.795 121.467C149.16 121.801 149.561 122.093 149.991 122.337C150.402 122.583 150.844 122.772 151.305 122.901C151.606 122.972 151.919 122.972 152.22 122.901C152.33 122.869 152.432 122.815 152.521 122.743C152.61 122.67 152.684 122.58 152.736 122.478C152.857 122.254 152.92 122.004 152.923 121.75C152.946 121.418 152.882 121.085 152.736 120.786C152.556 120.35 152.283 119.957 151.938 119.635L153.346 119.917C153.665 120.214 153.92 120.574 154.096 120.974C154.283 121.42 154.379 121.9 154.378 122.384C154.381 122.89 154.243 123.386 153.979 123.817C153.712 124.338 153.26 124.74 152.712 124.945C152.138 125.114 151.527 125.114 150.953 124.945C150.207 124.833 149.485 124.595 148.818 124.24Z" fill="#282828"/>
    <path d="M150.036 127.717C150.173 127.896 150.284 128.094 150.365 128.305C150.468 128.5 150.524 128.718 150.529 128.939C150.338 129.164 150.101 129.343 149.833 129.465C149.566 129.587 149.275 129.648 148.981 129.643C148.338 129.611 147.715 129.409 147.175 129.056L142.625 125.72C142.703 125.567 142.789 125.418 142.883 125.274C142.971 125.116 143.072 124.967 143.187 124.828C143.291 124.669 143.409 124.519 143.539 124.381C143.644 124.237 143.763 124.104 143.892 123.981L148.301 127.2C148.592 127.444 148.938 127.614 149.309 127.694C149.546 127.759 149.795 127.767 150.036 127.717ZM147.55 132.839C147.289 132.632 147.047 132.404 146.824 132.158C146.582 131.876 146.384 131.559 146.237 131.218C146.336 131.138 146.429 131.051 146.518 130.959L146.777 130.678C146.933 130.491 147.03 130.262 147.057 130.02C147.104 129.795 147.104 129.563 147.057 129.338C147.003 129.093 146.916 128.856 146.8 128.633C146.676 128.388 146.535 128.153 146.377 127.928H146.824C147.151 128.194 147.456 128.485 147.738 128.798C148.024 129.104 148.262 129.453 148.442 129.832C148.624 130.178 148.705 130.569 148.677 130.959C148.662 131.382 148.504 131.788 148.23 132.111C148.14 132.252 148.038 132.386 147.925 132.51L147.55 132.839Z" fill="#282828"/>
    <path d="M142.134 131.899L143.26 132.886L140.914 135.517L141.078 135.658C141.284 135.865 141.532 136.025 141.805 136.128C142.049 136.208 142.312 136.208 142.555 136.128C142.695 136.109 142.831 136.062 142.952 135.989C143.073 135.917 143.178 135.82 143.26 135.705C143.408 135.558 143.509 135.37 143.551 135.165C143.592 134.96 143.572 134.747 143.493 134.554C143.267 134.001 142.905 133.516 142.439 133.144L141.946 132.721C141.647 132.441 141.317 132.196 140.961 131.993C140.662 131.822 140.317 131.748 139.975 131.782C139.603 131.861 139.271 132.069 139.037 132.369C138.771 132.655 138.55 132.98 138.381 133.332C138.214 133.67 138.08 134.024 137.982 134.389C137.735 134.396 137.488 134.357 137.255 134.272C137.024 134.199 136.803 134.096 136.598 133.966C136.651 133.434 136.802 132.917 137.043 132.439C137.3 131.915 137.624 131.425 138.005 130.983C138.38 130.525 138.864 130.17 139.413 129.949C139.867 129.767 140.36 129.711 140.843 129.784C141.338 129.864 141.815 130.031 142.251 130.278C142.712 130.546 143.143 130.861 143.54 131.218C144.108 131.704 144.578 132.294 144.925 132.956C145.248 133.544 145.387 134.215 145.324 134.882C145.205 135.548 144.913 136.171 144.476 136.687C144.039 137.203 143.474 137.593 142.837 137.819C142.286 137.984 141.699 137.984 141.148 137.819C140.56 137.653 140.021 137.347 139.577 136.927L139.014 136.363C138.847 136.19 138.698 136.001 138.569 135.799L142.134 131.899Z" fill="#282828"/>
    <path d="M130.571 141.133C130.392 140.913 130.186 140.716 129.96 140.545C129.757 140.387 129.528 140.267 129.281 140.192C129.328 139.971 129.407 139.758 129.515 139.559C129.637 139.33 129.796 139.124 129.984 138.948C130.103 138.828 130.246 138.736 130.405 138.679C130.563 138.622 130.732 138.601 130.9 138.618C131.235 138.722 131.53 138.927 131.744 139.206L134.253 142.096C134.462 142.37 134.737 142.588 135.051 142.73C135.178 142.771 135.313 142.775 135.442 142.741C135.57 142.708 135.687 142.639 135.778 142.542C135.963 142.367 136.114 142.16 136.224 141.931C136.362 141.643 136.449 141.333 136.482 141.015C136.55 140.674 136.55 140.322 136.482 139.981L137.771 141.438C137.74 141.997 137.638 142.55 137.467 143.083C137.298 143.629 136.981 144.116 136.551 144.492C136.225 144.802 135.804 144.993 135.356 145.032C134.932 145.073 134.507 144.983 134.136 144.774C133.703 144.538 133.32 144.219 133.01 143.834L130.571 141.133ZM139.156 142.072C139.031 142.195 138.878 142.286 138.71 142.335C138.542 142.384 138.365 142.391 138.194 142.354C137.807 142.252 137.467 142.02 137.232 141.696L132.822 136.645L133.151 136.269L133.573 135.893L133.995 135.541L134.418 135.235L139.789 141.367V141.532L139.156 142.072Z" fill="#282828"/>
    <path d="M128.505 144.563L129.349 145.785L126.44 147.782L126.558 147.946C126.716 148.189 126.914 148.404 127.144 148.58C127.357 148.738 127.608 148.836 127.871 148.863C128.149 148.881 128.424 148.797 128.645 148.627C128.828 148.518 128.974 148.357 129.066 148.165C129.158 147.973 129.191 147.758 129.161 147.547C129.08 146.963 128.845 146.412 128.48 145.949L128.106 145.409C127.885 145.067 127.625 144.751 127.332 144.469C127.08 144.229 126.76 144.074 126.417 144.023C126.036 143.998 125.66 144.115 125.361 144.351C125.034 144.564 124.742 144.826 124.494 145.127C124.259 145.409 124.047 145.737 123.836 146.043C123.596 145.985 123.367 145.89 123.156 145.761C122.96 145.624 122.772 145.475 122.594 145.315C122.791 144.811 123.068 144.343 123.415 143.929C123.787 143.478 124.221 143.082 124.704 142.754C125.187 142.414 125.74 142.189 126.323 142.096C126.808 142.027 127.302 142.092 127.753 142.284C128.21 142.474 128.625 142.754 128.973 143.106C129.36 143.475 129.705 143.885 130.005 144.328C130.441 144.945 130.76 145.639 130.944 146.372C131.13 147.041 131.087 147.753 130.824 148.396C130.56 149.038 130.091 149.574 129.489 149.92C128.975 150.294 128.365 150.514 127.73 150.554C127.157 150.576 126.588 150.437 126.088 150.154C125.564 149.842 125.115 149.417 124.774 148.91L124.353 148.228C124.353 148.04 124.165 147.805 124.071 147.57L128.505 144.563Z" fill="#282828"/>
    <path d="M115.274 151.023C115.151 150.782 114.992 150.561 114.805 150.365C114.652 150.199 114.458 150.077 114.242 150.013C114.206 149.796 114.206 149.573 114.242 149.355C114.27 149.135 114.333 148.921 114.43 148.721C114.678 148.599 114.951 148.535 115.227 148.535C115.504 148.535 115.776 148.599 116.024 148.721C116.518 148.997 116.919 149.414 117.174 149.919L119.871 155.229L119.449 155.511L118.956 155.793L118.441 156.027C118.291 156.099 118.133 156.154 117.971 156.192L115.274 151.023ZM123.085 151.446C123.209 151.703 123.358 151.947 123.531 152.175C123.695 152.371 123.883 152.545 124.093 152.691C124.015 152.9 123.886 153.086 123.718 153.232C123.547 153.426 123.339 153.586 123.108 153.702C122.964 153.78 122.803 153.821 122.64 153.821C122.476 153.821 122.314 153.78 122.17 153.702C121.859 153.532 121.618 153.257 121.49 152.927L119.731 149.52C119.601 149.198 119.392 148.915 119.121 148.697C119.008 148.629 118.878 148.593 118.746 148.593C118.613 148.593 118.483 148.629 118.37 148.697C118.151 148.812 117.959 148.972 117.808 149.167C117.611 149.407 117.452 149.677 117.338 149.966C117.204 150.294 117.14 150.646 117.15 151L116.259 149.285C116.417 148.748 116.646 148.235 116.94 147.758C117.239 147.266 117.67 146.867 118.183 146.607C118.571 146.398 119.013 146.316 119.449 146.371C119.872 146.442 120.264 146.638 120.575 146.935C120.931 147.272 121.225 147.67 121.443 148.11L123.085 151.446Z" fill="#282828"/>
    <path d="M109.856 159.412C109.742 159.1 109.663 158.777 109.621 158.448C109.574 158.074 109.574 157.695 109.621 157.32H110.02H110.395C110.624 157.244 110.826 157.106 110.982 156.921C111.147 156.758 111.268 156.556 111.333 156.334C111.429 156.102 111.485 155.856 111.498 155.605C111.522 155.339 111.522 155.072 111.498 154.807L111.873 155.041C112.013 155.446 112.116 155.863 112.178 156.287C112.237 156.7 112.237 157.119 112.178 157.532C112.126 157.914 111.981 158.277 111.756 158.589C111.508 158.921 111.164 159.167 110.771 159.294L110.278 159.459L109.856 159.412ZM114.735 156.498C114.768 156.724 114.768 156.954 114.735 157.18C114.701 157.394 114.629 157.6 114.524 157.79C114.24 157.869 113.942 157.887 113.651 157.842C113.36 157.798 113.082 157.692 112.835 157.532C112.314 157.147 111.908 156.627 111.662 156.028L109.668 150.765L110.114 150.531C110.277 150.44 110.45 150.369 110.63 150.319L111.169 150.131H111.662L113.609 155.23C113.723 155.594 113.925 155.924 114.195 156.193C114.354 156.328 114.537 156.432 114.735 156.498Z" fill="#282828"/>
    <path d="M106.364 152.598C106.409 152.862 106.409 153.133 106.364 153.397C106.32 153.665 106.241 153.926 106.129 154.172C105.726 154.085 105.319 154.022 104.909 153.984C104.513 153.915 104.108 153.915 103.712 153.984C103.406 154.043 103.126 154.2 102.915 154.43C102.839 154.51 102.785 154.609 102.761 154.717C102.736 154.824 102.74 154.936 102.774 155.041C102.817 155.235 102.936 155.404 103.103 155.511C103.333 155.64 103.59 155.713 103.853 155.723H104.862C105.244 155.762 105.622 155.841 105.988 155.958C106.35 156.061 106.678 156.259 106.937 156.532C107.197 156.804 107.379 157.142 107.465 157.508C107.607 157.976 107.607 158.475 107.465 158.942C107.312 159.392 107.036 159.791 106.668 160.093C106.236 160.424 105.741 160.664 105.214 160.797C104.718 160.942 104.205 161.013 103.689 161.009C103.222 161.061 102.75 161.061 102.282 161.009C102.256 160.822 102.256 160.632 102.282 160.445C102.259 160.242 102.259 160.037 102.282 159.834C102.323 159.666 102.394 159.507 102.493 159.365C102.865 159.431 103.241 159.47 103.618 159.482C104.022 159.493 104.425 159.446 104.815 159.341C104.933 159.321 105.045 159.277 105.146 159.213C105.247 159.148 105.334 159.064 105.402 158.965C105.447 158.878 105.47 158.781 105.47 158.683C105.47 158.585 105.447 158.488 105.402 158.401C105.387 158.315 105.352 158.234 105.299 158.164C105.245 158.094 105.176 158.039 105.097 158.002C104.885 157.897 104.653 157.841 104.417 157.837H103.338C102.737 157.786 102.154 157.61 101.626 157.32C101.366 157.172 101.14 156.97 100.966 156.727C100.792 156.483 100.673 156.205 100.617 155.911C100.51 155.564 100.491 155.195 100.561 154.839C100.63 154.482 100.786 154.148 101.015 153.867C101.577 153.198 102.345 152.735 103.197 152.551C103.74 152.409 104.301 152.346 104.862 152.363C105.37 152.383 105.874 152.461 106.364 152.598Z" fill="#282828"/>
    <path d="M91.8213 156.968C91.7863 156.688 91.7232 156.412 91.6335 156.145C91.5514 155.904 91.4237 155.681 91.2578 155.487C91.4116 155.316 91.5953 155.173 91.7984 155.065C92.0238 154.941 92.2695 154.862 92.5245 154.83C92.6861 154.784 92.8566 154.779 93.0204 154.816C93.1842 154.853 93.3372 154.93 93.4636 155.041C93.6874 155.307 93.8262 155.635 93.8622 155.981L94.4245 159.763C94.445 160.116 94.5586 160.456 94.7532 160.75C94.8417 160.851 94.9576 160.925 95.0865 160.962C95.2153 161 95.3517 161 95.4804 160.962C95.7193 160.9 95.9483 160.806 96.1607 160.68C96.7331 160.335 97.1583 159.791 97.3564 159.153L97.6381 161.079C97.3219 161.53 96.9512 161.941 96.5352 162.301C96.0869 162.659 95.5542 162.894 94.988 162.983C94.5595 163.059 94.1176 162.998 93.7259 162.808C93.3341 162.618 93.0121 162.309 92.8062 161.925C92.5743 161.486 92.4235 161.008 92.3607 160.515L91.8213 156.968ZM96.1367 154.407C96.4748 154.304 96.8195 154.226 97.1686 154.172C97.5118 154.139 97.8584 154.139 98.2016 154.172L99.9608 166.036L99.1155 166.154C98.9564 166.194 98.7904 166.2 98.6288 166.172C98.4672 166.143 98.3138 166.082 98.1776 165.99C97.9408 165.723 97.8006 165.383 97.779 165.026L96.1367 154.407Z" fill="#282828"/>
    <path d="M86.4961 155.371H87.0126H87.5749H88.6538L88.9355 161.103C88.9379 161.335 89.0029 161.563 89.1234 161.761C89.1971 161.84 89.2899 161.898 89.3925 161.931C89.4951 161.964 89.6041 161.97 89.7097 161.949H89.9445C90.0195 162.184 90.0586 162.43 90.0613 162.677V163.076C90.0715 163.209 90.0715 163.343 90.0613 163.476H89.381H88.5129C88.304 163.495 88.0938 163.469 87.8956 163.4C87.6975 163.332 87.5165 163.221 87.3642 163.076C87.204 162.912 87.0777 162.717 86.9931 162.503C86.9086 162.29 86.8676 162.062 86.8717 161.832L86.4961 155.371ZM89.6628 165.637C89.6848 165.932 89.6441 166.229 89.5448 166.507C89.387 166.585 89.2222 166.648 89.0523 166.695H88.49C88.2874 166.717 88.0822 166.717 87.8796 166.695C87.714 166.687 87.5536 166.639 87.4112 166.554C87.3425 166.427 87.2867 166.293 87.2462 166.154V165.708C87.241 165.42 87.2888 165.133 87.3871 164.862C87.5296 164.769 87.6895 164.705 87.8567 164.674C88.0516 164.654 88.2481 164.654 88.4431 164.674H89.0294C89.201 164.704 89.367 164.759 89.5219 164.838C89.6378 165.113 89.6862 165.411 89.6628 165.708V165.637Z" fill="#282828"/>
    <path d="M76.6435 159.294C76.658 158.479 76.8507 157.677 77.207 156.945C77.481 156.366 77.9223 155.883 78.4737 155.558C78.9501 155.258 79.5068 155.111 80.0691 155.135C80.5868 155.165 81.0913 155.309 81.5465 155.558L82.7192 156.334L82.3207 157.908C82.0205 157.639 81.6985 157.396 81.3586 157.18C81.0548 156.963 80.6983 156.833 80.3267 156.803C80.0509 156.804 79.7837 156.905 79.5754 157.086C79.3333 157.337 79.1567 157.643 79.0601 157.978C78.9193 158.452 78.8402 158.941 78.8253 159.435C78.7583 159.903 78.7583 160.377 78.8253 160.844C78.8904 161.147 79.027 161.429 79.2238 161.667C79.3939 161.835 79.619 161.935 79.8572 161.949C80.1081 161.943 80.3555 161.888 80.5844 161.785C80.894 161.657 81.1621 161.445 81.3586 161.174C81.6523 160.811 81.8746 160.397 82.0149 159.952L82.3905 161.338C82.2867 161.762 82.086 162.156 81.8041 162.489C81.4941 162.861 81.1109 163.165 80.6783 163.382C80.2241 163.594 79.7244 163.691 79.2238 163.664C78.6425 163.662 78.0827 163.445 77.6525 163.053C77.2093 162.645 76.899 162.113 76.7615 161.526C76.5951 160.794 76.5548 160.039 76.6435 159.294ZM82.7421 163.664C82.5469 163.668 82.3542 163.626 82.1787 163.54C82.0031 163.455 81.8507 163.328 81.7343 163.17C81.4885 162.778 81.3802 162.316 81.4285 161.855L81.874 153.138C81.8546 152.776 81.9634 152.419 82.1798 152.128C82.4397 151.926 82.7669 151.834 83.0937 151.87H83.9389L83.3526 163.429V163.547L82.7421 163.664Z" fill="#282828"/>
    <path d="M61.5181 160.28C61.4343 160.12 61.3862 159.944 61.3772 159.763C61.3532 159.537 61.3532 159.308 61.3772 159.082C61.3482 158.895 61.3482 158.705 61.3772 158.518H62.3622C62.7567 158.5 63.1518 158.54 63.5349 158.636L64.6378 158.871C64.6996 158.91 64.752 158.961 64.7925 159.022C64.8329 159.082 64.8594 159.151 64.8715 159.223C64.8666 159.353 64.8179 159.478 64.7318 159.575L63.606 159.951C63.2422 160.082 62.8643 160.168 62.4801 160.21L61.5181 160.28ZM62.8077 156.31C62.9463 156.194 63.0954 156.092 63.2532 156.005C63.4565 155.9 63.6684 155.814 63.8865 155.746C64.073 155.716 64.2636 155.716 64.45 155.746L64.7787 156.685C64.9055 157.059 64.9917 157.445 65.0364 157.837C65.0364 158.236 65.0359 158.612 65.1532 158.988C65.1074 159.118 65.0159 159.227 64.8955 159.294H64.7077C64.6388 159.314 64.5659 159.314 64.497 159.294C64.2624 159.012 64.0272 158.706 63.7926 158.377C63.5626 158.062 63.3661 157.723 63.2063 157.367L62.8077 156.31ZM64.8955 162.747C64.7173 162.781 64.5344 162.781 64.3561 162.747C64.1317 162.717 63.9107 162.662 63.6987 162.583C63.5117 162.531 63.3371 162.443 63.1833 162.324L63.4651 161.384C63.5715 161.004 63.7286 160.641 63.9335 160.304C64.1211 159.951 64.3328 159.622 64.497 159.294C64.5583 159.261 64.6267 159.244 64.6963 159.244C64.7658 159.244 64.8342 159.261 64.8955 159.294C64.9622 159.312 65.0238 159.344 65.0765 159.389C65.1292 159.433 65.1715 159.489 65.2002 159.552C65.2002 159.904 65.2002 160.304 65.2002 160.703C65.2105 161.098 65.1716 161.493 65.0834 161.878L64.8955 162.747ZM66.9593 156.31C67.1255 156.403 67.2758 156.522 67.4048 156.662C67.5713 156.818 67.7205 156.992 67.8503 157.179C67.9542 157.334 68.0415 157.499 68.1092 157.673L67.335 158.283C67.0245 158.521 66.6853 158.718 66.326 158.871L65.2471 159.341C65.1817 159.344 65.1167 159.334 65.0559 159.31C64.9951 159.285 64.9402 159.247 64.8955 159.199V159.011C64.8723 158.943 64.8723 158.869 64.8955 158.8L65.5518 157.837C65.7785 157.52 66.0381 157.229 66.326 156.968L66.9593 156.31ZM68.2729 160.28C68.2455 160.463 68.1815 160.639 68.0851 160.797C67.9906 161.006 67.8727 161.203 67.7335 161.384C67.6176 161.542 67.4742 161.677 67.3109 161.784L66.5138 161.22C66.1893 160.995 65.8907 160.735 65.6228 160.445L64.8486 159.575C64.8196 159.517 64.8051 159.453 64.8051 159.388C64.8051 159.322 64.8196 159.258 64.8486 159.199C64.8486 159.199 64.8487 159.082 64.9894 159.058C65.0215 159.04 65.0578 159.03 65.0948 159.03C65.1319 159.03 65.1681 159.04 65.2002 159.058L66.3031 159.364C66.6741 159.473 67.0284 159.631 67.3579 159.834L68.2729 160.28Z" fill="#282828"/>
    <path d="M56.0285 150.93C55.8544 151.203 55.6311 151.442 55.3711 151.635C55.1147 151.816 54.8294 151.951 54.527 152.034C54.2103 151.54 53.8493 151.076 53.4482 150.648C53.0385 150.206 52.5533 149.84 52.0166 149.567C51.8264 149.448 51.6151 149.368 51.3936 149.331C51.1721 149.295 50.9453 149.303 50.727 149.356C50.5544 149.393 50.3923 149.47 50.254 149.58C50.1157 149.69 50.0052 149.83 49.9299 149.99C49.8435 150.266 49.8435 150.56 49.9299 150.836C50.0184 151.238 50.2222 151.606 50.5163 151.893L51.9238 153.514C52.37 154.028 52.7052 154.627 52.9088 155.277C53.0957 155.921 53.019 156.614 52.6969 157.203C52.449 157.758 52.0303 158.22 51.5012 158.519C50.9747 158.825 50.3735 158.979 49.765 158.965C49.0866 158.954 48.421 158.785 47.8192 158.472C47.1838 158.162 46.5981 157.758 46.0829 157.273C45.6539 156.887 45.2613 156.463 44.9102 156.005C45.0729 155.731 45.2783 155.485 45.5194 155.277C45.75 155.077 46.0234 154.932 46.3177 154.853C46.6444 155.252 46.9963 155.629 47.3725 155.982C47.739 156.313 48.1406 156.605 48.5693 156.851C48.754 156.962 48.9584 157.036 49.1717 157.068C49.385 157.101 49.6026 157.091 49.8119 157.039C49.9736 157.005 50.1262 156.934 50.2563 156.832C50.3864 156.73 50.4913 156.6 50.5632 156.451C50.6155 156.329 50.6423 156.197 50.6423 156.064C50.6423 155.93 50.6155 155.798 50.5632 155.676C50.4374 155.356 50.2547 155.061 50.0238 154.807L48.5922 153.162C48.2598 152.78 47.9843 152.353 47.7722 151.893C47.5796 151.465 47.475 151.001 47.4664 150.531C47.4638 150.074 47.5691 149.623 47.7722 149.215C48.0236 148.657 48.4309 148.183 48.945 147.852C49.4711 147.522 50.084 147.359 50.7041 147.382C51.5261 147.397 52.3318 147.615 53.0496 148.017C54.3342 148.677 55.4067 149.687 56.1453 150.93H56.0285Z" fill="#282828"/>
    <path d="M40.573 143.717C40.7277 143.494 40.8462 143.248 40.9246 142.989C40.9824 142.773 40.9824 142.546 40.9246 142.331C41.0911 142.176 41.2817 142.049 41.4881 141.954C41.6795 141.866 41.8866 141.818 42.0974 141.814C42.3302 141.969 42.5227 142.178 42.6574 142.424C42.7922 142.669 42.8655 142.943 42.8716 143.223C42.8869 143.785 42.7232 144.337 42.4032 144.798L39.1655 149.778L38.72 149.567L38.2275 149.262L37.7591 148.956L37.3594 148.604L40.573 143.717ZM44.0913 150.765C43.945 151.008 43.8121 151.259 43.6927 151.517C43.6029 151.749 43.5551 151.996 43.5519 152.245C43.3275 152.292 43.096 152.292 42.8716 152.245C42.6219 152.183 42.3846 152.08 42.1684 151.94C42.0213 151.863 41.8938 151.753 41.7962 151.619C41.6985 151.484 41.6329 151.329 41.6049 151.165C41.6082 150.81 41.7234 150.464 41.9336 150.178L44.0214 146.983C44.2344 146.71 44.3717 146.385 44.42 146.043C44.4294 145.908 44.3955 145.775 44.3238 145.661C44.2521 145.546 44.1466 145.458 44.0214 145.409C43.8079 145.269 43.568 145.173 43.3171 145.127C43.014 145.079 42.7063 145.079 42.4032 145.127C42.0545 145.177 41.7186 145.296 41.4171 145.479L42.473 143.858C43.0109 143.732 43.5633 143.677 44.1154 143.693C44.6905 143.701 45.2514 143.873 45.7336 144.187C46.1187 144.421 46.4153 144.776 46.5777 145.197C46.6969 145.604 46.6969 146.036 46.5777 146.442C46.4683 146.922 46.2693 147.376 45.9913 147.782L44.0913 150.765Z" fill="#282828"/>
    <path d="M39.9641 141.109C39.7722 141.3 39.5497 141.459 39.3067 141.579C39.0643 141.701 38.8022 141.781 38.5325 141.814C38.3811 141.44 38.2008 141.079 37.9931 140.733C37.7875 140.387 37.5269 140.077 37.2201 139.817C36.9896 139.609 36.7047 139.47 36.3989 139.417C36.2855 139.397 36.1685 139.409 36.061 139.45C35.9536 139.492 35.8592 139.561 35.7885 139.652C35.7254 139.726 35.6781 139.812 35.6499 139.905C35.6216 139.998 35.6134 140.096 35.6247 140.192C35.6461 140.461 35.7345 140.72 35.8824 140.944L36.3748 141.79C36.584 142.125 36.7426 142.49 36.8444 142.871C36.9246 143.219 36.9246 143.58 36.8444 143.928C36.7845 144.314 36.6134 144.673 36.3519 144.962C36.049 145.344 35.6415 145.63 35.1792 145.784C34.7253 145.902 34.2484 145.902 33.7945 145.784C33.2656 145.625 32.7778 145.352 32.3641 144.985C31.9776 144.652 31.6248 144.282 31.3093 143.881C31.0278 143.507 30.784 143.106 30.582 142.683C30.6906 142.527 30.8254 142.392 30.9806 142.284C31.1503 142.172 31.3311 142.077 31.52 142.002C31.683 141.974 31.8495 141.974 32.0125 142.002L32.576 142.989C32.7914 143.328 33.0605 143.629 33.3731 143.881C33.5526 144.049 33.7843 144.149 34.0293 144.163C34.1293 144.163 34.2285 144.139 34.3179 144.094C34.4073 144.049 34.4851 143.984 34.5458 143.905C34.6017 143.841 34.6429 143.766 34.6672 143.685C34.6915 143.604 34.6984 143.519 34.6867 143.435C34.662 143.2 34.5814 142.974 34.4519 142.777L33.8884 141.837C33.5726 141.316 33.3806 140.73 33.3261 140.122C33.3257 139.804 33.3899 139.488 33.5151 139.195C33.6402 138.902 33.823 138.637 34.0534 138.418C34.2837 138.198 34.5568 138.028 34.8551 137.917C35.1533 137.806 35.4707 137.757 35.7885 137.773C36.6626 137.85 37.487 138.213 38.134 138.807C38.5627 139.163 38.9349 139.583 39.2369 140.052C39.5157 140.378 39.7595 140.732 39.9641 141.109Z" fill="#282828"/>
    <path d="M27.1301 141.508C26.9006 141.782 26.5875 141.972 26.239 142.049C26.0718 142.037 25.9083 141.991 25.7592 141.915C25.61 141.838 25.4781 141.732 25.3709 141.603L24.8086 141.015V140.851L30.6484 135.071C30.7962 134.947 30.8887 134.77 30.906 134.578C30.9116 134.479 30.8942 134.38 30.8534 134.29C30.8125 134.2 30.7504 134.122 30.6724 134.061L29.9452 133.332C30.1133 133.014 30.3266 132.721 30.5785 132.463L30.7663 132.322C30.8122 132.256 30.877 132.207 30.953 132.181C31.1875 132.346 31.4228 132.557 31.7043 132.792L32.4545 133.497C32.654 133.671 32.8175 133.884 32.9343 134.122C33.0511 134.36 33.1189 134.618 33.1347 134.883C33.0629 135.423 32.8057 135.922 32.4075 136.293L27.1301 141.508ZM25.0892 137.773C25.2248 137.554 25.3824 137.35 25.5587 137.162C25.7523 136.983 25.9647 136.825 26.1921 136.692L28.186 138.783L29.9452 140.498C29.7881 140.714 29.6152 140.918 29.4286 141.109C29.2485 141.284 29.0521 141.441 28.8423 141.579L27.1072 139.77L25.0892 137.773Z" fill="#282828"/>
    <path d="M24.9032 126.331C25.1098 126.235 25.3321 126.179 25.5594 126.166C25.7677 126.117 25.9845 126.117 26.1928 126.166C26.4245 126.453 26.5566 126.808 26.5684 127.177C26.5979 127.492 26.5404 127.808 26.4035 128.093C26.273 128.37 26.0994 128.624 25.8881 128.845L23.0971 131.194C22.9561 131.288 22.8348 131.409 22.7421 131.55C22.6493 131.691 22.5871 131.85 22.5577 132.016C22.55 132.18 22.5746 132.343 22.631 132.496C22.6874 132.65 22.7736 132.79 22.8852 132.909C23.1484 133.218 23.4485 133.494 23.7774 133.731C24.1527 133.99 24.5044 134.248 24.9032 134.483C24.8528 134.745 24.7482 134.993 24.5974 135.212C24.4577 135.468 24.2753 135.699 24.058 135.893C23.7172 135.693 23.3885 135.473 23.073 135.235C22.7165 134.987 22.3789 134.712 22.064 134.413C21.7663 134.147 21.4926 133.856 21.244 133.544C20.9302 133.177 20.7048 132.743 20.5866 132.275C20.4347 131.842 20.4347 131.369 20.5866 130.936C20.7848 130.406 21.1363 129.948 21.5956 129.62L24.1988 127.506C24.3868 127.358 24.5525 127.184 24.6913 126.989C24.8287 126.797 24.9033 126.567 24.9032 126.331ZM28.4913 132.815C28.069 133.178 27.544 133.4 26.9899 133.45C26.4829 133.493 25.9757 133.378 25.5365 133.121C25.0588 132.85 24.6363 132.492 24.2928 132.063L23.7064 131.288C23.4977 131.009 23.3171 130.71 23.1669 130.395L24.2458 129.503C24.3718 129.786 24.5296 130.053 24.7154 130.301L25.2777 131.03C25.379 131.173 25.5077 131.295 25.6568 131.388C25.8058 131.48 25.9724 131.543 26.1458 131.57C26.3072 131.581 26.4692 131.559 26.6222 131.507C26.7753 131.455 26.9159 131.372 27.0368 131.265C27.2426 131.109 27.3843 130.884 27.4354 130.631C27.4573 130.505 27.4503 130.375 27.4136 130.253C27.377 130.131 27.3121 130.019 27.2247 129.926C26.9571 129.62 26.6062 129.4 26.2157 129.291C25.7291 129.183 25.2249 129.183 24.7383 129.291L25.6762 128.14C26.0278 128.119 26.3807 128.119 26.7322 128.14C27.1139 128.207 27.4852 128.325 27.8351 128.492C28.2283 128.698 28.5716 128.987 28.8429 129.338C29.1624 129.71 29.3662 130.168 29.4293 130.654C29.4553 131.072 29.3834 131.491 29.2186 131.876C29.0439 132.236 28.7961 132.556 28.4913 132.815Z" fill="#282828"/>
    <path d="M15.9431 129.855C15.6999 130.013 15.4299 130.124 15.146 130.184C14.9916 130.103 14.8559 129.991 14.7475 129.855C14.6043 129.722 14.4779 129.573 14.3718 129.409C14.2506 129.244 14.1554 129.062 14.0901 128.868C14.0203 128.72 13.9728 128.561 13.9492 128.399L14.231 128.046L14.5826 127.788C14.818 127.615 15.0924 127.502 15.3808 127.459C15.5327 127.533 15.6681 127.637 15.7794 127.764C15.9179 127.901 16.0439 128.051 16.155 128.211C16.2719 128.378 16.3656 128.559 16.4356 128.751C16.5028 128.907 16.5431 129.074 16.5536 129.244C16.3997 129.492 16.1905 129.701 15.9431 129.855ZM23.1446 121.891C23.2734 122.005 23.391 122.13 23.4962 122.266L23.8009 122.736C23.916 122.884 24.0177 123.041 24.1055 123.206C24.1055 123.37 24.2699 123.535 24.3403 123.676L19.6493 126.848C19.4417 126.954 19.2759 127.128 19.1797 127.341C19.1494 127.445 19.1444 127.555 19.1648 127.661C19.1852 127.767 19.2311 127.867 19.2977 127.952L19.4145 128.14C19.2433 128.322 19.0553 128.488 18.8521 128.633L18.5234 128.821L18.1478 128.986L17.7263 128.445L17.3976 127.975L17.2339 127.741C17.114 127.564 17.0314 127.364 16.9911 127.154C16.9507 126.944 16.9533 126.728 16.9991 126.519C17.0609 126.301 17.1651 126.097 17.306 125.92C17.4469 125.742 17.622 125.594 17.8203 125.485L23.1446 121.891Z" fill="#282828"/>
    <path d="M16.8797 114.537C17.1371 114.405 17.3809 114.247 17.6069 114.067C17.8077 113.914 17.9752 113.722 18.0994 113.503C18.312 113.586 18.5047 113.714 18.6629 113.879C18.8562 114.042 19.0149 114.241 19.1313 114.466C19.2212 114.608 19.2793 114.768 19.2996 114.935C19.3199 115.101 19.3025 115.27 19.2492 115.43C19.066 115.73 18.7959 115.967 18.475 116.111L15.0976 117.896C14.7801 118.044 14.4994 118.26 14.2764 118.531C14.2082 118.644 14.1722 118.774 14.1722 118.907C14.1722 119.039 14.2082 119.169 14.2764 119.283C14.3974 119.511 14.5652 119.711 14.7689 119.87C15.0122 120.056 15.2815 120.206 15.5672 120.316C15.906 120.435 16.2631 120.491 16.622 120.481L14.8869 121.397C14.3533 121.242 13.8402 121.022 13.3614 120.739C12.8764 120.442 12.4802 120.02 12.2127 119.518C11.9866 119.127 11.8962 118.673 11.955 118.225C12.0157 117.803 12.2039 117.41 12.4944 117.098C12.831 116.735 13.2278 116.432 13.6672 116.205L16.8797 114.537ZM13.9947 122.689C13.9038 122.536 13.8561 122.362 13.8561 122.184C13.8561 122.007 13.9038 121.832 13.9947 121.679C14.1946 121.329 14.4981 121.05 14.8628 120.88L20.7736 117.756C20.8863 117.888 20.9879 118.03 21.0782 118.178L21.36 118.648L21.5948 119.165C21.6675 119.325 21.7304 119.49 21.7826 119.658L14.4173 123.418L13.9947 122.689Z" fill="#282828"/>
    <path d="M14.4194 105.491C14.636 105.446 14.8591 105.446 15.0757 105.491C15.2952 105.518 15.5053 105.598 15.6861 105.726C15.7785 106.08 15.7785 106.452 15.6861 106.807C15.5909 107.111 15.4304 107.392 15.2165 107.629C15.0089 107.842 14.7724 108.024 14.5133 108.169L11.1359 109.438C10.9707 109.486 10.8166 109.567 10.6835 109.676C10.5505 109.785 10.441 109.92 10.3617 110.073C10.2985 110.221 10.2655 110.381 10.2655 110.542C10.2655 110.704 10.2985 110.864 10.3617 111.012C10.5021 111.392 10.6999 111.749 10.9481 112.069C11.2061 112.445 11.4878 112.798 11.7693 113.15C11.6471 113.378 11.4795 113.578 11.2768 113.737C11.057 113.927 10.8122 114.085 10.5495 114.208C10.2699 113.919 10.0178 113.604 9.79824 113.268C9.54208 112.922 9.30755 112.561 9.09504 112.187C8.90078 111.841 8.7361 111.48 8.60257 111.106C8.42292 110.659 8.34265 110.178 8.36779 109.696C8.38122 109.233 8.54649 108.788 8.83735 108.428C9.18963 107.989 9.66269 107.662 10.1979 107.488L13.3406 106.313C13.5616 106.23 13.767 106.111 13.9499 105.961C14.1536 105.86 14.3189 105.695 14.4194 105.491ZM15.78 112.54C15.2625 112.762 14.6889 112.819 14.1377 112.704C13.6574 112.556 13.2218 112.289 12.871 111.929C12.5114 111.519 12.226 111.05 12.0269 110.542C12.0269 110.284 11.8396 109.955 11.7223 109.603C11.6061 109.267 11.52 108.92 11.4646 108.569L12.7771 108.075C12.8076 108.389 12.8794 108.697 12.989 108.992L13.2936 109.861C13.3372 110.024 13.4156 110.175 13.5227 110.305C13.6298 110.435 13.7631 110.54 13.9144 110.613C14.0656 110.687 14.2307 110.727 14.3988 110.731C14.5669 110.735 14.7345 110.703 14.889 110.636C15.1305 110.546 15.3301 110.371 15.4513 110.143C15.509 110.03 15.5395 109.906 15.5395 109.779C15.5395 109.652 15.509 109.527 15.4513 109.415C15.3078 109.035 15.0446 108.713 14.7012 108.498C14.2943 108.201 13.8167 108.015 13.3165 107.958L14.5832 107.136L15.5452 107.558C15.894 107.741 16.2106 107.979 16.4832 108.263C16.7864 108.583 17.026 108.958 17.1876 109.368C17.3631 109.785 17.4144 110.244 17.3353 110.69C17.2562 111.136 17.0504 111.55 16.742 111.882C16.4555 112.224 16.082 112.483 15.662 112.633L15.78 112.54Z" fill="#282828"/>
    <path d="M13.7135 101.192L14.206 103.236L2.97083 105.961H2.85287L2.64214 105.162C2.57417 105.011 2.53906 104.847 2.53906 104.681C2.53906 104.515 2.57417 104.351 2.64214 104.199C2.87871 103.931 3.20339 103.756 3.55721 103.706L13.7135 101.192ZM8.8816 97.315C9.65215 97.1268 10.4566 97.1268 11.2271 97.315C11.8968 97.4791 12.5066 97.8297 12.9863 98.3257C13.467 98.8412 13.8062 99.4726 13.9712 100.158C14.0936 100.699 14.1723 101.249 14.206 101.803C14.2419 102.311 14.2419 102.821 14.206 103.33L12.3999 102.695C12.5207 102.348 12.5843 101.983 12.5877 101.615C12.6331 101.248 12.6331 100.877 12.5877 100.511C12.5018 100.185 12.3125 99.8962 12.0483 99.688C11.7428 99.4816 11.3836 99.3677 11.0152 99.3593C10.5096 99.3408 10.0047 99.3964 9.51494 99.524C8.89317 99.6273 8.30968 99.8945 7.82566 100.299C7.68477 100.422 7.57999 100.581 7.52216 100.759C7.46433 100.937 7.4553 101.127 7.49696 101.31C7.5762 101.652 7.75641 101.963 8.01348 102.202C8.31467 102.49 8.68699 102.693 9.09233 102.789L7.54392 103.471C7.26526 103.332 7.00617 103.158 6.77086 102.954C6.50911 102.738 6.27991 102.484 6.09056 102.202C5.88989 101.885 5.74653 101.535 5.66796 101.168C5.50149 100.617 5.54277 100.023 5.78477 99.5004C6.05258 98.9644 6.46817 98.516 6.98159 98.2081C7.56198 97.8086 8.2039 97.5067 8.8816 97.315Z" fill="#282828"/>
    <path d="M2.41045 95.882C2.12422 95.9415 1.82856 95.9415 1.54233 95.882C1.4407 95.7468 1.36241 95.5962 1.3087 95.4357C1.23982 95.2459 1.19248 95.0488 1.16783 94.8484C1.1433 94.6534 1.1433 94.456 1.16783 94.261C1.13677 94.098 1.13677 93.9301 1.16783 93.7671C1.29127 93.686 1.42532 93.6231 1.56638 93.5796C1.70626 93.5576 1.84912 93.5576 1.98899 93.5796C2.26591 93.5079 2.55614 93.5079 2.83306 93.5796C2.94389 93.7087 3.02431 93.8612 3.06784 94.0258C3.14415 94.2149 3.19881 94.4119 3.23161 94.6132C3.24384 94.8088 3.24384 95.005 3.23161 95.2006C3.22607 95.3713 3.18664 95.539 3.1148 95.6939C2.89257 95.796 2.65394 95.8597 2.41045 95.882ZM12.332 91.7939C12.3874 91.9541 12.4274 92.1193 12.4499 92.2872C12.5005 92.4726 12.5392 92.6609 12.5668 92.8511C12.5794 93.031 12.5794 93.2115 12.5668 93.3914C12.5779 93.5714 12.5779 93.7518 12.5668 93.9318L6.91367 94.7308C6.67504 94.7541 6.44812 94.8433 6.25743 94.9889C6.18316 95.0698 6.13093 95.1686 6.10626 95.2757C6.08158 95.3828 6.08519 95.4945 6.11656 95.5998V95.8114C5.89321 95.9104 5.65625 95.974 5.41336 95.9996H5.01481H4.61511C4.61511 95.7881 4.61552 95.5531 4.45133 95.3181C4.28715 95.0832 4.45133 94.9188 4.45133 94.7778V94.4721C4.4112 94.2638 4.41542 94.0494 4.46393 93.8428C4.51244 93.6363 4.60442 93.4424 4.73307 93.2738C4.88316 93.1008 5.06589 92.96 5.27135 92.8591C5.47681 92.7582 5.70028 92.6993 5.92874 92.6865L12.332 91.7939Z" fill="#282828"/>
    <path d="M10.2448 86.0141C10.5627 85.8679 10.9036 85.7801 11.2526 85.7554H11.7451C11.7451 85.9668 11.7452 86.2254 11.8859 86.5074C11.9076 86.781 11.9076 87.0557 11.8859 87.3293C11.9294 87.5812 11.9186 87.8398 11.8539 88.0871C11.7891 88.3343 11.6716 88.5647 11.5103 88.7628C11.0945 89.1079 10.5729 89.2987 10.0329 89.3031L0.0174463 90.008V89.8905V89.0679C-0.0109169 88.9035 -0.00461863 88.7353 0.0357707 88.5735C0.0761601 88.4116 0.14998 88.26 0.252228 88.1284C0.548012 87.9229 0.901331 87.8163 1.26122 87.8232L9.65838 87.2358C9.85486 87.2399 10.0462 87.173 10.1978 87.0477C10.2683 86.9787 10.3203 86.8932 10.349 86.7987C10.3777 86.7043 10.3818 86.604 10.3616 86.5074L10.2448 86.0141Z" fill="#282828"/>
    <path d="M1.37653 84.0875C1.07873 84.0968 0.782238 84.0405 0.508412 83.9229C0.432326 83.7746 0.377487 83.6165 0.344637 83.4531C0.333038 83.2496 0.333038 83.0457 0.344637 82.8422C0.334858 82.6465 0.334858 82.4505 0.344637 82.2548C0.373744 82.0904 0.428775 81.9318 0.508412 81.7851L0.931019 81.6675C1.07877 81.6456 1.22878 81.6456 1.37653 81.6675C1.66652 81.6608 1.95421 81.7171 2.2206 81.8321C2.30024 81.9788 2.35641 82.1374 2.38552 82.3019C2.40798 82.5049 2.40798 82.7098 2.38552 82.9128C2.4078 83.1079 2.4078 83.305 2.38552 83.5001C2.35641 83.6646 2.30024 83.8231 2.2206 83.9699C1.95352 84.0797 1.66338 84.1203 1.37653 84.0875ZM11.7676 81.4558V81.9732C11.7676 82.1612 11.7676 82.3491 11.7676 82.537C11.7676 82.725 11.7676 82.9129 11.7676 83.1009V83.6177H6.04467C5.81645 83.5951 5.58623 83.6445 5.38729 83.7588C5.30206 83.8291 5.23588 83.9194 5.19488 84.0221C5.15388 84.1248 5.13917 84.2364 5.1525 84.3462V84.5573C4.9036 84.5932 4.65125 84.5932 4.40235 84.5573H4.0267C3.89472 84.5796 3.76012 84.5796 3.62814 84.5573C3.61568 84.3303 3.61568 84.1028 3.62814 83.8758C3.61822 83.688 3.61822 83.4998 3.62814 83.312V83.0068C3.6217 82.7962 3.66063 82.5864 3.74152 82.3919C3.82242 82.1974 3.94389 82.0228 4.09771 81.8791C4.44328 81.5849 4.88733 81.4332 5.34033 81.4558H11.7676Z" fill="#282828"/>
    <path d="M2.6897 77.7908C2.33241 77.8041 1.9826 77.687 1.70476 77.4615C1.60311 77.3342 1.52989 77.187 1.48945 77.029C1.44901 76.8711 1.44206 76.7062 1.46998 76.5455V75.723H1.5868L9.77323 76.3809C9.95535 76.4454 10.1534 76.4454 10.3356 76.3809C10.4121 76.3189 10.4735 76.24 10.5142 76.1503C10.5549 76.0606 10.574 75.9626 10.5703 75.8641V74.854C10.9198 74.7961 11.2768 74.7961 11.6263 74.854H11.8611H12.0947C12.0947 75.1359 12.0947 75.4646 12.0947 75.817C12.0947 76.1695 12.0947 76.5217 12.0947 76.8507C12.1054 77.1218 12.0541 77.3922 11.9435 77.6399C11.833 77.8877 11.6668 78.1061 11.4579 78.2789C11.2491 78.4517 11.0036 78.5743 10.7398 78.6363C10.4761 78.6983 10.2008 78.698 9.937 78.6363L2.6897 77.7908ZM4.16711 73.8198C4.42459 73.7964 4.68383 73.7964 4.94131 73.8198C5.20438 73.8471 5.46402 73.9024 5.71552 73.9844L5.43378 76.8742L5.29291 79.2236C5.02833 79.26 4.76038 79.26 4.4958 79.2236L3.74564 79.0825L4.00333 76.569L4.16711 73.8198Z" fill="#282828"/>
    <path d="M13.0589 67.8764C13.7193 68.1906 14.3484 68.5682 14.936 69.0041C15.4122 69.3717 15.784 69.8573 16.0148 70.4134C16.1992 71.0503 16.1992 71.7267 16.0148 72.3636C15.9394 72.6821 15.8452 72.9957 15.7331 73.3032C15.6429 73.5731 15.5253 73.8332 15.3815 74.0787C15.1038 74.0486 14.833 73.9688 14.5833 73.8435C14.3416 73.7227 14.1263 73.555 13.9499 73.3502C13.9499 73.2093 14.1149 73.0213 14.2087 72.7864C14.3219 72.5563 14.4001 72.3108 14.4424 72.0579C14.5151 71.7886 14.5151 71.5052 14.4424 71.2359C14.3475 70.972 14.1866 70.7371 13.974 70.5545C13.7377 70.345 13.4778 70.1637 13.1998 70.0142H12.989C12.9233 70.3447 12.7875 70.657 12.5905 70.9302C12.4879 71.0473 12.3609 71.1413 12.2194 71.2061C12.0779 71.2709 11.9249 71.3054 11.7693 71.3065L4.38114 72.0114C4.38114 71.7765 4.38114 71.5179 4.38114 71.283C4.36775 71.0717 4.36775 70.8598 4.38114 70.6486C4.41894 70.4257 4.5253 70.2202 4.68578 70.0612C4.90847 69.8731 5.19166 69.7726 5.48289 69.779L9.07219 69.4974H9.82234H11.3937C11.3937 69.4974 11.5111 69.4972 11.5345 69.3798L5.29507 66.584C5.28321 66.4433 5.28321 66.3014 5.29507 66.1607V65.7145C5.31963 65.5216 5.36701 65.3323 5.43594 65.1506C5.48554 64.9705 5.55604 64.7971 5.64667 64.6338H5.78754L13.0589 67.8764Z" fill="#282828"/>
    <path d="M7.52339 53.4978C7.49741 53.3187 7.49741 53.1367 7.52339 52.9575C7.57296 52.7365 7.65208 52.5231 7.75818 52.3231C7.84073 52.1548 7.94283 51.9972 8.06282 51.8533L8.97789 52.2526C9.34072 52.3984 9.67973 52.5962 9.98574 52.8399L10.9008 53.5449C10.9412 53.6021 10.9669 53.6686 10.9753 53.7382C10.9837 53.8078 10.9745 53.8783 10.9489 53.9435C10.9233 54.0088 10.8821 54.0663 10.8287 54.1116C10.7752 54.1568 10.7116 54.1884 10.6431 54.2028L9.49327 54.0852C9.10968 54.0406 8.73218 53.9537 8.36746 53.8265L7.52339 53.4978ZM9.56428 57.1631C9.38679 57.1053 9.22037 57.0176 9.07181 56.9045C8.88193 56.7768 8.70168 56.6357 8.53238 56.4817C8.39125 56.3445 8.27161 56.1861 8.17964 56.0119L8.83703 55.2835C9.10035 54.9885 9.39954 54.7278 9.72805 54.5079L10.6901 53.85C10.7484 53.821 10.8128 53.8064 10.8779 53.8064C10.943 53.8064 11.0063 53.821 11.0646 53.85L11.1826 53.9911C11.2058 54.0597 11.2058 54.1342 11.1826 54.2028L10.737 55.2835C10.5814 55.6396 10.3754 55.9717 10.1266 56.27L9.56428 57.1631ZM10.4083 50.4434C10.587 50.414 10.7691 50.414 10.9478 50.4434C11.1739 50.42 11.4019 50.42 11.6281 50.4434C11.8138 50.4763 11.9949 50.5317 12.1675 50.608V51.5946C12.1376 51.9813 12.051 52.3613 11.9098 52.7223L11.5101 53.8036C11.4731 53.8631 11.4218 53.9117 11.3601 53.9447C11.2983 53.9777 11.2285 53.9935 11.1585 53.9911C11.0934 53.9858 11.0309 53.9663 10.9741 53.9338C10.9174 53.9013 10.8686 53.8571 10.831 53.8036C10.831 53.4277 10.6659 53.0512 10.5721 52.6518C10.5391 52.2687 10.5391 51.8836 10.5721 51.5006L10.4083 50.4434ZM13.6449 56.3641C13.5397 56.5147 13.4129 56.6491 13.2692 56.7633C13.0878 56.9028 12.8911 57.0214 12.6829 57.1161C12.5255 57.2183 12.3512 57.2902 12.1675 57.3278L11.651 56.4817C11.4604 56.1403 11.3109 55.7776 11.2055 55.401C11.0882 55.0016 10.9711 54.6258 10.8539 54.2969C10.8601 54.2259 10.8826 54.1572 10.9191 54.0961C10.9557 54.0351 11.005 53.983 11.0646 53.9441C11.1249 53.9205 11.1921 53.9205 11.2524 53.9441H11.4643C11.7223 54.2025 12.0263 54.4612 12.3313 54.7196C12.6139 54.9883 12.8664 55.2875 13.0826 55.6121L13.6449 56.3641ZM14.1614 52.229C14.2756 52.3771 14.3626 52.544 14.4191 52.7223C14.4955 52.9374 14.5584 53.1572 14.6069 53.3802C14.6295 53.5675 14.6295 53.7568 14.6069 53.9441L13.622 54.1558C13.2436 54.2321 12.8581 54.2716 12.4721 54.2733H11.2994C11.2373 54.25 11.1816 54.2122 11.1367 54.1632C11.0919 54.1142 11.0596 54.0551 11.0417 53.9911C11.0184 53.9226 11.0184 53.8486 11.0417 53.78C11.029 53.718 11.029 53.6539 11.0417 53.5919L12.0507 53.0281C12.3791 52.8232 12.7336 52.6652 13.1055 52.5583L14.1614 52.229Z" fill="#282828"/>
</svg>
