<svg width="172" height="169" viewBox="0 0 172 169" fill="none" xmlns="http://www.w3.org/2000/svg">
<path d="M78.5781 84.1223C79.8645 83.4857 81.0633 82.6852 82.1447 81.7406C82.5014 81.431 82.8573 81.121 83.1664 80.8114C83.4755 80.5018 83.8087 80.1208 84.094 79.7636C85.0353 78.6877 85.8345 77.495 86.4718 76.2148" fill="white"/>
<path d="M78.5781 84.1223C79.8645 83.4857 81.0633 82.6852 82.1447 81.7406C82.5014 81.431 82.8573 81.121 83.1664 80.8114C83.4755 80.5018 83.8087 80.1208 84.094 79.7636C85.0353 78.6877 85.8345 77.495 86.4718 76.2148" stroke="white" stroke-width="3" stroke-miterlimit="10"/>
<path d="M70.517 52.6841C71.8747 52.6875 73.2259 52.8716 74.5352 53.2319L75.1528 53.3743C76.7774 53.9183 78.304 54.7226 79.6714 55.7561L58.0815 77.4061C56.9748 75.8553 56.1682 74.1105 55.7038 72.2618L55.5842 71.8804C54.9682 69.3012 55.0231 66.6068 55.7433 64.0549C56.4634 61.5029 57.8248 59.179 59.6976 57.3045C61.1214 55.8697 62.8146 54.7313 64.6795 53.9547C66.5444 53.178 68.5449 52.7781 70.5646 52.7789L70.517 52.6841ZM70.5646 50.3972C68.232 50.3946 65.9215 50.8545 63.7669 51.7497C61.6123 52.6449 59.6555 53.958 58.0095 55.6136C55.7982 57.8253 54.206 60.5803 53.3922 63.6025C52.5785 66.6247 52.5725 69.8078 53.3737 72.8334C54.1695 75.8729 55.7619 78.6438 57.9863 80.8595L83.1904 55.5898C80.976 53.3719 78.2215 51.7712 75.2004 50.9455C73.6495 50.5298 72.0505 50.3215 70.445 50.3263L70.5646 50.3972Z" fill="white"/>
<path d="M40.75 60.1381L57.9647 55.5176" stroke="white" stroke-width="3" stroke-linecap="round" stroke-linejoin="round"/>
<path d="M57.9648 55.5177L62.5538 38.2979" stroke="white" stroke-width="3" stroke-linecap="round" stroke-linejoin="round"/>
<path d="M101.191 122.373C106.154 119.509 110.713 115.992 114.745 111.917C118.619 108.002 121.968 103.598 124.707 98.8174" stroke="#FFA224" stroke-width="3" stroke-linejoin="round"/>
<path d="M90.2539 107.535C98.4662 102.834 105.272 96.0162 109.965 87.79" stroke="#FFA224" stroke-width="3" stroke-linejoin="round"/>
<path d="M118.977 91.7676C116.056 97.002 112.433 101.81 108.207 106.058C104.016 110.274 99.2623 113.889 94.082 116.799" stroke="#FFA224" stroke-width="3" stroke-linejoin="round"/>
<path d="M130.578 59.257C133.118 61.7913 134.835 65.0339 135.505 68.5612C136.174 72.0885 135.765 75.7362 134.332 79.0272C132.899 82.3181 130.507 85.0991 127.47 87.0067C124.434 88.9143 120.892 89.8593 117.311 89.7187C116.586 89.7025 115.864 89.6392 115.148 89.5286V89.5286C114.424 89.4099 113.709 89.2429 113.008 89.0285C112.453 88.8962 111.912 88.7129 111.391 88.4808L109.013 87.3609L87.3278 76.6431L86.543 76.2622C88.5918 72.1808 89.0091 67.47 87.7086 63.0913L89.9668 62.329L103.877 57.8039L111.391 55.4222C114.615 54.1215 118.147 53.7915 121.555 54.4726C124.964 55.1538 128.1 56.8167 130.578 59.257Z" stroke="white" stroke-width="3" stroke-linejoin="round"/>
<path d="M78.5766 84.123L78.9562 84.9092L89.656 106.63L90.8216 109.012C91.0356 109.536 91.202 110.084 91.3684 110.631C91.5825 111.334 91.7492 112.05 91.8677 112.775C91.8677 112.775 92.0575 114.276 92.0813 114.99C92.1858 117.652 91.6948 120.303 90.644 122.75C89.5932 125.197 88.0091 127.378 86.0081 129.133C84.0072 130.887 81.6398 132.171 79.0793 132.891C76.5188 133.61 73.8301 133.747 71.21 133.291C68.5899 132.836 66.1046 131.798 63.9364 130.256C61.7682 128.714 59.9724 126.705 58.6794 124.377C57.3864 122.05 56.6296 119.462 56.4642 116.803C56.2988 114.144 56.7294 111.482 57.7239 109.012V109.012L60.1016 101.51L64.6423 87.5526L65.3795 85.1709C69.749 86.5354 74.4763 86.1602 78.5766 84.123V84.123Z" stroke="white" stroke-width="3" stroke-linejoin="round"/>
<path d="M13.9062 39.6558C14.2391 39.1318 14.5718 38.5837 14.9047 38.0835L15.8799 36.5833C16.2399 35.9921 16.717 35.481 17.2824 35.0825C17.7375 34.7469 18.287 34.5636 18.8521 34.5586C19.4413 34.5932 20.0091 34.7911 20.4926 35.1302C20.8233 35.3517 21.0971 35.6483 21.2914 35.996C21.4856 36.3437 21.594 36.7329 21.6095 37.131C21.6148 37.52 21.5254 37.9042 21.3482 38.2504L21.1346 38.1073C21.4224 37.7407 21.7988 37.4541 22.2283 37.2741C22.6833 37.1032 23.1713 37.0379 23.6551 37.0834C24.1764 37.108 24.6793 37.2815 25.1052 37.5834C25.6308 37.9209 26.0504 38.3998 26.3173 38.965C26.574 39.5151 26.6411 40.1351 26.5077 40.7275C26.3472 41.4789 26.0405 42.1909 25.6045 42.8231L24.4876 44.4192C24.1309 44.9432 23.7494 45.467 23.3928 46.0148H23.2267L13.9295 39.7744L13.9062 39.6558ZM23.2511 43.4185L23.7503 42.6562C23.9044 42.4414 24.0465 42.2194 24.1776 41.9898C24.3808 41.7327 24.5193 41.4302 24.5816 41.1083C24.642 40.8659 24.642 40.6122 24.5816 40.3699C24.517 40.1608 24.4123 39.9666 24.2728 39.7983C24.1291 39.6632 23.9785 39.5362 23.8212 39.4174C23.5818 39.2598 23.3158 39.1465 23.0363 39.0836C22.7339 38.9929 22.4123 38.9929 22.1099 39.0836C21.7322 39.2647 21.4166 39.5553 21.2054 39.9175L19.803 41.9898L18.4713 41.0845L19.7554 39.1552C19.9623 38.8691 20.0856 38.5312 20.1118 38.1789C20.1363 37.9106 20.069 37.6417 19.9214 37.4165C19.784 37.2149 19.6064 37.0446 19.3989 36.9165C19.2006 36.7734 18.9727 36.6761 18.7325 36.631C18.4936 36.5493 18.2342 36.5493 17.9953 36.631C17.6754 36.7866 17.4105 37.0353 17.2348 37.345L16.854 37.9404L16.4024 38.5597L23.2511 43.4185Z" fill="white"/>
<path d="M24.3409 33.5829C24.1207 33.3854 23.8811 33.21 23.6269 33.059C23.4064 32.9302 23.1654 32.8412 22.9141 32.7967C22.9178 32.5672 22.9664 32.3406 23.0569 32.1298C23.1597 31.8896 23.2956 31.665 23.4609 31.4628C23.5665 31.3286 23.6992 31.2188 23.851 31.1407C24.0028 31.0626 24.1705 31.0182 24.3409 31.0104C24.6914 31.0703 25.0143 31.2365 25.2674 31.4867L28.1687 34.0829C28.417 34.3241 28.7186 34.5035 29.0488 34.6068C29.179 34.6305 29.3131 34.6162 29.4354 34.5656C29.5577 34.5149 29.663 34.4297 29.7384 34.3208C29.9027 34.1133 30.0305 33.8804 30.1181 33.6306C30.3533 33.0009 30.3533 32.3071 30.1181 31.6774L31.5925 32.9636C31.6636 33.525 31.6636 34.0931 31.5925 34.6545C31.4822 35.2296 31.2198 35.7641 30.8321 36.2024C30.5492 36.5537 30.1543 36.7975 29.714 36.8932C29.3016 37.0067 28.8668 37.0067 28.4543 36.8932C27.986 36.7073 27.5574 36.4327 27.1935 36.0838L24.3409 33.5829ZM31.8537 31.0819C32.0555 31.2719 32.289 31.4249 32.5434 31.5343C32.7482 31.6405 32.981 31.6821 33.2098 31.6535C33.3376 31.8432 33.4331 32.0523 33.4942 32.2728C33.528 32.4858 33.528 32.7029 33.4942 32.9159C33.3039 33.1251 33.0669 33.2858 32.8023 33.3852C32.5377 33.4846 32.2541 33.5198 31.9733 33.4875C31.4043 33.4301 30.8695 33.1874 30.4513 32.7967L25.957 28.7956C26.0354 28.6422 26.1314 28.4979 26.2426 28.3665C26.3564 28.2051 26.484 28.0538 26.6235 27.9141L27.0031 27.5094L27.3839 27.1523L31.8537 31.0819Z" fill="white"/>
<path d="M34.6151 30.8435C34.4548 30.6248 34.3264 30.3846 34.2343 30.1294C34.142 29.8699 34.102 29.5945 34.1159 29.3194C34.511 29.214 34.8994 29.087 35.2804 28.9385C35.6612 28.7816 36.0154 28.5644 36.3276 28.2954C36.5666 28.0926 36.7465 27.8293 36.8501 27.5331C36.8776 27.4222 36.8795 27.3063 36.8547 27.1947C36.83 27.0831 36.7791 26.9788 36.7073 26.89C36.6425 26.8129 36.5627 26.7496 36.4727 26.7045C36.3828 26.6595 36.2852 26.6334 36.1848 26.6278C35.9156 26.611 35.6461 26.6602 35.4 26.7708L34.4723 27.1523C34.1089 27.3103 33.7245 27.4143 33.3311 27.4616C32.9715 27.5467 32.5971 27.5467 32.2374 27.4616C31.8619 27.3504 31.53 27.1258 31.2866 26.8185C30.9526 26.4612 30.7295 26.0142 30.6445 25.5323C30.5714 25.053 30.6457 24.5631 30.8582 24.1274C31.0868 23.6201 31.4282 23.1719 31.8566 22.8174C32.2432 22.4672 32.6751 22.1705 33.1407 21.9358C33.5461 21.698 33.9768 21.5063 34.4247 21.3643C34.562 21.5029 34.6749 21.6639 34.758 21.8405C34.85 22.0226 34.9214 22.2143 34.9716 22.4121C35.0055 22.5851 35.0055 22.7636 34.9716 22.9366C34.6051 23.044 34.2481 23.1792 33.9023 23.3413C33.5246 23.5009 33.178 23.7268 32.8795 24.0082C32.6813 24.1611 32.5456 24.3814 32.4987 24.6275C32.4823 24.7255 32.4895 24.8255 32.5184 24.9206C32.5473 25.0156 32.5977 25.103 32.6658 25.1752C32.7906 25.3093 32.9587 25.3935 33.1407 25.4131C33.3794 25.4043 33.6139 25.348 33.8303 25.2468L34.8532 24.8415C35.4152 24.598 36.0246 24.4843 36.6364 24.5083C36.9372 24.5342 37.2298 24.6214 37.4956 24.7647C37.7614 24.9081 37.9946 25.1049 38.1817 25.3421C38.4425 25.602 38.6321 25.9243 38.732 26.2789C38.832 26.6335 38.8396 27.0081 38.7529 27.3662C38.5485 28.2296 38.0632 29.0002 37.3737 29.5572C36.9519 29.9428 36.4698 30.2569 35.9468 30.4864C35.5187 30.6579 35.0715 30.7776 34.6151 30.8435Z" fill="white"/>
<path d="M35.0683 17.339C34.8853 17.1083 34.755 16.8397 34.6875 16.5528C34.7572 16.3945 34.854 16.2496 34.9731 16.1243C35.1123 15.977 35.2632 15.8418 35.4247 15.7196C35.5872 15.5974 35.7631 15.4932 35.9483 15.4096C36.0948 15.3283 36.2563 15.2795 36.4232 15.2666C36.558 15.3298 36.6801 15.4191 36.7808 15.5288L37.0896 15.8388C37.2711 16.0765 37.3931 16.3537 37.446 16.6482C37.3667 16.7936 37.2707 16.9293 37.1604 17.0529C37.0299 17.2075 36.8875 17.3513 36.7332 17.482L36.2096 17.7914L35.7103 17.9344C35.4581 17.7818 35.2396 17.5792 35.0683 17.339ZM43.5099 24.2219C43.3943 24.3524 43.2665 24.4723 43.1291 24.5795L42.7007 24.9365L42.2259 25.2465L41.7731 25.5081L38.3017 20.8639C38.1782 20.6625 37.9961 20.5045 37.7792 20.4115C37.6703 20.3909 37.5577 20.3954 37.4507 20.4243C37.3436 20.4531 37.2443 20.5058 37.1604 20.5784H36.9944C36.7916 20.4347 36.6142 20.257 36.4708 20.0539L36.2339 19.7207L36.0668 19.3637C36.2296 19.1927 36.4049 19.033 36.5904 18.8869L37.042 18.5298L37.28 18.363C37.4475 18.2253 37.6423 18.1244 37.8512 18.067C38.0601 18.0095 38.2779 17.9971 38.4921 18.0298C38.9441 18.1409 39.3358 18.4226 39.5858 18.8159L43.5099 24.2219Z" fill="white"/>
<path d="M42.1044 15.0287C42.2511 14.9243 42.4215 14.8588 42.6002 14.8379C42.7789 14.8171 42.9606 14.8416 43.1273 14.9095C43.4955 15.0867 43.7957 15.3796 43.9829 15.7433L47.4787 21.5546L47.0747 21.8877L46.5986 22.1977L46.0994 22.4593C45.9417 22.5497 45.7743 22.6218 45.6002 22.6739L41.3672 15.5287V15.3857L42.1044 15.0287ZM50.5217 17.4104C50.6571 17.6689 50.8248 17.9091 51.0209 18.125C51.1897 18.3174 51.3909 18.4785 51.6153 18.6012C51.5515 18.8227 51.4373 19.0264 51.2821 19.1967C51.1148 19.3879 50.9235 19.556 50.7121 19.6967C50.5769 19.8049 50.417 19.8769 50.2465 19.9061C50.076 19.9352 49.9001 19.9207 49.7368 19.8636C49.4241 19.6954 49.1675 19.4384 48.9996 19.1252L47.0027 15.8148C46.8495 15.5014 46.6212 15.2311 46.3374 15.0287C46.2258 14.9508 46.0926 14.9089 45.9566 14.9089C45.8206 14.9089 45.6874 14.9508 45.5758 15.0287C45.3583 15.1709 45.1661 15.3479 45.0058 15.5526C44.8243 15.8138 44.6879 16.1039 44.6017 16.4103C44.4996 16.7496 44.4587 17.1044 44.4821 17.4581L43.4605 15.7671C43.5806 15.2092 43.7808 14.6714 44.0549 14.171C44.3195 13.663 44.7232 13.2415 45.2194 12.9563C45.5978 12.7018 46.0482 12.5767 46.5034 12.5993C46.9322 12.6485 47.3378 12.8223 47.6691 13.0993C48.0534 13.4161 48.382 13.7943 48.6432 14.2187L50.5217 17.4104Z" fill="white"/>
<path d="M53.1353 14.5051L52.5165 13.1236L55.7986 11.671V11.4803C55.6872 11.2068 55.5255 10.9563 55.3226 10.7418C55.1482 10.5358 54.9169 10.3867 54.6574 10.3133C54.3952 10.2244 54.1103 10.2244 53.8482 10.3133C53.6439 10.3868 53.4659 10.5184 53.335 10.6918C53.2041 10.8652 53.1259 11.0727 53.1109 11.2896C53.1209 11.8865 53.2677 12.473 53.5393 13.0044L53.8006 13.6236C53.9592 14.0063 54.1676 14.3665 54.4194 14.6953C54.6125 14.981 54.8976 15.1912 55.2274 15.2907C55.4132 15.347 55.6095 15.3636 55.8021 15.339C55.9947 15.3144 56.1797 15.2495 56.3455 15.1483C56.7151 15.0082 57.054 14.7979 57.3439 14.529C57.6439 14.292 57.9226 14.0288 58.1764 13.7428C58.4105 13.829 58.6213 13.9673 58.794 14.1475C58.9795 14.3047 59.1404 14.4894 59.27 14.6953C58.992 15.1632 58.6386 15.5817 58.224 15.9338C57.7724 16.3149 57.2669 16.6281 56.7251 16.863C56.1928 17.1244 55.6066 17.2548 55.0138 17.2439C54.5143 17.221 54.0303 17.0649 53.6113 16.7915C53.1814 16.5276 52.8083 16.1794 52.5165 15.7675C52.2003 15.3193 51.9299 14.8403 51.7084 14.3383C51.3889 13.648 51.1962 12.906 51.1384 12.1473C51.1004 11.474 51.2571 10.804 51.59 10.2179C51.9609 9.59585 52.5299 9.11731 53.2061 8.86019C53.7897 8.57865 54.4418 8.47145 55.0846 8.55085C55.6645 8.62033 56.211 8.86081 56.6543 9.24164C57.1265 9.64391 57.5005 10.1487 57.748 10.718C57.8729 10.9598 57.969 11.2158 58.0336 11.4803C58.114 11.7038 58.1694 11.9355 58.1996 12.1711L53.1353 14.5051Z" fill="white"/>
<path d="M60.8894 14.2901C60.7997 13.745 60.8579 13.186 61.0566 12.6707C61.4655 12.7431 61.8784 12.791 62.2931 12.8137C62.704 12.8321 63.1143 12.7754 63.5052 12.6468C63.8042 12.5604 64.0751 12.3961 64.29 12.1706C64.3574 12.0794 64.4047 11.9749 64.4293 11.8642C64.4539 11.7534 64.4553 11.6387 64.4328 11.5275C64.3697 11.3328 64.2328 11.1706 64.052 11.0751C63.8053 10.9612 63.5386 10.8963 63.2672 10.8844H62.2687C61.875 10.8596 61.4853 10.7956 61.1042 10.6937C60.7544 10.5869 60.4307 10.4085 60.1534 10.1698C59.8628 9.90633 59.6485 9.56903 59.5345 9.19345C59.4052 8.71784 59.4052 8.21596 59.5345 7.74035C59.6721 7.28 59.9353 6.86746 60.295 6.54949C60.7105 6.1776 61.2081 5.90823 61.7462 5.76334C62.239 5.60228 62.7497 5.50651 63.2672 5.47783C63.7407 5.41624 64.2205 5.41624 64.694 5.47783C64.7585 5.65411 64.7992 5.83839 64.8136 6.02558C64.838 6.23127 64.838 6.43916 64.8136 6.64485C64.7897 6.82408 64.7244 6.99521 64.6232 7.14492C64.2432 7.11822 63.8619 7.11822 63.4819 7.14492C63.0705 7.14803 62.6613 7.21243 62.2687 7.33564C62.0377 7.40105 61.8369 7.54381 61.6986 7.74035C61.6528 7.82862 61.629 7.92693 61.629 8.02643C61.629 8.12594 61.6528 8.22367 61.6986 8.31194C61.7212 8.39972 61.7619 8.48155 61.8194 8.55151C61.8769 8.62147 61.949 8.67767 62.0307 8.71665C62.2512 8.80167 62.4842 8.85009 62.7203 8.85969H63.814C64.4251 8.8691 65.0269 9.01601 65.5741 9.28882C65.8688 9.45119 66.1253 9.67433 66.3275 9.94356C66.5298 10.2128 66.6737 10.5214 66.7478 10.8501C66.822 11.1787 66.8253 11.5194 66.7583 11.8496C66.6913 12.1798 66.5553 12.4925 66.3589 12.766C65.814 13.4786 65.0423 13.9826 64.1716 14.1947C63.6321 14.3611 63.0711 14.4496 62.5067 14.457C61.963 14.4661 61.4198 14.41 60.8894 14.2901Z" fill="white"/>
<path d="M68.2581 12.0039C68.2251 11.7349 68.2251 11.4628 68.2581 11.1939C68.3119 10.9261 68.4085 10.6692 68.5438 10.4321C68.9427 10.5422 69.347 10.6293 69.7558 10.6938C70.1568 10.7661 70.5681 10.7661 70.9691 10.6938C71.2777 10.651 71.5673 10.5187 71.8015 10.3129C71.8894 10.2332 71.9544 10.1319 71.9919 10.0193C72.0294 9.90664 72.0377 9.78639 72.0151 9.66981C71.9947 9.57198 71.9551 9.47898 71.8979 9.3971C71.8407 9.31522 71.7667 9.24628 71.6819 9.19359C71.4586 9.0527 71.2067 8.96296 70.9447 8.93134L69.9462 8.7883C69.5562 8.72462 69.1738 8.62115 68.805 8.47895C68.4642 8.33745 68.1568 8.12655 67.9017 7.85968C67.6515 7.55698 67.4801 7.1971 67.4025 6.81187C67.2565 6.34675 67.2565 5.84772 67.4025 5.3826C67.5685 4.93148 67.8666 4.5413 68.2581 4.26326C68.7241 3.96164 69.2394 3.74396 69.7802 3.62015C70.3021 3.56932 70.828 3.56932 71.3499 3.62015C71.8227 3.63691 72.2922 3.70092 72.7524 3.81088C72.7779 4.00056 72.7779 4.19278 72.7524 4.38246C72.7752 4.58028 72.7752 4.78007 72.7524 4.97789C72.6925 5.14568 72.6125 5.3055 72.5144 5.45412C72.1389 5.36362 71.7576 5.29977 71.3731 5.2634C70.972 5.19213 70.5621 5.19213 70.161 5.2634C69.9193 5.28908 69.6967 5.40915 69.5422 5.59717C69.4729 5.67308 69.4232 5.76484 69.3982 5.86464C69.3733 5.96444 69.3739 6.0691 69.3994 6.16875C69.4358 6.34317 69.5383 6.49661 69.685 6.5973C69.8997 6.71062 70.1336 6.78349 70.3746 6.81187L71.4451 6.95433C72.0586 7.02975 72.6447 7.25021 73.1564 7.59744C73.4089 7.76124 73.6232 7.97854 73.7833 8.23357C73.9435 8.4886 74.0459 8.77552 74.084 9.07438C74.1742 9.43242 74.1731 9.8075 74.0817 10.1652C73.9904 10.523 73.8112 10.8517 73.5604 11.1223C72.9257 11.778 72.0872 12.198 71.1827 12.3132C70.623 12.3956 70.0543 12.3956 69.4946 12.3132C69.0731 12.2521 68.6588 12.1487 68.2581 12.0039Z" fill="white"/>
<path d="M81.6232 3.95291C81.5891 3.77191 81.5891 3.58616 81.6232 3.40516C81.6694 3.17553 81.7408 2.95234 81.8369 2.73879C81.9114 2.56112 82.0075 2.39269 82.1225 2.23814L83.0733 2.57191C83.4462 2.69322 83.7988 2.86978 84.1194 3.09582L85.119 3.73893C85.1524 3.79686 85.1689 3.86276 85.1689 3.92965C85.1689 3.99655 85.1524 4.06187 85.119 4.1198C85.1093 4.19216 85.0754 4.25947 85.0238 4.3111C84.9723 4.36273 84.9056 4.39611 84.8334 4.40588H83.6445C83.2584 4.40073 82.8748 4.34451 82.5033 4.239L81.6232 3.95291ZM84.001 7.50223L83.5017 7.28767C83.2984 7.17229 83.1067 7.03682 82.9305 6.88296C82.7783 6.76672 82.6426 6.63014 82.5265 6.47768L83.1453 5.66826C83.3788 5.34277 83.6583 5.05356 83.9766 4.81059L84.881 4.07212C84.9442 4.04237 85.0132 4.02734 85.083 4.02734C85.1529 4.02734 85.2218 4.04237 85.285 4.07212C85.3375 4.11725 85.3779 4.17462 85.4035 4.239C85.4273 4.30026 85.4273 4.36846 85.4035 4.42972C85.2608 4.78698 85.1421 5.16799 84.9994 5.54906C84.8688 5.91861 84.6937 6.27045 84.477 6.59688L84.001 7.50223ZM84.3342 0.642578H84.881H85.5706C85.7647 0.661046 85.9554 0.701101 86.1407 0.76178V1.76192C86.1238 2.15712 86.0598 2.54887 85.9503 2.92894C85.8552 3.34177 85.761 3.7228 85.6658 4.07212C85.6252 4.12944 85.571 4.17685 85.5091 4.20993C85.4472 4.243 85.3784 4.261 85.3083 4.26284C85.2398 4.26566 85.1718 4.25173 85.1097 4.22272C85.0477 4.19371 84.9936 4.1503 84.9518 4.09596C84.8329 3.7387 84.7375 3.35767 84.6186 2.95278C84.5015 2.57359 84.4301 2.18187 84.405 1.78576L84.3342 0.642578ZM88.0668 6.38231C87.9788 6.54842 87.8576 6.69482 87.7104 6.81144C87.5464 6.95943 87.3711 7.09459 87.1868 7.21615C87.0199 7.31787 86.8456 7.40576 86.6643 7.47839L86.0931 6.64456C85.861 6.31981 85.67 5.96802 85.523 5.59674L85.119 4.50124C85.1143 4.42902 85.126 4.35648 85.155 4.29017C85.184 4.22386 85.2289 4.16535 85.285 4.1198H85.4511C85.5287 4.0973 85.6114 4.0973 85.6891 4.1198L86.6167 4.83443C86.9341 5.06908 87.2149 5.3503 87.4491 5.66826L88.0668 6.38231ZM88.2804 2.16662C88.4182 2.29981 88.5248 2.46319 88.5904 2.64343C88.6865 2.84869 88.758 3.06456 88.804 3.28654C88.8477 3.47457 88.8477 3.6701 88.804 3.85813L87.8288 4.14364C87.4611 4.26854 87.0757 4.33307 86.6875 4.33436H85.523C85.4513 4.31741 85.3845 4.28209 85.3303 4.23202C85.2762 4.18195 85.2356 4.11854 85.2131 4.04828C85.1854 3.98858 85.1713 3.92395 85.1713 3.85813C85.1713 3.79232 85.1854 3.72711 85.2131 3.66741L86.1883 3.00046C86.5165 2.7809 86.8671 2.5973 87.2344 2.45271L88.2804 2.16662Z" fill="white"/>
<path d="M98.8141 0H98.9325L100.978 0.404706L100.645 2.21484C100.645 2.42919 100.645 2.64352 100.527 2.78643C100.408 2.92933 100.527 3.14368 100.527 3.38186L99.5037 8.78841C99.5037 8.97895 99.5037 9.14615 99.5037 9.28906C99.5037 9.43196 99.5042 9.59859 99.3853 9.78913L99.0521 11.6231L98.1489 11.4562C97.8063 11.4 97.4983 11.2121 97.292 10.9323C97.196 10.782 97.1344 10.6125 97.1098 10.4357C97.0851 10.259 97.0979 10.0787 97.1492 9.90775L98.8141 0ZM104.354 10.6701C104.296 11.1603 104.097 11.6234 103.783 12.004C103.613 12.1427 103.411 12.2369 103.196 12.2784C102.98 12.32 102.756 12.3079 102.547 12.2424L98.1013 11.3847L98.4577 9.5984L99.3609 9.7176L100.359 9.88449L104.354 10.6701ZM103.95 5.69264C103.974 5.85052 103.974 6.01098 103.95 6.16886C103.966 6.3193 103.966 6.47081 103.95 6.62125C103.95 6.74034 103.95 6.88308 103.95 7.0498C103.95 7.21652 103.831 7.35986 103.783 7.50277L101.001 6.97828L100.479 6.85966L99.7894 6.71661L99.1949 6.59741L99.5037 4.83496L100.121 4.95416H100.811H101.335L103.95 5.69264ZM105.757 1.2147C105.769 1.37324 105.769 1.53239 105.757 1.69093V2.09622C105.757 2.2153 105.757 2.38188 105.638 2.5486C105.574 2.72182 105.494 2.88906 105.4 3.04867L101.809 2.35788H101.263L100.597 2.21484L99.9798 2.07238L100.336 0.262245L105.757 1.2147Z" fill="white"/>
<path d="M111.487 9.74141C111.592 9.4066 111.672 9.06381 111.725 8.71685C111.773 8.44113 111.73 8.15772 111.605 7.90744C111.532 7.78731 111.435 7.68285 111.321 7.601C111.207 7.51916 111.077 7.46174 110.94 7.43121C110.735 7.36231 110.514 7.35715 110.306 7.41668C110.098 7.4762 109.912 7.59736 109.774 7.7644C109.342 8.32289 109.028 8.96288 108.848 9.64605C108.584 10.2947 108.509 11.0047 108.633 11.694C108.705 11.9206 108.832 12.1262 109.002 12.2923C109.172 12.4585 109.38 12.5803 109.608 12.647C109.954 12.7176 110.309 12.7176 110.654 12.647C111.001 12.5956 111.344 12.5157 111.677 12.4086C111.844 12.602 111.965 12.8298 112.034 13.0756C112.077 13.3358 112.077 13.6016 112.034 13.8617C111.536 14.1073 110.995 14.2528 110.441 14.2903C109.848 14.3462 109.248 14.2812 108.681 14.0996C108.163 13.9406 107.685 13.6731 107.278 13.314C106.928 12.9785 106.667 12.5611 106.518 12.0993C106.348 11.6184 106.274 11.1079 106.303 10.5985C106.341 10.017 106.444 9.44173 106.612 8.88374C106.806 8.22498 107.112 7.60455 107.516 7.04977C107.835 6.61173 108.249 6.25326 108.728 6.00195C109.137 5.77412 109.593 5.64393 110.06 5.62108C110.51 5.59118 110.963 5.64735 111.392 5.78738C111.819 5.91754 112.221 6.11884 112.581 6.38281C112.884 6.62024 113.141 6.911 113.341 7.24049C113.508 7.55241 113.621 7.89057 113.674 8.24063C113.748 8.57797 113.748 8.92784 113.674 9.26518C113.639 9.41316 113.575 9.55243 113.485 9.67512C113.395 9.79782 113.281 9.901 113.151 9.97924C112.876 10.088 112.57 10.088 112.295 9.97924L111.843 9.81293L111.487 9.74141Z" fill="white"/>
<path d="M121.617 14.6951C121.32 15.4226 120.875 16.08 120.309 16.6244C119.812 17.0838 119.193 17.39 118.526 17.5059C117.809 17.5921 117.082 17.4677 116.434 17.1483C115.764 16.8717 115.186 16.4094 114.769 15.815C114.433 15.2286 114.26 14.562 114.27 13.8857C114.297 13.0613 114.492 12.251 114.841 11.5039C115.15 10.7899 115.593 10.1427 116.148 9.59845C116.649 9.14346 117.267 8.83787 117.932 8.71693C118.646 8.65461 119.365 8.77783 120.019 9.07396C120.673 9.37009 121.239 9.82967 121.664 10.4084C122.02 10.988 122.202 11.6572 122.188 12.3372C122.164 13.1544 121.969 13.9576 121.617 14.6951ZM116.861 12.5518C116.666 12.9632 116.514 13.3944 116.41 13.838C116.325 14.1982 116.325 14.5732 116.41 14.9335C116.542 15.2569 116.794 15.5166 117.113 15.6586C117.432 15.8005 117.794 15.814 118.122 15.6958C118.452 15.5249 118.73 15.2702 118.93 14.9573C119.181 14.5857 119.404 14.1956 119.597 13.7903C119.775 13.3742 119.917 12.944 120.024 12.5041C120.119 12.145 120.119 11.7676 120.024 11.4086C119.972 11.2416 119.883 11.0886 119.764 10.9608C119.644 10.833 119.497 10.7335 119.334 10.6701C119.175 10.5939 119 10.5544 118.823 10.5544C118.646 10.5544 118.472 10.5939 118.313 10.6701C117.986 10.8365 117.714 11.0928 117.528 11.4086C117.269 11.7628 117.054 12.1465 116.886 12.5518H116.861Z" fill="white"/>
<path d="M126.87 12.7903C127.033 12.8724 127.173 12.9935 127.277 13.1432C127.381 13.293 127.445 13.4662 127.465 13.6474C127.467 14.0562 127.342 14.4556 127.108 14.7906L123.566 20.5786L123.115 20.364C122.938 20.2968 122.77 20.2086 122.614 20.1017L122.139 19.7686C121.989 19.6769 121.845 19.573 121.711 19.4586L126.015 12.3135H126.158L126.87 12.7903ZM128.583 21.388C128.427 21.6351 128.3 21.8989 128.202 22.1741C128.109 22.4092 128.06 22.6597 128.059 22.9126C127.832 22.9594 127.597 22.9594 127.37 22.9126C127.116 22.8633 126.874 22.7661 126.657 22.6265C126.501 22.5602 126.366 22.4557 126.262 22.3224C126.158 22.1891 126.089 22.0312 126.062 21.8642C126.055 21.5062 126.164 21.1556 126.371 20.8641L128.392 17.5537C128.598 17.2648 128.729 16.9289 128.773 16.5768C128.773 16.3387 128.654 16.1243 128.345 15.9576C128.127 15.8242 127.885 15.7355 127.632 15.6959C127.317 15.6486 126.996 15.6486 126.681 15.6959C126.326 15.7683 125.987 15.9054 125.682 16.1006L126.729 14.4097C127.272 14.2653 127.831 14.1931 128.392 14.1951C128.97 14.193 129.538 14.3499 130.033 14.6481C130.424 14.8873 130.738 15.2345 130.936 15.6482C131.056 16.0523 131.056 16.4827 130.936 16.8868C130.849 17.3794 130.663 17.8489 130.389 18.2678L128.583 21.388Z" fill="white"/>
<path d="M137.667 25.6039C137.19 26.2272 136.592 26.7463 135.908 27.1285C135.313 27.4568 134.633 27.5977 133.957 27.5332C133.245 27.458 132.575 27.167 132.032 26.6994C131.452 26.2598 131.007 25.6656 130.748 24.9846C130.558 24.3314 130.558 23.6376 130.748 22.9844C130.975 22.2363 131.347 21.54 131.842 20.9358C132.32 20.3207 132.918 19.8098 133.601 19.435C134.184 19.0976 134.856 18.9481 135.527 19.0065C136.24 19.1156 136.913 19.4109 137.476 19.8624C138.04 20.3139 138.474 20.9059 138.737 21.5789C138.939 22.2223 138.939 22.9126 138.737 23.556C138.527 24.3061 138.162 25.0036 137.667 25.6039ZM133.601 22.3413C133.307 22.6937 133.052 23.0769 132.84 23.4844C132.661 23.805 132.562 24.1648 132.555 24.5322C132.566 24.7073 132.618 24.8774 132.704 25.03C132.791 25.1826 132.91 25.3133 133.054 25.4132C133.185 25.5229 133.337 25.6048 133.501 25.6539C133.664 25.703 133.835 25.7186 134.005 25.6993C134.371 25.6165 134.709 25.4354 134.98 25.1754C135.324 24.8852 135.635 24.5573 135.908 24.1985C136.193 23.8483 136.447 23.4738 136.668 23.0791C136.846 22.7494 136.944 22.3823 136.954 22.0075C136.936 21.834 136.882 21.6661 136.796 21.5144C136.71 21.3627 136.594 21.2309 136.454 21.1266C136.326 21.0144 136.173 20.9323 136.009 20.887C135.844 20.8416 135.672 20.8339 135.504 20.8643C135.139 20.938 134.801 21.1109 134.528 21.3644C134.184 21.6543 133.873 21.9822 133.601 22.3413Z" fill="white"/>
<path d="M143.445 25.0798C143.576 25.2027 143.675 25.3561 143.733 25.5264C143.791 25.6967 143.807 25.8785 143.778 26.0561C143.671 26.4476 143.447 26.7973 143.136 27.0568L138.142 31.6534C138.001 31.5507 137.866 31.4396 137.738 31.3202L137.358 30.9149L136.977 30.4864L136.668 30.0578L142.732 24.4844H142.898L143.445 25.0798ZM143.445 29.8432C143.738 29.6213 143.953 29.3129 144.062 28.9617C144.077 28.8417 144.066 28.7199 144.029 28.6047C143.992 28.4895 143.931 28.3843 143.849 28.2954C143.639 28.0909 143.375 27.9501 143.088 27.8901C142.748 27.7927 142.396 27.745 142.042 27.7476C141.703 27.772 141.367 27.8356 141.043 27.9378L142.494 26.6039C142.906 26.5803 143.319 26.5803 143.73 26.6039C144.133 26.6448 144.525 26.7496 144.895 26.9138C145.259 27.0471 145.586 27.268 145.846 27.5569C146.15 27.8599 146.35 28.2519 146.417 28.6762C146.473 29.0833 146.406 29.4978 146.226 29.8671C146.047 30.2913 145.771 30.6667 145.418 30.9626L141.138 34.8928L140.758 34.559L140.354 34.1543L139.973 33.7252L139.665 33.2966L143.445 29.8432ZM146.488 33.1536C146.787 32.932 146.997 32.6115 147.082 32.2488C147.097 32.1324 147.085 32.0141 147.048 31.9028C147.011 31.7916 146.95 31.6901 146.869 31.6057C146.674 31.3932 146.415 31.251 146.131 31.201C145.785 31.1385 145.431 31.1385 145.085 31.201C144.715 31.2061 144.347 31.2618 143.992 31.3673L145.584 29.9148C145.987 29.8675 146.395 29.8675 146.798 29.9148C147.199 29.9986 147.589 30.1262 147.962 30.2956C148.323 30.4472 148.647 30.6747 148.913 30.9626C149.207 31.2789 149.398 31.6777 149.46 32.1058C149.502 32.5048 149.437 32.9079 149.271 33.2728C149.061 33.6853 148.779 34.0564 148.438 34.3683L145.609 36.9646C145.392 37.1606 145.193 37.3759 145.014 37.6077C144.859 37.8168 144.737 38.0502 144.657 38.2985C144.432 38.2637 144.215 38.191 144.015 38.0839C143.779 37.9685 143.569 37.8065 143.397 37.6077C143.272 37.4945 143.175 37.3542 143.113 37.1972C143.051 37.0402 143.027 36.8705 143.041 36.7023C143.148 36.3624 143.345 36.0582 143.611 35.8214L146.488 33.1536Z" fill="white"/>
<path d="M147.01 42.5376L146.676 42.1561L146.32 41.7037L146.011 41.2275L145.75 40.7513L150.505 37.3927C150.711 37.285 150.871 37.1078 150.957 36.8926C150.99 36.7876 150.995 36.6762 150.974 36.5681C150.954 36.4601 150.907 36.3587 150.837 36.2733L150.695 36.0832C150.859 35.898 151.043 35.7299 151.242 35.5825L151.599 35.3685L151.956 35.1778L152.407 35.7256C152.53 35.8674 152.641 36.0186 152.74 36.178L152.93 36.4164C153.182 36.7763 153.285 37.2206 153.215 37.6549C153.093 38.1028 152.804 38.4864 152.407 38.7266L147.01 42.5376ZM154.143 34.2492C154.38 34.0674 154.657 33.9446 154.951 33.8916C155.103 33.9592 155.24 34.0566 155.355 34.1777C155.503 34.3163 155.639 34.4676 155.76 34.6301C155.882 34.8013 155.985 34.9849 156.069 35.1778C156.129 35.3327 156.176 35.4918 156.212 35.6541C156.132 35.7843 156.035 35.9046 155.926 36.0117C155.827 36.1203 155.715 36.216 155.593 36.2972C155.35 36.4695 155.076 36.5914 154.785 36.6548C154.635 36.5732 154.499 36.4685 154.381 36.3448C154.227 36.2119 154.092 36.06 153.977 35.8925C153.854 35.7343 153.758 35.5575 153.691 35.3685C153.61 35.2219 153.561 35.0595 153.548 34.8923C153.668 34.6383 153.848 34.4175 154.072 34.2492H154.143Z" fill="white"/>
<path d="M154.807 45.9908C155.107 45.8226 155.394 45.6316 155.664 45.4193C155.888 45.2463 156.047 45.0029 156.116 44.7285C156.149 44.5895 156.15 44.4451 156.122 44.3052C156.093 44.1652 156.034 44.033 155.949 43.9185C155.847 43.7301 155.69 43.5787 155.498 43.4847C155.306 43.3907 155.09 43.359 154.879 43.3946C154.176 43.508 153.503 43.7678 152.906 44.1569C152.273 44.4555 151.742 44.9367 151.384 45.5385C151.267 45.7456 151.206 45.9792 151.206 46.217C151.206 46.4549 151.267 46.6885 151.384 46.8956C151.55 47.2085 151.797 47.4717 152.098 47.6579C152.38 47.864 152.682 48.0396 153.001 48.1818C152.988 48.4307 152.923 48.6742 152.81 48.8965C152.703 49.1383 152.55 49.3569 152.359 49.5396C151.819 49.4058 151.315 49.1535 150.884 48.8011C150.406 48.4448 150.009 47.9899 149.72 47.4672C149.43 47.0082 149.259 46.4848 149.221 45.9432C149.181 45.4622 149.262 44.9788 149.458 44.5377C149.658 44.0653 149.95 43.6365 150.314 43.2754C150.724 42.8648 151.188 42.5124 151.694 42.2275C152.28 41.8681 152.923 41.6102 153.595 41.4652C154.12 41.3449 154.664 41.3449 155.188 41.4652C155.641 41.5785 156.063 41.7899 156.425 42.0845C156.773 42.365 157.071 42.7037 157.305 43.0852C157.531 43.477 157.691 43.9035 157.78 44.3476C157.864 44.724 157.864 45.1144 157.78 45.4908C157.716 45.8342 157.578 46.1592 157.376 46.4432C157.17 46.7216 156.912 46.9564 156.615 47.134C156.488 47.2226 156.345 47.2851 156.194 47.3178C156.043 47.3505 155.887 47.353 155.735 47.3248C155.463 47.2121 155.237 47.0107 155.093 46.7532C155.093 46.6103 154.927 46.467 154.879 46.3479C154.848 46.2305 154.823 46.1114 154.807 45.9908Z" fill="white"/>
<path d="M152.716 51.0169C153.244 50.858 153.806 50.858 154.334 51.0169C154.31 51.4294 154.31 51.843 154.334 52.2555C154.355 52.6666 154.452 53.0703 154.619 53.4463C154.738 53.7338 154.935 53.9817 155.189 54.161C155.291 54.2195 155.406 54.2505 155.523 54.2505C155.639 54.2505 155.755 54.2195 155.856 54.161C155.946 54.121 156.026 54.0622 156.091 53.9883C156.157 53.9143 156.206 53.827 156.235 53.7324C156.331 53.4903 156.372 53.2298 156.355 52.9701V51.9461C156.307 51.5506 156.307 51.1508 156.355 50.7553C156.423 50.3944 156.568 50.0531 156.782 49.7551C157.02 49.4464 157.33 49.201 157.685 49.0405C158.13 48.8309 158.629 48.7641 159.112 48.8498C159.582 48.9325 160.02 49.1473 160.373 49.4691C160.782 49.8491 161.106 50.312 161.324 50.8268C161.526 51.2998 161.67 51.7954 161.752 52.3032C161.863 52.7711 161.91 53.2519 161.894 53.7324C161.722 53.816 161.537 53.8724 161.347 53.8993C161.143 53.9349 160.934 53.9349 160.73 53.8993C160.565 53.9379 160.395 53.9379 160.23 53.8993C160.253 53.5186 160.253 53.1369 160.23 52.7561C160.189 52.3456 160.085 51.9439 159.922 51.5653C159.883 51.4497 159.82 51.3432 159.738 51.253C159.656 51.1628 159.557 51.0904 159.446 51.0408C159.356 51 159.258 50.9791 159.16 50.9791C159.062 50.9791 158.964 51 158.874 51.0408C158.791 51.0744 158.717 51.1261 158.655 51.192C158.593 51.2578 158.546 51.3365 158.518 51.4222C158.476 51.6505 158.476 51.8847 158.518 52.113V53.2085C158.578 53.8222 158.497 54.4415 158.28 55.0187C158.151 55.3287 157.96 55.6077 157.716 55.8379C157.472 56.0682 157.181 56.2441 156.865 56.3543C156.548 56.4645 156.213 56.5067 155.879 56.4776C155.545 56.4485 155.221 56.349 154.928 56.1857C154.163 55.7159 153.577 55.003 153.263 54.161C153.039 53.6444 152.887 53.0996 152.812 52.5416C152.729 52.0379 152.697 51.527 152.716 51.0169Z" fill="white"/>
<path d="M160.422 65.3776C160.437 65.1905 160.476 65.0062 160.54 64.8299C160.592 64.6103 160.68 64.401 160.802 64.2106C160.876 64.035 160.982 63.874 161.112 63.7344L162.038 64.1391C162.392 64.3191 162.726 64.5346 163.036 64.7822L163.941 65.5207C163.974 65.5829 163.991 65.6524 163.991 65.723C163.991 65.7937 163.974 65.8631 163.941 65.9254L163.821 66.0923C163.759 66.1051 163.694 66.1051 163.631 66.0923L162.466 65.9254C162.067 65.8838 161.674 65.788 161.301 65.6399L160.422 65.3776ZM162.371 69.1409C162.201 69.0765 162.041 68.9881 161.895 68.8787L161.373 68.4263C161.231 68.2952 161.111 68.1426 161.016 67.9739L161.706 67.2354C161.969 66.9394 162.273 66.6826 162.609 66.4731L163.584 65.8306C163.648 65.8008 163.717 65.7852 163.786 65.7852C163.856 65.7852 163.925 65.8008 163.988 65.8306L164.107 65.973C164.12 66.0519 164.12 66.1326 164.107 66.2115C163.964 66.5449 163.774 66.902 163.608 67.2593C163.433 67.6163 163.217 67.9518 162.966 68.2594L162.371 69.1409ZM163.394 62.3528C163.575 62.3212 163.76 62.3212 163.941 62.3528C164.17 62.3294 164.401 62.3294 164.63 62.3528C164.819 62.3836 165.003 62.4398 165.177 62.5197L165.058 63.5198C165.008 63.9108 164.913 64.295 164.773 64.6636C164.607 65.0685 164.488 65.4256 164.345 65.7829C164.248 65.8741 164.121 65.9248 163.988 65.9254C163.927 65.9493 163.859 65.9493 163.798 65.9254C163.761 65.913 163.729 65.8913 163.704 65.862C163.679 65.8326 163.662 65.7972 163.655 65.7591C163.655 65.4018 163.489 65.0208 163.417 64.6159C163.371 64.2282 163.371 63.8365 163.417 63.4489L163.394 62.3528ZM166.532 68.4501C166.421 68.5999 166.284 68.7292 166.128 68.8316C165.953 68.9728 165.761 69.0925 165.557 69.1886C165.389 69.2871 165.203 69.3521 165.01 69.3793L164.511 68.4978C164.316 68.1554 164.172 67.7864 164.084 67.4023C163.965 66.9974 163.869 66.6164 163.798 66.283C163.793 66.2115 163.809 66.1397 163.842 66.0766C163.876 66.0134 163.926 65.961 163.988 65.9254C164.11 65.8751 164.246 65.8751 164.368 65.9254L165.225 66.7592C165.523 67.0199 165.78 67.3249 165.985 67.664L166.532 68.4501ZM167.174 64.2583C167.281 64.4103 167.362 64.5794 167.412 64.7583C167.49 64.9826 167.545 65.214 167.578 65.4491C167.601 65.639 167.601 65.8309 167.578 66.0207L166.603 66.2115C166.208 66.2613 165.809 66.2613 165.414 66.2115H164.25C164.184 66.1855 164.126 66.1434 164.08 66.0893C164.035 66.0353 164.003 65.9708 163.988 65.9015C163.962 65.8374 163.948 65.7687 163.948 65.6992C163.948 65.6297 163.962 65.5609 163.988 65.4968L165.01 64.9491C165.354 64.7532 165.722 64.6013 166.104 64.4967L167.174 64.2583Z" fill="white"/>
<path d="M170.908 78.3818H171.028V80.4781H169.197H168.008L162.515 80.6211H161.493H159.638V79.8588C159.622 79.6873 159.641 79.5144 159.694 79.3506C159.747 79.1867 159.834 79.0356 159.947 78.9063C160.078 78.7844 160.231 78.6898 160.399 78.6284C160.566 78.567 160.744 78.5398 160.922 78.5487L170.908 78.3818ZM161.707 86.0515C161.217 86.1019 160.721 86.0108 160.28 85.7892C160.105 85.6584 159.967 85.4844 159.88 85.2839C159.792 85.0835 159.758 84.8636 159.781 84.6461L159.662 80.121H161.469V81.0258C161.469 81.3116 161.469 81.6449 161.469 82.0259L161.707 86.0515ZM166.463 84.6222H165.987H165.535H165.107H164.632V81.7881C164.618 81.6137 164.618 81.4386 164.632 81.2642V80.5496C164.62 80.3433 164.62 80.1365 164.632 79.9303H166.391C166.391 80.097 166.391 80.3114 166.391 80.5496C166.378 80.7796 166.378 81.0103 166.391 81.2404C166.376 81.4227 166.376 81.6058 166.391 81.7881L166.463 84.6222ZM171.218 85.4561H170.742H169.862H169.315V81.7881V79.8588H171.146L171.218 85.4561Z" fill="white"/>
<path d="M160.918 95.3164C160.634 95.2813 160.345 95.2813 160.061 95.3164C159.799 95.3401 159.543 95.4046 159.301 95.5071C159.191 95.3111 159.103 95.1034 159.039 94.8878C158.992 94.628 158.992 94.3615 159.039 94.1017C159.038 93.9325 159.079 93.7658 159.158 93.6162C159.237 93.4665 159.351 93.339 159.491 93.2446C159.808 93.088 160.167 93.0377 160.514 93.1016L164.365 93.5063C164.709 93.5841 165.067 93.5841 165.411 93.5063C165.531 93.4429 165.631 93.3465 165.699 93.2283C165.766 93.1102 165.798 92.9752 165.792 92.8393C165.846 92.5881 165.846 92.3282 165.792 92.077C165.713 91.7753 165.576 91.4924 165.388 91.2437C165.168 90.9566 164.903 90.7071 164.603 90.5053L166.577 90.7198C166.929 91.1615 167.232 91.6404 167.48 92.1485C167.72 92.6695 167.818 93.245 167.765 93.8162C167.725 94.2737 167.541 94.7064 167.242 95.0541C166.957 95.3702 166.585 95.5941 166.173 95.6973C165.678 95.7948 165.169 95.7948 164.675 95.6973L160.918 95.3164ZM167.931 90.0767C167.927 90.2535 167.88 90.4265 167.793 90.5803C167.706 90.734 167.582 90.8634 167.432 90.9577C167.064 91.1407 166.65 91.2073 166.243 91.1484L159.491 90.4338V89.9098C159.479 89.7195 159.479 89.5286 159.491 89.3383C159.468 89.1564 159.468 88.9724 159.491 88.7905C159.511 88.6119 159.55 88.4362 159.609 88.2666L167.813 89.1237V89.2429L167.931 90.0767Z" fill="white"/>
<path d="M167.765 99.9611C168.132 100.013 168.474 100.18 168.741 100.437C168.811 100.586 168.846 100.749 168.846 100.914C168.846 101.079 168.811 101.241 168.741 101.39L168.574 102.224H168.431L160.299 100.461C160.112 100.409 159.916 100.409 159.729 100.461C159.644 100.517 159.572 100.59 159.519 100.677C159.465 100.763 159.432 100.861 159.42 100.962L159.182 101.986C158.829 102.055 158.465 102.055 158.112 101.986H157.874H157.66C157.66 101.7 157.66 101.366 157.779 101.009C157.897 100.652 157.779 100.318 157.946 99.9849C157.969 99.713 158.054 99.45 158.195 99.2168C158.337 98.9836 158.53 98.7866 158.761 98.6411C158.991 98.4957 159.252 98.4061 159.524 98.3789C159.795 98.3517 160.069 98.3879 160.323 98.4847L167.765 99.9611ZM165.744 103.772C165.491 103.797 165.237 103.797 164.984 103.772C164.72 103.718 164.464 103.629 164.222 103.51L164.889 100.652L165.365 98.2702C165.633 98.2368 165.904 98.2368 166.173 98.2702L166.91 98.5086L166.315 100.89L165.744 103.772Z" fill="white"/>
<path d="M164.223 105.177C164.419 105.301 164.596 105.454 164.747 105.63C164.906 105.792 165.027 105.987 165.104 106.201C164.993 106.476 164.827 106.724 164.614 106.929C164.4 107.135 164.145 107.292 163.867 107.392C163.236 107.561 162.572 107.561 161.941 107.392L156.473 105.701C156.473 105.558 156.473 105.391 156.473 105.201L156.615 104.653C156.668 104.467 156.732 104.284 156.806 104.105L157.019 103.629L162.299 105.248C162.663 105.381 163.053 105.43 163.44 105.391C163.716 105.396 163.988 105.322 164.223 105.177ZM163.535 110.917C163.208 110.816 162.896 110.672 162.607 110.489C162.28 110.305 161.983 110.072 161.727 109.798C161.727 109.679 161.87 109.559 161.941 109.464L162.084 109.107C162.142 108.864 162.142 108.611 162.084 108.369C162.047 108.141 161.966 107.922 161.846 107.725C161.709 107.518 161.55 107.326 161.371 107.154C161.173 106.961 160.958 106.786 160.729 106.63L161.157 106.463C161.56 106.603 161.949 106.778 162.322 106.987C162.695 107.194 163.039 107.45 163.345 107.749C163.622 108.028 163.827 108.372 163.939 108.749C164.057 109.154 164.057 109.583 163.939 109.988C163.939 110.178 163.82 110.346 163.749 110.489L163.535 110.917Z" fill="white"/>
<path d="M158.02 111.821L159.424 112.416L158.045 115.703H158.211C158.492 115.817 158.789 115.889 159.091 115.917C159.355 115.934 159.618 115.876 159.851 115.751C160.09 115.609 160.275 115.391 160.375 115.132C160.471 114.937 160.509 114.719 160.484 114.503C160.459 114.288 160.371 114.084 160.232 113.917C159.827 113.477 159.321 113.141 158.758 112.94L158.14 112.679C157.757 112.519 157.358 112.399 156.951 112.321C156.627 112.21 156.275 112.21 155.951 112.321C155.608 112.505 155.346 112.811 155.215 113.179C155.076 113.547 154.98 113.931 154.93 114.322C154.894 114.702 154.894 115.085 154.93 115.465C154.696 115.561 154.445 115.609 154.193 115.608C153.948 115.635 153.7 115.635 153.455 115.608C153.359 115.073 153.359 114.524 153.455 113.989C153.521 113.398 153.673 112.82 153.907 112.274C154.113 111.714 154.457 111.214 154.905 110.821C155.28 110.499 155.731 110.278 156.214 110.178C156.716 110.071 157.233 110.071 157.735 110.178C158.265 110.273 158.784 110.425 159.281 110.63C159.991 110.926 160.643 111.346 161.207 111.869C161.694 112.326 162.04 112.912 162.206 113.56C162.336 114.276 162.244 115.016 161.943 115.68C161.711 116.284 161.306 116.806 160.779 117.18C160.312 117.533 159.747 117.733 159.162 117.751C158.541 117.79 157.921 117.676 157.355 117.418L156.618 117.084L156.023 116.68L158.02 111.821Z" fill="white"/>
<path d="M158.566 122.444C158.475 122.62 158.344 122.773 158.183 122.889C158.022 123.005 157.835 123.081 157.639 123.111C157.179 123.149 156.717 123.032 156.331 122.778L148.675 118.395C148.247 118.133 147.985 117.895 147.914 117.633C147.875 117.47 147.873 117.301 147.906 117.136C147.938 116.972 148.006 116.816 148.104 116.68L148.508 115.966H148.675L158.851 121.802V121.944L158.566 122.444ZM151.837 125.946C151.091 125.554 150.441 125 149.935 124.326C149.561 123.808 149.331 123.2 149.27 122.563C149.226 121.989 149.358 121.416 149.649 120.92C149.899 120.466 150.249 120.075 150.672 119.777C151.08 119.524 151.5 119.294 151.932 119.086L153.168 120.134C152.785 120.292 152.412 120.475 152.052 120.682C151.73 120.865 151.46 121.127 151.267 121.444C151.209 121.571 151.178 121.709 151.178 121.849C151.178 121.988 151.209 122.127 151.267 122.254C151.373 122.588 151.561 122.891 151.814 123.135C152.183 123.473 152.59 123.769 153.026 124.016C153.442 124.265 153.89 124.458 154.357 124.588C154.662 124.66 154.98 124.66 155.285 124.588C155.397 124.556 155.5 124.501 155.59 124.427C155.68 124.354 155.755 124.263 155.809 124.159C155.931 123.932 155.995 123.679 155.998 123.421C156.021 123.084 155.956 122.747 155.809 122.444C155.625 122.002 155.349 121.604 154.999 121.277L156.426 121.563C156.75 121.864 157.009 122.229 157.187 122.635C157.377 123.087 157.474 123.573 157.472 124.064C157.476 124.577 157.336 125.08 157.068 125.517C156.797 126.045 156.339 126.452 155.784 126.66C155.202 126.831 154.583 126.831 154.001 126.66C153.244 126.546 152.512 126.305 151.837 125.946Z" fill="white"/>
<path d="M153.071 129.471C153.21 129.652 153.323 129.853 153.405 130.066C153.51 130.264 153.566 130.485 153.571 130.709C153.378 130.937 153.137 131.119 152.866 131.242C152.595 131.366 152.3 131.427 152.002 131.423C151.35 131.391 150.718 131.185 150.171 130.828L145.559 127.446C145.638 127.291 145.725 127.14 145.82 126.994C145.909 126.834 146.012 126.682 146.129 126.541C146.234 126.38 146.353 126.228 146.485 126.088C146.592 125.943 146.712 125.808 146.843 125.684L151.312 128.947C151.608 129.194 151.958 129.366 152.334 129.447C152.574 129.513 152.827 129.522 153.071 129.471ZM150.551 134.663C150.287 134.453 150.041 134.222 149.815 133.972C149.57 133.686 149.369 133.365 149.22 133.019C149.321 132.938 149.415 132.85 149.505 132.757L149.767 132.472C149.925 132.282 150.024 132.05 150.052 131.805C150.099 131.577 150.099 131.342 150.052 131.114C149.996 130.865 149.909 130.625 149.79 130.399C149.665 130.151 149.522 129.912 149.362 129.685H149.815C150.147 129.954 150.456 130.249 150.741 130.566C151.032 130.876 151.273 131.23 151.455 131.614C151.64 131.965 151.722 132.361 151.693 132.757C151.678 133.186 151.518 133.597 151.241 133.924C151.149 134.068 151.046 134.204 150.932 134.33L150.551 134.663Z" fill="white"/>
<path d="M145.061 133.71L146.203 134.71L143.825 137.377L143.991 137.52C144.2 137.73 144.451 137.892 144.728 137.996C144.975 138.078 145.242 138.078 145.489 137.996C145.631 137.978 145.768 137.93 145.89 137.856C146.013 137.783 146.119 137.684 146.203 137.568C146.353 137.419 146.455 137.229 146.498 137.021C146.54 136.813 146.52 136.597 146.44 136.401C146.21 135.841 145.843 135.349 145.37 134.972L144.871 134.543C144.568 134.259 144.233 134.011 143.873 133.805C143.57 133.632 143.22 133.557 142.873 133.591C142.496 133.671 142.16 133.882 141.922 134.186C141.652 134.476 141.428 134.805 141.257 135.162C141.087 135.505 140.952 135.864 140.853 136.234C140.602 136.241 140.352 136.201 140.116 136.115C139.882 136.041 139.657 135.937 139.449 135.805C139.503 135.266 139.656 134.741 139.901 134.258C140.161 133.726 140.489 133.229 140.876 132.781C141.256 132.317 141.747 131.957 142.303 131.733C142.763 131.549 143.263 131.491 143.753 131.566C144.254 131.647 144.738 131.816 145.18 132.066C145.647 132.338 146.085 132.658 146.487 133.019C147.063 133.512 147.54 134.11 147.891 134.782C148.219 135.377 148.359 136.057 148.295 136.734C148.175 137.409 147.878 138.041 147.436 138.563C146.993 139.086 146.419 139.482 145.774 139.711C145.216 139.878 144.62 139.878 144.062 139.711C143.466 139.542 142.92 139.232 142.469 138.806L141.899 138.235C141.73 138.06 141.579 137.868 141.447 137.663L145.061 133.71Z" fill="white"/>
<path d="M133.339 143.07C133.157 142.848 132.949 142.648 132.72 142.475C132.514 142.314 132.281 142.192 132.031 142.117C132.079 141.892 132.158 141.676 132.268 141.474C132.391 141.243 132.553 141.034 132.744 140.855C132.864 140.734 133.01 140.641 133.17 140.583C133.331 140.525 133.502 140.504 133.672 140.521C134.012 140.626 134.311 140.834 134.527 141.117L137.071 144.046C137.283 144.324 137.562 144.545 137.88 144.689C138.009 144.731 138.146 144.735 138.276 144.701C138.407 144.667 138.525 144.597 138.618 144.499C138.805 144.322 138.958 144.112 139.069 143.879C139.209 143.587 139.297 143.273 139.33 142.951C139.4 142.605 139.4 142.249 139.33 141.903L140.638 143.379C140.606 143.946 140.503 144.507 140.329 145.047C140.158 145.6 139.837 146.095 139.401 146.476C139.07 146.79 138.644 146.983 138.189 147.023C137.76 147.064 137.329 146.973 136.953 146.762C136.513 146.522 136.126 146.198 135.811 145.809L133.339 143.07ZM142.041 144.022C141.915 144.147 141.76 144.239 141.59 144.289C141.42 144.339 141.24 144.345 141.066 144.308C140.674 144.205 140.329 143.97 140.091 143.642L135.621 138.52L135.954 138.14L136.382 137.759L136.81 137.401L137.238 137.092L142.683 143.308V143.475L142.041 144.022Z" fill="white"/>
<path d="M131.246 146.547L132.101 147.786L129.153 149.811L129.272 149.977C129.432 150.223 129.633 150.441 129.867 150.62C130.082 150.78 130.337 150.879 130.604 150.906C130.886 150.925 131.165 150.84 131.389 150.668C131.574 150.557 131.722 150.394 131.815 150.199C131.908 150.004 131.941 149.786 131.911 149.572C131.829 148.981 131.591 148.422 131.221 147.953L130.842 147.405C130.617 147.059 130.354 146.739 130.057 146.452C129.802 146.209 129.478 146.051 129.129 146C128.744 145.975 128.362 146.094 128.059 146.333C127.728 146.549 127.432 146.814 127.18 147.119C126.942 147.405 126.728 147.738 126.514 148.048C126.27 147.989 126.037 147.893 125.824 147.762C125.625 147.623 125.435 147.472 125.254 147.31C125.454 146.799 125.735 146.325 126.086 145.904C126.464 145.447 126.903 145.046 127.394 144.713C127.883 144.369 128.444 144.141 129.034 144.046C129.526 143.977 130.027 144.043 130.484 144.237C130.947 144.43 131.368 144.713 131.721 145.07C132.113 145.445 132.463 145.86 132.767 146.309C133.209 146.935 133.532 147.638 133.719 148.381C133.907 149.06 133.864 149.782 133.597 150.433C133.33 151.084 132.854 151.628 132.244 151.978C131.723 152.357 131.104 152.58 130.461 152.621C129.879 152.643 129.303 152.503 128.796 152.216C128.265 151.899 127.81 151.468 127.464 150.954L127.037 150.263C127.037 150.072 126.847 149.834 126.752 149.596L131.246 146.547Z" fill="white"/>
<path d="M117.836 153.097C117.711 152.853 117.55 152.628 117.36 152.43C117.205 152.262 117.009 152.138 116.79 152.073C116.752 151.853 116.752 151.627 116.79 151.406C116.817 151.183 116.882 150.966 116.98 150.763C117.232 150.639 117.508 150.575 117.788 150.575C118.068 150.575 118.345 150.639 118.596 150.763C119.097 151.043 119.503 151.466 119.762 151.978L122.496 157.361L122.068 157.646L121.568 157.932L121.046 158.17C120.894 158.242 120.734 158.298 120.57 158.337L117.836 153.097ZM125.754 153.526C125.879 153.786 126.031 154.034 126.205 154.264C126.372 154.463 126.563 154.64 126.775 154.788C126.696 155 126.566 155.188 126.396 155.336C126.222 155.533 126.012 155.695 125.777 155.812C125.631 155.891 125.468 155.933 125.302 155.933C125.136 155.933 124.972 155.891 124.826 155.812C124.511 155.64 124.267 155.362 124.136 155.027L122.353 151.573C122.222 151.247 122.01 150.959 121.736 150.739C121.621 150.67 121.489 150.634 121.355 150.634C121.221 150.634 121.089 150.67 120.974 150.739C120.752 150.855 120.558 151.017 120.404 151.216C120.204 151.459 120.043 151.732 119.928 152.026C119.792 152.358 119.727 152.715 119.737 153.073L118.834 151.335C118.995 150.79 119.227 150.27 119.524 149.787C119.827 149.288 120.264 148.884 120.785 148.62C121.177 148.408 121.625 148.325 122.068 148.381C122.497 148.453 122.894 148.652 123.209 148.953C123.57 149.295 123.869 149.698 124.089 150.144L125.754 153.526Z" fill="white"/>
<path d="M112.344 161.6C112.229 161.284 112.149 160.957 112.106 160.623C112.058 160.244 112.058 159.86 112.106 159.48H112.51H112.891C113.122 159.402 113.328 159.262 113.485 159.075C113.653 158.91 113.775 158.706 113.842 158.48C113.939 158.245 113.996 157.995 114.009 157.741C114.033 157.472 114.033 157.201 114.009 156.932L114.388 157.17C114.53 157.58 114.635 158.003 114.698 158.432C114.758 158.851 114.758 159.276 114.698 159.695C114.646 160.082 114.498 160.45 114.27 160.766C114.019 161.102 113.67 161.352 113.272 161.481L112.772 161.648L112.344 161.6ZM117.29 158.647C117.323 158.876 117.323 159.109 117.29 159.338C117.255 159.555 117.183 159.764 117.076 159.956C116.789 160.036 116.487 160.054 116.191 160.009C115.896 159.964 115.614 159.857 115.364 159.695C114.836 159.305 114.425 158.777 114.175 158.17L112.154 152.835L112.605 152.597C112.77 152.505 112.947 152.433 113.129 152.383L113.676 152.192H114.175L116.149 157.361C116.265 157.73 116.469 158.065 116.743 158.337C116.904 158.474 117.09 158.579 117.29 158.647Z" fill="white"/>
<path d="M108.803 154.693C108.849 154.961 108.849 155.235 108.803 155.503C108.759 155.774 108.679 156.039 108.565 156.289C108.157 156.201 107.744 156.137 107.329 156.098C106.928 156.028 106.517 156.028 106.116 156.098C105.805 156.158 105.521 156.317 105.307 156.551C105.23 156.631 105.176 156.732 105.151 156.841C105.126 156.95 105.13 157.063 105.165 157.17C105.208 157.367 105.328 157.538 105.498 157.646C105.731 157.777 105.991 157.851 106.258 157.861H107.281C107.669 157.901 108.051 157.981 108.422 158.099C108.789 158.204 109.122 158.404 109.385 158.681C109.648 158.957 109.833 159.299 109.92 159.671C110.064 160.145 110.064 160.65 109.92 161.124C109.764 161.581 109.485 161.985 109.112 162.291C108.674 162.627 108.172 162.87 107.638 163.005C107.135 163.151 106.615 163.224 106.092 163.22C105.618 163.272 105.14 163.272 104.665 163.22C104.639 163.03 104.639 162.838 104.665 162.648C104.642 162.442 104.642 162.235 104.665 162.029C104.707 161.858 104.78 161.697 104.879 161.553C105.256 161.62 105.638 161.659 106.02 161.672C106.429 161.683 106.838 161.635 107.234 161.529C107.353 161.508 107.467 161.464 107.569 161.398C107.671 161.333 107.76 161.247 107.828 161.147C107.874 161.059 107.898 160.961 107.898 160.862C107.898 160.762 107.874 160.664 107.828 160.576C107.813 160.488 107.777 160.406 107.723 160.336C107.67 160.265 107.6 160.208 107.519 160.171C107.304 160.065 107.069 160.008 106.83 160.004H105.736C105.127 159.953 104.536 159.774 104 159.48C103.737 159.33 103.508 159.125 103.331 158.878C103.155 158.632 103.034 158.35 102.977 158.051C102.869 157.699 102.85 157.326 102.92 156.965C102.991 156.603 103.149 156.265 103.381 155.979C103.951 155.302 104.729 154.832 105.593 154.645C106.144 154.501 106.712 154.437 107.281 154.455C107.796 154.475 108.307 154.555 108.803 154.693Z" fill="white"/>
<path d="M94.0595 159.123C94.024 158.839 93.9601 158.56 93.8691 158.289C93.7859 158.044 93.6564 157.818 93.4883 157.622C93.6442 157.448 93.8304 157.303 94.0363 157.193C94.2648 157.068 94.5139 156.988 94.7723 156.956C94.9362 156.909 95.109 156.904 95.2751 156.942C95.4411 156.979 95.5962 157.057 95.7244 157.17C95.9513 157.439 96.0919 157.772 96.1284 158.123L96.6984 161.957C96.7192 162.314 96.8344 162.659 97.0316 162.957C97.1213 163.059 97.2389 163.134 97.3695 163.172C97.5001 163.21 97.6384 163.21 97.7689 163.171C98.011 163.109 98.2432 163.013 98.4585 162.886C99.0387 162.537 99.4698 161.985 99.6706 161.338L99.9562 163.291C99.6356 163.748 99.2598 164.164 98.8382 164.529C98.3836 164.892 97.8437 165.13 97.2696 165.22C96.8353 165.298 96.3874 165.236 95.9902 165.043C95.5931 164.851 95.2667 164.537 95.0579 164.148C94.8229 163.703 94.67 163.219 94.6063 162.719L94.0595 159.123ZM98.4341 156.526C98.7769 156.423 99.1264 156.344 99.4802 156.289C99.8281 156.255 100.179 156.255 100.527 156.289L102.311 168.316L101.454 168.435C101.293 168.475 101.124 168.482 100.96 168.453C100.797 168.424 100.641 168.362 100.503 168.269C100.263 167.998 100.121 167.653 100.099 167.292L98.4341 156.526Z" fill="white"/>
<path d="M88.6602 157.503H89.1838H89.7538H90.8475L91.1331 163.314C91.1355 163.55 91.2014 163.78 91.3235 163.981C91.3982 164.061 91.4923 164.12 91.5963 164.153C91.7003 164.187 91.8108 164.193 91.9179 164.171H92.1559C92.2319 164.41 92.2715 164.659 92.2743 164.91V165.314C92.2847 165.449 92.2847 165.585 92.2743 165.72H91.5847H90.7047C90.4929 165.739 90.2798 165.713 90.0789 165.643C89.878 165.573 89.6946 165.461 89.5402 165.314C89.3778 165.148 89.2497 164.95 89.164 164.734C89.0783 164.517 89.0367 164.286 89.041 164.053L88.6602 157.503ZM91.8703 167.911C91.8926 168.21 91.8514 168.51 91.7507 168.792C91.5908 168.872 91.4237 168.935 91.2515 168.982H90.6814C90.476 169.005 90.2681 169.005 90.0626 168.982C89.8948 168.975 89.7322 168.926 89.5878 168.84C89.5182 168.711 89.4617 168.575 89.4206 168.435V167.982C89.4153 167.69 89.4638 167.399 89.5634 167.125C89.7078 167.03 89.8699 166.966 90.0394 166.934C90.237 166.913 90.4363 166.913 90.6338 166.934H91.2283C91.4022 166.964 91.5705 167.02 91.7275 167.101C91.8449 167.379 91.894 167.681 91.8703 167.982V167.911Z" fill="white"/>
<path d="M78.6754 161.481C78.6901 160.655 78.8854 159.842 79.2466 159.099C79.5243 158.513 79.9718 158.023 80.5307 157.694C81.0136 157.39 81.578 157.24 82.148 157.265C82.6729 157.295 83.1843 157.441 83.6456 157.694L84.8345 158.48L84.4305 160.076C84.1261 159.803 83.7997 159.557 83.4552 159.338C83.1473 159.118 82.7859 158.986 82.4092 158.956C82.1295 158.957 81.8587 159.059 81.6476 159.242C81.4021 159.497 81.2231 159.807 81.1251 160.147C80.9824 160.627 80.9023 161.124 80.8871 161.624C80.8192 162.098 80.8192 162.579 80.8871 163.053C80.9531 163.359 81.0916 163.645 81.2911 163.887C81.4635 164.057 81.6917 164.158 81.9332 164.172C82.1875 164.166 82.4383 164.11 82.6704 164.006C82.9842 163.876 83.2561 163.662 83.4552 163.387C83.7529 163.019 83.9783 162.599 84.1205 162.148L84.5013 163.553C84.396 163.983 84.1926 164.382 83.9069 164.72C83.5926 165.097 83.2041 165.405 82.7656 165.625C82.3051 165.84 81.7985 165.938 81.2911 165.911C80.7019 165.909 80.1343 165.689 79.6983 165.292C79.249 164.878 78.9344 164.339 78.795 163.744C78.6264 163.002 78.5854 162.237 78.6754 161.481ZM84.8577 165.911C84.6598 165.915 84.4644 165.873 84.2865 165.786C84.1086 165.699 83.954 165.57 83.8361 165.411C83.5869 165.013 83.4771 164.544 83.5261 164.077L83.9777 155.241C83.958 154.874 84.0683 154.511 84.2877 154.217C84.5511 154.012 84.8828 153.918 85.2142 153.955H86.071L85.4765 165.673V165.792L84.8577 165.911Z" fill="white"/>
<path d="M63.3407 162.481C63.2557 162.319 63.2069 162.14 63.1979 161.957C63.1735 161.727 63.1735 161.496 63.1979 161.266C63.1684 161.077 63.1684 160.884 63.1979 160.695H64.1963C64.5963 160.676 64.9968 160.716 65.3852 160.814L66.5032 161.052C66.5658 161.092 66.619 161.144 66.66 161.205C66.7009 161.267 66.7279 161.336 66.7401 161.409C66.7352 161.541 66.6858 161.667 66.5984 161.766L65.4572 162.148C65.0884 162.28 64.7054 162.368 64.3159 162.409L63.3407 162.481ZM64.6479 158.456C64.7885 158.339 64.9396 158.235 65.0996 158.147C65.3056 158.041 65.5205 157.953 65.7416 157.884C65.9306 157.854 66.1238 157.854 66.3128 157.884L66.646 158.837C66.7746 159.215 66.8619 159.607 66.9072 160.004C66.9072 160.409 66.9068 160.79 67.0257 161.171C66.9792 161.303 66.8865 161.413 66.7644 161.481H66.574C66.5042 161.501 66.4303 161.501 66.3604 161.481C66.1226 161.195 65.8842 160.885 65.6464 160.552C65.4132 160.232 65.214 159.889 65.052 159.528L64.6479 158.456ZM66.7644 164.982C66.5837 165.016 66.3983 165.016 66.2176 164.982C65.9901 164.952 65.7661 164.895 65.5512 164.815C65.3616 164.762 65.1846 164.674 65.0288 164.553L65.3144 163.6C65.4222 163.215 65.5815 162.846 65.7892 162.505C65.9794 162.147 66.194 161.814 66.3604 161.481C66.4226 161.447 66.4919 161.43 66.5624 161.43C66.6329 161.43 66.7023 161.447 66.7644 161.481C66.832 161.499 66.8944 161.532 66.9479 161.577C67.0013 161.623 67.0442 161.679 67.0733 161.742C67.0733 162.1 67.0733 162.505 67.0733 162.91C67.0838 163.31 67.0443 163.711 66.9548 164.101L66.7644 164.982ZM68.8566 158.456C69.025 158.55 69.1773 158.671 69.3082 158.813C69.4769 158.971 69.6282 159.147 69.7598 159.337C69.8651 159.494 69.9536 159.662 70.0222 159.838L69.2374 160.457C68.9226 160.697 68.5787 160.897 68.2145 161.052L67.1209 161.528C67.0546 161.532 66.9886 161.522 66.927 161.497C66.8653 161.472 66.8098 161.434 66.7644 161.385V161.195C66.7409 161.125 66.7409 161.05 66.7644 160.981L67.4297 160.004C67.6595 159.683 67.9227 159.388 68.2145 159.123L68.8566 158.456ZM70.1882 162.481C70.1604 162.667 70.0955 162.845 69.9978 163.005C69.902 163.216 69.7825 163.416 69.6414 163.6C69.5239 163.76 69.3785 163.897 69.213 164.006L68.4049 163.434C68.076 163.206 67.7732 162.942 67.5017 162.648L66.7168 161.766C66.6875 161.707 66.6727 161.642 66.6727 161.576C66.6727 161.51 66.6875 161.445 66.7168 161.385C66.7168 161.385 66.717 161.266 66.8596 161.242C66.8922 161.224 66.9289 161.214 66.9665 161.214C67.004 161.214 67.0407 161.224 67.0733 161.242L68.1913 161.552C68.5675 161.663 68.9266 161.823 69.2606 162.029L70.1882 162.481Z" fill="white"/>
<path d="M57.7749 153.002C57.5984 153.279 57.3721 153.521 57.1085 153.717C56.8486 153.9 56.5593 154.037 56.2528 154.121C55.9317 153.621 55.5657 153.151 55.1591 152.716C54.7438 152.269 54.252 151.897 53.7079 151.62C53.5151 151.499 53.3009 151.418 53.0763 151.381C52.8518 151.345 52.6219 151.353 52.4006 151.406C52.2256 151.444 52.0613 151.522 51.9211 151.633C51.7809 151.745 51.6689 151.887 51.5926 152.05C51.5049 152.329 51.5049 152.628 51.5926 152.907C51.6823 153.314 51.8889 153.687 52.187 153.979L53.6139 155.622C54.0661 156.142 54.406 156.75 54.6123 157.408C54.8018 158.062 54.724 158.764 54.3975 159.361C54.1462 159.924 53.7217 160.392 53.1854 160.695C52.6517 161.005 52.0423 161.162 51.4254 161.147C50.7377 161.137 50.0629 160.965 49.4528 160.647C48.8088 160.333 48.2151 159.924 47.6928 159.433C47.2579 159.041 46.8599 158.611 46.5039 158.147C46.6689 157.869 46.8771 157.62 47.1216 157.408C47.3553 157.206 47.6324 157.059 47.9308 156.979C48.262 157.383 48.6187 157.766 49.0001 158.123C49.3716 158.459 49.7787 158.755 50.2133 159.004C50.4006 159.117 50.6077 159.192 50.824 159.225C51.0402 159.258 51.2607 159.247 51.473 159.195C51.6368 159.16 51.7915 159.089 51.9234 158.985C52.0554 158.882 52.1617 158.75 52.2346 158.599C52.2876 158.475 52.3147 158.341 52.3147 158.206C52.3147 158.071 52.2876 157.937 52.2346 157.813C52.107 157.489 51.9218 157.19 51.6878 156.932L50.2365 155.265C49.8995 154.878 49.6203 154.445 49.4052 153.979C49.21 153.544 49.104 153.074 49.0953 152.597C49.0926 152.135 49.1993 151.678 49.4052 151.263C49.6601 150.698 50.073 150.218 50.5941 149.882C51.1274 149.548 51.7487 149.382 52.3774 149.406C53.2107 149.421 54.0274 149.642 54.7551 150.049C56.0573 150.719 57.1445 151.742 57.8933 153.002H57.7749Z" fill="white"/>
<path d="M42.1054 145.689C42.2623 145.464 42.3824 145.215 42.4618 144.952C42.5204 144.733 42.5204 144.503 42.4618 144.285C42.6306 144.128 42.8238 143.999 43.0331 143.903C43.227 143.813 43.437 143.765 43.6507 143.761C43.8867 143.918 44.0818 144.13 44.2184 144.379C44.355 144.628 44.4294 144.906 44.4355 145.189C44.4511 145.759 44.2852 146.318 43.9607 146.786L40.6785 151.835L40.2269 151.62L39.7277 151.311L39.2528 151.001L38.8477 150.644L42.1054 145.689ZM45.672 152.835C45.5237 153.081 45.389 153.336 45.268 153.597C45.1769 153.833 45.1284 154.083 45.1252 154.335C44.8977 154.382 44.663 154.382 44.4355 154.335C44.1824 154.272 43.9419 154.167 43.7227 154.026C43.5736 153.947 43.4443 153.836 43.3454 153.7C43.2464 153.564 43.1798 153.406 43.1515 153.24C43.1548 152.88 43.2716 152.529 43.4847 152.239L45.6012 149C45.817 148.724 45.9562 148.395 46.0052 148.047C46.0148 147.911 45.9804 147.776 45.9077 147.66C45.835 147.544 45.728 147.455 45.6012 147.405C45.3847 147.263 45.1415 147.166 44.8872 147.119C44.5799 147.071 44.268 147.071 43.9607 147.119C43.6073 147.17 43.2667 147.291 42.9611 147.476L44.0315 145.833C44.5768 145.705 45.1367 145.649 45.6964 145.666C46.2794 145.674 46.848 145.848 47.3369 146.166C47.7272 146.404 48.0279 146.764 48.1925 147.19C48.3134 147.602 48.3134 148.041 48.1925 148.453C48.0816 148.939 47.8799 149.399 47.5981 149.81L45.672 152.835Z" fill="white"/>
<path d="M41.4875 143.046C41.2929 143.24 41.0674 143.401 40.821 143.522C40.5752 143.647 40.3096 143.727 40.0362 143.761C39.8827 143.382 39.6999 143.015 39.4894 142.665C39.2809 142.314 39.0167 142 38.7057 141.736C38.4721 141.525 38.1833 141.385 37.8733 141.331C37.7583 141.311 37.6397 141.322 37.5308 141.364C37.4219 141.406 37.3262 141.477 37.2545 141.569C37.1905 141.644 37.1426 141.731 37.114 141.825C37.0853 141.92 37.077 142.019 37.0884 142.117C37.1101 142.389 37.1998 142.651 37.3497 142.879L37.8489 143.737C38.0609 144.076 38.2217 144.445 38.3249 144.832C38.4062 145.185 38.4062 145.551 38.3249 145.904C38.2642 146.295 38.0907 146.659 37.8257 146.952C37.5186 147.339 37.1055 147.629 36.6368 147.786C36.1767 147.905 35.6932 147.905 35.2332 147.786C34.697 147.624 34.2025 147.347 33.7831 146.976C33.3913 146.638 33.0337 146.263 32.7138 145.856C32.4284 145.477 32.1813 145.07 31.9766 144.642C32.0866 144.484 32.2232 144.347 32.3806 144.237C32.5527 144.123 32.7359 144.027 32.9274 143.951C33.0927 143.923 33.2614 143.923 33.4266 143.951L33.9979 144.951C34.2163 145.295 34.489 145.601 34.8059 145.856C34.9879 146.026 35.2228 146.127 35.4712 146.142C35.5725 146.141 35.6731 146.117 35.7637 146.072C35.8544 146.027 35.9332 145.961 35.9948 145.88C36.0514 145.816 36.0932 145.74 36.1178 145.657C36.1425 145.575 36.1495 145.489 36.1376 145.404C36.1126 145.166 36.0308 144.937 35.8996 144.737L35.3284 143.784C35.0082 143.256 34.8136 142.661 34.7583 142.046C34.7579 141.723 34.823 141.403 34.9499 141.106C35.0767 140.809 35.262 140.54 35.4955 140.318C35.7291 140.095 36.0059 139.923 36.3082 139.81C36.6106 139.698 36.9324 139.648 37.2545 139.664C38.1406 139.742 38.9763 140.11 39.6322 140.712C40.0667 141.073 40.4441 141.499 40.7502 141.974C41.0328 142.305 41.28 142.664 41.4875 143.046Z" fill="white"/>
<path d="M28.4822 143.451C28.2496 143.729 27.9322 143.921 27.579 143.999C27.4095 143.987 27.2437 143.941 27.0925 143.863C26.9413 143.785 26.8076 143.678 26.699 143.547L26.1289 142.951V142.785L32.0488 136.926C32.1987 136.8 32.2925 136.62 32.3101 136.425C32.3157 136.325 32.2981 136.225 32.2566 136.134C32.2152 136.043 32.1522 135.963 32.0732 135.902L31.336 135.163C31.5064 134.84 31.7227 134.543 31.978 134.282L32.1684 134.139C32.2149 134.072 32.2806 134.022 32.3577 133.996C32.5954 134.163 32.8339 134.377 33.1193 134.615L33.8797 135.33C34.082 135.507 34.2478 135.722 34.3662 135.963C34.4846 136.204 34.5533 136.466 34.5694 136.735C34.4965 137.282 34.2358 137.788 33.8321 138.164L28.4822 143.451ZM26.4134 139.665C26.5508 139.443 26.7106 139.236 26.8894 139.046C27.0856 138.864 27.3009 138.704 27.5314 138.569L29.5527 140.689L31.336 142.427C31.1768 142.646 31.0015 142.853 30.8124 143.047C30.6297 143.224 30.4307 143.383 30.2179 143.523L28.459 141.689L26.4134 139.665Z" fill="white"/>
<path d="M26.2218 128.065C26.4313 127.968 26.6566 127.912 26.8871 127.899C27.0982 127.849 27.318 127.849 27.5291 127.899C27.764 128.189 27.898 128.549 27.9099 128.923C27.9398 129.242 27.8815 129.563 27.7427 129.852C27.6105 130.132 27.4345 130.39 27.2203 130.614L24.3909 132.996C24.248 133.09 24.125 133.213 24.031 133.356C23.937 133.5 23.8739 133.66 23.8441 133.829C23.8363 133.995 23.8612 134.16 23.9184 134.316C23.9756 134.471 24.063 134.614 24.1761 134.734C24.4429 135.048 24.7472 135.327 25.0806 135.568C25.461 135.83 25.8176 136.092 26.2218 136.33C26.1708 136.595 26.0647 136.846 25.9118 137.068C25.7702 137.328 25.5853 137.562 25.365 137.759C25.0196 137.556 24.6863 137.334 24.3665 137.092C24.0051 136.841 23.6629 136.562 23.3437 136.258C23.0419 135.989 22.7644 135.694 22.5124 135.378C22.1943 135.006 21.9658 134.566 21.846 134.091C21.692 133.652 21.692 133.173 21.846 132.734C22.0469 132.197 22.4033 131.733 22.8689 131.4L25.5078 129.256C25.6983 129.106 25.8663 128.93 26.007 128.732C26.1463 128.538 26.2219 128.305 26.2218 128.065ZM29.8592 134.639C29.4311 135.007 28.8988 135.232 28.3372 135.282C27.8232 135.326 27.3091 135.209 26.8639 134.948C26.3796 134.675 25.9513 134.311 25.603 133.877L25.0086 133.091C24.7971 132.808 24.6139 132.505 24.4617 132.186L25.5554 131.281C25.6831 131.568 25.8431 131.839 26.0314 132.09L26.6015 132.829C26.7041 132.974 26.8347 133.098 26.9858 133.192C27.1369 133.286 27.3058 133.349 27.4815 133.377C27.6451 133.388 27.8094 133.366 27.9645 133.313C28.1196 133.26 28.2622 133.176 28.3848 133.067C28.5934 132.91 28.737 132.681 28.7888 132.424C28.811 132.297 28.8039 132.166 28.7667 132.042C28.7296 131.918 28.6638 131.804 28.5752 131.71C28.3039 131.4 27.9482 131.177 27.5523 131.066C27.059 130.957 26.5479 130.957 26.0546 131.066L27.0055 129.899C27.3618 129.878 27.7196 129.878 28.0759 129.899C28.4628 129.967 28.8393 130.087 29.194 130.256C29.5926 130.465 29.9406 130.758 30.2156 131.114C30.5395 131.491 30.7461 131.955 30.8101 132.448C30.8364 132.872 30.7635 133.296 30.5965 133.687C30.4193 134.052 30.1682 134.376 29.8592 134.639Z" fill="white"/>
<path d="M17.1385 131.637C16.8919 131.797 16.6182 131.91 16.3304 131.97C16.1739 131.889 16.0363 131.776 15.9264 131.637C15.7813 131.503 15.6531 131.351 15.5456 131.185C15.4227 131.018 15.3262 130.833 15.26 130.637C15.1893 130.486 15.141 130.326 15.1172 130.161L15.4028 129.803L15.7592 129.542C15.9979 129.367 16.276 129.252 16.5684 129.208C16.7224 129.283 16.8597 129.389 16.9725 129.518C17.1129 129.657 17.2406 129.808 17.3533 129.97C17.4717 130.14 17.5668 130.324 17.6377 130.518C17.7058 130.677 17.7467 130.846 17.7573 131.018C17.6013 131.269 17.3892 131.481 17.1385 131.637ZM24.4388 123.563C24.5694 123.679 24.6886 123.806 24.7953 123.944L25.1041 124.421C25.2208 124.57 25.3239 124.729 25.4129 124.897C25.4129 125.064 25.5796 125.231 25.6509 125.374L20.8955 128.589C20.6851 128.697 20.517 128.873 20.4195 129.089C20.3888 129.194 20.3837 129.305 20.4044 129.413C20.425 129.521 20.4716 129.622 20.539 129.708L20.6575 129.899C20.4839 130.084 20.2934 130.251 20.0874 130.399L19.7542 130.589L19.3734 130.756L18.9462 130.208L18.613 129.732L18.4469 129.494C18.3254 129.315 18.2417 129.112 18.2008 128.899C18.1599 128.686 18.1625 128.467 18.2089 128.255C18.2716 128.034 18.3772 127.828 18.5201 127.648C18.6629 127.468 18.8404 127.318 19.0414 127.207L24.4388 123.563Z" fill="white"/>
<path d="M18.092 116.109C18.353 115.976 18.6001 115.816 18.8293 115.633C19.0328 115.479 19.2026 115.284 19.3285 115.062C19.5441 115.146 19.7394 115.275 19.8997 115.442C20.0957 115.608 20.2566 115.81 20.3746 116.038C20.4657 116.181 20.5247 116.344 20.5452 116.513C20.5658 116.682 20.5481 116.853 20.4941 117.015C20.3084 117.319 20.0346 117.56 19.7093 117.705L16.2855 119.515C15.9637 119.665 15.6791 119.884 15.4531 120.158C15.3839 120.273 15.3474 120.405 15.3474 120.54C15.3474 120.674 15.3839 120.805 15.4531 120.92C15.5757 121.152 15.7458 121.355 15.9523 121.516C16.1989 121.705 16.4719 121.857 16.7615 121.968C17.105 122.089 17.467 122.146 17.8308 122.135L16.0719 123.064C15.531 122.907 15.0108 122.683 14.5254 122.397C14.0338 122.096 13.6322 121.668 13.361 121.159C13.1318 120.763 13.0402 120.302 13.0997 119.849C13.1613 119.421 13.3521 119.022 13.6466 118.706C13.9878 118.338 14.39 118.031 14.8354 117.8L18.092 116.109ZM15.1675 124.374C15.0754 124.219 15.027 124.042 15.027 123.862C15.027 123.682 15.0754 123.505 15.1675 123.35C15.3702 122.995 15.6778 122.712 16.0475 122.54L22.0394 119.373C22.1536 119.507 22.2567 119.65 22.3483 119.801L22.6339 120.277L22.8719 120.801C22.9456 120.964 23.0093 121.131 23.0623 121.301L15.5959 125.112L15.1675 124.374Z" fill="white"/>
<path d="M15.5924 106.939C15.812 106.894 16.0381 106.894 16.2577 106.939C16.4802 106.966 16.6932 107.048 16.8765 107.177C16.9701 107.536 16.9701 107.914 16.8765 108.273C16.78 108.582 16.6173 108.866 16.4005 109.107C16.1899 109.322 15.9502 109.507 15.6876 109.654L12.2638 110.941C12.0963 110.989 11.9401 111.071 11.8052 111.181C11.6703 111.292 11.5594 111.429 11.479 111.584C11.4149 111.734 11.3815 111.896 11.3815 112.06C11.3815 112.224 11.4149 112.386 11.479 112.536C11.6213 112.922 11.8218 113.283 12.0734 113.608C12.335 113.989 12.6205 114.346 12.9059 114.703C12.782 114.934 12.6122 115.137 12.4066 115.299C12.1838 115.491 11.9357 115.651 11.6694 115.776C11.3859 115.483 11.1303 115.164 10.9078 114.823C10.6481 114.472 10.4104 114.106 10.1949 113.727C9.998 113.377 9.83106 113.01 9.6957 112.632C9.51359 112.178 9.43221 111.69 9.45769 111.202C9.47132 110.733 9.63885 110.282 9.9337 109.917C10.2908 109.471 10.7704 109.14 11.313 108.964L14.4987 107.773C14.7228 107.688 14.931 107.568 15.1164 107.416C15.3229 107.314 15.4905 107.146 15.5924 106.939ZM16.9717 114.085C16.4471 114.31 15.8655 114.368 15.3068 114.251C14.8199 114.101 14.3783 113.831 14.0227 113.465C13.6582 113.05 13.3688 112.575 13.1671 112.06C13.1671 111.798 12.9771 111.465 12.8583 111.107C12.7404 110.767 12.6532 110.415 12.597 110.059L13.9275 109.559C13.9585 109.877 14.0312 110.189 14.1423 110.488L14.4511 111.369C14.4953 111.534 14.5748 111.688 14.6833 111.819C14.7919 111.951 14.9271 112.057 15.0804 112.132C15.2338 112.207 15.4011 112.247 15.5715 112.251C15.7419 112.255 15.9118 112.223 16.0684 112.155C16.3132 112.064 16.5156 111.886 16.6385 111.655C16.6969 111.541 16.7279 111.414 16.7279 111.286C16.7279 111.158 16.6969 111.031 16.6385 110.917C16.493 110.532 16.2262 110.206 15.878 109.988C15.4656 109.686 14.9814 109.498 14.4744 109.44L15.7584 108.607L16.7337 109.035C17.0872 109.22 17.4082 109.462 17.6845 109.75C17.9919 110.073 18.2348 110.453 18.3985 110.869C18.5765 111.292 18.6285 111.758 18.5483 112.21C18.4682 112.662 18.2595 113.082 17.9469 113.418C17.6564 113.765 17.2778 114.027 16.8521 114.179L16.9717 114.085Z" fill="white"/>
<path d="M14.8786 102.581L15.3779 104.653L3.98848 107.416H3.86889L3.65527 106.606C3.58638 106.453 3.55078 106.286 3.55078 106.118C3.55078 105.949 3.58638 105.783 3.65527 105.63C3.89509 105.358 4.22422 105.181 4.58291 105.13L14.8786 102.581ZM9.98039 98.6509C10.7615 98.4601 11.577 98.4601 12.3581 98.6509C13.037 98.8172 13.6552 99.1727 14.1414 99.6755C14.6287 100.198 14.9726 100.838 15.1399 101.533C15.2639 102.082 15.3437 102.639 15.3779 103.2C15.4142 103.716 15.4142 104.233 15.3779 104.748L13.547 104.105C13.6695 103.753 13.7339 103.383 13.7374 103.01C13.7834 102.638 13.7834 102.262 13.7374 101.89C13.6503 101.56 13.4584 101.268 13.1905 101.057C12.8809 100.847 12.5167 100.732 12.1433 100.723C11.6307 100.705 11.1189 100.761 10.6224 100.89C9.99212 100.995 9.40062 101.266 8.90995 101.676C8.76713 101.8 8.66091 101.962 8.60228 102.142C8.54366 102.322 8.5345 102.515 8.57674 102.7C8.65707 103.048 8.83975 103.362 9.10035 103.605C9.40568 103.897 9.78311 104.103 10.194 104.201L8.62434 104.891C8.34186 104.75 8.07921 104.574 7.84067 104.367C7.57532 104.148 7.34298 103.891 7.15104 103.605C6.94761 103.284 6.80228 102.929 6.72263 102.557C6.55387 101.998 6.59572 101.396 6.84105 100.866C7.11253 100.323 7.53383 99.8684 8.05429 99.5563C8.64265 99.1513 9.29338 98.8453 9.98039 98.6509Z" fill="white"/>
<path d="M3.42002 97.1979C3.12986 97.2582 2.83014 97.2582 2.53998 97.1979C2.43695 97.0608 2.35759 96.9082 2.30314 96.7455C2.23332 96.553 2.18532 96.3533 2.16033 96.1501C2.13547 95.9524 2.13547 95.7523 2.16033 95.5546C2.12885 95.3894 2.12885 95.2192 2.16033 95.054C2.28547 94.9718 2.42136 94.908 2.56436 94.8638C2.70616 94.8415 2.85098 94.8415 2.99277 94.8638C3.27349 94.7912 3.5677 94.7912 3.84842 94.8638C3.96078 94.9948 4.0423 95.1493 4.08643 95.3162C4.16379 95.5079 4.21919 95.7076 4.25245 95.9117C4.26485 96.1099 4.26485 96.3088 4.25245 96.5071C4.24683 96.6801 4.20686 96.8502 4.13403 97.0072C3.90875 97.1107 3.66685 97.1753 3.42002 97.1979ZM13.4777 93.0537C13.5339 93.216 13.5745 93.3835 13.5973 93.5538C13.6486 93.7417 13.6878 93.9326 13.7157 94.1254C13.7285 94.3077 13.7285 94.4907 13.7157 94.6731C13.7271 94.8555 13.7271 95.0384 13.7157 95.2209L7.98506 96.0309C7.74314 96.0545 7.51311 96.1449 7.31981 96.2925C7.24451 96.3745 7.19157 96.4747 7.16656 96.5833C7.14155 96.6918 7.1452 96.805 7.17701 96.9118V97.1264C6.95059 97.2267 6.71038 97.2912 6.46415 97.3171H6.06013H5.65494C5.65494 97.1027 5.65536 96.8645 5.48891 96.6263C5.32247 96.3881 5.48891 96.2214 5.48891 96.0785V95.7686C5.44824 95.5574 5.45251 95.3401 5.50169 95.1307C5.55086 94.9214 5.64411 94.7248 5.77452 94.5539C5.92667 94.3785 6.11191 94.2358 6.32019 94.1335C6.52847 94.0312 6.75501 93.9715 6.9866 93.9585L13.4777 93.0537Z" fill="white"/>
<path d="M11.362 87.1949C11.6843 87.0466 12.0299 86.9576 12.3836 86.9326H12.8829C12.8829 87.147 12.883 87.4091 13.0257 87.6949C13.0477 87.9724 13.0477 88.2508 13.0257 88.5282C13.0698 88.7835 13.0588 89.0457 12.9932 89.2963C12.9275 89.547 12.8084 89.7805 12.6449 89.9813C12.2234 90.3312 11.6946 90.5246 11.1472 90.529L0.994248 91.2437V91.1245V90.2906C0.965496 90.124 0.97188 89.9535 1.01282 89.7894C1.05377 89.6254 1.1286 89.4716 1.23225 89.3382C1.5321 89.1299 1.89027 89.0218 2.25509 89.0288L10.7675 88.4334C10.9667 88.4375 11.1607 88.3697 11.3144 88.2427C11.3858 88.1727 11.4385 88.0861 11.4676 87.9903C11.4967 87.8946 11.5008 87.7929 11.4804 87.6949L11.362 87.1949Z" fill="white"/>
<path d="M2.37128 85.2413C2.0694 85.2507 1.76883 85.1937 1.49125 85.0744C1.41412 84.9241 1.35853 84.7639 1.32523 84.5982C1.31347 84.392 1.31347 84.1852 1.32523 83.9789C1.31531 83.7806 1.31531 83.5819 1.32523 83.3835C1.35473 83.2168 1.41052 83.0561 1.49125 82.9073L1.91966 82.7881C2.06943 82.7659 2.22151 82.7659 2.37128 82.7881C2.66526 82.7814 2.9569 82.8384 3.22694 82.955C3.30767 83.1037 3.36462 83.2645 3.39412 83.4312C3.4169 83.637 3.4169 83.8447 3.39412 84.0505C3.41671 84.2483 3.41671 84.4481 3.39412 84.6459C3.36462 84.8126 3.30767 84.9734 3.22694 85.1221C2.9562 85.2335 2.66207 85.2745 2.37128 85.2413ZM12.905 82.5735V83.098C12.905 83.2885 12.905 83.4791 12.905 83.6696C12.905 83.8601 12.905 84.0506 12.905 84.2412V84.7651H7.10351C6.87215 84.7422 6.63878 84.7923 6.4371 84.9081C6.3507 84.9794 6.28361 85.071 6.24205 85.175C6.20049 85.2791 6.18558 85.3923 6.19909 85.5036V85.7175C5.94678 85.754 5.69096 85.754 5.43864 85.7175H5.05783C4.92404 85.7402 4.78759 85.7402 4.65381 85.7175C4.64117 85.4875 4.64117 85.2568 4.65381 85.0268C4.64374 84.8364 4.64374 84.6456 4.65381 84.4552V84.1458C4.64728 83.9323 4.68674 83.7196 4.76874 83.5225C4.85075 83.3253 4.97389 83.1483 5.12982 83.0026C5.48013 82.7044 5.93028 82.5506 6.3895 82.5735H12.905Z" fill="white"/>
<path d="M3.70277 78.8587C3.34058 78.8723 2.98596 78.7535 2.70431 78.525C2.60126 78.3958 2.52703 78.2467 2.48604 78.0865C2.44505 77.9264 2.438 77.7592 2.46631 77.5963V76.7625H2.58473L10.8835 77.4295C11.0682 77.4948 11.269 77.4948 11.4536 77.4295C11.5311 77.3666 11.5934 77.2867 11.6347 77.1957C11.676 77.1048 11.6953 77.0054 11.6916 76.9056V75.8816C12.0459 75.8229 12.4078 75.8229 12.762 75.8816H13H13.2369C13.2369 76.1674 13.2369 76.5006 13.2369 76.8579C13.2369 77.2151 13.2369 77.5723 13.2369 77.9057C13.2477 78.1806 13.1957 78.4547 13.0836 78.7058C12.9716 78.9569 12.8031 79.1784 12.5914 79.3536C12.3796 79.5288 12.1308 79.653 11.8634 79.7158C11.5961 79.7787 11.317 79.7784 11.0496 79.7158L3.70277 78.8587ZM5.20046 74.8332C5.46147 74.8095 5.72427 74.8095 5.98529 74.8332C6.25197 74.8609 6.51517 74.917 6.77012 75.0001L6.48452 77.9295L6.34172 80.3113C6.0735 80.3481 5.80188 80.3481 5.53366 80.3113L4.77321 80.1682L5.03443 77.6202L5.20046 74.8332Z" fill="white"/>
<path d="M14.2133 68.8086C14.8828 69.1271 15.5205 69.51 16.1162 69.9517C16.5989 70.3244 16.9759 70.8167 17.2098 71.3804C17.3968 72.0261 17.3968 72.7118 17.2098 73.3574C17.1334 73.6803 17.0378 73.9982 16.9242 74.3099C16.8328 74.5836 16.7135 74.8471 16.5678 75.0961C16.2863 75.0655 16.0118 74.9846 15.7586 74.8577C15.5137 74.7351 15.2954 74.5652 15.1166 74.3576C15.1166 74.2147 15.2838 74.0242 15.379 73.786C15.4937 73.5528 15.5729 73.3039 15.6158 73.0475C15.6895 72.7746 15.6895 72.4872 15.6158 72.2143C15.5196 71.9467 15.3565 71.7086 15.141 71.5235C14.9014 71.3111 14.6379 71.1273 14.3561 70.9757H14.1425C14.0758 71.3108 13.9382 71.6273 13.7385 71.9043C13.6344 72.0231 13.5057 72.1183 13.3623 72.184C13.2189 72.2497 13.0637 72.2847 12.906 72.2858L5.41643 73.0004C5.41643 72.7622 5.41643 72.5001 5.41643 72.2619C5.40286 72.0478 5.40286 71.833 5.41643 71.6188C5.45475 71.3929 5.56258 71.1846 5.72526 71.0234C5.951 70.8327 6.23808 70.7308 6.53331 70.7373L10.1719 70.4518H10.9323H12.5252C12.5252 70.4518 12.6442 70.4517 12.668 70.3326L6.34291 67.4985C6.33089 67.3559 6.33089 67.212 6.34291 67.0694V66.617C6.36781 66.4215 6.41584 66.2296 6.48571 66.0454C6.53599 65.8628 6.60746 65.687 6.69934 65.5215H6.84214L14.2133 68.8086Z" fill="white"/>
<path d="M8.60569 54.232C8.57935 54.0503 8.57935 53.8659 8.60569 53.6842C8.65594 53.4602 8.73614 53.2439 8.8437 53.0411C8.92739 52.8705 9.03088 52.7107 9.15252 52.5649L10.0802 52.9696C10.448 53.1174 10.7916 53.318 11.1018 53.565L12.0295 54.2796C12.0704 54.3377 12.0964 54.4051 12.1049 54.4756C12.1135 54.5461 12.1042 54.6176 12.0782 54.6838C12.0523 54.7499 12.0105 54.8083 11.9563 54.8541C11.9022 54.9 11.8377 54.932 11.7683 54.9466L10.6026 54.8274C10.2138 54.7822 9.83107 54.694 9.46135 54.5652L8.60569 54.232ZM10.6746 57.9476C10.4947 57.8889 10.326 57.8001 10.1754 57.6853C9.98288 57.556 9.80015 57.4129 9.62853 57.2568C9.48546 57.1177 9.36418 56.9571 9.27095 56.7806L9.93736 56.0421C10.2043 55.743 10.5076 55.4788 10.8406 55.2559L11.8159 54.589C11.875 54.5596 11.9403 54.5448 12.0063 54.5448C12.0723 54.5448 12.1364 54.5596 12.1955 54.589L12.3151 54.732C12.3386 54.8015 12.3386 54.8771 12.3151 54.9466L11.8635 56.0421C11.7056 56.4031 11.4969 56.7397 11.2446 57.0422L10.6746 57.9476ZM11.5302 51.1356C11.7113 51.1058 11.896 51.1058 12.0771 51.1356C12.3063 51.1119 12.5375 51.1119 12.7667 51.1356C12.955 51.169 13.1386 51.2251 13.3135 51.3025V52.3026C13.2832 52.6946 13.1954 53.0798 13.0523 53.4458L12.6471 54.5419C12.6096 54.6022 12.5576 54.6515 12.495 54.6849C12.4324 54.7184 12.3616 54.7344 12.2907 54.732C12.2247 54.7267 12.1613 54.7068 12.1038 54.6739C12.0463 54.641 11.9968 54.5962 11.9587 54.5419C11.9587 54.1608 11.7914 53.7792 11.6963 53.3743C11.6628 52.986 11.6628 52.5956 11.6963 52.2073L11.5302 51.1356ZM14.8112 57.1376C14.7046 57.2903 14.5761 57.4264 14.4304 57.5423C14.2465 57.6837 14.0471 57.8039 13.836 57.8999C13.6765 58.0035 13.4997 58.0764 13.3135 58.1145L12.7899 57.2568C12.5967 56.9107 12.4452 56.5431 12.3383 56.1613C12.2194 55.7564 12.1008 55.3754 11.9819 55.042C11.9882 54.9701 12.011 54.9003 12.0481 54.8384C12.0851 54.7766 12.1351 54.7238 12.1955 54.6844C12.2567 54.6604 12.3247 54.6604 12.3859 54.6844H12.6007C12.8622 54.9463 13.1705 55.2085 13.4796 55.4705C13.766 55.7429 14.022 56.0462 14.2412 56.3753L14.8112 57.1376ZM15.3348 52.9457C15.4506 53.0958 15.5388 53.265 15.5961 53.4458C15.6735 53.6638 15.7372 53.8867 15.7865 54.1128C15.8094 54.3026 15.8094 54.4945 15.7865 54.6844L14.788 54.8989C14.4044 54.9763 14.0137 55.0163 13.6224 55.0181H12.4335C12.3706 54.9944 12.3141 54.9561 12.2686 54.9065C12.2232 54.8568 12.1904 54.7969 12.1723 54.732C12.1487 54.6625 12.1487 54.5876 12.1723 54.5181C12.1595 54.4552 12.1595 54.3902 12.1723 54.3273L13.1951 53.7557C13.528 53.5481 13.8874 53.3879 14.2644 53.2795L15.3348 52.9457Z" fill="white"/>
<path d="M86.4957 76.2148L87.2805 76.5957L108.966 87.3135L111.343 88.4334C111.864 88.6655 112.406 88.8488 112.961 88.9811C113.662 89.1955 114.377 89.3625 115.1 89.4812C117.542 90.4832 119.731 92.0156 121.51 93.9678C123.289 95.9201 124.614 98.2435 125.388 100.771C126.162 103.297 126.367 105.965 125.987 108.581C125.607 111.197 124.653 113.695 123.193 115.897C121.732 118.099 119.802 119.948 117.542 121.312C115.282 122.676 112.746 123.52 110.121 123.784C107.495 124.048 104.844 123.725 102.358 122.839C99.8724 121.952 97.6136 120.524 95.7454 118.657C94.06 116.973 92.7331 114.964 91.8456 112.751C91.8456 112.751 91.5371 111.274 91.3231 110.583C91.1091 109.892 90.9903 109.487 90.7763 108.964L89.6106 106.582L78.9109 84.8608L78.5312 84.0746" stroke="white" stroke-width="3" stroke-linejoin="round"/>
</svg>
